<svg width="120" height="120" viewBox="0 0 120 120" fill="none" xmlns="http://www.w3.org/2000/svg">
<g clip-path="url(#clip0_86_3525)">
<rect width="120" height="120" rx="60" fill="white"/>
<g opacity="0.3">
<g filter="url(#filter0_f_86_3525)">
<ellipse cx="96.5" cy="41" rx="31.5" ry="32" fill="#FF8989"/>
</g>
<g filter="url(#filter1_f_86_3525)">
<circle cx="44" cy="60" r="44" fill="#E53617"/>
</g>
<g filter="url(#filter2_f_86_3525)">
<ellipse cx="74.5" cy="84.5" rx="34.5" ry="35.5" fill="#5454FD"/>
</g>
</g>
<path d="M51.8561 42.44L47.9361 53H45.9361L42.0161 42.44H43.8401L46.3041 49.464L46.9441 51.56L47.5841 49.48L50.0481 42.44H51.8561ZM54.4029 43.656C54.0296 43.656 53.7416 43.5653 53.5389 43.384C53.3469 43.192 53.2509 42.9253 53.2509 42.584C53.2509 42.2427 53.3469 41.9813 53.5389 41.8C53.7416 41.6187 54.0296 41.528 54.4029 41.528C54.7656 41.528 55.0429 41.6187 55.2349 41.8C55.4376 41.9813 55.5389 42.2427 55.5389 42.584C55.5389 42.9253 55.4376 43.192 55.2349 43.384C55.0429 43.5653 54.7656 43.656 54.4029 43.656ZM55.2509 45V53H53.5389V45H55.2509ZM61.4496 53.16C60.6496 53.16 59.9456 52.9947 59.3376 52.664C58.7296 52.3333 58.2549 51.8587 57.9136 51.24C57.5829 50.6107 57.4176 49.864 57.4176 49C57.4176 48.136 57.5829 47.3947 57.9136 46.776C58.2549 46.1467 58.7242 45.6667 59.3216 45.336C59.9189 45.0053 60.5962 44.84 61.3536 44.84C62.1322 44.84 62.7936 45 63.3376 45.32C63.8816 45.64 64.2976 46.0773 64.5856 46.632C64.8736 47.1867 65.0176 47.816 65.0176 48.52C65.0176 48.712 65.0122 48.8933 65.0016 49.064C64.9909 49.2347 64.9749 49.384 64.9536 49.512H58.5216V48.2H64.2016L63.3536 48.456C63.3536 47.7307 63.1722 47.176 62.8096 46.792C62.4469 46.3973 61.9509 46.2 61.3216 46.2C60.8629 46.2 60.4629 46.3067 60.1216 46.52C59.7802 46.7333 59.5189 47.0533 59.3376 47.48C59.1562 47.896 59.0656 48.408 59.0656 49.016C59.0656 49.6133 59.1616 50.12 59.3536 50.536C59.5456 50.952 59.8176 51.2667 60.1696 51.48C60.5216 51.6933 60.9376 51.8 61.4176 51.8C61.9509 51.8 62.3829 51.6987 62.7136 51.496C63.0442 51.2933 63.3056 51.0107 63.4976 50.648L64.8576 51.288C64.6656 51.672 64.4042 52.008 64.0736 52.296C63.7536 52.5733 63.3696 52.7867 62.9216 52.936C62.4736 53.0853 61.9829 53.16 61.4496 53.16ZM77.1524 45H79.0084L76.3204 53H74.4484L72.4324 47.064L70.5284 53H68.6564L65.9844 45H67.8244L69.6484 51.32L71.6324 45H73.3444L75.3284 51.32L77.1524 45ZM22.9481 68.84C23.5881 68.84 24.1321 68.936 24.5801 69.128C25.0387 69.3093 25.4227 69.5707 25.7321 69.912C26.0414 70.2533 26.2761 70.6427 26.4361 71.08L24.8201 71.72C24.6814 71.2293 24.4574 70.856 24.1481 70.6C23.8494 70.3333 23.4547 70.2 22.9641 70.2C22.4841 70.2 22.0734 70.312 21.7321 70.536C21.3907 70.7493 21.1294 71.064 20.9481 71.48C20.7774 71.896 20.6921 72.408 20.6921 73.016C20.6921 73.6133 20.7827 74.12 20.9641 74.536C21.1454 74.952 21.4067 75.2667 21.7481 75.48C22.0894 75.6933 22.4947 75.8 22.9641 75.8C23.3267 75.8 23.6414 75.7413 23.9081 75.624C24.1747 75.496 24.3934 75.32 24.5641 75.096C24.7454 74.8613 24.8681 74.5787 24.9321 74.248L26.4841 74.776C26.3347 75.256 26.1001 75.6773 25.7801 76.04C25.4707 76.392 25.0814 76.6693 24.6121 76.872C24.1427 77.064 23.6041 77.16 22.9961 77.16C22.2067 77.16 21.5081 76.9947 20.9001 76.664C20.2921 76.3333 19.8174 75.8587 19.4761 75.24C19.1454 74.6107 18.9801 73.864 18.9801 73C18.9801 72.136 19.1454 71.3947 19.4761 70.776C19.8174 70.1467 20.2867 69.6667 20.8841 69.336C21.4921 69.0053 22.1801 68.84 22.9481 68.84ZM33.1004 71.864C33.1004 71.3307 32.9511 70.92 32.6524 70.632C32.3644 70.3333 31.9644 70.184 31.4524 70.184C30.9724 70.184 30.5618 70.296 30.2204 70.52C29.8791 70.744 29.6284 71.1067 29.4684 71.608L28.0284 71C28.2311 70.3493 28.6258 69.8267 29.2124 69.432C29.8098 69.0373 30.5778 68.84 31.5164 68.84C32.1564 68.84 32.7218 68.9467 33.2124 69.16C33.7031 69.3627 34.0871 69.672 34.3644 70.088C34.6524 70.504 34.7964 71.0373 34.7964 71.688V75.256C34.7964 75.6507 34.9938 75.848 35.3884 75.848C35.5804 75.848 35.7671 75.8213 35.9484 75.768L35.8524 76.952C35.6071 77.0693 35.2978 77.128 34.9244 77.128C34.5831 77.128 34.2738 77.0693 33.9964 76.952C33.7298 76.824 33.5164 76.6373 33.3564 76.392C33.2071 76.136 33.1324 75.8213 33.1324 75.448V75.336L33.4844 75.32C33.3884 75.736 33.1911 76.0827 32.8924 76.36C32.5938 76.6267 32.2471 76.8293 31.8524 76.968C31.4578 77.096 31.0578 77.16 30.6524 77.16C30.1511 77.16 29.6978 77.08 29.2924 76.92C28.8978 76.76 28.5831 76.52 28.3484 76.2C28.1244 75.8693 28.0124 75.464 28.0124 74.984C28.0124 74.3867 28.2044 73.896 28.5884 73.512C28.9831 73.128 29.5378 72.8667 30.2524 72.728L33.3564 72.12L33.3404 73.32L31.0844 73.784C30.6364 73.8693 30.3004 73.992 30.0764 74.152C29.8524 74.312 29.7404 74.5467 29.7404 74.856C29.7404 75.1547 29.8524 75.3947 30.0764 75.576C30.3111 75.7467 30.6204 75.832 31.0044 75.832C31.2711 75.832 31.5271 75.8 31.7724 75.736C32.0284 75.672 32.2578 75.5707 32.4604 75.432C32.6631 75.2827 32.8178 75.096 32.9244 74.872C33.0418 74.6373 33.1004 74.36 33.1004 74.04V71.864ZM40.6414 77.16C39.8414 77.16 39.1108 77.0053 38.4494 76.696C37.7881 76.3867 37.2654 75.9493 36.8814 75.384L38.0654 74.36C38.3001 74.7973 38.6361 75.1493 39.0734 75.416C39.5214 75.672 40.0548 75.8 40.6734 75.8C41.1641 75.8 41.5534 75.7147 41.8414 75.544C42.1294 75.3733 42.2734 75.1333 42.2734 74.824C42.2734 74.6213 42.2041 74.4453 42.0654 74.296C41.9374 74.136 41.6868 74.0133 41.3134 73.928L39.6334 73.576C38.7801 73.4053 38.1721 73.1333 37.8094 72.76C37.4468 72.376 37.2654 71.8907 37.2654 71.304C37.2654 70.8667 37.3934 70.4613 37.6494 70.088C37.9054 69.7147 38.2788 69.416 38.7694 69.192C39.2708 68.9573 39.8681 68.84 40.5614 68.84C41.3614 68.84 42.0441 68.984 42.6094 69.272C43.1748 69.5493 43.6068 69.9493 43.9054 70.472L42.7214 71.464C42.5188 71.0373 42.2201 70.7227 41.8254 70.52C41.4308 70.3067 41.0201 70.2 40.5934 70.2C40.2521 70.2 39.9588 70.2427 39.7134 70.328C39.4681 70.4133 39.2814 70.5307 39.1534 70.68C39.0254 70.8293 38.9614 71.0053 38.9614 71.208C38.9614 71.4213 39.0414 71.608 39.2014 71.768C39.3614 71.928 39.6494 72.0507 40.0654 72.136L41.8894 72.52C42.6574 72.6693 43.1961 72.9253 43.5054 73.288C43.8254 73.64 43.9854 74.072 43.9854 74.584C43.9854 75.096 43.8521 75.5493 43.5854 75.944C43.3188 76.328 42.9348 76.6267 42.4334 76.84C41.9321 77.0533 41.3348 77.16 40.6414 77.16ZM49.5746 77.16C48.7746 77.16 48.0706 76.9947 47.4626 76.664C46.8546 76.3333 46.3799 75.8587 46.0386 75.24C45.7079 74.6107 45.5426 73.864 45.5426 73C45.5426 72.136 45.7079 71.3947 46.0386 70.776C46.3799 70.1467 46.8492 69.6667 47.4466 69.336C48.0439 69.0053 48.7212 68.84 49.4786 68.84C50.2572 68.84 50.9186 69 51.4626 69.32C52.0066 69.64 52.4226 70.0773 52.7106 70.632C52.9986 71.1867 53.1426 71.816 53.1426 72.52C53.1426 72.712 53.1372 72.8933 53.1266 73.064C53.1159 73.2347 53.0999 73.384 53.0786 73.512H46.6466V72.2H52.3266L51.4786 72.456C51.4786 71.7307 51.2972 71.176 50.9346 70.792C50.5719 70.3973 50.0759 70.2 49.4466 70.2C48.9879 70.2 48.5879 70.3067 48.2466 70.52C47.9052 70.7333 47.6439 71.0533 47.4626 71.48C47.2812 71.896 47.1906 72.408 47.1906 73.016C47.1906 73.6133 47.2866 74.12 47.4786 74.536C47.6706 74.952 47.9426 75.2667 48.2946 75.48C48.6466 75.6933 49.0626 75.8 49.5426 75.8C50.0759 75.8 50.5079 75.6987 50.8386 75.496C51.1692 75.2933 51.4306 75.0107 51.6226 74.648L52.9826 75.288C52.7906 75.672 52.5292 76.008 52.1986 76.296C51.8786 76.5733 51.4946 76.7867 51.0466 76.936C50.5986 77.0853 50.1079 77.16 49.5746 77.16ZM63.5477 77.16C62.7477 77.16 62.017 77.0053 61.3557 76.696C60.6944 76.3867 60.1717 75.9493 59.7877 75.384L60.9717 74.36C61.2064 74.7973 61.5424 75.1493 61.9797 75.416C62.4277 75.672 62.961 75.8 63.5797 75.8C64.0704 75.8 64.4597 75.7147 64.7477 75.544C65.0357 75.3733 65.1797 75.1333 65.1797 74.824C65.1797 74.6213 65.1104 74.4453 64.9717 74.296C64.8437 74.136 64.593 74.0133 64.2197 73.928L62.5397 73.576C61.6864 73.4053 61.0784 73.1333 60.7157 72.76C60.353 72.376 60.1717 71.8907 60.1717 71.304C60.1717 70.8667 60.2997 70.4613 60.5557 70.088C60.8117 69.7147 61.185 69.416 61.6757 69.192C62.177 68.9573 62.7744 68.84 63.4677 68.84C64.2677 68.84 64.9504 68.984 65.5157 69.272C66.081 69.5493 66.513 69.9493 66.8117 70.472L65.6277 71.464C65.425 71.0373 65.1264 70.7227 64.7317 70.52C64.337 70.3067 63.9264 70.2 63.4997 70.2C63.1584 70.2 62.865 70.2427 62.6197 70.328C62.3744 70.4133 62.1877 70.5307 62.0597 70.68C61.9317 70.8293 61.8677 71.0053 61.8677 71.208C61.8677 71.4213 61.9477 71.608 62.1077 71.768C62.2677 71.928 62.5557 72.0507 62.9717 72.136L64.7957 72.52C65.5637 72.6693 66.1024 72.9253 66.4117 73.288C66.7317 73.64 66.8917 74.072 66.8917 74.584C66.8917 75.096 66.7584 75.5493 66.4917 75.944C66.225 76.328 65.841 76.6267 65.3397 76.84C64.8384 77.0533 64.241 77.16 63.5477 77.16ZM71.3124 66.648V74.6C71.3124 74.9947 71.4138 75.2827 71.6164 75.464C71.8298 75.6453 72.1124 75.736 72.4644 75.736C72.7524 75.736 73.0031 75.6933 73.2164 75.608C73.4298 75.512 73.6271 75.384 73.8084 75.224L74.1924 76.472C73.9471 76.6853 73.6431 76.856 73.2804 76.984C72.9284 77.1013 72.5338 77.16 72.0964 77.16C71.6378 77.16 71.2164 77.0853 70.8324 76.936C70.4484 76.7867 70.1498 76.5467 69.9364 76.216C69.7231 75.8747 69.6111 75.432 69.6004 74.888V67.128L71.3124 66.648ZM74.0644 69V70.344H68.0644V69H74.0644ZM78.6057 77.16C78.083 77.16 77.5977 77.064 77.1497 76.872C76.7124 76.68 76.3604 76.3707 76.0937 75.944C75.827 75.5173 75.6937 74.9627 75.6937 74.28V69H77.4057V73.848C77.4057 74.5733 77.5604 75.0747 77.8697 75.352C78.179 75.6187 78.611 75.752 79.1657 75.752C79.4324 75.752 79.6884 75.7093 79.9337 75.624C80.1897 75.528 80.419 75.384 80.6217 75.192C80.8244 74.9893 80.979 74.7333 81.0857 74.424C81.203 74.1147 81.2617 73.752 81.2617 73.336V69H82.9737V77H81.4697L81.3897 75.704C81.1124 76.2053 80.739 76.5733 80.2697 76.808C79.8004 77.0427 79.2457 77.16 78.6057 77.16ZM88.7203 77.16C88.059 77.16 87.4563 76.9947 86.9123 76.664C86.379 76.3333 85.9576 75.8587 85.6483 75.24C85.339 74.6213 85.1843 73.88 85.1843 73.016C85.1843 72.12 85.3496 71.3627 85.6803 70.744C86.011 70.1253 86.4536 69.656 87.0083 69.336C87.563 69.0053 88.171 68.84 88.8323 68.84C89.515 68.84 90.091 69.0267 90.5603 69.4C91.0296 69.7733 91.3443 70.2587 91.5043 70.856L91.3123 71.032V65.4H93.0243V77H91.5043L91.3763 74.824L91.6003 74.84C91.5256 75.32 91.3496 75.736 91.0723 76.088C90.795 76.4293 90.4483 76.696 90.0323 76.888C89.627 77.0693 89.1896 77.16 88.7203 77.16ZM89.0883 75.784C89.547 75.784 89.9416 75.6667 90.2723 75.432C90.603 75.1973 90.859 74.8667 91.0403 74.44C91.2216 74.0133 91.3123 73.5013 91.3123 72.904C91.3123 72.3493 91.2216 71.8747 91.0403 71.48C90.859 71.0747 90.603 70.7653 90.2723 70.552C89.9523 70.3387 89.579 70.232 89.1523 70.232C88.4376 70.232 87.883 70.4773 87.4883 70.968C87.0936 71.4587 86.8963 72.136 86.8963 73C86.8963 73.864 87.0883 74.5467 87.4723 75.048C87.8563 75.5387 88.395 75.784 89.0883 75.784ZM102.704 69L99.1996 77.944C98.9649 78.5627 98.7089 79.0533 98.4316 79.416C98.1649 79.7787 97.8556 80.04 97.5036 80.2C97.1516 80.36 96.7409 80.44 96.2716 80.44C95.8876 80.44 95.5302 80.3867 95.1996 80.28C94.8796 80.184 94.5969 80.0507 94.3516 79.88L94.7676 78.552C94.9702 78.7227 95.1836 78.8507 95.4076 78.936C95.6422 79.0213 95.8929 79.064 96.1596 79.064C96.4476 79.064 96.7036 78.984 96.9276 78.824C97.1622 78.6747 97.3702 78.3707 97.5516 77.912L97.9036 77.048L97.0556 75.064L94.5596 69H96.4796L98.2556 74.024L98.7196 75.528L99.2476 73.88L100.928 69H102.704Z" fill="#0F0E0E"/>
</g>
<defs>
<filter id="filter0_f_86_3525" x="15" y="-41" width="163" height="164" filterUnits="userSpaceOnUse" color-interpolation-filters="sRGB">
<feFlood flood-opacity="0" result="BackgroundImageFix"/>
<feBlend mode="normal" in="SourceGraphic" in2="BackgroundImageFix" result="shape"/>
<feGaussianBlur stdDeviation="25" result="effect1_foregroundBlur_86_3525"/>
</filter>
<filter id="filter1_f_86_3525" x="-50" y="-34" width="188" height="188" filterUnits="userSpaceOnUse" color-interpolation-filters="sRGB">
<feFlood flood-opacity="0" result="BackgroundImageFix"/>
<feBlend mode="normal" in="SourceGraphic" in2="BackgroundImageFix" result="shape"/>
<feGaussianBlur stdDeviation="25" result="effect1_foregroundBlur_86_3525"/>
</filter>
<filter id="filter2_f_86_3525" x="-10" y="-1" width="169" height="171" filterUnits="userSpaceOnUse" color-interpolation-filters="sRGB">
<feFlood flood-opacity="0" result="BackgroundImageFix"/>
<feBlend mode="normal" in="SourceGraphic" in2="BackgroundImageFix" result="shape"/>
<feGaussianBlur stdDeviation="25" result="effect1_foregroundBlur_86_3525"/>
</filter>
<clipPath id="clip0_86_3525">
<rect width="120" height="120" rx="60" fill="white"/>
</clipPath>
</defs>
</svg>
