<svg width="120" height="120" viewBox="0 0 120 120" fill="none" xmlns="http://www.w3.org/2000/svg">
<g clip-path="url(#clip0_1638_1406)">
<rect width="120" height="120" rx="60" fill="white"/>
<g opacity="0.3" filter="url(#filter0_f_1638_1406)">
<ellipse cx="92.5" cy="37" rx="31.5" ry="32" fill="#FF8989"/>
</g>
<g opacity="0.3" filter="url(#filter1_f_1638_1406)">
<circle cx="40" cy="56" r="44" fill="#E53617"/>
</g>
<g opacity="0.3" filter="url(#filter2_f_1638_1406)">
<ellipse cx="70.5" cy="80.5" rx="34.5" ry="35.5" fill="#5454FD"/>
</g>
<path d="M40.9919 51.2C40.7785 51.84 40.4585 52.384 40.0319 52.832C39.6052 53.2693 39.1039 53.6 38.5279 53.824C37.9519 54.048 37.3172 54.16 36.6239 54.16C35.6105 54.16 34.7305 53.9413 33.9839 53.504C33.2372 53.0667 32.6612 52.4427 32.2559 51.632C31.8505 50.8213 31.6479 49.8507 31.6479 48.72C31.6479 47.5893 31.8505 46.6187 32.2559 45.808C32.6612 44.9973 33.2372 44.3733 33.9839 43.936C34.7305 43.4987 35.6052 43.28 36.6079 43.28C37.3012 43.28 37.9252 43.376 38.4799 43.568C39.0452 43.76 39.5252 44.048 39.9199 44.432C40.3145 44.816 40.6185 45.296 40.8319 45.872L39.2159 46.592C39.0025 45.9627 38.6932 45.504 38.2879 45.216C37.8825 44.9173 37.3545 44.768 36.7039 44.768C36.0532 44.768 35.4825 44.9227 34.9919 45.232C34.5012 45.5413 34.1172 45.9893 33.8399 46.576C33.5732 47.1627 33.4399 47.8773 33.4399 48.72C33.4399 49.552 33.5679 50.2667 33.8239 50.864C34.0799 51.4507 34.4479 51.8987 34.9279 52.208C35.4079 52.5173 35.9839 52.672 36.6559 52.672C37.3065 52.672 37.8665 52.5067 38.3359 52.176C38.8159 51.8347 39.1572 51.328 39.3599 50.656L40.9919 51.2ZM46.4094 45.84C47.188 45.84 47.876 46.0053 48.4734 46.336C49.0707 46.6667 49.5347 47.1467 49.8654 47.776C50.2067 48.3947 50.3774 49.136 50.3774 50C50.3774 50.864 50.2067 51.6107 49.8654 52.24C49.5347 52.8587 49.0707 53.3333 48.4734 53.664C47.876 53.9947 47.188 54.16 46.4094 54.16C45.6307 54.16 44.9427 53.9947 44.3454 53.664C43.748 53.3333 43.2787 52.8587 42.9374 52.24C42.596 51.6107 42.4254 50.864 42.4254 50C42.4254 49.136 42.596 48.3947 42.9374 47.776C43.2787 47.1467 43.748 46.6667 44.3454 46.336C44.9427 46.0053 45.6307 45.84 46.4094 45.84ZM46.4094 47.184C45.9294 47.184 45.5187 47.296 45.1774 47.52C44.8467 47.7333 44.5907 48.048 44.4094 48.464C44.228 48.88 44.1374 49.392 44.1374 50C44.1374 50.5973 44.228 51.1093 44.4094 51.536C44.5907 51.952 44.8467 52.272 45.1774 52.496C45.5187 52.7093 45.9294 52.816 46.4094 52.816C46.8894 52.816 47.2947 52.7093 47.6254 52.496C47.956 52.272 48.212 51.952 48.3934 51.536C48.5747 51.1093 48.6654 50.5973 48.6654 50C48.6654 49.392 48.5747 48.88 48.3934 48.464C48.212 48.048 47.956 47.7333 47.6254 47.52C47.2947 47.296 46.8894 47.184 46.4094 47.184ZM52.5311 54V46H54.0511L54.1311 47.344C54.4085 46.832 54.7765 46.4533 55.2351 46.208C55.7045 45.9627 56.2005 45.84 56.7231 45.84C57.2991 45.84 57.8271 45.9733 58.3071 46.24C58.7978 46.496 59.1658 46.8853 59.4111 47.408C59.5818 47.056 59.8165 46.7627 60.1151 46.528C60.4138 46.2933 60.7445 46.1227 61.1071 46.016C61.4698 45.8987 61.8271 45.84 62.1791 45.84C62.6911 45.84 63.1711 45.9467 63.6191 46.16C64.0671 46.3733 64.4298 46.6987 64.7071 47.136C64.9845 47.5733 65.1231 48.1333 65.1231 48.816V54H63.4111V49.088C63.4111 48.4373 63.2565 47.968 62.9471 47.68C62.6378 47.392 62.2431 47.248 61.7631 47.248C61.3898 47.248 61.0431 47.3387 60.7231 47.52C60.4138 47.7013 60.1631 47.9733 59.9711 48.336C59.7791 48.688 59.6831 49.1253 59.6831 49.648V54H57.9711V49.088C57.9711 48.4373 57.8165 47.968 57.5071 47.68C57.1978 47.392 56.8031 47.248 56.3231 47.248C56.0031 47.248 55.6831 47.3333 55.3631 47.504C55.0431 47.6747 54.7765 47.9413 54.5631 48.304C54.3498 48.6667 54.2431 49.1467 54.2431 49.744V54H52.5311ZM68.5826 44.656C68.2093 44.656 67.9213 44.5653 67.7186 44.384C67.5266 44.192 67.4306 43.9253 67.4306 43.584C67.4306 43.2427 67.5266 42.9813 67.7186 42.8C67.9213 42.6187 68.2093 42.528 68.5826 42.528C68.9453 42.528 69.2226 42.6187 69.4146 42.8C69.6173 42.9813 69.7186 43.2427 69.7186 43.584C69.7186 43.9253 69.6173 44.192 69.4146 44.384C69.2226 44.5653 68.9453 44.656 68.5826 44.656ZM69.4306 46V54H67.7186V46H69.4306ZM72.1093 54V46H73.6293L73.7413 48.08L73.5173 47.856C73.6666 47.3973 73.8799 47.0187 74.1573 46.72C74.4453 46.4107 74.7813 46.1867 75.1653 46.048C75.5599 45.9093 75.9759 45.84 76.4133 45.84C76.9786 45.84 77.4853 45.952 77.9333 46.176C78.3919 46.3893 78.7546 46.7147 79.0213 47.152C79.2879 47.5893 79.4213 48.144 79.4213 48.816V54H77.7093V49.344C77.7093 48.5547 77.5439 48.0107 77.2133 47.712C76.8933 47.4027 76.4879 47.248 75.9973 47.248C75.6453 47.248 75.3039 47.3333 74.9733 47.504C74.6426 47.664 74.3653 47.9253 74.1413 48.288C73.9279 48.6507 73.8213 49.136 73.8213 49.744V54H72.1093ZM89.0555 44.32L89.3275 45.664C89.2955 45.664 89.2635 45.664 89.2315 45.664C89.1995 45.6533 89.1675 45.648 89.1355 45.648C88.6235 45.648 88.2342 45.76 87.9675 45.984C87.7008 46.1973 87.5675 46.512 87.5675 46.928L86.7355 46.544C86.7355 46.1173 86.8262 45.7387 87.0075 45.408C87.1888 45.0667 87.4448 44.8 87.7755 44.608C88.1168 44.416 88.5008 44.32 88.9275 44.32C88.9488 44.32 88.9702 44.32 88.9915 44.32C89.0128 44.32 89.0342 44.32 89.0555 44.32ZM86.5275 52.752C87.3382 52.752 87.9675 52.9333 88.4155 53.296C88.8635 53.648 89.0875 54.1387 89.0875 54.768C89.0875 55.3227 88.9115 55.7973 88.5595 56.192C88.2075 56.5973 87.7275 56.9067 87.1195 57.12C86.5222 57.3333 85.8342 57.44 85.0555 57.44C83.7435 57.44 82.7728 57.2373 82.1435 56.832C81.5142 56.4267 81.1995 55.92 81.1995 55.312C81.1995 54.8853 81.3488 54.512 81.6475 54.192C81.9568 53.872 82.4742 53.6907 83.1995 53.648L83.1035 53.904C82.6555 53.808 82.2928 53.6373 82.0155 53.392C81.7488 53.136 81.6155 52.7787 81.6155 52.32C81.6155 51.8613 81.7915 51.472 82.1435 51.152C82.4955 50.832 82.9915 50.6453 83.6315 50.592L84.5275 51.024H84.3355C83.8448 51.0667 83.4982 51.1787 83.2955 51.36C83.0928 51.5413 82.9915 51.744 82.9915 51.968C82.9915 52.2347 83.0875 52.432 83.2795 52.56C83.4822 52.688 83.7648 52.752 84.1275 52.752H86.5275ZM85.0555 56.16C85.6422 56.16 86.1222 56.1013 86.4955 55.984C86.8795 55.8773 87.1622 55.7333 87.3435 55.552C87.5355 55.3813 87.6315 55.1893 87.6315 54.976C87.6315 54.7307 87.5302 54.5333 87.3275 54.384C87.1355 54.2347 86.7835 54.16 86.2715 54.16H83.6955C83.3968 54.16 83.1462 54.2347 82.9435 54.384C82.7408 54.544 82.6395 54.7573 82.6395 55.024C82.6395 55.376 82.8528 55.6533 83.2795 55.856C83.7062 56.0587 84.2982 56.16 85.0555 56.16ZM84.9915 45.84C85.6955 45.84 86.3035 45.952 86.8155 46.176C87.3382 46.4 87.7382 46.7147 88.0155 47.12C88.3035 47.5253 88.4475 48 88.4475 48.544C88.4475 49.088 88.3035 49.5627 88.0155 49.968C87.7382 50.3733 87.3382 50.688 86.8155 50.912C86.3035 51.136 85.6955 51.248 84.9915 51.248C83.8822 51.248 83.0288 51.0027 82.4315 50.512C81.8448 50.0107 81.5515 49.3547 81.5515 48.544C81.5515 48 81.6955 47.5253 81.9835 47.12C82.2715 46.7147 82.6715 46.4 83.1835 46.176C83.7062 45.952 84.3088 45.84 84.9915 45.84ZM84.9915 47.04C84.5008 47.04 84.0902 47.1787 83.7595 47.456C83.4395 47.7227 83.2795 48.0853 83.2795 48.544C83.2795 49.0027 83.4395 49.3707 83.7595 49.648C84.0902 49.9253 84.5008 50.064 84.9915 50.064C85.4928 50.064 85.9035 49.9253 86.2235 49.648C86.5542 49.3707 86.7195 49.0027 86.7195 48.544C86.7195 48.0853 86.5542 47.7227 86.2235 47.456C85.9035 47.1787 85.4928 47.04 84.9915 47.04ZM45.5946 78.16C44.7946 78.16 44.0639 78.0053 43.4026 77.696C42.7412 77.3867 42.2186 76.9493 41.8346 76.384L43.0186 75.36C43.2532 75.7973 43.5892 76.1493 44.0266 76.416C44.4746 76.672 45.0079 76.8 45.6266 76.8C46.1172 76.8 46.5066 76.7147 46.7946 76.544C47.0826 76.3733 47.2266 76.1333 47.2266 75.824C47.2266 75.6213 47.1572 75.4453 47.0186 75.296C46.8906 75.136 46.6399 75.0133 46.2666 74.928L44.5866 74.576C43.7332 74.4053 43.1252 74.1333 42.7626 73.76C42.3999 73.376 42.2186 72.8907 42.2186 72.304C42.2186 71.8667 42.3466 71.4613 42.6026 71.088C42.8586 70.7147 43.2319 70.416 43.7226 70.192C44.2239 69.9573 44.8212 69.84 45.5146 69.84C46.3146 69.84 46.9972 69.984 47.5626 70.272C48.1279 70.5493 48.5599 70.9493 48.8586 71.472L47.6746 72.464C47.4719 72.0373 47.1732 71.7227 46.7786 71.52C46.3839 71.3067 45.9732 71.2 45.5466 71.2C45.2052 71.2 44.9119 71.2427 44.6666 71.328C44.4212 71.4133 44.2346 71.5307 44.1066 71.68C43.9786 71.8293 43.9146 72.0053 43.9146 72.208C43.9146 72.4213 43.9946 72.608 44.1546 72.768C44.3146 72.928 44.6026 73.0507 45.0186 73.136L46.8426 73.52C47.6106 73.6693 48.1492 73.9253 48.4586 74.288C48.7786 74.64 48.9386 75.072 48.9386 75.584C48.9386 76.096 48.8052 76.5493 48.5386 76.944C48.2719 77.328 47.8879 77.6267 47.3866 77.84C46.8852 78.0533 46.2879 78.16 45.5946 78.16ZM54.4797 69.84C55.2584 69.84 55.9464 70.0053 56.5437 70.336C57.141 70.6667 57.605 71.1467 57.9357 71.776C58.277 72.3947 58.4477 73.136 58.4477 74C58.4477 74.864 58.277 75.6107 57.9357 76.24C57.605 76.8587 57.141 77.3333 56.5437 77.664C55.9464 77.9947 55.2584 78.16 54.4797 78.16C53.701 78.16 53.013 77.9947 52.4157 77.664C51.8184 77.3333 51.349 76.8587 51.0077 76.24C50.6664 75.6107 50.4957 74.864 50.4957 74C50.4957 73.136 50.6664 72.3947 51.0077 71.776C51.349 71.1467 51.8184 70.6667 52.4157 70.336C53.013 70.0053 53.701 69.84 54.4797 69.84ZM54.4797 71.184C53.9997 71.184 53.589 71.296 53.2477 71.52C52.917 71.7333 52.661 72.048 52.4797 72.464C52.2984 72.88 52.2077 73.392 52.2077 74C52.2077 74.5973 52.2984 75.1093 52.4797 75.536C52.661 75.952 52.917 76.272 53.2477 76.496C53.589 76.7093 53.9997 76.816 54.4797 76.816C54.9597 76.816 55.365 76.7093 55.6957 76.496C56.0264 76.272 56.2824 75.952 56.4637 75.536C56.645 75.1093 56.7357 74.5973 56.7357 74C56.7357 73.392 56.645 72.88 56.4637 72.464C56.2824 72.048 56.0264 71.7333 55.6957 71.52C55.365 71.296 54.9597 71.184 54.4797 71.184ZM64.0734 69.84C64.8521 69.84 65.5401 70.0053 66.1374 70.336C66.7348 70.6667 67.1988 71.1467 67.5294 71.776C67.8708 72.3947 68.0414 73.136 68.0414 74C68.0414 74.864 67.8708 75.6107 67.5294 76.24C67.1988 76.8587 66.7348 77.3333 66.1374 77.664C65.5401 77.9947 64.8521 78.16 64.0734 78.16C63.2948 78.16 62.6068 77.9947 62.0094 77.664C61.4121 77.3333 60.9428 76.8587 60.6014 76.24C60.2601 75.6107 60.0894 74.864 60.0894 74C60.0894 73.136 60.2601 72.3947 60.6014 71.776C60.9428 71.1467 61.4121 70.6667 62.0094 70.336C62.6068 70.0053 63.2948 69.84 64.0734 69.84ZM64.0734 71.184C63.5934 71.184 63.1828 71.296 62.8414 71.52C62.5108 71.7333 62.2548 72.048 62.0734 72.464C61.8921 72.88 61.8014 73.392 61.8014 74C61.8014 74.5973 61.8921 75.1093 62.0734 75.536C62.2548 75.952 62.5108 76.272 62.8414 76.496C63.1828 76.7093 63.5934 76.816 64.0734 76.816C64.5534 76.816 64.9588 76.7093 65.2894 76.496C65.6201 76.272 65.8761 75.952 66.0574 75.536C66.2388 75.1093 66.3294 74.5973 66.3294 74C66.3294 73.392 66.2388 72.88 66.0574 72.464C65.8761 72.048 65.6201 71.7333 65.2894 71.52C64.9588 71.296 64.5534 71.184 64.0734 71.184ZM70.1952 78V70H71.7152L71.8272 72.08L71.6032 71.856C71.7525 71.3973 71.9659 71.0187 72.2432 70.72C72.5312 70.4107 72.8672 70.1867 73.2512 70.048C73.6459 69.9093 74.0619 69.84 74.4992 69.84C75.0645 69.84 75.5712 69.952 76.0192 70.176C76.4779 70.3893 76.8405 70.7147 77.1072 71.152C77.3739 71.5893 77.5072 72.144 77.5072 72.816V78H75.7952V73.344C75.7952 72.5547 75.6299 72.0107 75.2992 71.712C74.9792 71.4027 74.5739 71.248 74.0832 71.248C73.7312 71.248 73.3899 71.3333 73.0592 71.504C72.7285 71.664 72.4512 71.9253 72.2272 72.288C72.0139 72.6507 71.9072 73.136 71.9072 73.744V78H70.1952Z" fill="#0F0E0E"/>
</g>
<defs>
<filter id="filter0_f_1638_1406" x="11" y="-45" width="163" height="164" filterUnits="userSpaceOnUse" color-interpolation-filters="sRGB">
<feFlood flood-opacity="0" result="BackgroundImageFix"/>
<feBlend mode="normal" in="SourceGraphic" in2="BackgroundImageFix" result="shape"/>
<feGaussianBlur stdDeviation="25" result="effect1_foregroundBlur_1638_1406"/>
</filter>
<filter id="filter1_f_1638_1406" x="-54" y="-38" width="188" height="188" filterUnits="userSpaceOnUse" color-interpolation-filters="sRGB">
<feFlood flood-opacity="0" result="BackgroundImageFix"/>
<feBlend mode="normal" in="SourceGraphic" in2="BackgroundImageFix" result="shape"/>
<feGaussianBlur stdDeviation="25" result="effect1_foregroundBlur_1638_1406"/>
</filter>
<filter id="filter2_f_1638_1406" x="-14" y="-5" width="169" height="171" filterUnits="userSpaceOnUse" color-interpolation-filters="sRGB">
<feFlood flood-opacity="0" result="BackgroundImageFix"/>
<feBlend mode="normal" in="SourceGraphic" in2="BackgroundImageFix" result="shape"/>
<feGaussianBlur stdDeviation="25" result="effect1_foregroundBlur_1638_1406"/>
</filter>
<clipPath id="clip0_1638_1406">
<rect width="120" height="120" rx="60" fill="white"/>
</clipPath>
</defs>
</svg>
