<svg width="20" height="21" viewBox="0 0 20 21" fill="none" xmlns="http://www.w3.org/2000/svg">
<rect y="0.5" width="20" height="20" rx="10" fill="#E53617" fill-opacity="0.8"/>
<g clip-path="url(#clip0_1460_2058)">
<path d="M14.6115 8.5625C14.3593 7.96317 13.9977 7.42522 13.5368 6.96317C13.0791 6.50379 12.5357 6.13864 11.9375 5.88839C11.3236 5.63058 10.6719 5.5 10 5.5H9.97768C9.30135 5.50335 8.64622 5.63728 8.03016 5.90067C7.43704 6.15348 6.89877 6.51928 6.44536 6.97768C5.98889 7.43862 5.63064 7.97433 5.38287 8.57143C5.12618 9.18973 4.99672 9.8471 5.00006 10.5234C5.00385 11.2985 5.18722 12.0622 5.53577 12.7545L5.41667 14.25C5.41667 14.3862 5.32039 14.9871 5.41667 15.0833C5.51295 15.1796 6.53051 15.0833 6.66667 15.0833L7.74668 14.9643C8.43896 15.3128 9.20261 15.4962 9.97768 15.5H10.0011C10.6696 15.5 11.3181 15.3705 11.9285 15.1172C12.5238 14.8699 13.0651 14.509 13.5223 14.0547C13.9832 13.5982 14.3459 13.0647 14.5993 12.4699C14.8627 11.8538 14.9966 11.1987 14.9999 10.5223C15.0033 9.84263 14.8716 9.18304 14.6115 8.5625ZM12.9252 13.4509C12.1428 14.2254 11.1049 14.6518 10 14.6518H9.98103C9.30804 14.6484 8.63953 14.481 8.04913 14.1663L7.95538 14.1161H6.38397V12.5446L6.33375 12.4509C6.01902 11.8605 5.85162 11.192 5.84827 10.519C5.8438 9.40625 6.26902 8.36161 7.04914 7.57478C7.82815 6.78795 8.86943 6.35268 9.98214 6.34821H10.0011C10.5591 6.34821 11.1004 6.45647 11.6105 6.67076C12.1082 6.87946 12.5547 7.17969 12.9386 7.56362C13.3214 7.94643 13.6227 8.39397 13.8314 8.89174C14.0479 9.40737 14.1562 9.95424 14.154 10.519C14.1473 11.6306 13.7109 12.6719 12.9252 13.4509Z" fill="white"/>
</g>
<defs>
<clipPath id="clip0_1460_2058">
<rect width="10" height="10" fill="white" transform="translate(5 5.5)"/>
</clipPath>
</defs>
</svg>
