<svg width="270" height="180" viewBox="0 0 270 180" fill="none" xmlns="http://www.w3.org/2000/svg">
<path d="M73.9001 95.2054C70.6119 93.6258 65.6518 89.5283 79.4036 77.2124C93.1555 64.8956 113.561 64.8606 116.003 77.5214C117.865 87.1807 113.414 94.4228 107.333 100.479C99.0776 108.7 87.8375 113.185 84.0317 111.728C78.5648 109.636 82.8358 101.483 82.8358 101.483C85.6258 96.4228 88.3347 95.6793 91.4718 96.1274C94.4616 96.554 95.6239 99.4934 89.2964 104.371C82.9685 109.248 85.6258 115.472 98.4472 104.831C111.269 94.1895 111.203 86.1101 108.213 82.0373C105.224 77.9653 92.535 86.1426 87.0544 90.3796C81.5733 94.6162 77.1887 96.7845 73.9001 95.2054Z" fill="#0F0E0E" fill-opacity="0.4"/>
<path d="M143.532 75C141.869 75 140.52 76.3434 140.52 78.0007C140.52 79.6566 141.869 81 143.532 81C145.195 81 146.543 79.6566 146.543 78.0007C146.543 76.3434 145.195 75 143.532 75Z" fill="#0F0E0E" fill-opacity="0.4"/>
<path d="M196.658 98.6912C196.658 99.7578 197.486 100.622 198.508 100.622H199.74V104H196.989C194.073 104 191.71 101.551 191.71 98.5314V77.7563L196.658 77V98.6912Z" fill="#0F0E0E" fill-opacity="0.4"/>
<path d="M146.543 104H141.524V83.7692L146.543 83V104Z" fill="#0F0E0E" fill-opacity="0.4"/>
<path d="M149.554 86.5591V104H154.357V90.1689L154.33 88.536C154.33 85.9549 159.867 86.4496 159.867 86.4496L161.599 82.4944C153.936 80.2146 149.554 86.5591 149.554 86.5591Z" fill="#0F0E0E" fill-opacity="0.4"/>
<path d="M167.935 86.7357V98.6912C167.935 99.7578 168.66 100.622 169.554 100.622H170.632V104H168.224C165.674 104 163.606 101.551 163.606 98.5314V77.7563L167.935 77V82.9831H170.537V86.7357H167.935Z" fill="#0F0E0E" fill-opacity="0.4"/>
<path fill-rule="evenodd" clip-rule="evenodd" d="M177.714 93.75C177.714 93.75 177.472 98.7703 180.733 100.058C183.994 101.344 188.021 98.8126 188.021 98.8126L189.703 101.827C187.93 103.193 184.702 104 182.344 104C176.407 104 172.639 99.0982 172.639 92.7948C172.639 86.4929 176.164 82 182.103 82C188.041 82 189.512 87.4473 189.512 93.75H177.714ZM184.8 89.9696C184.8 89.9696 184.237 85.8649 181.419 85.8649C178.6 85.8649 178.036 89.9696 178.036 89.9696H184.8Z" fill="#0F0E0E" fill-opacity="0.4"/>
<path fill-rule="evenodd" clip-rule="evenodd" d="M131.558 83C131.558 83 129.427 83.0294 127.279 83.4206C125.261 83.7868 123.238 85.1028 123.238 85.1028L124.84 88.2253C124.84 88.2253 126.908 86.3854 130.131 86.3854C134.429 86.3854 133.822 90.4687 133.822 90.4687C125.449 88.8427 121.336 92.9155 121.452 97.1126C121.504 99.0198 121.779 100.953 124.069 102.387C131.398 106.982 138.513 100.299 138.513 100.299V89.2116C138.513 85.889 135.399 83 131.558 83ZM133.712 99.6203C133.712 99.6203 130.406 101.083 128.285 99.8806C126.163 98.6797 126.411 95.3918 128.408 94.3728C130.406 93.3551 133.712 93.9816 133.712 93.9816V99.6203Z" fill="#0F0E0E" fill-opacity="0.4"/>
</svg>
