<?xml version="1.0" encoding="utf-8"?>
<!-- Generator: Adobe Illustrator 26.2.1, SVG Export Plug-In . SVG Version: 6.00 Build 0)  -->
<svg version="1.1" id="Layer_1" xmlns="http://www.w3.org/2000/svg" xmlns:xlink="http://www.w3.org/1999/xlink" x="0px" y="0px"
	 viewBox="0 0 270 180" style="enable-background:new 0 0 270 180;" xml:space="preserve">
<style type="text/css">
	.st0{fill:none;}
	.st1{fill:#020202;fill-opacity:0.4;}
	.st2{fill:#0F0E0E;fill-opacity:0.4;}
</style>
<g>
	<rect x="88.4" y="70.9" class="st0" width="93.3" height="38.2"/>
	<path class="st1" d="M154.6,80.5c3.7,9.5,7.5,18.9,11.2,28.4h-9.2c0.9-1.7,1.7-3.3,2.6-5h-17.8c0.9,1.7,1.8,3.3,2.7,5h-9.2
		c3.8-9.5,7.5-18.9,11.2-28.4L154.6,80.5L154.6,80.5z M154.8,100.1c-1.5-4.1-2.9-8.1-4.5-12.3c-1.9,5.3-3.7,10.4-5.5,15.6
		C148.3,102.2,151.5,101.2,154.8,100.1L154.8,100.1z"/>
	<path class="st2" d="M88.4,107.1V71c0.3-0.2,0.6-0.1,1-0.1c0.5,0.8,1.1,1.7,1.7,2.5c0.2,0.2,0.1,0.5,0.1,0.7c0,3,0,6.1,0,9.1
		c0,0.2-0.1,0.5,0.1,0.8c0.8-0.8,1.5-1.5,2.4-2.1c5.3-3.4,12.8-1.4,15.9,3.6c2,3.2,2.5,6.7,2.1,10.4c-0.3,3-1.2,5.8-3,8.3
		c-2,2.6-4.7,4.1-7.9,4.6c-4.1,0.6-8.1,0.1-12-1.5C88.6,107.2,88.5,107.2,88.4,107.1L88.4,107.1z M91.1,105.1
		c0.2,0.2,0.4,0.2,0.7,0.3c3.5,1.1,7,1.1,10.4-0.1c2.1-0.7,3.8-2,5-3.9c2.1-3.6,2.7-7.4,1.6-11.4c-0.8-3-2.6-5.4-5.5-6.6
		c-4.3-1.8-9.2-0.2-12.2,3.9V105.1L91.1,105.1z"/>
	<path class="st2" d="M137.7,94.1c0,4.9-1.2,8.6-4.3,11.6c-4.8,4.8-12.5,4.5-17-0.6c-2.9-3.3-3.9-7.1-3.7-11.4
		c0.2-3.4,1.2-6.5,3.5-9.2c5-5.9,13.8-5.7,18.5,0.5C136.8,87.9,137.7,91.2,137.7,94.1L137.7,94.1z M134.9,94.8
		c0-2.4-0.5-4.7-1.7-6.8c-3.7-6.3-11.5-6.1-15.3-1.1c-3.4,4.5-3.2,11.8,0.4,16c3.5,4.1,9.6,4.4,13.4,0.5
		C134,101.1,134.9,98.1,134.9,94.8L134.9,94.8z"/>
	<path class="st2" d="M180,82.7h-9.1c0,0.3,0,0.5,0,0.7c0,5.4,0,10.9,0,16.3c0,1.4,0.1,2.8,0.4,4.2c0.2,1.1,0.9,1.7,2,2
		c2.3,0.6,4.6,0.2,6.9-0.5c0.5-0.2,1-0.3,1.5-0.5v2.8c-2.5,1.1-5.1,1.7-7.9,1.4c-1.2-0.1-2.3-0.4-3.3-1c-2-1.1-3-2.8-3-5.1
		c0-6.5,0-12.9,0-19.4v-0.8h-8.7l2.8-2.4h5.9v-6.7c0.8-0.9,1.6-1.8,2.4-2.6c0.4-0.1,0.7-0.1,1.1,0v9.3h9.1L180,82.7L180,82.7z"/>
</g>
</svg>
