<svg width="270" height="180" viewBox="0 0 270 180" fill="none" xmlns="http://www.w3.org/2000/svg">
<g clip-path="url(#clip0_1162_2960)">
<path d="M183.462 76.1865C187.126 76.5629 190.152 75.4808 193.072 73.8102C196.634 71.7759 199.045 69 199.045 69C199.045 69 197.397 72.5399 194.179 75.3516C191.14 78.1394 185.688 81.0684 180.546 79.7503C181.457 78.5278 182.446 77.3396 183.462 76.1865Z" fill="#0F0E0E" fill-opacity="0.4"/>
<path d="M98.894 105.009C109.289 102.104 115.734 102.645 120.483 105.727C122.889 107.291 125.771 109.561 126.788 111.103C123.736 108.844 119.545 107.726 116.64 107.997C113.107 108.056 111.693 110.82 111.693 110.82C107.827 103.728 96.7757 106.791 92.9025 107.865C92.5164 107.972 92.2016 108.059 91.9723 108.115C91.5812 108.209 91.1605 108.314 90.7174 108.423C88.297 109.023 85.2056 109.789 82.5776 110.068C78.1453 110.444 74.4306 108.644 72.6418 105.257C70.3289 100.375 71.8716 94.3757 73.5781 90.1891C76.5374 83.249 81.7681 76.9086 88.3065 72.3329C91.2963 70.4861 94.5358 68.8162 98.0141 69.0163C99.0297 69.2045 99.8481 69.7572 100.322 70.557C101.451 72.8034 100.015 75.2148 99.0438 76.4732C98.1416 77.5912 96.0511 78.0146 96.1348 75.9796C96.1919 74.6502 97.2676 73.6622 97.659 73.356C98.1416 73.0394 98.7665 72.9796 99.1379 72.9796C99.49 72.6503 99.7621 70.3449 96.8509 71.0977C93.0517 72.2978 90.1754 75.2858 87.0745 78.7674C81.5183 85.4603 78.3899 91.4937 77.2328 97.7639C76.7338 101.61 77.4018 104.28 79.2662 105.938C83.4246 108.832 86.7329 108.01 94.5701 106.065L94.5711 106.064C95.8778 105.74 97.3105 105.384 98.894 105.009Z" fill="#0F0E0E" fill-opacity="0.4"/>
<path fill-rule="evenodd" clip-rule="evenodd" d="M89.068 86.2578C92.9643 81.0115 97.8296 77.9533 100.249 79.5529C102.487 81.1953 100.766 85.3243 100.214 86.6496C100.157 86.7857 100.113 86.8923 100.086 86.9635C100.954 87.1868 103.731 85.1876 105.35 83.3878C106.636 81.9524 108.84 80.1063 110.231 79.5768C111.271 79.0705 112.878 78.9062 113.931 79.541C114.637 79.9532 115.111 80.7994 115.161 81.694C115.3 84.1876 112.42 88.2809 110.976 86.2107C110.679 85.3168 111.004 84.3639 111.939 83.3759C112.414 82.8815 112.997 82.6582 113.726 82.6813C114.013 82.2228 113.94 81.5529 113.485 81.2818C113.01 80.9876 112.05 81.1877 111.167 81.8815C108.038 84.3878 105.288 88.54 103.693 93.115C103.41 93.9738 103.256 95.2792 103.757 96.1739C105.128 98.3023 108.335 95.3382 108.335 95.3382C110.5 93.3973 112.588 90.7035 114.228 88.316C118.487 82.1055 124.146 76.7412 126.644 80.2236C126.662 80.2472 126.683 80.2782 126.704 80.3084C126.735 80.3538 126.765 80.3974 126.781 80.4118C126.817 80.3647 127.257 79.6119 127.257 79.6119H131.29C131.29 79.6119 122.749 94.5735 122.738 94.5974C122.56 94.9618 122.447 95.5145 122.734 95.7617C122.95 95.9147 123.312 95.7537 123.366 95.7295L123.371 95.7275L123.373 95.7266C125.588 94.6444 128.999 89.7043 129.015 89.6804H130.405C128.227 92.8566 125.531 96.5966 122.184 98.9729C121.256 99.5965 120.033 100.243 118.825 99.8079C117.679 99.0815 117.752 98.1941 117.839 97.138C117.849 97.0149 117.86 96.8893 117.868 96.7616C117.868 96.7616 117.867 96.7631 117.864 96.7661C117.862 96.768 117.86 96.7705 117.857 96.7737L117.843 96.7907C117.536 97.1461 114.554 100.604 112.037 99.8669C111.159 99.5846 109.756 98.8198 110.797 95.1732C110.797 95.1732 110.877 94.8446 110.938 94.5974C110.697 94.8326 110.27 95.2441 110.27 95.2441C107.765 97.7146 104.926 100.49 101.371 99.8908C98.9732 99.1395 98.7884 96.8397 98.7076 95.8352C98.6986 95.7224 98.6908 95.6257 98.6814 95.5496C98.4019 93.2453 100.941 88.7593 101.292 88.1401L101.317 88.0956C101.326 88.0793 101.331 88.0702 101.332 88.0688C100.56 88.2928 99.8764 88.4571 99.3078 88.5632C99.264 88.6334 98.3456 90.1628 98.3456 90.1628L98.2869 90.2609C97.305 91.9007 96.286 93.6025 94.9755 95.0208L94.722 95.2912C92.7553 97.6085 88.1324 101.937 85.6416 98.961C83.967 96.4323 85.506 90.9627 89.068 86.2578ZM123.316 82.1877C122.759 82.6813 120.476 85.611 119.691 86.7044C116.537 90.9858 115.515 94.0791 115.431 95.091C115.401 95.3972 115.506 95.6915 115.77 95.8677C115.99 96.032 116.321 96.0089 116.521 95.9499C117.927 95.162 118.79 94.0328 119.647 92.7154C119.647 92.7154 120.257 91.7744 120.253 91.7857C122.191 88.54 124.254 84.9285 126.001 81.7762C125.936 81.2587 125.188 80.529 123.316 82.1877ZM97.7014 88.7394C97.7184 88.7043 97.7532 88.5983 97.7532 88.5983C97.7999 88.493 97.8192 88.4452 97.8192 88.4101C97.8192 88.3869 97.8118 88.375 97.8044 88.375C96.6124 88.0217 95.0163 87.257 94.166 85.611C94.1646 85.5958 94.1617 85.5903 94.159 85.5852L94.1578 85.5829L94.1565 85.5802C94.1559 85.5787 94.1554 85.5771 94.1549 85.5752C94.1408 85.5752 94.1037 85.5871 94.0867 85.5991C92.7308 87.5632 91.3379 89.6804 90.4602 92.0799L90.3519 92.4331C90.0458 93.4212 89.6692 94.6444 90.4001 95.5264C90.7448 95.9618 91.4217 95.8558 91.9117 95.6915C93.55 94.8392 94.8642 93.072 95.9187 91.654L95.943 91.6214C95.943 91.6214 97.6962 88.7394 97.7014 88.7394ZM98.6339 87.0106C98.6339 87.0106 99.4071 85.2227 99.4145 85.1988C99.6807 84.399 99.9149 83.5402 99.9149 82.7762C99.9149 82.2116 99.7867 81.694 99.4486 81.2938C98.9001 80.8584 97.9564 81.0824 97.3492 81.5058C96.7161 81.9875 95.2802 83.3169 95.6294 85.0106C95.8829 85.8814 96.705 86.6103 97.7955 86.9516L98.1424 87.0106L98.1709 87.0172C98.362 87.0617 98.5273 87.1002 98.6339 87.0106Z" fill="#0F0E0E" fill-opacity="0.4"/>
<path fill-rule="evenodd" clip-rule="evenodd" d="M150.376 90.6652C149.987 89.8191 149.064 89.2776 148.081 89.3366C144.886 89.6301 141.762 92.2768 140.121 96.0758C139.26 98.0287 138.79 99.6403 138.482 102.205C139.475 101.052 141.501 99.1579 143.801 98.1228C143.801 98.1228 144.114 95.6643 145.709 93.477C146.312 92.5711 147.522 91.1126 148.878 91.5001C150.063 91.9004 149.646 95.2058 148.072 98.4051C146.906 100.758 145.123 103.111 143.317 104.734C141.721 106.098 139.361 107.745 137.295 106.474C135.995 105.698 135.331 104.075 135.471 101.981C136.093 96.0407 138.777 90.9834 142.618 85.2195C146.579 79.8679 150.943 74.3744 156.826 71.4454C158.024 70.8338 159.136 70.6926 160.096 71.069C160.096 71.069 154.575 74.1272 151.943 79.785L151.914 79.8481C151.247 81.2769 150.357 83.1856 151.281 84.8782C151.771 85.7721 152.641 85.8431 153.341 85.796C156.567 85.0433 158.651 82.0082 160.354 79.2323C161.341 77.1271 162.219 75.033 162.219 72.7045C162.219 72.4215 162.204 72.0451 162.18 71.7628C163.722 70.9398 166.881 72.3983 166.881 72.3983C168.333 72.8826 170.749 74.485 172.855 75.8809C174.33 76.8593 175.653 77.7364 176.383 78.0561C177.249 77.0442 178.67 75.5155 179.471 74.7508L178.312 74.0331C176.521 72.9321 174.63 71.8847 172.764 70.8506L172.564 70.7397C168.181 68.3282 164.612 69.1751 162.796 69.8338C162.082 70.0929 161.429 70.3162 161.429 70.3162C160.082 68.8345 157.871 68.9749 156.242 69.3752C150.385 71.069 144.947 75.1981 139.116 82.3615C134.829 87.9722 132.171 92.8183 130.754 97.6053C129.661 100.829 129.329 105.569 131.995 108.38C134.262 110.768 137.268 110.25 139.391 109.391C143.991 107.11 148.124 102.193 150.184 96.5351C150.68 94.8533 151.232 92.477 150.376 90.6652ZM160.951 72.9397C160.343 79.9732 154.915 84.1023 153.573 84.4309C152.759 84.5959 151.37 84.2315 152.61 81.2793C154.436 77.3033 157.552 73.927 160.897 72.1982C160.978 72.4924 160.976 72.6806 160.951 72.9397Z" fill="#0F0E0E" fill-opacity="0.4"/>
<path d="M137.902 79.6201H134.073L131.913 83.3019H135.741L137.902 79.6201Z" fill="#0F0E0E" fill-opacity="0.4"/>
<path fill-rule="evenodd" clip-rule="evenodd" d="M182.749 105.504C182.533 106.151 183.111 106.386 183.523 106.104C185.732 104.797 187.517 102.127 188.948 99.9881C189.049 99.8359 189.149 99.6865 189.247 99.5404H190.611C189.571 101.234 185.567 107.386 182.221 109.221C182.113 109.28 182.006 109.339 181.901 109.398C181.097 109.845 180.357 110.257 179.405 110.08C177.834 109.88 177.756 107.88 178.042 106.763C177.15 107.716 175.225 109.574 173.497 110.044C171.993 110.338 170.021 109.739 170.565 105.904C168.032 109.103 164.917 111.527 163.037 109.186C161.72 107.527 162.365 104.728 163.759 100.611C163.759 100.611 164.227 99.1998 164.28 99.0228C164.26 99.0116 164.255 99.0116 164.243 99.0116C163.475 99.2098 162.499 99.2661 162.162 99.2856C162.1 99.2891 162.06 99.2914 162.046 99.2932C159.848 103.175 157.059 107.421 153.067 109.539C152.48 109.845 150.984 110.48 149.797 109.868C148.642 109.209 148.19 107.892 148.412 105.846C148.728 103.234 149.867 100.952 151.01 98.8234C153.135 95.471 156.08 91.4009 160.02 89.7542C160.899 89.3547 162.204 89.1075 163.26 89.6362C164.16 90.2949 164.401 91.2478 164.401 92.2597C164.401 92.7302 164.347 93.2127 164.287 93.6832C163.944 95.3299 163.258 96.8474 162.714 97.9758C162.977 98.1528 164.52 97.7884 164.92 97.4822C170.431 85.8842 176.738 77.3916 184.204 71.4985L184.263 71.4634C185.715 70.4634 187.521 69.2282 189.177 69.5463C189.685 69.6404 190.073 70.0519 190.164 70.5934C190.436 72.2752 189.7 73.6866 189.037 74.945C188.465 75.1332 187.593 75.2983 187.593 75.2983L188.208 74.0279C188.647 73.1572 189.029 72.3924 188.98 71.3574C188.852 71.087 188.705 71.0751 188.589 71.087C187.498 71.3103 186.098 72.6747 184.748 74.004L183.873 74.8509C178.321 80.4378 171.796 92.1186 170.786 94.5651C173.065 93.4479 180.585 85.9432 184.26 80.7791C185.012 80.7559 185.649 80.626 185.649 80.626C185.06 81.791 181.034 87.0015 176.257 91.6011C174.056 93.7302 171.634 95.6704 169.513 97.1528C168.469 99.4231 167.433 101.929 166.987 104.563C166.937 104.928 166.819 106.492 167.972 106.398C169.449 106.069 172.11 101.634 172.11 101.634L172.21 101.478C174.722 97.5135 177.902 92.4963 182.237 89.9424C183.249 89.3659 184.713 89.0604 185.712 89.6952C185.945 89.8483 186.511 90.5421 186.699 90.8595C186.699 90.8595 187.115 90.1306 187.309 89.7781H191.396L185.43 100.47C185.43 100.47 183.288 103.858 182.749 105.504ZM153.205 104.598C153.212 104.975 153.282 105.339 153.494 105.657C155.264 107.728 159.507 101.764 160.744 98.9877C159.748 98.5523 158.098 97.5994 157.369 95.8945H157.366C155.627 98.1879 153.164 102.293 153.205 104.598ZM158.842 95.2007C159.243 97.1409 161.323 97.8466 161.442 97.7645C162.094 96.6233 162.626 95.3411 162.973 94.0357L162.983 93.9535L162.988 93.9052C163.031 93.5539 163.078 93.1717 163.078 92.8004C163.078 92.1656 162.947 91.5772 162.461 91.2478C161.937 91.0596 161.222 91.1888 160.748 91.5652C159.643 92.2239 158.501 93.5301 158.842 95.2007ZM177.735 105.269C177.735 105.269 178.128 104.916 178.129 104.916C180.149 102.387 181.764 99.5053 183.321 96.7174C183.399 96.5794 183.477 96.4408 183.555 96.3017C184.277 95.019 185.021 93.6986 185.797 92.436C185.833 92.377 185.895 92.1888 185.895 92.1186C185.895 91.8953 185.736 91.6713 185.599 91.5421C185.005 91.2949 184.441 91.6123 183.923 91.9887C180.897 94.4273 178.82 97.9212 177.037 100.921L176.942 101.082L176.781 101.422L176.768 101.449C176.145 102.747 175.507 104.079 175.539 105.516C175.571 105.716 175.706 105.975 175.899 106.045C176.582 106.31 177.151 105.796 177.701 105.3L177.735 105.269Z" fill="#0F0E0E" fill-opacity="0.4"/>
</g>
<defs>
<clipPath id="clip0_1162_2960">
<rect width="270" height="180" fill="white"/>
</clipPath>
</defs>
</svg>
