<svg width="180" height="120" viewBox="0 0 180 120" fill="none" xmlns="http://www.w3.org/2000/svg">
<path d="M72.5796 65.7534C72.3346 65.7534 72.0835 65.7411 71.8338 65.717C70.4053 65.5714 69.0639 64.9652 68.0142 63.9909C66.764 62.8006 66.0768 61.1412 66.1215 59.4207C66.1728 58.0596 66.6446 56.7473 67.4725 55.6622C68.0017 54.968 68.6797 54.3997 69.4573 53.9985C70.4241 53.5174 71.4894 53.2642 72.5705 53.2584C72.618 53.2584 72.6693 53.2584 72.7177 53.2584C74.6276 53.272 76.4356 54.1173 77.6643 55.5712L77.6928 55.6075L76.0972 58.1496L75.9909 58.0241L75.9164 57.9419L75.7711 57.79L75.6524 57.6734C75.1003 57.1457 73.9705 56.2598 72.6061 56.2598H72.543C70.776 56.2901 69.3586 57.7212 69.3553 59.4783C69.3553 60.9414 70.2401 62.6599 72.7334 62.6982H72.7699C74.2197 62.6982 75.1673 61.6395 75.6026 61.0085L75.6975 60.8669C75.7502 60.7852 75.8727 60.5837 76.073 60.2533L80.1086 53.4987H83.3737V65.4824H80.3688V63.6846L77.9748 63.6742H77.6553L77.5679 63.678L77.5527 63.6809L77.4882 63.7516L77.4113 63.8305L77.3025 63.9353L77.2114 64.0188L77.106 64.1132L76.9873 64.2123C75.7396 65.214 74.1832 65.7582 72.5796 65.7534ZM80.4305 58.4635L78.8198 61.1774H80.4305V58.4635ZM114.333 65.7477C112.624 65.7869 110.977 65.1136 109.79 63.8909V65.4905H103.044V53.5005H106.147V62.8407H108.952C108.307 61.7989 107.977 60.5951 107.999 59.3721C107.996 58.5596 108.16 57.7552 108.479 57.0074C108.803 56.2567 109.275 55.5782 109.868 55.0123C111.062 53.8482 112.679 53.2121 114.351 53.248C115.995 53.2481 117.573 53.8866 118.749 55.0274C119.491 55.7323 120.046 56.6094 120.363 57.5799V53.4982H123.184L127.873 60.1579V53.4982H131V65.4905H128.253L123.49 58.8095V65.4905H120.365V61.3799C120.077 62.3167 119.564 63.1698 118.871 63.8654C117.679 65.0805 116.04 65.7602 114.333 65.7477ZM114.368 56.2315C113.502 56.2243 112.667 56.5568 112.045 57.157C111.435 57.7474 111.093 58.5587 111.096 59.4051C111.092 60.2996 111.445 61.1591 112.078 61.7953C112.671 62.4016 113.481 62.7486 114.332 62.76C115.185 62.7661 116.003 62.4266 116.598 61.8198C117.217 61.1681 117.555 60.3013 117.538 59.4051C117.542 57.6596 116.124 56.2398 114.368 56.2315ZM95.7568 65.4909H92.6379V53.4972H95.7568V58.051H98.9688V53.4972H102.09V65.49H98.9688V60.9018H95.7568V65.4909ZM89.5703 65.4909H86.4523V56.3603H84.0255V53.4935H91.9942V56.3603H89.5731V65.49L89.5703 65.4909ZM52.7875 65.4909H48V53.4987H52.3617C54.3622 53.4987 55.7845 53.7346 57.1327 54.9311C58.1126 55.8174 58.7419 57.0226 58.9072 58.3295V53.4987H65.8495V56.1366L62.0299 56.1408V58.1001L65.3372 58.0972V60.6762L62.0299 60.6795V62.853H65.8495V65.4824H58.9067V60.7017C58.7145 61.9698 58.0937 63.1351 57.1464 64.0056C55.7854 65.254 54.5639 65.4905 52.789 65.4905L52.7875 65.4909ZM51.1222 56.0771V62.8568H52.376C53.5879 62.8568 54.4562 62.5896 55.0306 62.0402C55.605 61.4908 55.8936 60.6384 55.8936 59.4537C55.8936 57.2764 54.6394 56.0771 52.3617 56.0771H51.1222Z" fill="#9D9699"/>
</svg>
