<svg width="270" height="180" viewBox="0 0 270 180" fill="none" xmlns="http://www.w3.org/2000/svg">
<g clip-path="url(#clip0_1162_2954)">
<path d="M115.589 98.4458C117.326 97.464 119.329 96.9894 121.32 97.0012C122.783 97.0647 124.245 97.2994 125.632 97.7748C125.946 97.9047 126.259 98.0398 126.575 98.1645C126.702 98.231 126.864 98.279 126.931 98.4163C126.982 98.9042 126.885 99.3899 126.901 99.8778C126.908 102.07 126.891 104.263 126.91 106.455C126.523 106.065 126.126 105.685 125.721 105.314C124.723 104.608 123.575 104.058 122.345 103.933C121.879 103.864 121.408 103.953 120.949 104.034C120.129 104.298 119.328 104.712 118.77 105.383C118.182 106.093 117.789 106.995 117.796 107.927C117.754 108.761 118.046 109.594 118.533 110.267C119.331 111.345 120.63 112.044 121.977 112.094C123.151 112.11 124.256 111.619 125.231 111.005C125.445 110.862 125.671 110.73 125.856 110.55C126.191 110.189 126.611 109.922 126.938 109.553C126.943 112.176 126.937 114.801 126.941 117.424C126.409 117.82 125.82 118.161 125.181 118.354C123.988 118.768 122.727 118.957 121.47 119.03C120.808 119.14 120.143 119.02 119.482 118.982C118.39 118.832 117.301 118.575 116.298 118.108C116.012 117.987 115.704 117.893 115.475 117.672C114.201 116.952 113.042 116.003 112.164 114.829C111.9 114.496 111.687 114.128 111.413 113.804C111.063 113.171 110.744 112.517 110.506 111.832C110.4 111.576 110.36 111.303 110.338 111.029C109.88 109.232 109.862 107.322 110.299 105.519C110.372 105.309 110.337 105.083 110.393 104.872C110.699 103.859 111.19 102.912 111.756 102.021C112.637 100.652 113.836 99.4999 115.212 98.6318C115.257 98.6296 115.345 98.6237 115.389 98.6207C115.454 98.5602 115.517 98.4975 115.589 98.4458ZM99.1832 97.3348C101.974 97.3312 104.763 97.34 107.554 97.3304C107.592 97.4138 107.614 97.5017 107.621 97.5925C107.62 104.556 107.621 111.519 107.621 118.483H99.1469C99.1484 117.45 99.1432 116.418 99.1484 115.385C99.2032 114.868 99.178 114.347 99.1832 113.828V97.3348ZM173.861 97.3688C176.084 97.3747 178.307 97.3695 180.529 97.371C182.184 97.3954 183.853 97.2795 185.494 97.557C186.271 97.6818 187.035 97.8959 187.773 98.1697C188.109 98.3432 188.423 98.5942 188.81 98.6414C189.38 99.0134 189.935 99.4261 190.371 99.9531C191.433 101.156 191.939 102.772 191.973 104.358C192.032 104.736 191.947 105.114 191.952 105.495C191.872 106.402 191.686 107.344 191.147 108.1C190.74 108.768 190.027 109.143 189.378 109.535C188.902 109.81 188.35 109.933 187.88 110.214C187.895 110.263 187.927 110.362 187.943 110.412C188.402 110.736 188.821 111.125 189.134 111.596C189.649 112.341 190.151 113.095 190.654 113.849C191 114.231 191.248 114.686 191.544 115.106C192.065 115.875 192.564 116.659 193.107 117.414C193.108 117.45 193.113 117.521 193.115 117.558C193.325 117.86 193.537 118.164 193.726 118.481C190.78 118.488 187.834 118.474 184.888 118.489C184.187 117.134 183.522 115.761 182.828 114.403C182.77 114.297 182.75 114.178 182.73 114.062C182.261 113.293 181.924 112.45 181.484 111.665C181.431 111.764 181.407 111.875 181.414 111.987C181.418 114.152 181.415 116.317 181.416 118.483C178.888 118.483 176.359 118.482 173.831 118.483C173.828 111.938 173.831 105.393 173.829 98.8481C173.846 98.355 173.793 97.8582 173.861 97.3688ZM181.417 103.165C181.415 104.346 181.415 105.528 181.417 106.71C182.231 106.709 183.124 106.76 183.83 106.284C184.272 105.977 184.435 105.416 184.417 104.902C184.418 104.45 184.335 103.915 183.93 103.644C183.23 103.076 182.261 103.174 181.417 103.165ZM130.414 97.4419C132.796 97.4485 135.178 97.4426 137.561 97.4448C137.545 97.7903 137.575 98.1343 137.599 98.4783C137.598 100.533 137.597 102.588 137.599 104.643C139.128 104.642 140.656 104.642 142.186 104.643C142.216 104.136 142.133 103.634 142.15 103.128C142.152 101.234 142.148 99.339 142.152 97.4448H149.589V118.63H142.261C142.262 117.62 142.259 116.611 142.263 115.601C142.18 114.159 142.25 112.712 142.218 111.269C142.206 111.256 142.18 111.23 142.167 111.218C141.756 111.197 141.343 111.206 140.934 111.246C139.847 111.252 138.759 111.246 137.672 111.249V118.63H130.382C130.381 112.281 130.382 105.933 130.381 99.584C130.401 98.8702 130.341 98.152 130.414 97.4419ZM78.3104 97.5179C78.682 97.5319 79.0528 97.5068 79.4237 97.4817C84.7766 97.4832 90.1295 97.4817 95.4824 97.4825C95.4831 98.6001 95.4816 99.7184 95.4831 100.837C95.4158 101.663 95.4483 102.493 95.4535 103.321C94.0568 103.301 92.6601 103.321 91.2627 103.311C90.2057 103.386 89.1436 103.336 88.0836 103.35C87.3057 103.351 86.5271 103.348 85.7484 103.352C85.7491 103.99 85.7491 104.629 85.7484 105.268C88.7831 105.272 91.8178 105.269 94.8525 105.269C94.8406 106.106 94.8851 106.944 94.8162 107.778V110.879C91.7934 110.881 88.7705 110.877 85.7484 110.881C85.7514 111.517 85.7454 112.153 85.7499 112.788C85.7277 112.902 85.855 112.922 85.9371 112.912C89.1339 112.902 92.3307 112.922 95.5275 112.901C95.4957 114.774 95.5497 116.65 95.5001 118.522C91.3256 118.516 87.1518 118.521 82.9772 118.52C82.4584 118.514 81.938 118.54 81.4214 118.485C80.3726 118.478 79.323 118.485 78.2742 118.483C78.2734 112.551 78.2742 106.62 78.2734 100.69C78.3489 99.6342 78.2934 98.575 78.3104 97.5179ZM152.994 97.5186H170.35C170.35 99.4379 170.351 101.357 170.35 103.276C168.51 103.259 166.669 103.317 164.833 103.238C163.437 103.236 162.041 103.25 160.647 103.231C160.634 103.873 160.599 104.516 160.619 105.159C163.653 105.159 166.687 105.157 169.721 105.16C169.721 107.005 169.721 108.85 169.721 110.694C166.736 110.695 163.751 110.695 160.766 110.694C160.781 111.347 160.699 111.996 160.727 112.65C163.183 112.653 165.64 112.65 168.097 112.65C168.849 112.715 169.604 112.687 170.359 112.68C170.339 114.639 170.357 116.598 170.349 118.556H155.289C154.535 118.537 153.783 118.643 153.029 118.576C153.033 115.593 153.028 112.61 153.032 109.628C152.963 108.864 153.004 108.097 152.994 107.331V97.5186Z" fill="#0F0E0E" fill-opacity="0.4"/>
<path d="M117.099 61.6306C118.242 61.2814 119.43 61.1094 120.62 61.0164C122.172 61.0017 123.728 60.9862 125.28 61.0216C129.961 61.0179 134.642 61.0268 139.322 61.0172C139.729 61.0423 140.032 61.5058 139.907 61.8912C139.851 62.1281 139.643 62.2817 139.44 62.3909C136.225 62.4249 133.01 62.3924 129.795 62.4071C129.414 62.4529 129.03 62.4662 128.654 62.5481C128.533 62.5873 128.408 62.6072 128.283 62.619C128.156 62.6544 128.028 62.6862 127.904 62.7275C127.596 62.7179 127.297 62.788 127.018 62.9135C126.895 62.9667 126.772 63.0154 126.648 63.0641C126.426 63.1704 126.126 63.273 125.925 63.07C125.73 62.9482 125.745 62.6854 125.859 62.5127C125.97 62.3348 125.916 62.1259 125.853 61.9421C125.753 61.8705 125.65 61.7531 125.513 61.8041C124.947 61.948 124.542 62.4027 124.071 62.7194C123.973 62.7401 123.879 62.7733 123.805 62.8419C123.09 63.3778 122.375 63.916 121.654 64.4467C121.505 64.5456 121.384 64.68 121.25 64.7958C120.067 65.6868 118.873 66.5638 117.689 67.4547C117.444 67.623 117.228 67.843 116.944 67.9486C116.613 68.1707 116.292 68.4107 116.011 68.6934C115.611 68.9377 115.243 69.2669 115.082 69.7187C115.073 69.8671 115.067 70.0154 115.073 70.1645C114.496 70.7093 113.864 71.1935 113.277 71.7295C112.769 72.1318 112.305 72.5887 111.783 72.9762C111.479 73.1106 111.293 73.3999 111.013 73.5675C111.002 73.597 110.98 73.6561 110.969 73.6856C110.522 74.0702 110.069 74.4481 109.626 74.8371C109.006 75.2675 108.508 75.9975 108.636 76.7815C108.732 77.2236 108.81 77.6702 108.876 78.119C108.965 78.4335 109.068 78.7753 109.354 78.9694C109.855 78.7192 110.241 78.2844 110.77 78.0902C111.058 77.8267 111.37 77.5875 111.698 77.3757C111.912 77.245 112.123 77.4517 112.274 77.5861C112.252 77.7544 112.327 77.9884 112.148 78.091C111.664 78.3043 111.238 78.6291 110.843 78.9768C110.769 79.0299 110.749 79.1215 110.71 79.1982C110.769 79.351 110.877 79.4802 111.037 79.5348C111.225 79.5267 111.415 79.5297 111.604 79.5385C111.63 79.5215 111.683 79.4876 111.709 79.4699C112.119 79.4581 112.544 79.5311 112.943 79.4086C113.291 79.2802 113.434 78.9162 113.587 78.6106C113.809 78.5058 114.026 78.3914 114.26 78.3146C114.534 78.1559 114.868 78.1847 115.145 78.0334C115.82 77.7972 116.449 77.4414 117.15 77.2856C117.657 77.2015 118.174 77.2709 118.684 77.231C119.083 77.1446 119.494 77.2096 119.898 77.1734C119.923 77.1587 119.975 77.1284 120 77.1129C120.122 77.1077 120.247 77.0974 120.365 77.0605C120.652 76.9719 120.93 76.8553 121.191 76.7047C121.489 76.45 121.77 76.1607 121.939 75.8012C122.028 75.61 122.203 75.4823 122.35 75.3391C122.524 75.3236 122.7 75.3228 122.875 75.3384C123.723 76.0411 124.021 77.1483 124.421 78.1286C124.573 78.4025 124.644 78.7103 124.749 79.0041C125.086 79.9903 125.397 80.9853 125.752 81.9649C125.907 82.3812 126.032 82.8086 126.197 83.222C126.333 83.4523 126.381 83.7188 126.499 83.9572C126.531 84.0782 126.545 84.2037 126.562 84.3285C126.617 84.4488 126.667 84.5721 126.714 84.6961C126.765 84.8179 126.815 84.9412 126.861 85.0659C126.93 85.2401 127.012 85.4092 127.086 85.5826C127.494 86.5061 127.934 87.4192 128.471 88.2769C128.815 88.677 129.052 89.1576 129.412 89.5481C129.802 90.0714 130.317 90.4826 130.755 90.9653C130.881 91.1049 130.85 91.3042 130.855 91.4769C130.757 91.6858 130.567 91.8755 130.319 91.8578C126.903 91.8504 123.487 91.8733 120.072 91.8445C120.047 91.8275 119.998 91.7943 119.973 91.7781C119.631 91.812 119.304 91.6954 118.966 91.6954L118.862 91.6327C118.75 91.6282 118.638 91.6216 118.527 91.6127C118.409 91.5544 118.276 91.5492 118.148 91.5419C118.119 91.5264 118.061 91.4954 118.032 91.4799C117.791 91.4474 117.559 91.3787 117.329 91.3071C116.48 91.0938 115.677 90.7365 114.881 90.3815C114.649 90.2877 114.433 90.1607 114.21 90.0478C113.364 89.5828 112.558 89.0483 111.796 88.4571C111.485 88.2762 111.178 88.0688 110.973 87.7661C110.849 87.5727 110.619 87.4886 110.483 87.3055C110.254 86.9881 109.947 86.7393 109.709 86.43C108.949 85.5332 108.288 84.5574 107.738 83.5195C107.713 83.4663 107.687 83.4139 107.662 83.3622C107.456 83.0699 107.331 82.7348 107.185 82.4115C107.135 82.2882 107.087 82.1649 107.037 82.0416C106.49 80.6354 106.154 79.151 106.016 77.6503C106.012 77.2273 105.994 76.8043 105.964 76.3829C106.016 75.9496 105.998 75.5118 106.026 75.0763C106.112 74.3669 106.195 73.6531 106.37 72.9585C106.615 72.0572 106.868 71.1529 107.26 70.3018C107.538 69.6367 107.881 68.9997 108.254 68.3826C108.458 67.9788 108.804 67.6754 109.037 67.2894C109.574 66.5542 110.188 65.8787 110.846 65.2498C110.977 65.131 111.053 64.9627 111.188 64.8468C111.801 64.3478 112.418 63.8458 113.088 63.4229C113.553 63.1667 113.973 62.7991 114.505 62.6906C114.757 62.5843 114.989 62.4315 115.247 62.337C115.415 62.2543 115.588 62.1805 115.765 62.1163C115.888 62.0639 116.015 62.0152 116.141 61.9657C116.438 61.7989 116.775 61.728 117.099 61.6306Z" fill="#0F0E0E" fill-opacity="0.4"/>
<path d="M129.897 63.7506C131.464 63.7115 133.034 63.7447 134.604 63.7337C138.404 63.7359 142.204 63.73 146.005 63.7366C146.307 63.7241 146.569 63.9212 146.692 64.1876C146.698 64.3582 146.7 64.5279 146.691 64.6985C146.564 64.9236 146.36 65.1443 146.079 65.1332C140.774 65.1399 135.469 65.134 130.164 65.1362C129.945 65.1576 129.752 65.0542 129.573 64.9457C129.487 64.7634 129.37 64.5767 129.404 64.3655C129.422 64.0813 129.658 63.8732 129.897 63.7506ZM134.242 66.9727C134.353 66.7838 134.529 66.6465 134.725 66.5535C138.187 66.5549 141.649 66.5727 145.111 66.5387C146.392 66.5439 147.674 66.5284 148.955 66.5461C149.401 66.549 149.727 67.0436 149.581 67.4548C149.55 67.6541 149.365 67.767 149.238 67.9043H134.749C134.291 67.9117 134.117 67.3404 134.242 66.9727ZM137.694 69.8988C137.703 69.6006 137.962 69.4102 138.204 69.2839C142.235 69.2943 146.266 69.2862 150.297 69.2884C150.592 69.2987 150.945 69.2227 151.177 69.4589C151.481 69.7239 151.486 70.2229 151.197 70.5027C151.042 70.6134 150.869 70.7138 150.673 70.7079C146.599 70.7123 142.524 70.7064 138.449 70.7108C138.361 70.7093 138.273 70.6983 138.188 70.6783C137.862 70.5757 137.629 70.2428 137.694 69.8988ZM140.748 72.9696C140.643 72.5282 141.036 72.0705 141.486 72.0927C144.892 72.0942 148.297 72.0942 151.703 72.0927C151.928 72.0831 152.145 72.2027 152.298 72.3606C152.419 72.5644 152.353 72.8168 152.365 73.042C152.319 73.104 152.274 73.1667 152.23 73.2302C152.043 73.3955 151.796 73.462 151.55 73.442C148.221 73.4251 144.892 73.462 141.563 73.459C141.218 73.4797 140.908 73.2634 140.748 72.9696ZM143.392 75.2624C143.494 74.9915 143.79 74.8217 144.073 74.8239C146.822 74.8261 149.57 74.8232 152.32 74.8261C152.406 74.8955 152.496 74.9605 152.59 75.021C152.78 75.2535 152.827 75.5658 152.73 75.8485C152.587 76.0699 152.354 76.2796 152.074 76.2641C149.385 76.2611 146.695 76.2685 144.007 76.2604C143.534 76.2427 143.167 75.6905 143.392 75.2624ZM145.834 78.0667C145.94 77.7559 146.288 77.637 146.588 77.6297C148.45 77.6267 150.312 77.637 152.174 77.6245C152.407 77.7588 152.668 77.9515 152.683 78.2453C152.735 78.6542 152.331 79.0469 151.923 78.9968C150.098 78.9908 148.273 79.0004 146.448 78.9916C146.01 78.9724 145.629 78.4845 145.834 78.0667ZM148.553 80.3926C148.712 80.3498 148.877 80.3587 149.04 80.3594C149.862 80.3668 150.685 80.352 151.508 80.3675C151.578 80.3911 151.65 80.4126 151.724 80.4325C151.858 80.5329 151.976 80.6532 152.084 80.7809C152.152 80.9839 152.15 81.1958 152.077 81.3965C151.937 81.635 151.69 81.8077 151.405 81.8003H148.669C148.545 81.8047 148.434 81.7523 148.32 81.7169C148.032 81.5065 147.871 81.1116 148.044 80.7779C148.132 80.5668 148.342 80.4502 148.553 80.3926Z" fill="#0F0E0E" fill-opacity="0.4"/>
</g>
<defs>
<clipPath id="clip0_1162_2954">
<rect width="116" height="59" fill="white" transform="translate(78 61)"/>
</clipPath>
</defs>
</svg>
