<svg width="270" height="180" viewBox="0 0 270 180" fill="none" xmlns="http://www.w3.org/2000/svg">
<path d="M87.5889 73C79.3419 74.1763 73 81.2957 73 89.9025C73 92.2186 73.4592 94.427 74.2912 96.4408C84.4404 89.8663 87.1549 85.1491 87.5889 73Z" fill="#0F0E0E" fill-opacity="0.4"/>
<path d="M76.9189 100.807C80.0374 104.576 84.7402 106.976 90.0011 106.976C95.3027 106.976 100.038 104.539 103.155 100.719C101.086 98.7473 97.2648 96.5877 90.392 96.3785C84.0632 96.1859 79.7107 98.4505 76.9189 100.807Z" fill="#0F0E0E" fill-opacity="0.4"/>
<path d="M105.857 96.0741C106.597 94.16 107.002 92.0788 107.002 89.9025C107.002 81.3973 100.809 74.3446 92.7045 73.0441C92.5832 76.7173 92.9592 82.14 95.4727 86.9589C97.7588 91.3416 102.2 94.2816 105.857 96.0741Z" fill="#0F0E0E" fill-opacity="0.4"/>
<path d="M130.346 74.9718V88.7744H126.458V83.3914H121.157V88.7744H117.269V74.9718H121.157V80.1576H126.458V74.9718H130.346Z" fill="#0F0E0E" fill-opacity="0.4"/>
<path fill-rule="evenodd" clip-rule="evenodd" d="M143.593 83.4505C143.593 83.4768 143.573 83.7857 143.534 84.3773H135.798C135.955 84.9294 136.256 85.3566 136.701 85.6589C137.159 85.9481 137.728 86.0927 138.409 86.0927C138.92 86.0927 139.358 86.0204 139.725 85.8758C140.104 85.7312 140.484 85.4946 140.863 85.166L142.827 87.2167C141.793 88.3735 140.281 88.9518 138.291 88.9518C137.048 88.9518 135.955 88.7152 135.012 88.242C134.07 87.7688 133.337 87.1115 132.813 86.2702C132.303 85.4289 132.047 84.4759 132.047 83.4111C132.047 82.3595 132.296 81.4196 132.793 80.5914C133.304 79.7501 134.004 79.0929 134.894 78.6196C135.785 78.1464 136.786 77.9098 137.899 77.9098C138.959 77.9098 139.921 78.1332 140.785 78.5802C141.649 79.014 142.329 79.6515 142.827 80.4928C143.337 81.321 143.593 82.3069 143.593 83.4505ZM137.918 80.5717C137.342 80.5717 136.858 80.736 136.465 81.0647C136.086 81.3933 135.843 81.8402 135.739 82.4055H140.098C139.993 81.8402 139.744 81.3933 139.352 81.0647C138.972 80.736 138.494 80.5717 137.918 80.5717Z" fill="#0F0E0E" fill-opacity="0.4"/>
<path d="M148.67 79.3689C149.05 78.8825 149.541 78.521 150.143 78.2844C150.758 78.0347 151.458 77.9098 152.244 77.9098V81.2816C151.903 81.2421 151.622 81.2224 151.399 81.2224C150.601 81.2224 149.973 81.4393 149.515 81.8731C149.069 82.3069 148.847 82.9707 148.847 83.8646V88.7744H145.116V78.0872H148.67V79.3689Z" fill="#0F0E0E" fill-opacity="0.4"/>
<path fill-rule="evenodd" clip-rule="evenodd" d="M158.832 88.9518C157.693 88.9518 156.665 88.7152 155.749 88.242C154.833 87.7688 154.113 87.1115 153.589 86.2702C153.079 85.4289 152.823 84.4759 152.823 83.4111C152.823 82.3595 153.079 81.413 153.589 80.5717C154.113 79.7304 154.826 79.0797 155.729 78.6196C156.646 78.1464 157.68 77.9098 158.832 77.9098C159.984 77.9098 161.018 78.1464 161.934 78.6196C162.85 79.0797 163.564 79.7304 164.074 80.5717C164.585 81.3999 164.84 82.3463 164.84 83.4111C164.84 84.4759 164.585 85.4289 164.074 86.2702C163.564 87.1115 162.85 87.7688 161.934 88.242C161.018 88.7152 159.984 88.9518 158.832 88.9518ZM158.832 85.9744C159.486 85.9744 160.023 85.751 160.442 85.304C160.861 84.8439 161.07 84.213 161.07 83.4111C161.07 82.6224 160.861 82.0045 160.442 81.5576C160.023 81.1107 159.486 80.8872 158.832 80.8872C158.177 80.8872 157.641 81.1107 157.222 81.5576C156.803 82.0045 156.593 82.6224 156.593 83.4111C156.593 84.213 156.803 84.8439 157.222 85.304C157.641 85.751 158.177 85.9744 158.832 85.9744Z" fill="#0F0E0E" fill-opacity="0.4"/>
<path d="M125.618 104.852V103.133H119.413V100.088H124.722V98.4004H119.413V95.5295H125.398V93.8101H117.371V104.852H125.618Z" fill="#0F0E0E" fill-opacity="0.4"/>
<path d="M129.512 93.1475H127.549V104.852H129.512V93.1475Z" fill="#0F0E0E" fill-opacity="0.4"/>
<path fill-rule="evenodd" clip-rule="evenodd" d="M139.786 101.271C139.807 101.019 139.817 100.824 139.817 100.688C139.817 99.8254 139.634 99.0682 139.268 98.4162C138.912 97.7537 138.409 97.2436 137.76 96.8861C137.121 96.518 136.393 96.334 135.576 96.334C134.749 96.334 134.005 96.518 133.346 96.8861C132.686 97.2541 132.168 97.7694 131.791 98.432C131.424 99.084 131.241 99.8201 131.241 100.64C131.241 101.471 131.429 102.218 131.806 102.88C132.194 103.532 132.738 104.042 133.44 104.41C134.142 104.779 134.953 104.963 135.875 104.963C136.597 104.963 137.246 104.847 137.822 104.616C138.398 104.384 138.875 104.042 139.252 103.59L138.199 102.376C137.603 102.985 136.843 103.29 135.922 103.29C135.199 103.29 134.592 103.112 134.1 102.754C133.618 102.386 133.32 101.892 133.204 101.271H139.786ZM133.974 98.4793C134.414 98.1007 134.948 97.9114 135.576 97.9114C136.215 97.9114 136.749 98.1007 137.178 98.4793C137.608 98.8579 137.864 99.3521 137.948 99.9621H133.189C133.283 99.3416 133.545 98.8473 133.974 98.4793Z" fill="#0F0E0E" fill-opacity="0.4"/>
<path d="M143.054 104.41C143.745 104.779 144.526 104.963 145.395 104.963C146.212 104.963 146.929 104.794 147.547 104.458C148.175 104.111 148.651 103.622 148.976 102.991L147.468 102.107C147.227 102.496 146.924 102.791 146.557 102.991C146.201 103.18 145.808 103.275 145.379 103.275C144.636 103.275 144.023 103.038 143.541 102.565C143.07 102.081 142.834 101.44 142.834 100.64C142.834 99.8411 143.075 99.2049 143.557 98.7317C144.039 98.2479 144.646 98.006 145.379 98.006C145.808 98.006 146.201 98.1059 146.557 98.3058C146.924 98.4951 147.227 98.7842 147.468 99.1733L148.976 98.29C148.662 97.659 148.191 97.1753 147.562 96.8387C146.945 96.5022 146.222 96.334 145.395 96.334C144.515 96.334 143.73 96.518 143.039 96.8861C142.358 97.2541 141.824 97.7642 141.436 98.4162C141.049 99.0682 140.855 99.8096 140.855 100.64C140.855 101.471 141.049 102.218 141.436 102.88C141.824 103.532 142.363 104.042 143.054 104.41Z" fill="#0F0E0E" fill-opacity="0.4"/>
<path d="M154.818 104.821C155.153 104.726 155.436 104.584 155.666 104.395L155.116 102.991C154.823 103.222 154.456 103.338 154.017 103.338C153.64 103.338 153.352 103.233 153.153 103.022C152.954 102.801 152.854 102.486 152.854 102.076V98.0691H155.1V96.4917H152.854V94.5672H150.891V96.4917H149.508V98.0691H150.891V102.123C150.891 103.049 151.142 103.753 151.645 104.237C152.147 104.721 152.859 104.963 153.781 104.963C154.148 104.963 154.493 104.915 154.818 104.821Z" fill="#0F0E0E" fill-opacity="0.4"/>
<path d="M161.978 96.334C160.554 96.334 159.559 96.7756 158.993 97.659V96.4286H157.124V104.852H159.088V100.767C159.088 99.9253 159.302 99.2838 159.732 98.8421C160.161 98.3899 160.758 98.1638 161.522 98.1638C161.658 98.1638 161.81 98.1796 161.978 98.2111V96.334Z" fill="#0F0E0E" fill-opacity="0.4"/>
<path fill-rule="evenodd" clip-rule="evenodd" d="M164.886 104.41C165.567 104.779 166.331 104.963 167.18 104.963C168.038 104.963 168.808 104.779 169.489 104.41C170.169 104.042 170.698 103.532 171.075 102.88C171.463 102.218 171.656 101.471 171.656 100.64C171.656 99.8096 171.463 99.0682 171.075 98.4162C170.698 97.7642 170.169 97.2541 169.489 96.8861C168.808 96.518 168.038 96.334 167.18 96.334C166.331 96.334 165.567 96.518 164.886 96.8861C164.206 97.2541 163.671 97.7642 163.284 98.4162C162.907 99.0682 162.719 99.8096 162.719 100.64C162.719 101.471 162.907 102.218 163.284 102.88C163.671 103.532 164.206 104.042 164.886 104.41ZM168.97 102.549C168.499 103.033 167.902 103.275 167.18 103.275C166.457 103.275 165.86 103.033 165.389 102.549C164.928 102.065 164.698 101.429 164.698 100.64C164.698 99.8516 164.928 99.2154 165.389 98.7317C165.86 98.2479 166.457 98.006 167.18 98.006C167.902 98.006 168.499 98.2479 168.97 98.7317C169.441 99.2154 169.677 99.8516 169.677 100.64C169.677 101.429 169.441 102.065 168.97 102.549Z" fill="#0F0E0E" fill-opacity="0.4"/>
<path d="M180.681 97.2646C180.042 96.6442 179.194 96.334 178.136 96.334C177.518 96.334 176.963 96.4339 176.471 96.6337C175.979 96.8335 175.571 97.1279 175.246 97.517V96.4286H173.377V104.852H175.34V100.593C175.34 99.7728 175.55 99.1471 175.969 98.7159C176.387 98.2742 176.958 98.0534 177.681 98.0534C178.32 98.0534 178.812 98.2427 179.157 98.6212C179.503 98.9893 179.676 99.5414 179.676 100.278V104.852H181.639V100.025C181.639 98.8053 181.32 97.8851 180.681 97.2646Z" fill="#0F0E0E" fill-opacity="0.4"/>
<path d="M185.936 96.4286H183.973V104.852H185.936V96.4286Z" fill="#0F0E0E" fill-opacity="0.4"/>
<path d="M184.067 94.7092C184.308 94.93 184.606 95.0405 184.962 95.0405C185.329 95.0405 185.627 94.9248 185.858 94.6934C186.099 94.4515 186.219 94.1571 186.219 93.8101C186.219 93.4841 186.099 93.2159 185.858 93.0056C185.617 92.7847 185.318 92.6743 184.962 92.6743C184.606 92.6743 184.308 92.79 184.067 93.0213C183.826 93.2422 183.706 93.5209 183.706 93.8574C183.706 94.1939 183.826 94.4778 184.067 94.7092Z" fill="#0F0E0E" fill-opacity="0.4"/>
<path d="M191.545 101.934L193.697 104.852H195.912L192.629 100.546L195.77 96.4286H193.65L191.592 99.1891L189.534 96.4286H187.351L190.477 100.577L187.21 104.852H189.377L191.545 101.934Z" fill="#0F0E0E" fill-opacity="0.4"/>
</svg>
