<svg width="270" height="180" viewBox="0 0 270 180" fill="none" xmlns="http://www.w3.org/2000/svg">
<g clip-path="url(#clip0_1391_4319)">
<path d="M64.0228 92.0906L62.3316 93.0153V93.0458C62.8133 93.266 63.3396 93.3715 63.8691 93.3539C64.2642 93.366 64.6587 93.3145 65.0375 93.2014V86.2673L64.5761 86.2367L63.9934 86.7923V92.0929L64.0228 92.0906ZM50.863 88.6388V88.4862C50.863 87.2221 50.8935 87.0993 52.2465 85.2811L52.216 85.2506L51.1101 85.8669H50.2815C49.8513 85.8669 49.6992 85.8974 49.5436 86.0827C49.4919 86.1469 49.4543 86.2213 49.4331 86.3009C49.4119 86.3806 49.4076 86.4638 49.4204 86.5452H49.2679C49.1284 86.3352 49.0536 86.0889 49.0528 85.8367C49.0436 85.656 49.0716 85.4753 49.1351 85.3058C49.1985 85.1363 49.296 84.9817 49.4216 84.8514C49.5837 84.708 49.7745 84.6009 49.9813 84.5371C50.1882 84.4734 50.4062 84.4546 50.6209 84.4819L51.8202 84.5741L52.6503 84.4819L52.7735 84.5436V91.2623C52.7735 92.065 52.7426 92.3098 51.0194 93.9743L51.0502 94.0361L52.5878 93.5736H53.5411V84.4174H54.0025V88.6395H55.7246V85.5889L57.9089 84.3869L58.032 84.4487L57.7865 86.2673V92.9859L58.8317 93.7562V93.8794L57.2328 94.9269H57.1085L55.7555 93.6327V89.965H54.0315V94.0948L52.7403 94.9578H49.7278L49.6664 94.8346C50.8344 93.3856 50.9275 92.955 50.9275 92.1226V89.9963H48.9899L48.959 89.8727L49.8201 88.6708H50.8649L50.863 88.6388ZM60.7014 90.0878C60.6848 90.5393 60.7577 90.9896 60.9161 91.4127C61.0744 91.8358 61.3149 92.2234 61.6238 92.5531C61.7206 92.6634 61.8349 92.7571 61.962 92.8303H61.9929L62.3617 92.3678V87.0673L63.9606 86.2043V86.1738C63.3707 86.0727 62.7748 86.0109 62.1767 85.9889C61.0087 85.9889 60.5473 86.2047 60.2091 86.5445C59.9964 86.7727 59.8666 87.0657 59.8403 87.3765H59.5944C59.4799 87.0813 59.4175 86.7684 59.4098 86.4518C59.4024 86.195 59.4477 85.9395 59.543 85.7009C59.6383 85.4624 59.7816 85.2459 59.9639 85.0649C60.4249 84.6027 61.1631 84.3251 62.33 84.3251C63.1911 84.3251 64.6051 84.6024 65.804 84.6024C66.6341 84.6024 66.8801 84.4792 67.2488 83.9541L67.4014 83.9846C67.1245 85.7727 66.448 86.265 65.5264 86.265H65.4341V93.0145C66.1619 92.7483 66.7647 92.2209 67.1253 91.535L67.2778 91.5655C67.2515 92.3903 66.9103 93.1738 66.3245 93.7551C65.9098 94.1455 65.4219 94.45 64.8889 94.651C64.356 94.852 63.7885 94.9455 63.2193 94.9261C62.6715 94.9579 62.1231 94.8754 61.609 94.6837C61.0948 94.492 60.6262 94.1954 60.2329 93.8128C59.8396 93.4302 59.5303 92.9699 59.3246 92.4612C59.1188 91.9525 59.0212 91.4066 59.038 90.8581C59.0331 90.379 59.123 89.9037 59.3023 89.4594C59.4817 89.0151 59.7471 88.6107 60.0832 88.2692C60.5251 87.8195 61.0604 87.4723 61.6513 87.2522L61.7432 87.3754C61.0803 88.1246 60.7092 89.0872 60.6976 90.0874M69.8594 89.7484C69.8785 88.2775 69.6057 86.8174 69.0568 85.4525C68.508 84.0877 67.694 82.8452 66.662 81.7969C64.4653 79.681 61.5341 78.4988 58.4841 78.4988C55.4341 78.4988 52.5029 79.681 50.3063 81.7969C48.2548 83.9355 47.1094 86.7842 47.1094 89.7477C47.1094 92.7111 48.2548 95.5598 50.3063 97.6984C52.5031 99.814 55.4344 100.996 58.4843 100.996C61.5342 100.996 64.4655 99.814 66.6623 97.6984C68.7349 95.5732 69.8841 92.7153 69.8598 89.7469" fill="#0F0E0E" fill-opacity="0.4"/>
<path d="M78.2619 98.0943L77.9263 98.3498C77.4112 97.9965 76.7965 97.8173 76.1722 97.8385C75.4678 97.8391 74.7729 98.0015 74.1412 98.3132V98.2942C74.8505 97.8323 75.6812 97.5921 76.5276 97.6043C77.1451 97.5702 77.7562 97.7439 78.2634 98.0978M214.282 97.8019C214.301 97.6714 214.356 97.5488 214.44 97.4468C214.662 97.3749 214.895 97.3415 215.129 97.3481C216.112 97.3024 217.075 97.6423 217.811 98.2953L217.496 98.4925C216.825 97.8411 215.742 97.6638 215.01 97.6638C214.76 97.6619 214.512 97.7088 214.28 97.8019M128.618 97.8019C128.637 97.6714 128.692 97.5488 128.776 97.4468C128.998 97.375 129.232 97.3417 129.466 97.3485C130.398 97.324 131.304 97.6638 131.99 98.2957L131.675 98.4928C131.022 97.9503 130.198 97.6567 129.349 97.6642C129.099 97.6643 128.851 97.7111 128.619 97.8022M95.6788 96.5004C96.2493 97.1278 96.8991 97.6783 97.6118 98.1378L97.2171 98.3933C96.517 97.9326 95.8804 97.3821 95.3234 96.7559L95.6788 96.5004ZM189.722 96.5004C190.293 97.1278 190.943 97.6783 191.655 98.1378L191.261 98.3933C190.561 97.9326 189.924 97.3821 189.367 96.7559L189.722 96.5004ZM155.501 96.5004C156.071 97.1278 156.721 97.6783 157.434 98.1378L157.039 98.3933C156.339 97.9326 155.702 97.3821 155.145 96.7559L155.501 96.5004ZM183.844 96.3822C184.445 97.0812 185.158 97.6747 185.955 98.1382L185.561 98.3937C184.787 97.9166 184.088 97.3252 183.49 96.6396L183.844 96.3822ZM89.7792 96.3822C90.3844 97.0766 91.097 97.6695 91.8899 98.1382L91.4952 98.3937C90.7205 97.9166 90.0223 97.3252 89.4242 96.6396L89.7792 96.3822ZM138.538 96.1267C139.368 96.9357 140.296 97.6382 141.299 98.2179L140.905 98.494C139.911 97.9089 138.997 97.1995 138.183 96.3829L138.538 96.1267ZM146.584 98.3952C145.865 97.9678 145.235 97.4051 144.73 96.7383V94.8031C144.738 94.2234 144.711 93.6438 144.651 93.0673L145.065 92.9094C145.084 93.3841 145.125 93.9943 145.125 94.6063V96.5969C145.634 97.2233 146.265 97.7401 146.979 98.1161L146.584 98.3952ZM219.602 96.7982V93.3853L218.439 92.8739L218.675 92.6184L219.997 93.1904V97.109L219.938 97.1281L219.602 96.7982ZM133.782 96.7982V93.3853L132.618 92.8739L132.855 92.6184L134.177 93.1904V97.109L134.118 97.1281L133.782 96.7982ZM147.609 93.5626C147.583 92.9934 147.629 92.4232 147.747 91.8657C148.321 92.0234 148.908 92.1289 149.501 92.181V96.3196C149.186 96.4577 148.85 96.5751 148.574 96.7143C148.227 96.5145 147.909 96.2688 147.627 95.9841V93.558L147.609 93.5626ZM80.4888 89.911H83.329V90.2462H80.4888V89.911ZM72.9541 90.3453L73.3091 89.911H75.4972V90.2462H74.5504C74.0161 90.2336 73.4817 90.2667 72.953 90.3449M109.324 98.1378L108.93 98.3933C108.147 97.918 107.463 97.2949 106.918 96.5587V90.915C106.918 89.5735 106.899 89.0011 106.859 88.5279L107.293 88.3506V96.4203C107.844 97.1271 108.535 97.7115 109.324 98.1363M144.946 89.8305C145.636 89.3558 146.287 88.8448 146.939 88.3117C147.712 88.8417 148.584 89.2107 149.503 89.3966V91.744C147.472 91.5667 146.011 90.9154 144.946 89.8301M208.716 88.309L208.776 88.2899C209.31 89.4138 209.951 90.4841 210.689 91.4863L208.718 92.5513L208.716 88.309ZM217.533 93.5371L217.277 93.8131L214.674 92.5898V89.6505C214.673 89.1959 214.647 88.7417 214.595 88.2899L215.07 88.1519V92.3934L217.533 93.5371ZM131.713 93.5371L131.457 93.8131L128.854 92.5898V89.6505C128.853 89.1959 128.826 88.7417 128.775 88.2899L129.25 88.1519V92.3934L131.713 93.5371ZM180.964 96.4584C180.307 97.1504 179.514 97.6986 178.634 98.0687C177.755 98.4388 176.808 98.6227 175.854 98.6088C173.604 98.6088 171.831 97.8785 170.509 96.5969C169.908 95.9975 169.435 95.2835 169.116 94.4974C168.798 93.7112 168.641 92.869 168.655 92.0209C168.657 91.2819 168.813 90.5515 169.112 89.8756C169.411 89.1996 169.846 88.5928 170.39 88.0932L170.409 88.1122C169.506 89.1417 169.021 90.4718 169.049 91.8409C169.043 92.6765 169.204 93.5048 169.523 94.2772C169.842 95.0495 170.312 95.7502 170.906 96.3379C172.129 97.5612 173.827 98.232 175.995 98.232C177.817 98.2933 179.595 97.6585 180.965 96.4565L180.964 96.4584ZM138.499 88.2308H137.809L138.007 87.8758H138.5L138.499 88.2308ZM143.924 87.8956L143.608 88.3101C142.994 88.2316 142.374 88.2052 141.755 88.2312V87.8762H143.885L143.924 87.8956ZM208.974 98.4509C207.818 97.4581 206.755 96.3619 205.798 95.176V90.1844C205.798 89.1983 205.739 88.33 205.699 87.9933L206.114 87.8949C206.179 88.5372 206.205 89.1828 206.193 89.8282V95.0166C207.148 96.1732 208.204 97.2429 209.349 98.2129L208.974 98.4509ZM151.715 98.1355L151.32 98.391C150.707 97.8826 150.175 97.2839 149.742 96.6155V89.2177C148.796 89.0295 147.897 88.6535 147.098 88.1119L147.374 87.8358C148.206 88.3901 149.137 88.7785 150.116 88.9798V96.4569C150.58 97.0781 151.116 97.6415 151.714 98.1348M103.251 98.1348L102.857 98.3903C102.246 97.9592 101.689 97.4557 101.2 96.8909V88.783C100.946 88.4161 100.625 88.1014 100.253 87.856L100.608 87.6981C100.994 87.9641 101.328 88.2983 101.594 88.6842V96.754C102.088 97.28 102.644 97.7438 103.251 98.1352M163.054 98.1352L162.66 98.3906C162.049 97.9596 161.493 97.4561 161.003 96.8912V88.783C160.75 88.4162 160.428 88.1015 160.056 87.856L160.411 87.6981C160.797 87.9641 161.131 88.2983 161.397 88.6842V96.754C161.896 97.2754 162.451 97.7387 163.054 98.1352M197.296 98.1352L196.901 98.3906C196.29 97.9596 195.734 97.4561 195.244 96.8912V88.783C194.991 88.4161 194.669 88.1014 194.297 87.856L194.652 87.6981C195.038 87.9641 195.372 88.2983 195.638 88.6842V96.754C196.136 97.2754 196.692 97.7387 197.295 98.1352M202.621 98.1352L202.226 98.3906C201.615 97.9596 201.059 97.4561 200.569 96.8912V88.783C200.308 88.4033 199.972 88.0805 199.582 87.8343L199.937 87.6764C200.325 87.9546 200.665 88.2944 200.943 88.6823V96.7521C201.454 97.2687 202.016 97.7315 202.621 98.1332M155.7 96.121V88.7231C155.472 88.3803 155.193 88.0742 154.872 87.8156L155.207 87.6382C155.542 87.9076 155.84 88.2192 156.095 88.5653V95.827L155.74 96.103H155.702L155.7 96.121ZM184.044 95.9829V88.7247C183.809 88.3868 183.531 88.0818 183.216 87.8175L183.551 87.6402C183.885 87.9097 184.184 88.2212 184.438 88.5672V95.7087L184.083 95.9848L184.044 95.9829ZM118.52 96.4169C119.049 97.1315 119.738 97.7126 120.531 98.1138L120.137 98.3693C119.337 97.9159 118.65 97.289 118.125 96.5347V88.4284C117.861 88.183 117.562 87.9774 117.238 87.8182L117.573 87.6409C117.907 87.8336 118.218 88.0649 118.499 88.33V96.4184L118.52 96.4169ZM189.943 96.121V88.7231C189.715 88.3804 189.435 88.0745 189.115 87.8159L189.45 87.6386C189.785 87.9078 190.083 88.2193 190.337 88.5653V95.825L189.982 96.1011H189.944L189.943 96.121ZM90.0004 95.9829V88.7247C89.7658 88.3868 89.4873 88.0817 89.1721 87.8175L89.5073 87.6402C89.8418 87.9098 90.1401 88.2215 90.3947 88.5675V95.7087L90.0397 95.9848H90.0015L90.0004 95.9829ZM95.8782 96.121V88.7231C95.6498 88.3804 95.3705 88.0745 95.05 87.8159L95.3852 87.6386C95.7198 87.9079 96.0181 88.2195 96.2725 88.5656V95.827L95.9175 96.103H95.8794L95.8782 96.121ZM123.453 88.1309C123.277 87.9792 123.085 87.8469 122.881 87.7362L123.216 87.5585C123.439 87.6895 123.645 87.8491 123.826 88.0333V96.4573C124.251 97.1042 124.785 97.6721 125.404 98.1352L125.01 98.3906C124.363 97.8945 123.826 97.2699 123.432 96.5561V88.1332L123.453 88.1309ZM109.922 90.1623C109.922 88.4844 109.981 87.8362 110.178 87.2409C110.671 87.517 111.243 87.851 111.932 88.2667V96.2567C111.577 96.3947 111.202 96.5328 110.867 96.691C110.517 96.48 110.198 96.2209 109.92 95.9215L109.922 90.1623ZM221.405 88.6629L221.129 89.0179C220.965 89.0742 220.792 89.1009 220.618 89.0968C220.008 89.096 219.406 88.9613 218.854 88.7022C218.302 88.4431 217.813 88.066 217.423 87.5974V87.2028H217.482C217.877 87.6846 218.374 88.0738 218.936 88.3431C219.499 88.6123 220.113 88.7551 220.736 88.7613C220.966 88.7535 221.193 88.7068 221.407 88.6232L221.405 88.6629ZM135.606 88.6629L135.33 89.0179C135.165 89.0742 134.992 89.1009 134.819 89.0968C134.209 89.096 133.606 88.9613 133.054 88.7022C132.502 88.4431 132.014 88.066 131.623 87.5974V87.2028H131.682C132.078 87.6846 132.574 88.0738 133.137 88.3431C133.699 88.6123 134.313 88.7551 134.937 88.7613C135.167 88.7534 135.393 88.7068 135.608 88.6232L135.606 88.6629ZM210.892 91.3856C210.061 90.2233 209.334 88.9891 208.722 87.6977V87.0876L208.781 87.0685C209.446 88.5392 210.266 89.9346 211.227 91.2311L210.892 91.3856ZM194.182 96.8718L194.024 96.6163C193.826 96.6952 193.629 96.7742 193.452 96.8531C193.267 96.7573 193.095 96.638 192.941 96.4981V88.4867C193.276 88.3094 193.671 88.1317 194.047 87.9753C194.418 88.2141 194.739 88.5223 194.994 88.8829V97.0518C195.539 97.7062 196.177 98.2778 196.887 98.7487H196.946C197.848 98.0608 198.79 97.4283 199.768 96.8546L199.61 96.5991L199.058 96.836C198.755 96.6638 198.481 96.4442 198.248 96.1854V88.4901C198.583 88.3128 198.978 88.1351 199.354 87.9788C199.725 88.2176 200.046 88.5258 200.3 88.8863V97.0541C200.846 97.7083 201.484 98.2798 202.194 98.7506H202.253C203.279 97.9811 204.088 97.4091 205.271 96.6792L205.113 96.4237C204.863 96.5484 204.606 96.6602 204.344 96.7589C204.051 96.6242 203.789 96.4293 203.575 96.1869V88.0932C203.111 87.2218 202.406 86.5026 201.544 86.0218H201.485C200.295 86.5117 199.19 87.1846 198.208 88.0161C197.756 87.169 197.062 86.4754 196.215 86.0233H196.156C194.978 86.502 193.886 87.1686 192.921 87.9971C192.442 87.2342 191.827 86.5653 191.107 86.0233H191.048C189.88 86.6369 188.788 87.3843 187.793 88.2507L187.991 88.4875C188.246 88.3101 188.563 88.1324 188.839 87.9761C189.133 88.2343 189.404 88.5181 189.648 88.8242V96.2601C189.411 96.4375 189.214 96.5953 188.996 96.7536V96.8127C189.65 97.5524 190.399 98.2026 191.223 98.7464H191.282C192.206 98.0581 193.174 97.432 194.181 96.8722M94.6911 96.6548L94.5333 96.3993C94.1981 96.5374 93.9231 96.6548 93.6459 96.794C93.4044 96.6627 93.1793 96.5034 92.9752 96.3192V87.9955C92.5068 87.2188 91.8903 86.5417 91.1608 86.0027H91.1017C89.9339 86.6162 88.8417 87.3637 87.847 88.2301L88.0442 88.4669C88.318 88.2821 88.601 88.1114 88.8922 87.9555C89.1865 88.2138 89.4571 88.4977 89.701 88.804V96.0836C89.4937 96.2661 89.2762 96.4368 89.0497 96.595V96.6541C89.734 97.4706 90.5467 98.1702 91.4559 98.7254H91.515C92.5995 97.9559 93.4286 97.4034 94.6911 96.6541M160.196 96.733L160.038 96.4775C159.723 96.6155 159.466 96.7143 159.19 96.8321C159.012 96.7336 158.847 96.6143 158.697 96.4767V88.4688C159.032 88.2911 159.427 88.1138 159.803 87.9578C160.174 88.1966 160.496 88.5047 160.75 88.8654V97.0331C161.296 97.6874 161.934 98.2589 162.644 98.7296H162.703C163.665 97.9779 164.673 97.2861 165.721 96.6583L165.563 96.4028C165.312 96.5274 165.055 96.6393 164.794 96.738C164.5 96.6031 164.238 96.4083 164.024 96.166V88.0726C163.561 87.2012 162.856 86.482 161.993 86.0012H161.934C160.756 86.4799 159.663 87.1465 158.699 87.975C158.219 87.2121 157.604 86.5432 156.884 86.0012H156.824C155.656 86.6153 154.564 87.3635 153.57 88.2305L153.767 88.4673C154.041 88.2826 154.324 88.1121 154.615 87.9563C154.909 88.2144 155.18 88.4982 155.424 88.8043V96.2403C155.217 96.4174 154.999 96.5822 154.773 96.7338V96.7929C155.427 97.5325 156.177 98.1826 157.001 98.7262H157.061C158.061 97.9944 159.109 97.3287 160.197 96.7334M121.123 87.7198C120.587 87.0562 119.947 86.4833 119.229 86.0229H119.17C118.026 86.7128 117.316 87.2645 116.152 88.0943L116.31 88.3498C116.546 88.2118 116.785 88.0943 116.999 87.9551C117.307 88.1212 117.592 88.3263 117.847 88.5653V96.6735C118.439 97.5074 119.208 98.2009 120.097 98.7049H120.156C121.103 98.015 122.149 97.3042 123.154 96.693C123.652 97.4592 124.272 98.1389 124.989 98.7049H125.048C126.073 97.9552 127.218 97.1265 128.184 96.5141L128.026 96.2586C127.711 96.3967 127.434 96.5347 127.139 96.6731C126.887 96.4961 126.656 96.2914 126.449 96.063V88.4875C126.686 88.3098 126.864 88.1523 127.101 87.994V87.9349C126.416 87.2267 125.671 86.5798 124.874 86.0016H124.814C123.632 86.6914 122.822 87.2249 121.678 88.0135L121.836 88.269L122.605 87.8545C122.809 87.9656 123.001 88.0979 123.177 88.2491V96.2392C122.783 96.397 122.428 96.5545 122.072 96.7139C121.722 96.5029 121.403 96.2439 121.125 95.9444L121.123 87.7198ZM188.757 96.6567L188.599 96.4012C188.264 96.5393 187.989 96.6567 187.712 96.7959C187.471 96.6646 187.245 96.5052 187.041 96.3212V87.994C186.573 87.2173 185.956 86.5402 185.227 86.0012H185.168C184 86.6147 182.908 87.3622 181.913 88.2285L182.111 88.4654C182.384 88.2806 182.667 88.1099 182.959 87.954C183.253 88.2123 183.524 88.4962 183.768 88.8025V96.0821C183.56 96.2645 183.343 96.4353 183.116 96.5934V96.6525C183.8 97.469 184.613 98.1687 185.522 98.7239H185.581C186.603 97.9773 187.663 97.2859 188.758 96.6525M100.373 96.7315L100.215 96.476C99.8998 96.614 99.6431 96.7132 99.367 96.831C99.1892 96.7326 99.0237 96.6134 98.874 96.476V88.468C99.2092 88.2903 99.6042 88.113 99.9798 87.957C100.351 88.1958 100.672 88.504 100.927 88.8646V97.0323C101.472 97.6866 102.11 98.2581 102.82 98.7289H102.879C103.842 97.9771 104.85 97.2853 105.897 96.6575L105.739 96.402C105.489 96.5266 105.232 96.6385 104.97 96.7372C104.677 96.6024 104.415 96.4075 104.201 96.1652V88.0726C103.737 87.2013 103.032 86.4821 102.17 86.0012H102.111C100.933 86.4799 99.8408 87.1465 98.8763 87.975C98.3966 87.2121 97.7817 86.5433 97.0619 86.0012H97.0028C95.835 86.6153 94.7427 87.3635 93.7481 88.2305L93.9456 88.4673C94.2195 88.2826 94.5025 88.1121 94.7937 87.9563C95.0879 88.2144 95.3586 88.4982 95.6025 88.8043V96.2403C95.3953 96.4174 95.1778 96.5822 94.9512 96.7338V96.7929C95.6059 97.5325 96.3553 98.1826 97.1801 98.7262H97.2392C98.243 97.9987 99.2903 97.3332 100.375 96.7334M208.72 93.812V93.2019L213.651 90.5573V90.4784C212.607 89.0385 211.652 87.5357 210.791 85.9787H210.732C208.999 86.7194 207.212 87.3261 205.387 87.7934C205.505 88.6562 205.558 89.5268 205.545 90.3976V95.2908C206.538 96.5437 207.655 97.6935 208.879 98.7228H208.977C210.482 97.7248 212.035 96.8029 213.633 95.9608L213.396 95.6058C212.647 95.9608 212.036 96.2765 211.423 96.5526C210.435 95.7288 209.53 94.8104 208.721 93.8105M151.301 98.7266H151.36C152.385 97.9769 153.53 97.1483 154.496 96.5359L154.338 96.2804C154.023 96.4184 153.746 96.5564 153.451 96.6949C153.199 96.5178 152.968 96.3132 152.761 96.0847V89.93C152.718 89.1959 152.771 88.4592 152.919 87.7389C151.597 87.4236 149.507 86.5949 148.659 85.9848H148.598C147.354 87.444 145.898 88.7084 144.279 89.736V89.8149C145.077 90.7552 146.144 91.4297 147.336 91.7482C146.363 92.2183 145.362 92.6268 144.338 92.9715C144.432 93.6245 144.479 94.2836 144.476 94.9434V96.9099C145.027 97.675 145.741 98.3083 146.567 98.7644H146.626C147.553 98.0936 148.559 97.4228 149.546 96.7906C150.024 97.525 150.616 98.1778 151.301 98.7239M217.514 98.783C219.031 97.7416 220.711 96.9614 222.485 96.4748C222.382 96.0086 222.336 95.5317 222.347 95.0544V91.8611L219.29 90.5196H219.209L218.322 91.5057L217.394 91.0912V87.9936C217.798 88.4199 218.284 88.7589 218.823 88.9896C219.363 89.2204 219.944 89.338 220.531 89.3352C220.756 89.3297 220.981 89.3033 221.201 89.2562C222.037 88.3761 222.539 87.2317 222.621 86.0206C222.491 86.0008 222.357 86.0008 222.227 86.0206C222.227 86.2466 222.201 86.4718 222.148 86.6914C221.911 86.7927 221.656 86.8464 221.398 86.8493C220.604 86.8314 219.848 86.506 219.288 85.9417H219.229C217.708 86.9439 216.027 87.6779 214.258 88.1119C214.362 88.6845 214.409 89.2662 214.396 89.8481V92.7694L217.256 94.0717H217.335L218.243 93.0657L219.327 93.5405V96.6178C218.34 95.805 217.095 95.3712 215.816 95.3945C215.591 95.4 215.366 95.4264 215.145 95.4735C214.309 96.3611 213.807 97.5119 213.725 98.7289C213.856 98.7486 213.989 98.7486 214.12 98.7289C214.119 98.5029 214.146 98.2777 214.199 98.0581C214.436 97.9567 214.691 97.9031 214.949 97.9002C215.87 97.867 216.768 98.1923 217.454 98.8078H217.513L217.514 98.783ZM131.694 98.783C133.21 97.7416 134.891 96.9614 136.665 96.4748C136.562 96.0086 136.516 95.5317 136.527 95.0544V91.8611L133.47 90.5196H133.391L132.503 91.5057L131.576 91.0912V87.9936C131.979 88.4199 132.466 88.7589 133.005 88.9896C133.545 89.2204 134.126 89.338 134.712 89.3352C134.938 89.3297 135.162 89.3033 135.383 89.2562C136.219 88.3761 136.721 87.2317 136.803 86.0206C136.672 86.0008 136.539 86.0008 136.408 86.0206C136.409 86.2466 136.383 86.4718 136.329 86.6914C136.093 86.7927 135.838 86.8464 135.58 86.8493C134.786 86.8315 134.029 86.5061 133.47 85.9417H133.429C131.909 86.9439 130.228 87.6779 128.459 88.1119C128.563 88.6845 128.609 89.2662 128.597 89.8481V92.7694L131.457 94.0717H131.536L132.443 93.0657L133.527 93.5405V96.6178C132.592 95.8225 131.402 95.3885 130.174 95.3945C129.949 95.4 129.724 95.4264 129.504 95.4735C128.667 96.3609 128.165 97.5115 128.083 98.7285C128.214 98.7482 128.347 98.7482 128.477 98.7285C128.477 98.5026 128.503 98.2773 128.556 98.0577C128.794 97.9564 129.048 97.9027 129.306 97.8999C130.175 97.8952 131.014 98.2194 131.653 98.8074H131.691L131.694 98.783ZM174.338 95.4677L174.319 95.4487C174.477 95.0342 174.496 94.7588 174.496 93.7128V87.9929C174.497 87.3443 174.438 86.6971 174.319 86.0595L174.733 85.8822C174.84 86.5211 174.893 87.1678 174.891 87.8156V93.4188C174.872 94.7604 174.773 95.0365 174.339 95.4708M114.164 98.1359L113.77 98.3914C113.149 97.8683 112.616 97.2489 112.192 96.5568V88.1328C108.128 85.8246 107.674 85.5684 107.28 85.3903L107.182 84.8183H107.201L112.565 87.975V96.3784C113.007 97.0401 113.545 97.6314 114.163 98.1325M177.339 86.3158C177.339 85.3888 177.358 85.0742 177.754 84.6784C177.932 84.6974 178.306 84.7573 178.523 84.7767V95.9234C177.958 96.0821 177.374 96.1618 176.788 96.1602C175.954 96.1678 175.126 96.0275 174.342 95.7457C175.448 95.3118 176.592 94.8183 177.478 94.3851C177.388 93.7446 177.341 93.0986 177.34 92.4518L177.339 86.3158ZM138.759 87.3614C138.759 86.2765 138.7 85.3895 138.661 84.9148L139.135 84.5796H139.154V95.4914L138.8 95.7675H138.76L138.759 87.3614ZM77.336 84.1277C76.2709 85.6271 76.0948 85.9623 76.0948 87.7973V92.7687C76.0948 95.0372 75.996 95.9455 74.4379 97.7599L74.4188 97.7408C75.6814 96.084 75.7207 95.176 75.7207 92.8876V87.8956C75.7207 86.0611 75.9182 85.7255 77.3181 84.1277H77.336ZM85.7779 98.1352L85.3832 98.3906C84.698 97.9411 84.0861 97.3889 83.5689 96.7532V86.2368C83.588 85.4828 83.5286 84.7288 83.3915 83.987L83.8663 83.6518C83.9497 84.4511 83.9826 85.2549 83.9647 86.0584V96.5972C84.4833 97.2038 85.0959 97.7233 85.7791 98.1359M77.5122 83.1412L77.5312 83.1603C77.1112 83.5028 76.5932 83.7031 76.052 83.7323C75.4801 83.7323 74.987 83.4562 74.4741 83.4562C74.2461 83.4495 74.0191 83.488 73.806 83.5695C73.593 83.651 73.3982 83.7738 73.2329 83.9309C73.1035 84.0489 72.9966 84.1893 72.9175 84.3454H72.8984C72.9578 84.0694 73.0948 83.8161 73.2931 83.6152C73.6476 83.2922 74.115 83.1216 74.5942 83.1404C75.1468 83.1404 75.7001 83.4165 76.2908 83.4165C76.7137 83.4154 77.1313 83.3212 77.5137 83.1404M89.5436 82.904C90.0236 83.5168 90.5441 84.0967 91.1017 84.6398L90.7863 84.837C90.2313 84.3029 89.7232 83.7222 89.2675 83.1012L89.5436 82.904ZM183.885 82.8849C184.377 83.4991 184.904 84.0848 185.463 84.6391L185.148 84.8362C184.585 84.2915 184.064 83.7052 183.589 83.0821L183.885 82.8849ZM169.228 86.1602C169.332 85.6055 169.592 85.092 169.978 84.6806C170.708 83.9504 171.792 83.5957 173.232 83.5957C175.482 83.5957 178.163 84.2856 179.919 84.2856C180.826 84.2856 181.575 83.8909 182.187 82.806L182.246 82.8251C181.595 84.1472 180.826 84.6006 179.82 84.6006C178.065 84.6006 175.421 83.9107 173.133 83.9107C171.713 83.9107 170.707 84.2658 169.997 84.9758C169.663 85.3024 169.406 85.7004 169.248 86.14H169.228V86.1602ZM141.97 82.5295L141.872 82.4704C140.393 83.3978 139.228 84.2066 138.381 84.8576C138.446 85.3613 138.479 85.8688 138.479 86.3768C138.173 87.0722 137.817 87.7445 137.414 88.3887L137.473 88.4676H138.479V95.8853C138.243 96.0626 138.065 96.2007 137.828 96.3601V96.4192C138.717 97.3586 139.732 98.1686 140.846 98.8257H140.905C141.901 98.0773 142.956 97.411 144.061 96.8337L143.903 96.5782C143.668 96.6713 143.437 96.7766 143.213 96.8935C142.697 96.6221 142.203 96.3121 141.734 95.9661V88.4875H141.872C142.484 88.4805 143.096 88.5068 143.706 88.5664C144.652 87.3248 145.066 86.633 145.225 86.1793L145.166 86.1202C144.395 86.2206 143.617 86.2667 142.84 86.2582H141.734C141.736 85.0115 141.815 83.7662 141.97 82.5292M113.745 98.7266H113.804C114.829 97.9769 115.974 97.2078 116.94 96.5763L116.782 96.3208C116.467 96.4588 116.19 96.5972 115.895 96.7353C115.641 96.5443 115.41 96.3259 115.205 96.084V89.7298C115.205 88.3692 115.264 87.6985 115.304 87.1654C109.327 83.4772 107.651 82.3316 106.744 81.3062L106.645 81.3253C106.631 82.7509 106.777 84.1735 107.079 85.5668C107.977 85.9743 108.847 86.4423 109.682 86.9675C108.696 87.4609 107.591 87.9532 106.546 88.3879C106.631 89.2532 106.663 90.1228 106.644 90.992V96.6739C107.236 97.5078 108.004 98.2013 108.894 98.7052H108.953C109.88 98.0345 110.927 97.3446 111.932 96.712C112.415 97.4827 113.029 98.1635 113.746 98.7239M90.7463 85.1733H90.8054C91.7522 84.522 92.3833 84.0675 93.2116 83.3978V83.3387C92.645 82.6157 92.0393 81.9242 91.3972 81.2673H91.3381C90.569 81.8199 89.7602 82.3732 88.9117 83.0825V83.1416C89.4568 83.8758 90.071 84.556 90.7459 85.1729M185.047 85.1729H185.106C186.053 84.5216 186.684 84.0671 187.513 83.3975V83.3383C186.946 82.6153 186.34 81.9238 185.698 81.267H185.639C184.87 81.8195 184.061 82.3728 183.213 83.0821V83.1412C183.763 83.8707 184.377 84.5504 185.047 85.1726M80.4515 97.0701L80.4705 97.011V90.4803H83.3305V96.892C83.9175 97.5964 84.6013 98.214 85.3615 98.7266H85.4206C86.5137 97.9114 87.6531 97.1602 88.8331 96.4767L88.6753 96.2007C88.3401 96.3387 88.0651 96.4767 87.7681 96.6152C87.3788 96.4295 87.0405 96.1519 86.7823 95.8064V85.0349C86.7476 83.7788 86.8871 82.524 87.1968 81.3062L87.0985 81.2471C85.6848 82.0328 84.3448 82.944 83.0945 83.9698C83.2797 84.7246 83.3593 85.5014 83.3309 86.278V88.2716H80.4927V84.8599C80.4927 82.888 80.6307 82.3541 80.9674 81.3284L80.8885 81.3093C80.1986 82.2565 79.9615 83.0634 79.9615 85.0578V96.6384C79.4808 96.3894 78.9445 96.2672 78.4033 96.2834C77.6672 96.2873 76.9382 96.4278 76.2534 96.6979L76.2343 96.6789C78.7587 94.429 78.8377 94.0343 78.8377 92.3976V85.4101C78.8377 83.3387 79.0932 82.4312 79.6465 81.4241L79.5675 81.3451C79.087 81.6432 78.5355 81.8072 77.9701 81.8199C77.201 81.8199 76.1558 81.4252 75.2284 81.4252C74.5563 81.407 73.9042 81.6549 73.414 82.115C72.9729 82.5622 72.7253 83.1648 72.7246 83.7929C72.7258 84.1343 72.779 84.4735 72.8824 84.7988H72.9415C73.0127 84.5504 73.1489 84.3256 73.3362 84.1475C73.4794 84.0085 73.6494 83.9 73.8358 83.8287C74.0223 83.7575 74.2213 83.7249 74.4207 83.733C75.0308 83.733 75.4461 83.9885 76.0181 83.9885C76.5901 83.9885 77.0435 83.7914 77.9316 83.1797L77.9507 83.1988C75.6246 85.6256 75.5445 86.0588 75.5445 87.9338V88.269C75.188 88.2552 74.8324 88.2222 74.4794 88.1702C73.7905 88.9304 73.1514 89.7343 72.5659 90.5768L72.625 90.6359C73.2514 90.5377 73.8848 90.4915 74.5187 90.4978H75.5441V93.6942C75.5441 95.666 75.268 96.476 73.6111 98.6065L73.6901 98.7052C74.5026 98.3385 75.3822 98.1438 76.2736 98.1332C76.5721 98.1184 76.8705 98.1631 77.1516 98.2647C77.4326 98.3664 77.6906 98.5228 77.9107 98.7251H77.9698C78.7235 98.068 79.5589 97.5111 80.4553 97.0682M171.205 90.7556C171.208 89.9298 171.377 89.113 171.703 88.354C172.028 87.5949 172.503 86.909 173.099 86.3371L173.02 86.2384C171.887 86.6084 170.859 87.2441 170.022 88.0924C168.969 89.159 168.381 90.5981 168.385 92.0964C168.367 92.9546 168.525 93.8074 168.851 94.6015C169.177 95.3957 169.663 96.1144 170.278 96.7128C171.619 98.0543 173.474 98.8238 175.781 98.8238C176.716 98.8562 177.647 98.6978 178.519 98.3585C179.39 98.0192 180.184 97.5059 180.85 96.8501C181.901 95.7707 182.501 94.3318 182.528 92.8259L182.39 92.8068C181.672 94.1542 180.486 95.193 179.056 95.7282V84.8217C179.451 84.8408 179.666 84.8408 179.786 84.8408C181.285 84.8408 182.43 83.8939 183.021 80.9939L182.883 80.9348C182.311 81.7043 181.561 81.9606 180.497 81.9606C178.761 81.9606 175.921 81.2708 173.811 81.2708C172.154 81.2708 170.753 81.7821 169.825 82.7111C169.497 83.0264 169.237 83.4069 169.064 83.8282C168.891 84.2495 168.807 84.7023 168.819 85.1577C168.824 85.7072 168.938 86.2502 169.154 86.7555H169.233C169.362 86.1604 169.656 85.6135 170.081 85.1771C170.752 84.5064 171.718 84.1121 173.079 84.1121C174.501 84.1551 175.919 84.3001 177.32 84.546C176.255 84.9407 174.894 85.4932 174.005 85.9066C174.147 86.6281 174.213 87.3623 174.203 88.0974V94.0751C174.203 94.8839 174.183 95.2191 173.947 95.5154C173.527 95.322 173.141 95.0621 172.803 94.7459C172.278 94.2252 171.865 93.6025 171.589 92.9161C171.314 92.2297 171.182 91.4942 171.201 90.7549" fill="#0F0E0E" fill-opacity="0.4"/>
</g>
<defs>
<clipPath id="clip0_1391_4319">
<rect width="175.514" height="22.4986" fill="white" transform="translate(47.1108 78.5015)"/>
</clipPath>
</defs>
</svg>
