<svg width="270" height="180" viewBox="0 0 270 180" fill="none" xmlns="http://www.w3.org/2000/svg">
<path d="M116.361 93.7116C122.566 82.8086 128.77 71.9055 134.975 61.0032C133.816 68.468 132.652 75.9317 131.493 83.3965C131.485 83.4747 131.41 83.5185 131.365 83.5758C123.444 92.0879 115.522 100.598 107.601 109.111C110.515 103.974 113.443 98.8456 116.361 93.7116Z" fill="#0F0E0E" fill-opacity="0.4"/>
<path d="M135.593 61C144.728 77.0384 153.855 93.082 162.989 109.121C159.349 105.224 155.718 101.317 152.081 97.4174C147.758 92.7772 143.436 88.1374 139.113 83.4976C139.069 83.4382 139.076 83.3576 139.061 83.2888C137.906 75.8591 136.748 68.4297 135.593 61Z" fill="#0F0E0E" fill-opacity="0.4"/>
<path d="M122.308 95.1602C122.545 94.9027 122.765 94.6285 123.011 94.3808C124.555 94.3731 126.1 94.3783 127.645 94.378C124.973 99.293 122.287 104.2 119.615 109.115C116.386 109.115 113.158 109.117 109.929 109.115C114.057 104.464 118.182 99.8115 122.308 95.1602Z" fill="#0F0E0E" fill-opacity="0.4"/>
<path d="M129.175 94.3774C131.871 94.3781 134.566 94.3756 137.262 94.3781C137.5 96.0129 137.742 97.6471 137.98 99.282C137.088 99.2827 136.196 99.283 135.304 99.2827C135.304 102.56 135.304 105.838 135.304 109.116C132.48 109.117 129.656 109.114 126.832 109.118C127.241 107.705 127.67 106.299 128.087 104.89C128.642 103.03 129.193 101.17 129.75 99.3112C128.838 99.3119 127.926 99.3112 127.014 99.3119C127.735 97.6673 128.454 96.022 129.175 94.3774Z" fill="#0F0E0E" fill-opacity="0.4"/>
<path d="M139.949 94.452C140.245 94.3294 140.568 94.3867 140.878 94.3773C143.117 94.3766 145.355 94.3784 147.594 94.3763C148.914 95.8562 150.226 97.3441 151.545 98.825C149.719 98.8257 147.893 98.8236 146.067 98.8264C145.706 98.8347 145.434 99.2677 145.606 99.5947C146.16 100.637 146.725 101.674 147.281 102.716C147.499 103.199 148.002 103.53 148.53 103.538C150.688 103.538 152.845 103.538 155.003 103.538C155.24 103.542 155.477 103.53 155.714 103.543C157.358 105.394 158.993 107.254 160.633 109.11C155.179 109.111 149.725 109.111 144.271 109.11C144.03 109.104 143.786 109.139 143.547 109.091C142.965 109.001 142.441 108.606 142.19 108.072C142.067 107.83 142.031 107.558 141.96 107.299C141.02 103.511 140.074 99.7243 139.136 95.9361C138.994 95.3291 139.363 94.6567 139.949 94.452Z" fill="#0F0E0E" fill-opacity="0.4"/>
<path d="M121.905 113.312C122.406 112.879 123.075 112.617 123.74 112.688C124.155 112.722 124.553 112.887 124.88 113.145C124.982 113.219 125.128 113.312 125.25 113.225C125.406 113.093 125.358 112.847 125.51 112.712C125.556 112.74 125.623 112.76 125.613 112.829C125.624 113.512 125.621 114.195 125.647 114.877C125.65 114.972 125.644 115.069 125.609 115.159C125.561 115.144 125.495 115.14 125.484 115.079C125.369 114.756 125.281 114.421 125.13 114.112C124.995 113.842 124.849 113.572 124.644 113.348C124.412 113.087 124.093 112.891 123.742 112.856C123.283 112.813 122.765 112.948 122.486 113.34C122.283 113.619 122.203 113.961 122.135 114.292C122.046 114.808 122.021 115.331 121.996 115.853C121.99 116.501 121.999 117.17 122.234 117.784C122.366 118.126 122.588 118.451 122.92 118.623C123.279 118.811 123.705 118.788 124.09 118.704C124.54 118.607 124.948 118.323 125.181 117.922C125.417 117.54 125.485 117.087 125.509 116.646C125.589 116.625 125.671 116.63 125.752 116.646C125.763 116.693 125.79 116.739 125.781 116.79C125.752 117.109 125.693 117.428 125.584 117.73C125.386 118.296 124.868 118.718 124.292 118.852C123.885 118.945 123.455 118.997 123.044 118.895C122.56 118.778 122.112 118.529 121.732 118.208C121.603 118.096 121.48 117.973 121.395 117.823C121.245 117.566 121.08 117.314 120.973 117.034C120.685 116.296 120.688 115.45 120.979 114.714C121.184 114.189 121.494 113.699 121.905 113.312Z" fill="#0F0E0E" fill-opacity="0.4"/>
<path d="M159.26 112.739C159.388 112.73 159.517 112.702 159.646 112.717C159.728 112.733 159.784 112.813 159.779 112.895C159.782 114.61 159.78 116.324 159.78 118.039C159.773 118.215 159.767 118.437 159.937 118.543C160.144 118.648 160.387 118.622 160.613 118.625C160.652 118.679 160.659 118.776 160.573 118.78C160.055 118.814 159.536 118.834 159.018 118.86C158.923 118.87 158.801 118.838 158.781 118.73C158.765 118.558 158.786 118.384 158.773 118.211C158.757 118.188 158.74 118.167 158.724 118.147C158.608 118.278 158.502 118.421 158.363 118.53C158.004 118.831 157.504 118.955 157.047 118.849C156.551 118.742 156.135 118.386 155.886 117.95C155.553 117.367 155.466 116.643 155.665 116C155.837 115.453 156.21 114.964 156.713 114.685C157.08 114.481 157.526 114.395 157.933 114.518C158.276 114.615 158.543 114.87 158.744 115.156C158.798 115.071 158.768 114.97 158.771 114.877C158.768 114.391 158.772 113.904 158.771 113.418C158.774 113.26 158.674 113.103 158.526 113.049C158.314 112.97 158.085 113 157.865 112.978C157.867 112.922 157.847 112.85 157.917 112.833C158.365 112.802 158.812 112.768 159.26 112.739ZM157.473 114.686C157.209 114.763 157.027 114.995 156.921 115.238C156.727 115.681 156.699 116.173 156.684 116.65C156.694 116.989 156.705 117.329 156.777 117.661C156.836 117.923 156.927 118.19 157.115 118.39C157.316 118.609 157.646 118.692 157.931 118.612C158.114 118.555 158.271 118.427 158.38 118.27C158.613 117.945 158.706 117.543 158.752 117.152C158.803 116.618 158.784 116.067 158.618 115.553C158.52 115.267 158.374 114.98 158.126 114.799C157.942 114.66 157.692 114.618 157.473 114.686Z" fill="#0F0E0E" fill-opacity="0.4"/>
<path d="M135.588 112.799C135.913 112.699 136.287 112.942 136.323 113.282C136.383 113.619 136.091 113.957 135.752 113.952C135.455 113.965 135.18 113.716 135.16 113.419C135.128 113.143 135.321 112.866 135.588 112.799Z" fill="#0F0E0E" fill-opacity="0.4"/>
<path d="M146.942 112.797C147.303 112.689 147.702 113.005 147.674 113.383C147.675 113.738 147.309 114.024 146.966 113.94C146.674 113.882 146.463 113.58 146.511 113.285C146.536 113.054 146.718 112.852 146.942 112.797Z" fill="#0F0E0E" fill-opacity="0.4"/>
<path d="M149.535 112.896C149.544 112.782 149.737 112.786 149.747 112.899C149.748 113.408 149.745 113.917 149.746 114.426C149.732 114.501 149.8 114.569 149.875 114.565C150.234 114.571 150.594 114.558 150.953 114.57C151.059 114.578 151.076 114.736 150.987 114.782C150.628 114.781 150.269 114.775 149.91 114.782C149.805 114.777 149.736 114.883 149.747 114.98C149.745 116.023 149.748 117.066 149.746 118.109C149.739 118.303 149.812 118.523 149.995 118.615C150.259 118.744 150.611 118.677 150.794 118.44C150.987 118.19 151.036 117.86 151.035 117.552C151.027 117.494 151.057 117.446 151.084 117.399C151.134 117.407 151.204 117.386 151.236 117.442C151.283 117.504 151.254 117.584 151.252 117.655C151.224 118.038 151.112 118.442 150.827 118.714C150.632 118.907 150.355 118.995 150.086 118.999C149.768 119.006 149.436 118.963 149.158 118.8C148.892 118.647 148.71 118.349 148.715 118.04C148.716 117.044 148.715 116.048 148.716 115.052C148.706 114.966 148.718 114.856 148.641 114.799C148.54 114.759 148.426 114.786 148.321 114.779C148.202 114.769 148.068 114.817 147.964 114.741C147.961 114.667 147.978 114.56 148.076 114.567C148.575 114.611 149.04 114.274 149.261 113.841C149.405 113.545 149.485 113.221 149.535 112.896Z" fill="#0F0E0E" fill-opacity="0.4"/>
<path d="M114.423 112.898C116.151 112.898 117.88 112.897 119.608 112.898C119.605 113.69 119.614 114.481 119.604 115.272C119.612 115.383 119.472 115.405 119.408 115.334C119.322 114.753 119.142 114.182 118.842 113.676C118.705 113.452 118.518 113.23 118.253 113.164C118.054 113.12 117.85 113.096 117.647 113.11C117.572 113.162 117.565 113.265 117.565 113.35C117.567 114.971 117.565 116.592 117.565 118.213C117.559 118.352 117.633 118.494 117.765 118.547C118.06 118.672 118.392 118.628 118.698 118.698C118.713 118.775 118.681 118.868 118.585 118.851C117.523 118.853 116.461 118.85 115.399 118.853C115.345 118.849 115.275 118.859 115.243 118.804C115.244 118.776 115.246 118.719 115.247 118.691C115.591 118.633 115.956 118.63 116.271 118.463C116.365 118.413 116.476 118.337 116.471 118.217C116.472 116.572 116.471 114.926 116.471 113.28C116.476 113.21 116.451 113.115 116.368 113.109C116.11 113.093 115.835 113.116 115.609 113.252C115.325 113.446 115.149 113.756 115.001 114.059C114.807 114.455 114.706 114.887 114.615 115.316C114.582 115.402 114.48 115.38 114.422 115.333C114.423 114.521 114.422 113.709 114.423 112.898Z" fill="#0F0E0E" fill-opacity="0.4"/>
<path d="M109.953 113.079C109.945 113.017 109.943 112.922 110.03 112.928C111 112.927 111.971 112.926 112.942 112.928C113.03 112.921 113.024 113.017 113.018 113.078C112.75 113.141 112.458 113.117 112.205 113.241C112.099 113.291 112.03 113.406 112.04 113.524C112.04 115.1 112.039 116.675 112.04 118.251C112.031 118.388 112.134 118.505 112.258 118.548C112.486 118.629 112.731 118.639 112.969 118.67C113.026 118.687 113.034 118.751 113.015 118.801C112.972 118.856 112.898 118.842 112.837 118.847C111.913 118.844 110.99 118.847 110.066 118.844C109.982 118.857 109.924 118.783 109.952 118.704C110.01 118.643 110.101 118.665 110.175 118.651C110.363 118.625 110.558 118.612 110.736 118.539C110.851 118.493 110.937 118.377 110.931 118.251C110.933 116.674 110.932 115.098 110.932 113.521C110.941 113.385 110.846 113.263 110.722 113.218C110.476 113.124 110.207 113.134 109.953 113.079Z" fill="#0F0E0E" fill-opacity="0.4"/>
<path d="M129.08 112.939C130.104 112.924 131.129 112.936 132.153 112.933C132.249 112.907 132.303 113.056 132.216 113.098C131.925 113.142 131.617 113.122 131.337 113.229C131.189 113.281 131.11 113.439 131.121 113.591C131.122 115.133 131.119 116.675 131.122 118.218C131.11 118.381 131.226 118.531 131.381 118.572C131.656 118.651 131.946 118.683 132.229 118.638C132.622 118.589 133.047 118.513 133.344 118.227C133.77 117.817 133.932 117.219 134.023 116.652C134.039 116.575 134.033 116.455 134.127 116.429C134.223 116.455 134.231 116.567 134.231 116.65C134.231 117.334 134.231 118.018 134.231 118.703C134.244 118.767 134.198 118.842 134.129 118.843C132.548 118.848 130.966 118.856 129.385 118.853C129.282 118.847 129.176 118.867 129.077 118.839C129.001 118.804 129.03 118.68 129.108 118.678C129.347 118.642 129.597 118.643 129.823 118.55C129.957 118.498 130.039 118.357 130.029 118.215C130.029 116.663 130.029 115.11 130.029 113.558C130.038 113.407 129.935 113.266 129.794 113.219C129.574 113.145 129.339 113.134 129.111 113.106C129.023 113.102 129.008 112.978 129.08 112.939Z" fill="#0F0E0E" fill-opacity="0.4"/>
<path d="M139.858 114.758C140.077 114.605 140.334 114.495 140.604 114.487C140.922 114.473 141.259 114.523 141.522 114.717C141.736 114.874 141.884 115.11 141.967 115.36C141.986 115.422 142.019 115.479 142.055 115.534C142.158 115.434 142.193 115.288 142.286 115.181C142.477 114.951 142.704 114.746 142.975 114.615C143.3 114.449 143.684 114.461 144.032 114.536C144.51 114.639 144.919 115.075 144.931 115.575C144.947 115.852 144.928 116.129 144.928 116.407C144.896 117.009 144.91 117.613 144.879 118.215C144.869 118.347 144.908 118.497 145.038 118.558C145.233 118.648 145.454 118.66 145.663 118.698C145.674 118.746 145.673 118.795 145.662 118.844C145.187 118.862 144.711 118.847 144.236 118.852C143.829 118.847 143.422 118.862 143.017 118.844C143.004 118.795 143.004 118.746 143.017 118.698C143.223 118.663 143.435 118.648 143.632 118.573C143.747 118.528 143.824 118.408 143.817 118.283C143.826 117.45 143.817 116.616 143.822 115.783C143.843 115.552 143.837 115.309 143.739 115.096C143.662 114.928 143.487 114.812 143.302 114.813C143.03 114.802 142.778 114.95 142.601 115.147C142.308 115.476 142.133 115.898 142.066 116.331C142.001 116.618 142.024 116.913 142.02 117.205C142.021 117.566 142.018 117.926 142.021 118.287C142.015 118.412 142.096 118.529 142.211 118.575C142.393 118.648 142.592 118.655 142.781 118.699C142.836 118.729 142.835 118.812 142.778 118.841C142.712 118.857 142.643 118.851 142.575 118.852C141.801 118.85 141.027 118.854 140.253 118.851C140.171 118.873 140.098 118.772 140.159 118.708C140.383 118.637 140.641 118.665 140.844 118.531C140.99 118.428 140.959 118.23 140.961 118.075C140.962 117.241 140.956 116.407 140.965 115.574C140.948 115.343 140.913 115.082 140.733 114.917C140.594 114.79 140.387 114.796 140.218 114.847C139.967 114.918 139.768 115.106 139.621 115.315C139.439 115.58 139.306 115.88 139.254 116.198C139.118 116.814 139.183 117.448 139.168 118.074C139.167 118.235 139.143 118.446 139.304 118.543C139.498 118.65 139.728 118.653 139.941 118.697C139.95 118.713 139.966 118.745 139.975 118.76C139.967 118.781 139.951 118.823 139.944 118.844C139.586 118.863 139.227 118.847 138.869 118.852C138.337 118.85 137.805 118.858 137.274 118.849C137.185 118.847 137.187 118.742 137.234 118.69C137.455 118.671 137.681 118.654 137.894 118.585C138.021 118.546 138.119 118.422 138.107 118.285C138.108 117.252 138.109 116.219 138.107 115.186C138.111 115.049 138.004 114.934 137.878 114.898C137.696 114.843 137.505 114.826 137.316 114.802C137.198 114.785 137.245 114.603 137.344 114.601C137.864 114.582 138.384 114.553 138.904 114.525C139.023 114.512 139.163 114.578 139.174 114.711C139.2 114.95 139.146 115.19 139.171 115.429C139.213 115.516 139.278 115.431 139.3 115.378C139.419 115.121 139.634 114.924 139.858 114.758Z" fill="#0F0E0E" fill-opacity="0.4"/>
<path d="M153.141 114.504C153.712 114.425 154.335 114.58 154.756 114.986C155.148 115.368 155.289 115.942 155.263 116.475C155.266 116.539 155.208 116.595 155.143 116.582C154.277 116.577 153.412 116.587 152.547 116.589C152.46 116.589 152.432 116.686 152.431 116.757C152.401 117.206 152.42 117.675 152.603 118.093C152.724 118.376 152.971 118.609 153.273 118.679C153.741 118.785 154.274 118.66 154.608 118.304C154.819 118.081 154.952 117.791 155.008 117.491C155.017 117.426 155.067 117.353 155.142 117.371C155.26 117.388 155.224 117.535 155.219 117.621C155.125 118.124 154.763 118.564 154.292 118.76C153.709 119.004 153.012 118.996 152.455 118.686C151.832 118.353 151.401 117.697 151.323 116.994C151.166 115.864 152.016 114.689 153.141 114.504ZM153.252 114.69C153.069 114.729 152.903 114.842 152.796 114.996C152.558 115.336 152.515 115.762 152.464 116.162C152.445 116.262 152.49 116.408 152.615 116.4C153.054 116.404 153.493 116.401 153.931 116.401C154.052 116.404 154.206 116.377 154.249 116.243C154.304 116.049 154.301 115.844 154.289 115.644C154.275 115.368 154.218 115.067 154.014 114.866C153.814 114.672 153.513 114.645 153.252 114.69Z" fill="#0F0E0E" fill-opacity="0.4"/>
<path d="M135.618 114.586C135.792 114.585 135.964 114.548 136.137 114.562C136.237 114.577 136.283 114.679 136.274 114.772C136.275 115.955 136.272 117.138 136.274 118.321C136.27 118.441 136.363 118.539 136.472 118.574C136.688 118.644 136.917 118.656 137.139 118.698C137.214 118.727 137.188 118.858 137.106 118.85C136.228 118.855 135.351 118.853 134.474 118.85C134.387 118.862 134.385 118.763 134.403 118.705C134.608 118.647 134.816 118.597 135.023 118.545C135.168 118.507 135.273 118.368 135.263 118.216C135.265 117.218 135.264 116.22 135.263 115.222C135.269 115.087 135.185 114.96 135.061 114.912C134.864 114.84 134.653 114.83 134.447 114.8C134.386 114.783 134.403 114.713 134.394 114.667C134.486 114.631 134.584 114.631 134.681 114.63C134.994 114.623 135.306 114.592 135.618 114.586Z" fill="#0F0E0E" fill-opacity="0.4"/>
<path d="M146.28 114.621C146.649 114.594 147.019 114.59 147.387 114.559C147.483 114.543 147.616 114.59 147.613 114.707C147.618 115.9 147.613 117.093 147.616 118.286C147.61 118.407 147.682 118.522 147.795 118.565C148.017 118.646 148.257 118.654 148.488 118.699C148.574 118.742 148.516 118.874 148.427 118.851C147.56 118.852 146.693 118.854 145.826 118.851C145.748 118.864 145.704 118.752 145.768 118.71C145.975 118.625 146.202 118.603 146.412 118.529C146.541 118.484 146.614 118.35 146.611 118.218C146.612 117.219 146.612 116.22 146.611 115.221C146.618 115.08 146.524 114.949 146.392 114.905C146.2 114.843 145.997 114.826 145.798 114.803C145.737 114.783 145.751 114.712 145.744 114.664C145.918 114.612 146.102 114.637 146.28 114.621Z" fill="#0F0E0E" fill-opacity="0.4"/>
</svg>
