<svg width="270" height="180" viewBox="0 0 270 180" fill="none" xmlns="http://www.w3.org/2000/svg">
<path d="M109.099 91.6401C109.099 91.6401 107.266 96.1459 104.981 95.9378C103.737 95.8249 103.344 94.8102 103.345 94.1896L103.374 78.8654H97.1961V94.567C97.1907 97.1271 99.0623 99.4692 102.376 99.6194C105.494 99.7612 109.094 95.186 109.094 95.186L109.088 99.1277L115.236 99.0773L115.274 78.8684H109.128L109.099 91.6401Z" fill="#0F0E0E" fill-opacity="0.4"/>
<path d="M129.732 78.9571C127.469 78.9533 125.477 80.0748 124.108 81.778L124.086 78.8679H117.964L117.918 106.946L124.067 106.955L124.08 96.7919C125.209 98.4235 127.313 99.6685 129.693 99.673C133.947 99.6807 137.661 95.3815 137.672 89.3296C137.684 83.2776 133.985 78.9647 129.732 78.9571ZM127.787 97.0169C126.265 97.0169 124.669 95.2031 124.086 93.7279L124.102 84.884C124.69 83.4111 126.293 81.6057 127.814 81.6057C129.999 81.6095 131.01 84.1567 131 89.3166C130.99 94.4765 129.972 97.0207 127.787 97.0169Z" fill="#0F0E0E" fill-opacity="0.4"/>
<path d="M139.882 99.2042H146.026L146.064 78.8679H139.882V99.2042Z" fill="#0F0E0E" fill-opacity="0.4"/>
<path d="M169.438 78.9113C163.195 78.9113 159.323 83.6641 159.316 89.2509C159.305 95.3029 163.634 99.3794 169.012 99.6272C171.473 99.74 174.898 98.2167 176.526 96.554L175.529 95.1199C172.281 97.9095 170.836 97.5718 170.836 97.5718C166.779 97.5649 166.055 94.42 166.066 89.0275L178.005 89.0489C177.69 82.6272 173.935 78.9105 169.438 78.9113ZM172.035 87.1558L166.068 87.1452C166.074 83.9637 166.975 79.9588 169.433 79.9588C171.325 79.9588 172.238 84.5515 172.035 87.1558V87.1558Z" fill="#0F0E0E" fill-opacity="0.4"/>
<path d="M159.931 78.7671L156.544 78.7579L156.555 72L147.681 80.6807L150.294 80.6868L150.313 99.178H156.492L156.54 80.6433L159.926 80.6525L159.931 78.7671Z" fill="#0F0E0E" fill-opacity="0.4"/>
<path d="M191.081 78.6977C189.175 79.2467 187.351 80.7562 186.103 82.281L186.109 78.7862H179.927V99.1224H183.189L186.076 99.1278L186.096 85.9817V85.3718C186.93 83.972 188.388 81.9791 189.88 82.1148C190.877 82.2063 191.705 83.2942 191.709 84.2968L195.998 80.1188C196.08 80.0365 193.626 77.9658 191.081 78.6977Z" fill="#0F0E0E" fill-opacity="0.4"/>
<path d="M87.7062 98.6521C87.7062 101.573 85.3256 103.94 82.3882 103.94C79.4507 103.94 77.0701 101.573 77.0701 98.6521C77.0701 98.5712 77.073 98.491 77.0765 98.4115C77.1629 99.6074 78.1651 100.551 79.3901 100.551C80.6293 100.551 81.6415 99.5847 81.7065 98.3682H81.71V91.6963H75V98.3682H75.0007C75.02 103.722 79.3901 108.057 84.7795 108.057C90.1568 108.057 94.5198 103.741 94.5583 98.4037H94.559V72H87.7062V98.3327V98.6521Z" fill="#0F0E0E" fill-opacity="0.4"/>
</svg>
