<svg width="270" height="180" viewBox="0 0 270 180" fill="none" xmlns="http://www.w3.org/2000/svg">
<g clip-path="url(#clip0_1162_3031)">
<path fill-rule="evenodd" clip-rule="evenodd" d="M186.94 100.441C186.94 100.954 186.912 102.161 185.517 102.161C184.967 102.161 184.515 101.928 184.515 101.299C184.515 100.253 185.727 100.149 186.77 100.149H186.94V100.441ZM186.997 102.557H187.583C187.545 102.225 187.53 101.89 187.538 101.555V99.4473C187.538 98.2049 187.037 97.6678 185.845 97.6678C185.356 97.6865 184.876 97.7981 184.43 97.9965V98.5696C184.851 98.3002 185.343 98.1608 185.845 98.1688C186.653 98.1688 186.94 98.5696 186.94 99.3952V99.6397H186.827C185.582 99.6397 183.864 99.7158 183.864 101.315C183.864 101.748 184.082 102.666 185.448 102.666C185.761 102.673 186.07 102.595 186.34 102.439C186.61 102.283 186.832 102.057 186.981 101.784L186.997 102.557Z" fill="#0F0E0E" fill-opacity="0.4"/>
<path fill-rule="evenodd" clip-rule="evenodd" d="M174.344 100.441C174.344 100.954 174.316 102.161 172.917 102.161C172.372 102.161 171.919 101.928 171.919 101.299C171.919 100.253 173.131 100.149 174.174 100.149H174.344V100.441ZM174.401 102.557H174.987C174.945 102.225 174.929 101.89 174.938 101.555V99.4473C174.938 98.2049 174.437 97.6678 173.249 97.6678C172.76 97.6865 172.28 97.7981 171.834 97.9965V98.5696C172.255 98.2998 172.747 98.1603 173.249 98.1688C174.057 98.1688 174.344 98.5696 174.344 99.3952V99.6397H174.231C172.986 99.6397 171.264 99.7158 171.264 101.315C171.264 101.748 171.482 102.666 172.853 102.666C173.165 102.673 173.472 102.594 173.742 102.439C174.012 102.283 174.233 102.056 174.381 101.784L174.401 102.557Z" fill="#0F0E0E" fill-opacity="0.4"/>
<path d="M168.491 102.557H169.085V100.197C169.085 99.3351 169.344 98.285 170.298 98.285C170.445 98.2844 170.592 98.3032 170.734 98.3411V97.7239C170.602 97.69 170.466 97.6712 170.33 97.6678C169.716 97.6678 169.311 98.1648 169.093 98.6978H169.073V97.7801H168.479C168.512 98.1357 168.524 98.493 168.515 98.8501L168.491 102.557Z" fill="#0F0E0E" fill-opacity="0.4"/>
<path fill-rule="evenodd" clip-rule="evenodd" d="M148.635 100.441C148.635 100.954 148.607 102.161 147.208 102.161C146.662 102.161 146.205 101.928 146.205 101.299C146.205 100.253 147.418 100.149 148.465 100.149H148.635V100.441ZM148.691 102.557H149.274C149.235 102.225 149.22 101.89 149.229 101.555V99.4473C149.229 98.2049 148.728 97.6678 147.539 97.6678C147.05 97.6865 146.568 97.7981 146.12 97.9965V98.5696C146.543 98.2997 147.037 98.1602 147.539 98.1688C148.348 98.1688 148.635 98.5696 148.635 99.3952V99.6397H148.522C147.273 99.6397 145.555 99.7158 145.555 101.315C145.555 101.748 145.773 102.666 147.143 102.666C147.455 102.673 147.763 102.594 148.033 102.439C148.303 102.283 148.523 102.056 148.671 101.784H148.691V102.557Z" fill="#0F0E0E" fill-opacity="0.4"/>
<path fill-rule="evenodd" clip-rule="evenodd" d="M128.168 100.441C128.168 100.954 128.14 102.161 126.741 102.161C126.196 102.161 125.743 101.928 125.743 101.299C125.743 100.253 126.956 100.149 127.999 100.149H128.168V100.441ZM128.225 102.557H128.807C128.765 102.225 128.749 101.89 128.758 101.555V99.4473C128.758 98.2049 128.257 97.6678 127.069 97.6678C126.58 97.6865 126.1 97.7981 125.654 97.9965V98.5696C126.075 98.2993 126.567 98.1598 127.069 98.1688C127.877 98.1688 128.164 98.5696 128.164 99.3952V99.6397H128.051C126.802 99.6397 125.084 99.7158 125.084 101.315C125.084 101.748 125.302 102.666 126.673 102.666C126.985 102.673 127.293 102.594 127.562 102.439C127.832 102.283 128.053 102.056 128.201 101.784H128.221L128.225 102.557Z" fill="#0F0E0E" fill-opacity="0.4"/>
<path fill-rule="evenodd" clip-rule="evenodd" d="M117.351 100.169C117.351 99.0625 117.905 98.1648 118.944 98.1648C119.983 98.1648 120.54 99.0545 120.54 100.169C120.54 101.283 119.983 102.173 118.944 102.173C117.905 102.173 117.351 101.271 117.351 100.169ZM116.696 100.169C116.696 101.471 117.387 102.67 118.944 102.67C120.5 102.67 121.191 101.467 121.191 100.169C121.191 98.8702 120.504 97.6678 118.944 97.6678C117.383 97.6678 116.68 98.8662 116.68 100.169H116.696Z" fill="#0F0E0E" fill-opacity="0.4"/>
<path d="M157.993 102.557H158.587V99.9162C158.587 99.1146 158.927 98.1728 160.014 98.1728C160.822 98.1728 161.154 98.754 161.154 99.6517V102.557H161.748V99.5034C161.748 98.4574 161.295 97.6679 160.107 97.6679C159.777 97.6399 159.447 97.719 159.166 97.8932C158.885 98.0674 158.669 98.3273 158.551 98.6337H158.53V97.7801H157.952C157.986 98.1545 157.999 98.5304 157.993 98.9062V102.557Z" fill="#0F0E0E" fill-opacity="0.4"/>
<path d="M188.953 102.557H189.548V99.9162C189.548 99.1146 189.891 98.1728 190.975 98.1728C191.783 98.1728 192.119 98.7539 192.119 99.6517V102.557H192.713V99.5034C192.713 98.4573 192.26 97.6678 191.072 97.6678C190.741 97.6396 190.41 97.7186 190.129 97.8927C189.848 98.0669 189.631 98.3269 189.511 98.6337V97.78H188.917C188.953 98.1808 188.953 98.5415 188.953 98.9062V102.557Z" fill="#0F0E0E" fill-opacity="0.4"/>
<path d="M124.393 97.78H123.297V96.4254L122.703 96.6298V97.78H121.757V98.285H122.703V101.09C122.703 101.964 122.739 102.694 123.799 102.694C124.047 102.691 124.293 102.646 124.526 102.561L124.486 102.072C124.314 102.148 124.128 102.186 123.94 102.185C123.459 102.185 123.297 101.832 123.297 101.383V98.293H124.393V97.78Z" fill="#0F0E0E" fill-opacity="0.4"/>
<path fill-rule="evenodd" clip-rule="evenodd" d="M179.66 96.5818H180.549C181.107 96.5818 181.984 96.714 181.984 97.6598C181.984 98.6979 181.071 98.8622 180.367 98.8622H179.64L179.66 96.5818ZM179.66 99.4393H180.234C181.196 99.4393 182.207 99.5595 182.207 100.722C182.207 101.76 181.216 101.992 180.339 101.992H179.66V99.4393ZM179.009 102.557H180.319C181.689 102.557 182.861 102.116 182.861 100.694C182.868 100.308 182.728 99.9331 182.469 99.6449C182.21 99.3567 181.85 99.1759 181.463 99.1387V99.1187C181.641 99.1012 181.815 99.0487 181.973 98.9643C182.131 98.8798 182.27 98.7651 182.383 98.6267C182.496 98.4884 182.58 98.3292 182.63 98.1584C182.68 97.9876 182.696 97.8086 182.675 97.6318C182.675 96.3774 181.669 96.0287 180.59 96.0287H179.025L179.009 102.557Z" fill="#0F0E0E" fill-opacity="0.4"/>
<path d="M137.595 102.553H138.246V96.6659H138.266L140.74 102.553H141.298L143.695 96.6659H143.711V102.553H144.366V96.0206H143.432L141.015 101.768L138.606 96.0206H137.595V102.553Z" fill="#0F0E0E" fill-opacity="0.4"/>
<path d="M111.449 102.553H112.1V99.287L115.29 102.553H116.187L112.723 99.0986L115.916 96.0206H115.063L112.1 98.9503V96.0206H111.449V102.553Z" fill="#0F0E0E" fill-opacity="0.4"/>
<path fill-rule="evenodd" clip-rule="evenodd" d="M156.493 95.7201H155.891V96.5216H156.489L156.493 95.7201ZM155.891 102.557H156.489V97.7801H155.891V102.557Z" fill="#0F0E0E" fill-opacity="0.4"/>
<path d="M194.204 102.553H194.802V100.101L197.179 102.553H198L195.368 99.8962L197.717 97.7801H196.953L194.802 99.7359V95.5358H194.204V102.553Z" fill="#0F0E0E" fill-opacity="0.4"/>
<path fill-rule="evenodd" clip-rule="evenodd" d="M163.612 100.169C163.612 99.2429 163.903 98.1649 165.035 98.1649C166.094 98.1649 166.462 99.291 166.462 100.169C166.462 101.046 166.094 102.173 165.035 102.173C163.903 102.161 163.612 101.095 163.612 100.169ZM167.056 95.5358H166.462V98.5857C166.328 98.3053 166.115 98.0693 165.849 97.9064C165.583 97.7435 165.275 97.6607 164.962 97.6679C163.547 97.6679 162.977 98.7179 162.977 100.169C162.977 101.62 163.64 102.67 164.962 102.67C165.271 102.69 165.58 102.618 165.848 102.462C166.115 102.306 166.329 102.074 166.462 101.796V102.557H167.056V95.5358Z" fill="#0F0E0E" fill-opacity="0.4"/>
<path d="M130.182 102.553H130.776V100.101L133.157 102.553H133.977L131.342 99.8962L133.694 97.7801H132.93L130.776 99.7359V95.5358H130.182V102.553Z" fill="#0F0E0E" fill-opacity="0.4"/>
<path d="M150.636 102.557H151.23V99.9964C151.23 99.1628 151.598 98.1688 152.657 98.1688C153.635 98.1688 153.797 98.8822 153.797 99.7078V102.553H154.391V99.6958C154.391 98.5175 154.044 97.6639 152.75 97.6639C152.437 97.6558 152.128 97.7383 151.861 97.9013C151.594 98.0642 151.38 98.3006 151.246 98.5816V95.5317H150.636V102.557Z" fill="#0F0E0E" fill-opacity="0.4"/>
<path d="M90.1784 105.996C100.218 105.996 108.357 99.0573 108.357 90.498C108.357 81.9387 100.218 75 90.1784 75C80.1388 75 72 81.9387 72 90.498C72 99.0573 80.1388 105.996 90.1784 105.996Z" fill="#0F0E0E" fill-opacity="0.4"/>
<path d="M87.9714 79.9776L92.1916 78.595L92.2158 101.227L87.9552 102.646L87.9714 79.9776Z" fill="url(#paint0_linear_1162_3031)" fill-opacity="0.4"/>
<path d="M90.4775 94.093C88.6423 96.2892 86.8677 98.5296 83.5449 98.5296C78.8517 98.5296 76.6244 94.0288 76.6244 90.2696C76.6244 86.6626 78.3666 82.3783 82.9385 82.3783C84.9193 82.3783 86.8313 83.5806 87.9672 84.8511V87.921C86.5966 87.1575 85.0665 86.7185 83.4964 86.6385C80.598 86.5905 78.0433 87.8409 78.0877 90.6743C78.116 92.6301 80.0685 93.9567 82.0128 93.9567C84.988 93.9567 86.7868 91.2635 88.2946 89.2155C88.6989 88.6825 89.9116 87.1115 90.0854 86.859C91.7549 84.5425 93.6912 82.4264 97.014 82.4264C100.927 82.4264 103.126 85.5524 103.749 88.7747H101.982C101.587 88.2451 101.07 87.8164 100.475 87.5237C99.8795 87.231 99.2226 87.0829 98.5582 87.0914C95.486 87.0914 93.6467 89.8969 92.0904 91.9608C92.1066 91.9809 90.91 93.584 90.4775 94.093ZM103.846 92.061C103.441 95.2993 101.618 98.5696 97.6203 98.5776C95.2839 98.5776 93.4608 96.9946 92.1955 95.0548V92.8105C93.7761 93.588 95.2556 94.4136 97.0463 94.4497C99.2534 94.4817 101.25 93.6481 102.079 92.045L103.846 92.061Z" fill="url(#paint1_linear_1162_3031)"/>
<path fill-rule="evenodd" clip-rule="evenodd" d="M127.91 90.5942C126.192 90.5942 125.484 89.1794 125.484 87.6004C125.484 86.0213 126.188 84.5865 127.91 84.5865C129.632 84.5865 130.335 86.0013 130.335 87.6004C130.335 89.1995 129.616 90.5942 127.91 90.5942ZM127.91 93.1792C131.471 93.1792 134.18 91.1272 134.18 87.6004C134.18 84.0735 131.471 81.9895 127.91 81.9895C124.349 81.9895 121.64 84.0415 121.64 87.6004C121.64 91.1593 124.361 93.1832 127.91 93.1832V93.1792Z" fill="#0F0E0E" fill-opacity="0.4"/>
<path fill-rule="evenodd" clip-rule="evenodd" d="M146.407 89.5762C146.407 88.5382 147.414 88.1415 148.691 88.1415C149.257 88.1415 149.799 88.1855 150.28 88.2056C150.28 89.472 149.383 90.7585 147.96 90.7585C147.078 90.7425 146.407 90.3056 146.407 89.5762ZM154.007 92.9989C153.856 92.1564 153.787 91.3015 153.801 90.4459V86.4021C153.801 83.1037 151.375 81.9214 148.606 81.9214C147.118 81.8881 145.638 82.1483 144.253 82.6869L144.313 85.2198C145.385 84.6639 146.581 84.3881 147.79 84.4183C149.152 84.4183 150.26 84.819 150.28 86.2859C149.7 86.1928 149.113 86.1446 148.526 86.1416C146.504 86.1416 142.891 86.5424 142.891 89.8367C142.891 92.1813 144.819 93.2433 146.973 93.2433C148.526 93.2433 149.572 92.6382 150.429 91.2916H150.47C150.47 91.8486 150.535 92.4097 150.555 92.9908L154.007 92.9989Z" fill="#0F0E0E" fill-opacity="0.4"/>
<path d="M155.333 92.9307H159.056V87.6404H159.096L162.076 92.9307H166.587L162.532 87.1475L166.276 82.246H162.201L159.096 86.7387H159.056V78.5629L155.333 79.8413V92.9307Z" fill="#0F0E0E" fill-opacity="0.4"/>
<path d="M111.728 92.9307H115.451V87.6404H115.496L118.475 92.9307H122.982L118.928 87.1475L122.675 82.246H118.596L115.496 86.7387H115.451V78.5629L111.728 79.7812V92.9307Z" fill="#0F0E0E" fill-opacity="0.4"/>
<path d="M133.836 84.8311H135.97V89.1755C135.97 91.7204 136.779 93.1832 140.106 93.1832C140.889 93.1652 141.671 93.0969 142.446 92.9788L142.321 90.5742C141.946 90.6518 141.567 90.7 141.185 90.7185C140.004 90.7185 139.693 90.0612 139.693 88.7707V84.8311H142.3V82.2461H139.693V78.5509L136.035 79.8454V82.2501H133.84L133.836 84.8311Z" fill="#0F0E0E" fill-opacity="0.4"/>
</g>
<defs>
<linearGradient id="paint0_linear_1162_3031" x1="90.0855" y1="78.595" x2="90.3954" y2="138.879" gradientUnits="userSpaceOnUse">
<stop offset="0.197917" stop-color="white"/>
<stop offset="1" stop-opacity="0.15"/>
</linearGradient>
<linearGradient id="paint1_linear_1162_3031" x1="90.235" y1="82.3783" x2="90.4044" y2="116.333" gradientUnits="userSpaceOnUse">
<stop stop-color="white"/>
<stop offset="1" stop-color="#A6A8AE" stop-opacity="0"/>
</linearGradient>
<clipPath id="clip0_1162_3031">
<rect width="126" height="31" fill="white" transform="translate(72 75)"/>
</clipPath>
</defs>
</svg>
