<svg width="270" height="180" viewBox="0 0 270 180" fill="none" xmlns="http://www.w3.org/2000/svg">
<g clip-path="url(#clip0_1391_4323)">
<g clip-path="url(#clip1_1391_4323)">
<mask id="mask0_1391_4323" style="mask-type:alpha" maskUnits="userSpaceOnUse" x="55" y="71" width="161" height="39">
<path d="M215.984 71.2664H55.3057V109.054H215.984V71.2664Z" fill="white"/>
</mask>
<g mask="url(#mask0_1391_4323)">
<path d="M77.6363 72.9248H77.7922C78.3845 73.0088 78.6131 72.9248 79.5795 74.3209C80.5459 75.7169 83.736 82.3822 84.3283 83.5474C84.9206 84.7125 88.4849 92.8263 88.973 94.6632C89.3889 96.3427 90.2928 98.0222 87.8509 99.5231C85.5107 100.861 83.0467 101.965 80.4939 102.819C79.2054 103.27 77.1272 104.11 75.8803 104.393C75.3456 104.571 74.7901 104.677 74.2281 104.708C73.4104 104.669 72.6023 104.514 71.8277 104.247C69.3027 103.501 66.7672 102.693 65.2813 102.147C63.4141 101.519 61.6198 100.689 59.9298 99.6701C58.7452 98.7779 57.9763 98.7359 58.2049 95.7339C58.4033 93.3268 58.9098 90.9558 59.7116 88.6802C60.418 86.19 61.3036 83.7553 62.3613 81.3955C63.1667 79.7466 64.4943 78.4166 66.1333 77.6168C68.6064 76.1788 70.2898 75.36 71.7342 74.6882C73.6167 73.8421 75.6011 73.2492 77.6363 72.9248ZM77.6363 71.2664C75.3624 71.5871 73.1445 72.2302 71.0484 73.1767C69.5312 73.8905 67.7751 74.7407 65.3124 76.1683C63.4397 77.1061 61.9138 78.6254 60.9585 80.5033V80.5663C59.808 83.0153 58.8625 85.5574 58.1321 88.1659L58.049 88.4493C57.2505 90.7573 56.7511 93.1599 56.5631 95.5974C56.3345 98.6309 57.0307 99.6701 58.5582 100.72L58.953 100.993C60.742 102.117 62.657 103.023 64.6578 103.69C66.549 104.404 69.6455 105.338 71.3185 105.79C72.2455 106.101 73.2106 106.281 74.1865 106.325C74.7399 106.316 75.2892 106.228 75.8179 106.063L76.2231 105.957C77.4229 105.654 78.6057 105.286 79.7666 104.855L81.0239 104.404C83.695 103.516 86.2711 102.359 88.7134 100.951C91.9138 98.9878 91.1448 96.3112 90.7916 94.8627C90.7293 94.6528 90.6669 94.4638 90.6255 94.2749C89.2073 90.3742 87.5944 86.5486 85.7934 82.8126L85.118 81.427C83.8664 78.6716 82.4792 75.9811 80.9615 73.3657C79.9224 71.8962 79.299 71.4553 78.1247 71.2664H78.0416L77.6363 71.2664Z" fill="#0F0E0E" fill-opacity="0.4"/>
<path d="M68.253 74.9085C69.9974 74.935 71.7361 75.1176 73.4486 75.4543C75.9363 75.8032 78.3953 76.3365 80.8055 77.0498C82.5129 77.6333 83.9766 78.7793 84.962 80.3037C86.6973 82.592 87.7363 84.177 88.5886 85.552C89.4405 86.927 91.1552 90.4224 91.1446 91.3881C91.1446 91.9969 91.2279 92.2278 90.1057 93.4035C88.9835 94.5791 82.9877 98.7777 81.9486 99.5544C80.9094 100.331 73.6356 105.139 71.973 105.852C71.175 106.324 70.2919 106.631 69.3753 106.755C68.9298 106.729 68.4969 106.597 68.112 106.369C67.7272 106.14 67.4016 105.823 67.1619 105.443C65.5268 103.273 64.1067 100.945 62.9223 98.4943C62.3197 97.2872 61.2078 95.2613 60.7506 94.0857C60.2934 92.9101 59.9609 92.6162 60.3038 89.971C60.6467 87.3259 61.0519 84.6388 61.3429 83.0538C61.6627 81.0789 62.1886 79.1437 62.912 77.2807C63.5874 75.9581 63.525 75.1814 66.4345 74.9715C67.0892 74.9715 67.6919 74.9085 68.253 74.9085ZM68.253 73.3025C67.6192 73.3025 66.9957 73.3025 66.3203 73.376C63.3796 73.5859 62.4859 74.4256 61.7066 76.1156C61.6442 76.2625 61.5403 76.4095 61.5403 76.5144C60.7286 78.5019 60.1429 80.576 59.7946 82.6969C59.3893 84.6913 58.9425 87.9452 58.7555 89.7087C58.3955 91.2181 58.5267 92.8045 59.1296 94.2327C59.1296 94.3481 59.2335 94.4846 59.2854 94.6211C59.6491 95.5448 60.3245 96.8358 60.9065 97.9799C61.1351 98.4208 61.3533 98.8407 61.5195 99.1766C62.7567 101.726 64.2357 104.148 65.9358 106.409C66.3277 106.975 66.844 107.442 67.4443 107.774C68.0445 108.105 68.7125 108.292 69.396 108.319C70.3363 108.268 71.2528 108.002 72.077 107.542L72.6173 107.29C76.1575 105.304 79.5946 103.135 82.915 100.793L84.1411 99.9008C86.604 98.2197 88.9797 96.4119 91.259 94.4846C92.3812 93.309 92.7138 92.6477 92.7138 91.5036V91.3881C92.7138 89.7401 90.4797 85.573 89.9081 84.6598C89.0041 83.2323 87.934 81.6053 86.2089 79.3275C85.061 77.5894 83.3826 76.2773 81.429 75.5907H81.3667C78.8565 74.8046 76.2838 74.2392 73.6772 73.9008H73.3862C71.6957 73.5504 69.9781 73.3503 68.253 73.3025Z" fill="#0F0E0E" fill-opacity="0.4"/>
<path d="M78.634 75.5699C80.1496 75.5189 81.6661 75.6422 83.1542 75.9372C84.5466 76.3256 85.2324 76.0947 86.1364 78.9707C86.8272 81.2861 87.2217 83.6813 87.3108 86.0979C87.564 88.6682 87.6334 91.2535 87.5184 93.8339C87.3789 95.6544 86.6484 97.3775 85.4402 98.7358C83.6945 100.972 82.4476 102.357 81.3773 103.501C79.8972 104.967 78.2549 106.256 76.483 107.343C76.3079 107.4 76.1264 107.436 75.9427 107.448C75.6206 107.448 75.2257 107.28 74.3425 106.692C72.9708 105.768 67.6194 100.657 66.6634 99.8274C65.7074 98.9982 59.4623 92.7107 58.4232 91.2097C57.3841 89.7088 56.0021 88.5646 57.6958 86.2763C59.3438 84.1615 61.1956 82.217 63.2239 80.4717C64.263 79.611 65.8633 78.047 66.8608 77.3228C67.8584 76.5985 68.0558 76.1996 70.6328 75.9792C73.2098 75.7588 75.8284 75.5803 77.3663 75.5593H78.634M78.634 73.9534H77.3455C75.3712 73.9534 72.2019 74.2263 70.4874 74.3732C68.0766 74.5937 67.37 74.982 66.3309 75.7588L65.9983 76.0002C65.1671 76.588 64.0968 77.5642 63.1616 78.3829L62.1848 79.2541C60.0676 81.0658 58.1324 83.0839 56.4073 85.2792C54.2252 88.2287 55.8046 90.3385 56.7502 91.5771L57.1139 92.0705C59.7919 95.1915 62.6255 98.1729 65.6035 101.003L66.7154 102.053C68.8601 104.153 71.111 106.139 73.4592 108.004C74.1598 108.598 75.022 108.964 75.9323 109.054C76.2424 109.049 76.5503 108.999 76.8467 108.907H76.8987C78.0417 108.582 81.5955 105.622 82.5203 104.624C83.6529 103.407 84.9415 101.979 86.6768 99.7435C88.0592 98.1887 88.9021 96.2207 89.0773 94.1383V94.0753C89.2363 91.3806 89.174 88.6772 88.8902 85.993V85.699C88.7823 83.2632 88.3703 80.8509 87.6639 78.5194C86.7911 75.6433 85.8039 74.9401 84.0374 74.5202L83.5698 74.4152C81.9488 74.0628 80.2913 73.9112 78.634 73.9639V73.9534Z" fill="#0F0E0E" fill-opacity="0.4"/>
<path d="M108.124 94.9149H102.315C102.298 94.9164 102.281 94.9142 102.264 94.9085C102.248 94.9028 102.233 94.8938 102.22 94.882C102.208 94.8701 102.198 94.8557 102.191 94.8397C102.184 94.8237 102.18 94.8064 102.18 94.789V82.1931C102.179 82.1272 102.164 82.0624 102.137 82.0026C102.11 81.9428 102.071 81.8895 102.022 81.846C101.973 81.8025 101.915 81.7699 101.853 81.7501C101.791 81.7303 101.725 81.7239 101.661 81.7312H100.487C100.423 81.7254 100.358 81.733 100.297 81.7535C100.236 81.774 100.18 81.8069 100.133 81.8502C100.085 81.8936 100.046 81.9463 100.02 82.0053C99.993 82.0643 99.9786 82.1282 99.9773 82.1931V96.5839C99.9786 96.6487 99.993 96.7126 100.02 96.7716C100.046 96.8306 100.085 96.8834 100.133 96.9267C100.18 96.97 100.236 97.0029 100.297 97.0234C100.358 97.0439 100.423 97.0515 100.487 97.0457H108.124C108.189 97.053 108.254 97.0466 108.317 97.0268C108.379 97.0071 108.436 96.9744 108.485 96.9309C108.534 96.8874 108.573 96.8341 108.601 96.7743C108.628 96.7145 108.643 96.6497 108.644 96.5839V95.4083C108.645 95.3403 108.633 95.2727 108.607 95.2099C108.581 95.1472 108.542 95.0907 108.493 95.0441C108.444 94.9975 108.386 94.9619 108.322 94.9397C108.259 94.9174 108.191 94.909 108.124 94.9149Z" fill="#0F0E0E" fill-opacity="0.4"/>
<path d="M115.845 81.6999H114.66C114.596 81.6941 114.532 81.7017 114.471 81.7222C114.41 81.7426 114.354 81.7756 114.306 81.8189C114.258 81.8622 114.22 81.915 114.193 81.974C114.167 82.033 114.152 82.0969 114.151 82.1617V96.584C114.152 96.6489 114.167 96.7128 114.193 96.7717C114.22 96.8307 114.258 96.8835 114.306 96.9268C114.354 96.9702 114.41 97.0031 114.471 97.0236C114.532 97.0441 114.596 97.0517 114.66 97.0459H115.845C115.909 97.0517 115.973 97.0441 116.034 97.0236C116.095 97.0031 116.151 96.9702 116.199 96.9268C116.247 96.8835 116.285 96.8307 116.312 96.7717C116.338 96.7128 116.353 96.6489 116.354 96.584V82.1617C116.353 82.0969 116.338 82.033 116.312 81.974C116.285 81.915 116.247 81.8622 116.199 81.8189C116.151 81.7756 116.095 81.7426 116.034 81.7222C115.973 81.7017 115.909 81.6941 115.845 81.6999Z" fill="#0F0E0E" fill-opacity="0.4"/>
<path d="M134.393 81.6996H132.959C132.819 81.7007 132.683 81.7458 132.569 81.8285C132.455 81.9112 132.37 82.0276 132.325 82.1615L128.366 93.7077C128.355 93.7326 128.338 93.7538 128.316 93.7687C128.294 93.7837 128.268 93.7916 128.241 93.7916C128.214 93.7916 128.188 93.7837 128.166 93.7687C128.144 93.7538 128.127 93.7326 128.116 93.7077L124.137 82.1615C124.09 82.0284 124.005 81.9129 123.891 81.8304C123.778 81.7479 123.642 81.7022 123.503 81.6996H122.09C122.035 81.6998 121.981 81.7132 121.932 81.7388C121.884 81.7643 121.842 81.8013 121.81 81.8465C121.779 81.8917 121.759 81.9439 121.751 81.9987C121.744 82.0535 121.749 82.1093 121.767 82.1615L126.87 96.5837C126.963 96.8566 127.098 97.0456 127.389 97.0456H129.083C129.374 97.0456 129.509 96.8566 129.602 96.5837L134.725 82.1615C134.744 82.1084 134.749 82.0517 134.741 81.9961C134.733 81.9404 134.712 81.8876 134.679 81.8421C134.647 81.7967 134.603 81.7599 134.553 81.7351C134.503 81.7103 134.448 81.6981 134.393 81.6996Z" fill="#0F0E0E" fill-opacity="0.4"/>
<path d="M161.202 81.6999H156.173C156.109 81.6941 156.044 81.7017 155.983 81.7222C155.923 81.7426 155.866 81.7756 155.819 81.8189C155.771 81.8622 155.732 81.915 155.706 81.974C155.679 82.033 155.665 82.0969 155.664 82.1617V96.584C155.666 96.6494 155.682 96.7134 155.71 96.7725C155.737 96.8315 155.777 96.8842 155.825 96.9274C155.874 96.9706 155.931 97.0033 155.992 97.0237C156.054 97.0441 156.119 97.0516 156.183 97.0459H157.357C157.422 97.0516 157.487 97.0441 157.548 97.0237C157.61 97.0033 157.666 96.9706 157.715 96.9274C157.764 96.8842 157.803 96.8315 157.831 96.7725C157.859 96.7134 157.874 96.6494 157.877 96.584V91.7766C157.875 91.7592 157.878 91.7417 157.883 91.7252C157.889 91.7087 157.898 91.6935 157.91 91.6807C157.921 91.6678 157.936 91.6576 157.951 91.6506C157.967 91.6436 157.984 91.6401 158.001 91.6401H161.202C161.853 91.6558 162.501 91.5383 163.106 91.2948C163.711 91.0512 164.261 90.6866 164.723 90.2228C165.185 89.7591 165.549 89.2058 165.794 88.5961C166.039 87.9865 166.16 87.3331 166.148 86.6753C166.161 86.0166 166.042 85.362 165.797 84.7512C165.553 84.1403 165.189 83.5857 164.727 83.1208C164.265 82.6559 163.714 82.2904 163.108 82.0462C162.502 81.802 161.854 81.6842 161.202 81.6999ZM163.176 88.7221C162.922 88.9904 162.615 89.2019 162.275 89.3429C161.935 89.484 161.569 89.5514 161.202 89.5408H158.001C157.968 89.5408 157.937 89.5276 157.913 89.5039C157.89 89.4803 157.877 89.4483 157.877 89.4149V83.9357C157.877 83.9022 157.89 83.8702 157.913 83.8466C157.937 83.823 157.968 83.8097 158.001 83.8097H161.202C161.569 83.7997 161.933 83.8664 162.273 84.0055C162.613 84.1446 162.92 84.3531 163.176 84.6179C163.441 84.8956 163.647 85.225 163.781 85.5861C163.915 85.9472 163.975 86.3321 163.956 86.7172C163.967 87.4631 163.687 88.1834 163.176 88.7221Z" fill="#0F0E0E" fill-opacity="0.4"/>
<path d="M177.246 82.1618C177.152 81.8784 177.017 81.7 176.737 81.7H175.033C174.742 81.7 174.617 81.8889 174.513 82.1618L169.193 96.5736C169.173 96.6263 169.165 96.6833 169.172 96.7395C169.178 96.7957 169.198 96.8495 169.23 96.8961C169.262 96.9427 169.304 96.9807 169.354 97.0069C169.404 97.033 169.459 97.0464 169.515 97.046H170.866C171.015 97.0474 171.16 97.0015 171.281 96.9149C171.402 96.8282 171.493 96.7051 171.541 96.5631L172.58 93.792C172.594 93.7523 172.619 93.7178 172.652 93.6933C172.686 93.6688 172.726 93.6556 172.768 93.6556H179.002C179.045 93.6564 179.086 93.6698 179.121 93.694C179.156 93.7183 179.183 93.7523 179.199 93.792L180.239 96.5631C180.288 96.7042 180.38 96.8264 180.501 96.9129C180.621 96.9994 180.766 97.0458 180.914 97.046H182.265C182.321 97.0464 182.376 97.033 182.426 97.0069C182.476 96.9807 182.518 96.9427 182.55 96.8961C182.582 96.8495 182.602 96.7957 182.608 96.7395C182.615 96.6833 182.607 96.6263 182.587 96.5736L177.246 82.1618ZM178.223 91.5458H173.537C173.516 91.547 173.495 91.543 173.477 91.5342C173.458 91.5255 173.442 91.5122 173.43 91.4956C173.417 91.4789 173.409 91.4595 173.406 91.439C173.403 91.4184 173.405 91.3974 173.412 91.3778L175.76 84.9119C175.772 84.8899 175.789 84.8715 175.81 84.8587C175.831 84.8459 175.855 84.8391 175.88 84.8391C175.904 84.8391 175.928 84.8459 175.949 84.8587C175.97 84.8715 175.988 84.8899 175.999 84.9119L178.348 91.4303C178.345 91.4618 178.331 91.4913 178.307 91.5126C178.284 91.534 178.254 91.5459 178.223 91.5458Z" fill="#0F0E0E" fill-opacity="0.4"/>
<path d="M215.465 94.9151H209.23C209.213 94.9165 209.196 94.9143 209.179 94.9087C209.163 94.903 209.148 94.894 209.135 94.8821C209.122 94.8703 209.112 94.8559 209.105 94.8399C209.099 94.8238 209.095 94.8066 209.095 94.7891V90.475C209.098 90.4407 209.113 90.4086 209.138 90.3853C209.163 90.3619 209.196 90.349 209.23 90.3491H214.904C214.968 90.3564 215.034 90.3499 215.096 90.3302C215.158 90.3104 215.216 90.2777 215.264 90.2342C215.314 90.1907 215.353 90.1374 215.38 90.0776C215.407 90.0179 215.422 89.953 215.423 89.8872V88.7116C215.422 88.6458 215.407 88.5809 215.38 88.5211C215.353 88.4614 215.314 88.408 215.264 88.3646C215.216 88.3211 215.158 88.2884 215.096 88.2686C215.034 88.2489 214.968 88.2424 214.904 88.2497H209.23C209.194 88.2497 209.16 88.2354 209.135 88.2098C209.109 88.1842 209.095 88.1495 209.095 88.1133V83.9147C209.095 83.8972 209.099 83.8799 209.105 83.8639C209.112 83.8479 209.122 83.8335 209.135 83.8217C209.148 83.8098 209.163 83.8008 209.179 83.7951C209.196 83.7894 209.213 83.7872 209.23 83.7887H215.465C215.53 83.796 215.595 83.7896 215.657 83.7698C215.72 83.75 215.777 83.7174 215.826 83.6739C215.875 83.6304 215.914 83.5771 215.941 83.5173C215.969 83.4575 215.983 83.3927 215.984 83.3268V82.1407C215.984 81.8573 215.756 81.6999 215.465 81.6999H207.443C207.379 81.6941 207.314 81.7017 207.253 81.7222C207.193 81.7426 207.136 81.7756 207.089 81.8189C207.041 81.8622 207.003 81.915 206.976 81.974C206.949 82.033 206.935 82.0969 206.934 82.1617V96.584C206.935 96.6489 206.949 96.7128 206.976 96.7717C207.003 96.8307 207.041 96.8835 207.089 96.9268C207.136 96.9702 207.193 97.0031 207.253 97.0236C207.314 97.0441 207.379 97.0517 207.443 97.0459H215.465C215.53 97.0532 215.595 97.0468 215.657 97.027C215.72 97.0072 215.777 96.9745 215.826 96.9311C215.875 96.8876 215.914 96.8342 215.941 96.7745C215.969 96.7147 215.983 96.6498 215.984 96.584V95.4084C215.986 95.3404 215.974 95.2729 215.948 95.2101C215.922 95.1474 215.883 95.0908 215.834 95.0443C215.785 94.9977 215.727 94.9621 215.663 94.9398C215.599 94.9176 215.532 94.9091 215.465 94.9151Z" fill="#0F0E0E" fill-opacity="0.4"/>
<path d="M200.917 93.0991L200.096 92.6163C199.826 92.4693 199.712 92.4693 199.504 92.7422C199.046 93.385 198.471 93.9336 197.81 94.3587C196.978 94.8388 196.035 95.0886 195.078 95.083C194.321 95.1167 193.566 94.992 192.86 94.7167C192.153 94.4413 191.511 94.0212 190.973 93.4829C190.436 92.9446 190.014 92.2997 189.735 91.5887C189.456 90.8777 189.325 90.1161 189.352 89.3518C189.329 88.5924 189.46 87.8363 189.738 87.1303C190.016 86.4242 190.434 85.7833 190.966 85.247C191.499 84.7108 192.135 84.2907 192.835 84.0128C193.535 83.7349 194.284 83.605 195.036 83.6312C195.995 83.6204 196.939 83.8706 197.769 84.3554C198.38 84.7828 198.933 85.2912 199.41 85.8669C199.681 86.1713 199.805 86.1713 200.086 86.0454L200.928 85.5626C201.187 85.3841 201.219 85.2582 201.219 85.1007C201.205 84.9783 201.158 84.8622 201.083 84.7648C200.473 83.8974 199.678 83.1798 198.756 82.6655C197.594 81.9791 196.273 81.6168 194.927 81.6157C193.581 81.6146 192.259 81.9748 191.097 82.6592C189.934 83.3437 188.972 84.3279 188.309 85.5113C187.646 86.6946 187.307 88.0344 187.325 89.3938C187.305 90.4179 187.491 91.4354 187.872 92.3847C188.253 93.3341 188.82 94.1955 189.54 94.9168C190.26 95.6382 191.117 96.2043 192.06 96.5811C193.003 96.9579 194.012 97.1374 195.025 97.1088C196.334 97.1208 197.621 96.7802 198.756 96.1221C199.626 95.6251 200.381 94.945 200.969 94.1278C201.111 93.9683 201.196 93.7647 201.208 93.5504C201.239 93.309 201.198 93.309 200.917 93.0991Z" fill="#0F0E0E" fill-opacity="0.4"/>
<path d="M147.236 89.1104C146.454 88.7572 145.649 88.4591 144.826 88.2182C143.724 87.8613 141.989 87.41 141.864 85.8145C141.851 85.5287 141.912 85.2444 142.039 84.9889C142.166 84.7334 142.357 84.5153 142.592 84.3555C143.117 83.9559 143.764 83.7553 144.42 83.7887C145.001 83.8272 145.564 84.0007 146.067 84.2956C146.57 84.5906 146.999 84.9991 147.32 85.4891C147.528 85.72 147.652 85.8565 147.818 85.8775C147.867 85.8862 147.917 85.8851 147.965 85.8743C148.013 85.8635 148.058 85.8432 148.099 85.8145L149.138 85.1952C149.209 85.1552 149.262 85.0898 149.287 85.0119C149.312 84.9341 149.307 84.8497 149.273 84.7753C148.85 83.8974 148.209 83.1452 147.413 82.5921C146.511 81.9909 145.449 81.6798 144.369 81.6998C143.181 81.6633 142.019 82.058 141.095 82.8125C140.641 83.1935 140.281 83.6768 140.044 84.2236C139.808 84.7705 139.702 85.3656 139.734 85.9615C139.72 86.4638 139.819 86.9629 140.025 87.4205C140.395 88.1961 141.004 88.8296 141.76 89.2259C142.597 89.6369 143.462 89.9877 144.348 90.2755C145.249 90.5188 146.118 90.8712 146.935 91.3252C147.176 91.4816 147.372 91.7003 147.502 91.9586C147.631 92.217 147.69 92.5056 147.673 92.7947C147.687 93.0966 147.627 93.3973 147.498 93.6701C147.369 93.9429 147.176 94.1794 146.935 94.3587C146.287 94.7994 145.512 95.0099 144.732 94.957C144.012 95.0233 143.288 94.8671 142.657 94.5092C142.027 94.1512 141.518 93.6083 141.199 92.9522C141.106 92.7842 141.012 92.5428 140.825 92.4798C140.638 92.4169 140.649 92.4798 140.409 92.5533L139.443 93.1411C139.142 93.3195 139.069 93.4665 139.246 93.8549C139.674 94.7659 140.342 95.5396 141.179 96.0906C142.228 96.7585 143.45 97.0981 144.691 97.0668C146.014 97.1249 147.315 96.7127 148.369 95.9017C148.831 95.5238 149.199 95.0425 149.444 94.4959C149.689 93.9492 149.805 93.3524 149.782 92.7527C149.768 91.9578 149.518 91.1856 149.064 90.5362C148.61 89.8867 147.973 89.39 147.236 89.1104Z" fill="#0F0E0E" fill-opacity="0.4"/>
</g>
</g>
</g>
<defs>
<clipPath id="clip0_1391_4323">
<rect width="270" height="180" fill="white"/>
</clipPath>
<clipPath id="clip1_1391_4323">
<rect width="161" height="38.3048" fill="white" transform="translate(55 71)"/>
</clipPath>
</defs>
</svg>
