<svg width="270" height="180" viewBox="0 0 270 180" fill="none" xmlns="http://www.w3.org/2000/svg">
<path fill-rule="evenodd" clip-rule="evenodd" d="M90.2643 66C103.493 66 114.284 76.7504 114.284 89.9304C114.284 103.11 103.493 113.861 90.2643 113.861C77.0352 113.861 66.2454 103.11 66.2454 89.9304C66.2454 76.7504 77.0352 66 90.2643 66Z" fill="white"/>
<path d="M90.2642 66.4072C103.269 66.4072 113.876 76.9745 113.876 89.9308C113.876 102.888 103.269 113.456 90.2642 113.456C77.2598 113.456 66.6532 102.888 66.6532 89.9308C66.6537 76.9745 77.2603 66.4072 90.2642 66.4072Z" stroke="#0F0E0E" stroke-opacity="0.4" stroke-width="0.7412" stroke-miterlimit="22.9256"/>
<path fill-rule="evenodd" clip-rule="evenodd" d="M90.2642 66.4059C103.27 66.4059 113.876 76.9737 113.876 89.9304C113.876 102.887 103.27 113.454 90.2642 113.454C77.2603 113.454 66.6537 102.887 66.6537 89.9304C66.6537 76.9737 77.2603 66.4059 90.2642 66.4059Z" fill="#0F0E0E" fill-opacity="0.4"/>
<path fill-rule="evenodd" clip-rule="evenodd" d="M90.2643 71.7255C100.329 71.7255 108.538 79.9038 108.538 89.9304C108.538 99.9574 100.329 108.135 90.2648 108.135C80.2004 108.135 71.9917 99.9574 71.9917 89.9304C71.9917 79.9038 80.2004 71.7255 90.2643 71.7255Z" fill="white"/>
<path d="M90.2643 72.2246C100.053 72.2246 108.037 80.1787 108.037 89.9309C108.037 99.685 100.054 107.639 90.2643 107.639C80.4758 107.639 72.4917 99.685 72.4917 89.9309C72.4922 80.1792 80.4758 72.2246 90.2643 72.2246Z" stroke="#0F0E0E" stroke-opacity="0.4" stroke-width="0.7412" stroke-miterlimit="22.9256"/>
<mask id="mask0_1162_3058" style="mask-type:alpha" maskUnits="userSpaceOnUse" x="72" y="72" width="37" height="36">
<path fill-rule="evenodd" clip-rule="evenodd" d="M90.2643 72.2236C100.053 72.2236 108.038 80.1777 108.038 89.9304C108.038 99.6831 100.054 107.638 90.2643 107.638C80.4758 107.638 72.4917 99.6836 72.4917 89.9304C72.4922 80.1782 80.4758 72.2236 90.2643 72.2236Z" fill="black"/>
</mask>
<g mask="url(#mask0_1162_3058)">
<path fill-rule="evenodd" clip-rule="evenodd" d="M72.7596 109.022L67.3043 67.7608L78.3553 65.3978L72.7596 109.022Z" fill="url(#paint0_linear_1162_3058)" fill-opacity="0.4"/>
<path fill-rule="evenodd" clip-rule="evenodd" d="M72.5521 109.065L83.4659 68.8914L94.5782 70.9506L72.5521 109.065Z" fill="url(#paint1_linear_1162_3058)" fill-opacity="0.4"/>
<path fill-rule="evenodd" clip-rule="evenodd" d="M72.3441 109.024L99.7556 74.1688L107.404 82.2989L72.3441 109.024Z" fill="url(#paint2_linear_1162_3058)" fill-opacity="0.4"/>
<path fill-rule="evenodd" clip-rule="evenodd" d="M72.1689 108.906L108.506 88.3763L114.854 97.6933L72.1689 108.906Z" fill="url(#paint3_linear_1162_3058)" fill-opacity="0.4"/>
<path fill-rule="evenodd" clip-rule="evenodd" d="M72.052 108.73L113.522 103.724L115.779 114.758L72.052 108.73Z" fill="url(#paint4_linear_1162_3058)" fill-opacity="0.4"/>
</g>
<path fill-rule="evenodd" clip-rule="evenodd" d="M69.8631 81.2894L70.0022 81.0009L71.3417 80.8547L70.6104 79.7335L70.7491 79.4449L71.6783 80.8608L72.8768 81.4328L72.7585 81.6792L71.5596 81.1073L69.8631 81.2894ZM69.2064 82.9787L69.3047 82.7171L71.6565 83.5966L72.0311 82.6008L72.2823 82.6949L71.8089 83.9514L69.2064 82.9787ZM68.5568 85.239L68.9585 83.7025L69.224 83.7711L68.893 85.0394L69.7344 85.2584L70.0625 84.0006L70.326 84.0682L69.9979 85.3261L71.053 85.599L71.3816 84.3416L71.647 84.4112L71.2481 85.9368L68.5568 85.239ZM68.0317 88.436L68.0773 88.1384L70.3393 87.5509L68.3541 86.3077L68.3997 86.0097L70.968 87.6152L70.959 87.6744L68.0317 88.436ZM68.2173 90.6655C68.2183 90.8713 68.2738 91.0648 68.3821 91.2469C68.4908 91.43 68.6366 91.571 68.8185 91.6722C68.9998 91.7749 69.2035 91.825 69.4262 91.8227C69.7562 91.8203 70.034 91.7049 70.26 91.475C70.4856 91.2469 70.5971 90.9702 70.5948 90.648C70.5929 90.4347 70.5392 90.236 70.4333 90.0539C70.327 89.8722 70.1836 89.7303 70.0012 89.6295C69.8194 89.5288 69.6166 89.4791 69.3958 89.4805C69.1751 89.4824 68.9761 89.5349 68.798 89.6395C68.6209 89.7426 68.4794 89.8874 68.3736 90.0747C68.2677 90.2601 68.2154 90.4574 68.2173 90.6655ZM67.9457 90.6807C67.9424 90.2625 68.0796 89.9105 68.3588 89.6258C68.638 89.3414 68.9823 89.1981 69.3939 89.1953C69.8004 89.192 70.147 89.3301 70.4324 89.6106C70.7182 89.8902 70.8616 90.2322 70.8649 90.6381C70.8678 91.0473 70.7301 91.396 70.4495 91.6803C70.1698 91.9646 69.8289 92.1084 69.4286 92.1117C69.1613 92.1131 68.913 92.0512 68.6846 91.9244C68.4552 91.7966 68.2762 91.6221 68.1447 91.4016C68.0136 91.1798 67.9472 90.9395 67.9457 90.6807ZM68.3826 94.1402L68.3408 93.8654L70.826 93.4983L70.6698 92.4462L70.9352 92.4069L71.1323 93.7348L68.3826 94.1402Z" fill="#0F0E0E" fill-opacity="0.4"/>
<path d="M69.8631 81.2894L70.0022 81.0009L71.3417 80.8547L70.6104 79.7335L70.7491 79.4449L71.6783 80.8608L72.8768 81.4328L72.7585 81.6792L71.5596 81.1073L69.8631 81.2894ZM69.2064 82.9787L69.3047 82.7171L71.6565 83.5966L72.0311 82.6008L72.2823 82.6949L71.8089 83.9514L69.2064 82.9787ZM68.5568 85.239L68.9585 83.7025L69.224 83.7711L68.893 85.0394L69.7344 85.2584L70.0625 84.0006L70.326 84.0682L69.9979 85.3261L71.053 85.599L71.3816 84.3416L71.647 84.4112L71.2481 85.9368L68.5568 85.239ZM68.0317 88.436L68.0773 88.1384L70.3393 87.5509L68.3541 86.3077L68.3997 86.0097L70.968 87.6152L70.959 87.6744L68.0317 88.436ZM68.2173 90.6655C68.2183 90.8713 68.2738 91.0648 68.3821 91.2469C68.4908 91.43 68.6366 91.571 68.8185 91.6722C68.9998 91.7749 69.2035 91.825 69.4262 91.8227C69.7562 91.8203 70.034 91.7049 70.26 91.475C70.4856 91.2469 70.5971 90.9702 70.5948 90.648C70.5929 90.4347 70.5392 90.236 70.4333 90.0539C70.327 89.8722 70.1836 89.7303 70.0012 89.6295C69.8194 89.5288 69.6166 89.4791 69.3958 89.4805C69.1751 89.4824 68.9761 89.5349 68.798 89.6395C68.6209 89.7426 68.4794 89.8874 68.3736 90.0747C68.2677 90.2601 68.2154 90.4574 68.2173 90.6655ZM67.9457 90.6807C67.9424 90.2625 68.0796 89.9105 68.3588 89.6258C68.638 89.3414 68.9823 89.1981 69.3939 89.1953C69.8004 89.192 70.147 89.3301 70.4324 89.6106C70.7182 89.8902 70.8616 90.2322 70.8649 90.6381C70.8678 91.0473 70.7301 91.396 70.4495 91.6803C70.1698 91.9646 69.8289 92.1084 69.4286 92.1117C69.1613 92.1131 68.913 92.0512 68.6846 91.9244C68.4552 91.7966 68.2762 91.6221 68.1447 91.4016C68.0136 91.1798 67.9472 90.9395 67.9457 90.6807ZM68.3826 94.1402L68.3408 93.8654L70.826 93.4983L70.6698 92.4462L70.9352 92.4069L71.1323 93.7348L68.3826 94.1402Z" stroke="#0F0E0E" stroke-opacity="0.4" stroke-width="0.216" stroke-miterlimit="22.9256"/>
<path fill-rule="evenodd" clip-rule="evenodd" d="M102.117 71.3366L102.355 71.4847L101.024 73.6068L101.929 74.1702L101.786 74.3968L100.644 73.6853L102.117 71.3366ZM100.12 70.864L99.2374 71.5424L100.085 71.9724L100.12 70.864ZM100.419 70.3564L100.311 73.4105L100.045 73.2761L100.071 72.2662L99.0043 71.7245L98.2014 72.3395L97.926 72.1995L100.358 70.3256L100.419 70.3564ZM95.4583 71.3754L96.3177 68.7409L96.3752 68.7593L97.4749 71.3456L98.133 69.3284L98.3937 69.4131L97.5342 72.0476L97.4749 72.0277L96.3809 69.4722L95.7318 71.4643L95.4583 71.3754ZM93.908 68.4533C93.7053 68.4183 93.5044 68.4367 93.3045 68.5091C93.1046 68.5829 92.9384 68.7002 92.805 68.8601C92.6716 69.02 92.5856 69.2092 92.5467 69.4278C92.4893 69.7528 92.5538 70.0451 92.739 70.3081C92.9251 70.5707 93.1773 70.7296 93.4954 70.7855C93.7067 70.8228 93.9123 70.8058 94.1108 70.7353C94.3097 70.6644 94.4754 70.5485 94.6074 70.389C94.7404 70.2291 94.8263 70.0394 94.8648 69.8228C94.9033 69.6061 94.8871 69.4013 94.8168 69.2083C94.747 69.0167 94.6293 68.8511 94.464 68.7139C94.2998 68.5763 94.1141 68.4897 93.908 68.4533ZM93.9422 68.1836C94.3563 68.2565 94.6787 68.4556 94.9099 68.7801C95.1397 69.1051 95.2195 69.4685 95.1478 69.872C95.0775 70.2717 94.8786 70.5858 94.5505 70.8148C94.2224 71.0438 93.8582 71.1228 93.4574 71.0523C93.0519 70.9813 92.7338 70.7831 92.5035 70.4572C92.2737 70.1307 92.1934 69.7712 92.2623 69.3781C92.3093 69.116 92.4157 68.8837 92.5818 68.6827C92.7485 68.4812 92.9527 68.3374 93.1953 68.2489C93.438 68.16 93.6868 68.1391 93.9422 68.1836ZM91.4266 67.9882L91.7044 68.0081L91.5102 70.7713L91.2319 70.7519L91.4266 67.9882ZM89.0487 70.214L89.2823 70.0692C89.4542 70.3711 89.6489 70.5196 89.8673 70.5158C89.9599 70.5139 90.0477 70.4912 90.1284 70.4463C90.2096 70.4018 90.2714 70.3427 90.3127 70.2694C90.3545 70.196 90.3749 70.118 90.3734 70.0366C90.3715 69.9439 90.3388 69.8535 90.2737 69.7655C90.1845 69.6435 90.023 69.4987 89.7894 69.3294C89.5553 69.1586 89.4081 69.0351 89.3502 68.959C89.2495 68.8298 89.1987 68.6893 89.1959 68.5375C89.1935 68.4168 89.2201 68.3066 89.2761 68.2063C89.3326 68.1065 89.4134 68.0266 89.5173 67.9679C89.6218 67.9088 89.7353 67.879 89.8587 67.8766C89.9898 67.8742 90.1137 67.9045 90.2277 67.9669C90.3431 68.0289 90.4656 68.1462 90.5957 68.317L90.372 68.4925C90.2652 68.3558 90.174 68.2659 90.1 68.2243C90.0254 68.1817 89.9447 68.1604 89.8578 68.1619C89.7457 68.1642 89.6546 68.1997 89.5848 68.2692C89.515 68.3383 89.4808 68.422 89.4822 68.5209C89.4832 68.5815 89.496 68.6396 89.5226 68.6959C89.5492 68.7518 89.5962 68.8123 89.6641 68.8776C89.7016 68.9117 89.8231 69.003 90.0283 69.1477C90.2723 69.3209 90.4399 69.4755 90.532 69.6113C90.6232 69.7485 90.6707 69.8857 90.6735 70.0248C90.6773 70.2268 90.6037 70.4018 90.4532 70.5532C90.3022 70.7032 90.118 70.7803 89.8986 70.784C89.7296 70.7874 89.5757 70.7453 89.4366 70.6582C89.298 70.5712 89.1693 70.4231 89.0487 70.214ZM87.0668 70.4439L87.2843 70.276C87.487 70.5584 87.6955 70.6856 87.9124 70.6596C88.0046 70.6487 88.0891 70.6171 88.165 70.5636C88.241 70.5111 88.2956 70.4458 88.3293 70.3677C88.3635 70.2906 88.3754 70.2112 88.3654 70.1307C88.354 70.038 88.3113 69.9519 88.2377 69.8706C88.1356 69.7594 87.9599 69.6312 87.7106 69.4874C87.4595 69.3417 87.3009 69.2343 87.2344 69.1643C87.1214 69.0465 87.0559 68.9121 87.0369 68.7612C87.0222 68.6415 87.0369 68.5294 87.0825 68.4239C87.128 68.3184 87.1997 68.2304 87.2975 68.1609C87.3944 68.0914 87.5046 68.0497 87.6261 68.0341C87.7567 68.0185 87.8825 68.0351 88.0031 68.0857C88.1247 68.1358 88.2591 68.2394 88.4063 68.396L88.2026 68.5933C88.0815 68.4693 87.9813 68.3894 87.9034 68.3553C87.8251 68.3208 87.742 68.3076 87.656 68.3184C87.5449 68.3322 87.458 68.3766 87.3949 68.4533C87.3327 68.5289 87.308 68.6165 87.3203 68.7144C87.3275 68.7745 87.3469 68.8312 87.3787 68.8842C87.411 68.9372 87.4642 68.9921 87.5383 69.0503C87.5791 69.0801 87.7092 69.1577 87.9286 69.2811C88.1888 69.4282 88.3721 69.5645 88.4784 69.6908C88.5834 69.8166 88.6456 69.9481 88.6622 70.0867C88.6869 70.2864 88.6323 70.469 88.4979 70.6346C88.3645 70.8001 88.1888 70.8952 87.9713 70.9222C87.8032 70.9425 87.6465 70.917 87.4989 70.8446C87.3522 70.7732 87.2083 70.6388 87.0668 70.4439ZM84.7976 68.6453L86.3565 68.3156L86.4134 68.5819L85.1262 68.8549L85.3071 69.7021L86.5834 69.432L86.6394 69.6979L85.3641 69.9675L85.5906 71.0305L86.8669 70.7599L86.9234 71.0267L85.3755 71.3546L84.7976 68.6453ZM82.745 69.2646L84.0702 68.836L84.1552 69.0957L83.0925 69.4401L83.3613 70.2637L84.4234 69.9198L84.5084 70.1795L83.4458 70.5239L83.8674 71.8149L83.6044 71.9L82.745 69.2646ZM80.5517 70.4222C80.368 70.5153 80.2198 70.6506 80.1035 70.829C79.9891 71.0073 79.9269 71.2003 79.9164 71.4085C79.9069 71.6157 79.9525 71.8191 80.0537 72.0168C80.2037 72.3097 80.4316 72.506 80.7393 72.6044C81.046 72.7023 81.3433 72.6782 81.6305 72.533C81.8224 72.4355 81.9762 72.2988 82.0921 72.1233C82.2079 71.9473 82.2706 71.7557 82.2801 71.5485C82.2891 71.3408 82.2435 71.1384 82.1429 70.942C82.0427 70.7462 81.9069 70.5929 81.7341 70.4799C81.5617 70.3687 81.368 70.3077 81.1529 70.2963C80.9387 70.2854 80.7379 70.328 80.5517 70.4222ZM80.4159 70.187C80.7906 69.9969 81.1681 69.9619 81.5489 70.083C81.9287 70.2041 82.2117 70.4477 82.3983 70.812C82.5835 71.1734 82.6144 71.5433 82.4904 71.9232C82.3675 72.3026 82.1244 72.5841 81.7616 72.7681C81.395 72.9545 81.0209 72.9876 80.6401 72.8646C80.2597 72.7425 79.9777 72.5027 79.7963 72.1474C79.6757 71.9104 79.6201 71.6616 79.632 71.4004C79.6425 71.1393 79.7194 70.9018 79.859 70.6852C79.9991 70.4704 80.1852 70.3044 80.4159 70.187ZM77.4222 72.4109L77.964 73.182L78.3576 72.9119C78.5095 72.8064 78.6116 72.7141 78.6643 72.6342C78.7161 72.5542 78.7408 72.4691 78.7374 72.3778C78.7332 72.286 78.7042 72.2009 78.6491 72.1228C78.596 72.0467 78.5266 71.9922 78.4412 71.9582C78.3566 71.9251 78.2707 71.918 78.1848 71.9383C78.0988 71.9582 77.9777 72.0225 77.8215 72.1313L77.4222 72.4109ZM77.0381 72.3475L77.491 72.031C77.7441 71.8546 77.9227 71.7453 78.0271 71.7037C78.1843 71.6403 78.341 71.6299 78.4962 71.6715C78.652 71.7146 78.7821 71.8096 78.8861 71.9572C78.973 72.0807 79.0195 72.2094 79.0271 72.3433C79.0347 72.4781 79.001 72.6068 78.9255 72.7298C78.8509 72.8537 78.7185 72.9819 78.5285 73.1163L80.0893 73.5992L79.8072 73.7965L78.2489 73.3116L78.1192 73.4025L78.8609 74.4569L78.6335 74.6163L77.0381 72.3475ZM75.4512 74.0137L76.0585 74.7346L76.4232 74.4375C76.5694 74.3159 76.6639 74.2138 76.7095 74.131C76.756 74.0477 76.7726 73.9611 76.7608 73.8694C76.7503 73.7781 76.7133 73.6953 76.652 73.6224C76.5917 73.551 76.5181 73.5018 76.4289 73.4753C76.3401 73.4483 76.2541 73.4488 76.1696 73.4772C76.0856 73.5051 75.9711 73.5789 75.8273 73.6986L75.4512 74.0137ZM75.0647 73.9853L75.4897 73.6305C75.7328 73.4271 75.9056 73.3012 76.0086 73.2506C76.1554 73.1787 76.3064 73.1574 76.4616 73.1848C76.6174 73.2132 76.7541 73.2979 76.8719 73.4379C76.9911 73.5794 77.0523 73.727 77.0533 73.8821C77.0561 74.0368 77.0039 74.1854 76.8989 74.3278C76.8215 74.4314 76.6516 74.5941 76.3866 74.8141L76.2347 74.9423L77.0656 75.9286L76.8524 76.1065L75.0647 73.9853Z" fill="#0F0E0E" fill-opacity="0.4"/>
<path d="M102.117 71.3366L102.355 71.4847L101.024 73.6068L101.929 74.1702L101.786 74.3968L100.644 73.6853L102.117 71.3366ZM100.12 70.864L99.2374 71.5424L100.085 71.9724L100.12 70.864ZM100.419 70.3564L100.311 73.4105L100.045 73.2761L100.071 72.2662L99.0043 71.7245L98.2014 72.3395L97.926 72.1995L100.358 70.3256L100.419 70.3564ZM95.4583 71.3754L96.3177 68.7409L96.3752 68.7593L97.4749 71.3456L98.133 69.3284L98.3937 69.4131L97.5342 72.0476L97.4749 72.0277L96.3809 69.4722L95.7318 71.4643L95.4583 71.3754ZM93.908 68.4533C93.7053 68.4183 93.5044 68.4367 93.3045 68.5091C93.1046 68.5829 92.9384 68.7002 92.805 68.8601C92.6716 69.02 92.5856 69.2092 92.5467 69.4278C92.4893 69.7528 92.5538 70.0451 92.739 70.3081C92.9251 70.5707 93.1773 70.7296 93.4954 70.7855C93.7067 70.8228 93.9123 70.8058 94.1108 70.7353C94.3097 70.6644 94.4754 70.5485 94.6074 70.389C94.7404 70.2291 94.8263 70.0394 94.8648 69.8228C94.9033 69.6061 94.8871 69.4013 94.8168 69.2083C94.747 69.0167 94.6293 68.8511 94.464 68.7139C94.2998 68.5763 94.1141 68.4897 93.908 68.4533ZM93.9422 68.1836C94.3563 68.2565 94.6787 68.4556 94.9099 68.7801C95.1397 69.1051 95.2195 69.4685 95.1478 69.872C95.0775 70.2717 94.8786 70.5858 94.5505 70.8148C94.2224 71.0438 93.8582 71.1228 93.4574 71.0523C93.0519 70.9813 92.7338 70.7831 92.5035 70.4572C92.2737 70.1307 92.1934 69.7712 92.2623 69.3781C92.3093 69.116 92.4157 68.8837 92.5818 68.6827C92.7485 68.4812 92.9527 68.3374 93.1953 68.2489C93.438 68.16 93.6868 68.1391 93.9422 68.1836ZM91.4266 67.9882L91.7044 68.0081L91.5102 70.7713L91.2319 70.7519L91.4266 67.9882ZM89.0487 70.214L89.2823 70.0692C89.4542 70.3711 89.6489 70.5196 89.8673 70.5158C89.9599 70.5139 90.0477 70.4912 90.1284 70.4463C90.2096 70.4018 90.2714 70.3427 90.3127 70.2694C90.3545 70.196 90.3749 70.118 90.3734 70.0366C90.3715 69.9439 90.3388 69.8535 90.2737 69.7655C90.1845 69.6435 90.023 69.4987 89.7894 69.3294C89.5553 69.1586 89.4081 69.0351 89.3502 68.959C89.2495 68.8298 89.1987 68.6893 89.1959 68.5375C89.1935 68.4168 89.2201 68.3066 89.2761 68.2063C89.3326 68.1065 89.4134 68.0266 89.5173 67.9679C89.6218 67.9088 89.7353 67.879 89.8587 67.8766C89.9898 67.8742 90.1137 67.9045 90.2277 67.9669C90.3431 68.0289 90.4656 68.1462 90.5957 68.317L90.372 68.4925C90.2652 68.3558 90.174 68.2659 90.1 68.2243C90.0254 68.1817 89.9447 68.1604 89.8578 68.1619C89.7457 68.1642 89.6546 68.1997 89.5848 68.2692C89.515 68.3383 89.4808 68.422 89.4822 68.5209C89.4832 68.5815 89.496 68.6396 89.5226 68.6959C89.5492 68.7518 89.5962 68.8123 89.6641 68.8776C89.7016 68.9117 89.8231 69.003 90.0283 69.1477C90.2723 69.3209 90.4399 69.4755 90.532 69.6113C90.6232 69.7485 90.6707 69.8857 90.6735 70.0248C90.6773 70.2268 90.6037 70.4018 90.4532 70.5532C90.3022 70.7032 90.118 70.7803 89.8986 70.784C89.7296 70.7874 89.5757 70.7453 89.4366 70.6582C89.298 70.5712 89.1693 70.4231 89.0487 70.214ZM87.0668 70.4439L87.2843 70.276C87.487 70.5584 87.6955 70.6856 87.9124 70.6596C88.0046 70.6487 88.0891 70.6171 88.165 70.5636C88.241 70.5111 88.2956 70.4458 88.3293 70.3677C88.3635 70.2906 88.3754 70.2112 88.3654 70.1307C88.354 70.038 88.3113 69.9519 88.2377 69.8706C88.1356 69.7594 87.9599 69.6312 87.7106 69.4874C87.4595 69.3417 87.3009 69.2343 87.2344 69.1643C87.1214 69.0465 87.0559 68.9121 87.0369 68.7612C87.0222 68.6415 87.0369 68.5294 87.0825 68.4239C87.128 68.3184 87.1997 68.2304 87.2975 68.1609C87.3944 68.0914 87.5046 68.0497 87.6261 68.0341C87.7567 68.0185 87.8825 68.0351 88.0031 68.0857C88.1247 68.1358 88.2591 68.2394 88.4063 68.396L88.2026 68.5933C88.0815 68.4693 87.9813 68.3894 87.9034 68.3553C87.8251 68.3208 87.742 68.3076 87.656 68.3184C87.5449 68.3322 87.458 68.3766 87.3949 68.4533C87.3327 68.5289 87.308 68.6165 87.3203 68.7144C87.3275 68.7745 87.3469 68.8312 87.3787 68.8842C87.411 68.9372 87.4642 68.9921 87.5383 69.0503C87.5791 69.0801 87.7092 69.1577 87.9286 69.2811C88.1888 69.4282 88.3721 69.5645 88.4784 69.6908C88.5834 69.8166 88.6456 69.9481 88.6622 70.0867C88.6869 70.2864 88.6323 70.469 88.4979 70.6346C88.3645 70.8001 88.1888 70.8952 87.9713 70.9222C87.8032 70.9425 87.6465 70.917 87.4989 70.8446C87.3522 70.7732 87.2083 70.6388 87.0668 70.4439ZM84.7976 68.6453L86.3565 68.3156L86.4134 68.5819L85.1262 68.8549L85.3071 69.7021L86.5834 69.432L86.6394 69.6979L85.3641 69.9675L85.5906 71.0305L86.8669 70.7599L86.9234 71.0267L85.3755 71.3546L84.7976 68.6453ZM82.745 69.2646L84.0702 68.836L84.1552 69.0957L83.0925 69.4401L83.3613 70.2637L84.4234 69.9198L84.5084 70.1795L83.4458 70.5239L83.8674 71.8149L83.6044 71.9L82.745 69.2646ZM80.5517 70.4222C80.368 70.5153 80.2198 70.6506 80.1035 70.829C79.9891 71.0073 79.9269 71.2003 79.9164 71.4085C79.9069 71.6157 79.9525 71.8191 80.0537 72.0168C80.2037 72.3097 80.4316 72.506 80.7393 72.6044C81.046 72.7023 81.3433 72.6782 81.6305 72.533C81.8224 72.4355 81.9762 72.2988 82.0921 72.1233C82.2079 71.9473 82.2706 71.7557 82.2801 71.5485C82.2891 71.3408 82.2435 71.1384 82.1429 70.942C82.0427 70.7462 81.9069 70.5929 81.7341 70.4799C81.5617 70.3687 81.368 70.3077 81.1529 70.2963C80.9387 70.2854 80.7379 70.328 80.5517 70.4222ZM80.4159 70.187C80.7906 69.9969 81.1681 69.9619 81.5489 70.083C81.9287 70.2041 82.2117 70.4477 82.3983 70.812C82.5835 71.1734 82.6144 71.5433 82.4904 71.9232C82.3675 72.3026 82.1244 72.5841 81.7616 72.7681C81.395 72.9545 81.0209 72.9876 80.6401 72.8646C80.2597 72.7425 79.9777 72.5027 79.7963 72.1474C79.6757 71.9104 79.6201 71.6616 79.632 71.4004C79.6425 71.1393 79.7194 70.9018 79.859 70.6852C79.9991 70.4704 80.1852 70.3044 80.4159 70.187ZM77.4222 72.4109L77.964 73.182L78.3576 72.9119C78.5095 72.8064 78.6116 72.7141 78.6643 72.6342C78.7161 72.5542 78.7408 72.4691 78.7374 72.3778C78.7332 72.286 78.7042 72.2009 78.6491 72.1228C78.596 72.0467 78.5266 71.9923 78.4412 71.9582C78.3566 71.9251 78.2707 71.918 78.1848 71.9383C78.0988 71.9582 77.9777 72.0225 77.8215 72.1313L77.4222 72.4109ZM77.0381 72.3475L77.491 72.031C77.7441 71.8546 77.9227 71.7453 78.0271 71.7037C78.1843 71.6403 78.341 71.6299 78.4962 71.6715C78.652 71.7146 78.7821 71.8096 78.8861 71.9572C78.973 72.0807 79.0195 72.2094 79.0271 72.3433C79.0347 72.4781 79.001 72.6068 78.9255 72.7298C78.8509 72.8537 78.7185 72.9819 78.5285 73.1162L80.0893 73.5992L79.8072 73.7965L78.2489 73.3116L78.1192 73.4025L78.8609 74.4569L78.6335 74.6163L77.0381 72.3475ZM75.4512 74.0137L76.0585 74.7346L76.4232 74.4375C76.5694 74.3159 76.6639 74.2138 76.7095 74.131C76.756 74.0477 76.7726 73.9611 76.7608 73.8694C76.7503 73.7781 76.7133 73.6953 76.652 73.6224C76.5917 73.551 76.5181 73.5018 76.4289 73.4753C76.3401 73.4483 76.2541 73.4488 76.1696 73.4772C76.0856 73.5051 75.9711 73.5789 75.8273 73.6986L75.4512 74.0137ZM75.0647 73.9853L75.4897 73.6305C75.7328 73.4271 75.9056 73.3012 76.0086 73.2506C76.1554 73.1787 76.3064 73.1574 76.4616 73.1848C76.6174 73.2132 76.7541 73.2979 76.8719 73.4379C76.9911 73.5794 77.0523 73.727 77.0533 73.8821C77.0561 74.0368 77.0039 74.1854 76.8989 74.3278C76.8215 74.4314 76.6516 74.5941 76.3866 74.8141L76.2347 74.9423L77.0656 75.9286L76.8524 76.1065L75.0647 73.9853Z" stroke="#0F0E0E" stroke-opacity="0.4" stroke-width="0.216" stroke-miterlimit="22.9256"/>
<path fill-rule="evenodd" clip-rule="evenodd" d="M112.088 94.8162L112.004 95.1242L110.714 95.5126L111.639 96.4805L111.556 96.7894L110.382 95.5679L109.098 95.2254L109.169 94.961L110.452 95.3044L112.088 94.8162ZM112.143 92.8601L112.408 92.9074L112.144 94.4028L111.878 94.3564L111.985 93.748L109.514 93.3138L109.563 93.0356L112.035 93.4694L112.143 92.8601ZM112.488 91.9679L112.469 92.2437L109.695 92.0512L109.715 91.7739L112.488 91.9679ZM110.299 89.647L110.437 89.8855C110.128 90.0454 109.972 90.2341 109.967 90.4522C109.966 90.544 109.986 90.6315 110.028 90.7138C110.07 90.7975 110.127 90.86 110.2 90.9026C110.272 90.948 110.349 90.9702 110.43 90.9716C110.524 90.9735 110.616 90.9428 110.706 90.8817C110.831 90.7971 110.983 90.6414 111.161 90.4158C111.34 90.1882 111.469 90.0463 111.548 89.991C111.68 89.8959 111.823 89.8495 111.975 89.8524C112.097 89.8543 112.206 89.8841 112.305 89.9441C112.402 90.0033 112.479 90.0865 112.535 90.192C112.591 90.2975 112.617 90.412 112.615 90.5355C112.613 90.666 112.579 90.7876 112.511 90.8992C112.444 91.0123 112.323 91.1301 112.147 91.2531L111.979 91.0251C112.119 90.9238 112.212 90.8368 112.258 90.7635C112.303 90.692 112.327 90.6121 112.328 90.5255C112.33 90.4134 112.297 90.3212 112.23 90.2488C112.163 90.1774 112.08 90.1405 111.981 90.139C111.921 90.1371 111.862 90.1485 111.805 90.1731C111.748 90.1977 111.685 90.2422 111.617 90.307C111.581 90.3425 111.487 90.4607 111.333 90.6604C111.151 90.8964 110.99 91.0587 110.85 91.1457C110.71 91.2313 110.57 91.2739 110.43 91.272C110.228 91.2678 110.054 91.1888 109.908 91.0327C109.762 90.8789 109.692 90.6916 109.695 90.473C109.699 90.3051 109.745 90.1532 109.838 90.0175C109.932 89.8826 110.086 89.7596 110.299 89.647ZM112.154 87.6441L111.212 87.7269L111.25 88.2014C111.267 88.3854 111.296 88.5197 111.339 88.6044C111.382 88.69 111.445 88.7539 111.526 88.7965C111.607 88.8391 111.696 88.8561 111.791 88.8476C111.884 88.8395 111.966 88.8069 112.039 88.7506C112.109 88.6938 112.158 88.6229 112.184 88.5391C112.21 88.4549 112.214 88.3182 112.198 88.1299L112.154 87.6441ZM112.401 87.3446L112.449 87.8943C112.476 88.2004 112.482 88.4095 112.466 88.5202C112.442 88.6877 112.374 88.8268 112.259 88.9408C112.144 89.0538 111.996 89.1182 111.816 89.1342C111.665 89.147 111.53 89.1243 111.409 89.0633C111.289 89.0018 111.194 88.9095 111.124 88.7823C111.054 88.656 111.008 88.4776 110.987 88.2468L109.787 89.3509L109.756 89.0089L110.957 87.9071L110.944 87.7496L109.655 87.8622L109.631 87.5854L112.401 87.3446ZM112.022 84.9949L112.326 86.5542L112.058 86.6052L111.806 85.319L110.953 85.4846L111.201 86.7599L110.934 86.8115L110.685 85.5357L109.615 85.7429L109.864 87.0192L109.595 87.0712L109.293 85.5238L112.022 84.9949ZM110.999 81.8637L111.098 82.149L109.366 83.7134L111.703 83.8993L111.801 84.1851L108.779 83.9476L108.759 83.8899L110.999 81.8637ZM110.604 80.9744L110.721 81.2251L108.201 82.3959L108.084 82.1452L110.604 80.9744ZM106.736 79.6621L109.143 78.277L109.174 78.3295L108.254 80.9838L110.098 79.9237L110.235 80.1598L107.827 81.5454L107.796 81.4914L108.699 78.8636L106.88 79.9104L106.736 79.6621ZM107.378 75.8894L107.553 76.1046L106.249 77.1572C106.094 77.2826 106 77.363 105.966 77.3994C105.89 77.4794 105.839 77.5612 105.814 77.6464C105.788 77.7315 105.789 77.8304 105.816 77.942C105.843 78.0551 105.89 78.1511 105.957 78.233C106.014 78.3044 106.085 78.3612 106.169 78.4009C106.251 78.4421 106.338 78.4633 106.428 78.4633C106.517 78.4643 106.609 78.4435 106.702 78.4023C106.769 78.3725 106.887 78.2893 107.057 78.1521L108.362 77.0995L108.536 77.3147L107.232 78.3668C107.039 78.523 106.867 78.6303 106.719 78.6881C106.57 78.7467 106.404 78.7552 106.225 78.7136C106.045 78.6724 105.891 78.5707 105.76 78.4113C105.619 78.2367 105.54 78.0551 105.522 77.864C105.505 77.6729 105.547 77.5011 105.65 77.3483C105.713 77.2542 105.855 77.1189 106.074 76.942L107.378 75.8894Z" fill="#0F0E0E" fill-opacity="0.4"/>
<path d="M112.088 94.8162L112.004 95.1242L110.714 95.5126L111.639 96.4805L111.556 96.7894L110.382 95.5679L109.098 95.2254L109.169 94.961L110.452 95.3044L112.088 94.8162ZM112.143 92.8601L112.408 92.9074L112.144 94.4028L111.878 94.3564L111.985 93.748L109.514 93.3138L109.563 93.0356L112.035 93.4694L112.143 92.8601ZM112.488 91.9679L112.469 92.2437L109.695 92.0512L109.715 91.7739L112.488 91.9679ZM110.299 89.647L110.437 89.8855C110.128 90.0454 109.972 90.2341 109.967 90.4522C109.966 90.544 109.986 90.6315 110.028 90.7138C110.07 90.7975 110.127 90.86 110.2 90.9026C110.272 90.948 110.349 90.9702 110.43 90.9716C110.524 90.9735 110.616 90.9428 110.706 90.8817C110.831 90.7971 110.983 90.6414 111.161 90.4158C111.34 90.1882 111.469 90.0463 111.548 89.991C111.68 89.8959 111.823 89.8495 111.975 89.8524C112.097 89.8543 112.206 89.8841 112.305 89.9441C112.402 90.0033 112.479 90.0865 112.535 90.192C112.591 90.2975 112.617 90.412 112.615 90.5355C112.613 90.666 112.579 90.7876 112.511 90.8992C112.444 91.0123 112.323 91.1301 112.147 91.2531L111.979 91.0251C112.119 90.9238 112.212 90.8368 112.258 90.7635C112.303 90.692 112.327 90.6121 112.328 90.5255C112.33 90.4134 112.297 90.3212 112.23 90.2488C112.163 90.1774 112.08 90.1405 111.981 90.139C111.921 90.1371 111.862 90.1485 111.805 90.1731C111.748 90.1977 111.685 90.2422 111.617 90.307C111.581 90.3425 111.487 90.4607 111.333 90.6604C111.151 90.8964 110.99 91.0587 110.85 91.1457C110.71 91.2313 110.57 91.2739 110.43 91.272C110.228 91.2678 110.054 91.1888 109.908 91.0327C109.762 90.8789 109.692 90.6916 109.695 90.473C109.699 90.3051 109.745 90.1532 109.838 90.0175C109.932 89.8826 110.086 89.7596 110.299 89.647ZM112.154 87.6441L111.212 87.7269L111.25 88.2014C111.267 88.3854 111.296 88.5197 111.339 88.6044C111.382 88.69 111.445 88.7539 111.526 88.7965C111.607 88.8391 111.696 88.8561 111.791 88.8476C111.884 88.8395 111.966 88.8069 112.039 88.7506C112.109 88.6938 112.158 88.6229 112.184 88.5391C112.21 88.4549 112.214 88.3182 112.198 88.1299L112.154 87.6441ZM112.401 87.3446L112.449 87.8943C112.476 88.2004 112.482 88.4095 112.466 88.5202C112.442 88.6877 112.374 88.8268 112.259 88.9408C112.144 89.0538 111.996 89.1182 111.816 89.1342C111.665 89.147 111.53 89.1243 111.409 89.0633C111.289 89.0018 111.194 88.9095 111.124 88.7823C111.054 88.656 111.008 88.4776 110.987 88.2468L109.787 89.3509L109.756 89.0089L110.957 87.9071L110.944 87.7496L109.655 87.8622L109.631 87.5854L112.401 87.3446ZM112.022 84.9949L112.326 86.5542L112.058 86.6052L111.806 85.319L110.953 85.4846L111.201 86.7599L110.934 86.8115L110.685 85.5357L109.615 85.7429L109.864 87.0192L109.595 87.0712L109.293 85.5238L112.022 84.9949ZM110.999 81.8637L111.098 82.149L109.366 83.7134L111.703 83.8993L111.801 84.1851L108.779 83.9476L108.759 83.8899L110.999 81.8637ZM110.604 80.9744L110.721 81.2251L108.201 82.3959L108.084 82.1452L110.604 80.9744ZM106.736 79.6621L109.143 78.277L109.174 78.3295L108.254 80.9838L110.098 79.9237L110.235 80.1598L107.827 81.5454L107.796 81.4914L108.699 78.8636L106.88 79.9104L106.736 79.6621ZM107.378 75.8894L107.553 76.1046L106.249 77.1572C106.094 77.2826 106 77.363 105.966 77.3994C105.89 77.4794 105.839 77.5612 105.814 77.6464C105.788 77.7315 105.789 77.8304 105.816 77.942C105.843 78.0551 105.89 78.1511 105.957 78.233C106.014 78.3044 106.085 78.3612 106.169 78.4009C106.251 78.4421 106.338 78.4633 106.428 78.4633C106.517 78.4643 106.609 78.4435 106.702 78.4023C106.769 78.3725 106.887 78.2893 107.057 78.1521L108.362 77.0995L108.536 77.3147L107.232 78.3668C107.039 78.523 106.867 78.6303 106.719 78.6881C106.57 78.7467 106.404 78.7552 106.225 78.7136C106.045 78.6724 105.891 78.5707 105.76 78.4113C105.619 78.2367 105.54 78.0551 105.522 77.864C105.505 77.6729 105.547 77.5011 105.65 77.3483C105.713 77.2542 105.855 77.1189 106.074 76.942L107.378 75.8894Z" stroke="#0F0E0E" stroke-opacity="0.4" stroke-width="0.216" stroke-miterlimit="22.9256"/>
<path fill-rule="evenodd" clip-rule="evenodd" d="M103.904 108.307L103.658 108.488C103.608 108.212 103.511 107.915 103.371 107.601C103.229 107.288 103.052 106.986 102.839 106.699C102.641 106.433 102.428 106.192 102.199 105.979C101.971 105.764 101.746 105.593 101.529 105.463L101.763 105.291C101.971 105.415 102.189 105.581 102.414 105.794C102.639 106.005 102.849 106.241 103.045 106.505C103.254 106.788 103.433 107.084 103.579 107.39C103.726 107.699 103.835 108.003 103.904 108.307ZM100.474 106.954L100.573 108.062L101.393 107.581L100.474 106.954ZM100.205 106.431L102.732 108.164L102.475 108.315L101.634 107.75L100.602 108.355L100.691 109.36L100.424 109.517L100.146 106.465L100.205 106.431ZM98.435 107.298L98.6881 107.183L99.84 109.705L99.5869 109.819L98.435 107.298ZM96.9241 110.565L97.2271 110.458C97.5889 110.33 97.832 110.219 97.9564 110.126C98.1311 109.992 98.2451 109.822 98.2992 109.617C98.3529 109.41 98.3377 109.187 98.2522 108.947C98.1629 108.695 98.0248 108.501 97.8396 108.365C97.6534 108.229 97.4402 108.167 97.1971 108.177C97.0162 108.185 96.7361 108.256 96.3596 108.388L96.1744 108.454L96.9241 110.565ZM96.7598 110.901L95.833 108.289L96.3771 108.097C96.7693 107.958 97.0647 107.891 97.2636 107.891C97.5499 107.891 97.803 107.974 98.0238 108.142C98.2451 108.311 98.4089 108.546 98.5162 108.849C98.6083 109.111 98.634 109.362 98.5912 109.6C98.548 109.84 98.453 110.037 98.3054 110.196C98.1577 110.354 97.9203 110.492 97.5941 110.606L96.7598 110.901ZM93.7433 111.584L93.1906 108.868L93.2499 108.856L95.4845 110.569L95.0609 108.491L95.3292 108.437L95.8824 111.152L95.8206 111.164L93.6065 109.475L94.0249 111.526L93.7433 111.584ZM92.3976 108.934L92.6754 108.912L92.8919 111.674L92.6146 111.696L92.3976 108.934ZM91.4314 108.872L91.7376 108.86C91.6246 109.117 91.5387 109.415 91.4793 109.755C91.4186 110.094 91.3967 110.442 91.4124 110.8C91.4266 111.131 91.4684 111.449 91.5382 111.754C91.6075 112.059 91.6963 112.326 91.8041 112.555L91.514 112.567C91.4105 112.348 91.3255 112.088 91.2571 111.788C91.1883 111.488 91.1474 111.175 91.1327 110.847C91.1175 110.495 91.136 110.15 91.1864 109.813C91.2367 109.476 91.3193 109.163 91.4314 108.872ZM87.741 110.318L87.6015 111.372L87.9424 111.417C88.1437 111.443 88.2937 111.443 88.3925 111.416C88.4913 111.389 88.5748 111.338 88.6427 111.262C88.7111 111.186 88.751 111.101 88.7638 111.003C88.78 110.88 88.7538 110.769 88.6855 110.667C88.6176 110.566 88.5169 110.49 88.3811 110.438C88.2899 110.403 88.1285 110.371 87.8963 110.339L87.741 110.318ZM87.8944 109.163L87.7776 110.042L87.9353 110.063C88.1261 110.088 88.2695 110.089 88.3635 110.066C88.4585 110.042 88.5364 109.995 88.5991 109.925C88.6622 109.856 88.6992 109.775 88.7116 109.68C88.7282 109.554 88.6973 109.451 88.6195 109.368C88.5406 109.284 88.4053 109.23 88.213 109.204L87.8944 109.163ZM87.6603 108.858L88.204 108.93C88.4224 108.959 88.5872 109.007 88.6978 109.075C88.808 109.141 88.8896 109.233 88.9442 109.349C88.9979 109.465 89.0169 109.588 88.9998 109.719C88.9837 109.841 88.9381 109.949 88.865 110.041C88.7918 110.132 88.6926 110.202 88.5687 110.249C88.7054 110.316 88.8089 110.388 88.8773 110.463C88.9466 110.539 88.996 110.627 89.0264 110.725C89.0573 110.822 89.0653 110.926 89.0516 111.034C89.0216 111.254 88.9162 111.431 88.7349 111.561C88.5525 111.692 88.3256 111.74 88.053 111.705L87.2957 111.604L87.6603 108.858ZM85.8522 109.139L85.1514 110.003L86.0758 110.224L85.8522 109.139ZM86.0236 108.576L86.6333 111.57L86.3432 111.501L86.1333 110.514L84.9686 110.235L84.3318 111.019L84.0303 110.946L85.9576 108.56L86.0236 108.576ZM83.9923 107.992L84.2592 108.076L83.6937 109.859C83.6068 110.134 83.5256 110.318 83.4482 110.411C83.3717 110.505 83.273 110.568 83.1538 110.6C83.0332 110.633 82.9031 110.627 82.7606 110.582C82.6538 110.549 82.555 110.495 82.4639 110.42C82.3732 110.347 82.2815 110.239 82.1885 110.094L82.395 109.928C82.5033 110.069 82.5963 110.173 82.6747 110.242C82.7269 110.287 82.7815 110.318 82.839 110.337C82.9145 110.36 82.9909 110.36 83.0674 110.334C83.1433 110.306 83.206 110.261 83.2549 110.193C83.3038 110.126 83.3622 109.983 83.4301 109.767L83.9923 107.992ZM79.5176 109.06L80.8029 106.603L80.8561 106.631L81.5119 109.362L82.4952 107.482L82.7388 107.608L81.4534 110.065L81.3979 110.035L80.7445 107.334L79.7726 109.191L79.5176 109.06ZM78.7038 105.331L78.9355 105.484L78.0077 106.878C77.898 107.043 77.8329 107.148 77.8116 107.194C77.7627 107.292 77.7394 107.386 77.7408 107.474C77.7418 107.563 77.7717 107.658 77.8315 107.757C77.8909 107.856 77.9649 107.934 78.0537 107.991C78.1306 108.043 78.2147 108.076 78.3063 108.089C78.398 108.103 78.4872 108.097 78.5732 108.071C78.6586 108.045 78.7398 107.997 78.8158 107.931C78.8699 107.882 78.9583 107.768 79.0798 107.586L80.0067 106.192L80.2384 106.344L79.311 107.738C79.1738 107.945 79.0428 108.097 78.9184 108.198C78.7935 108.299 78.6382 108.356 78.4545 108.37C78.2702 108.384 78.0922 108.334 77.9203 108.221C77.7332 108.097 77.6022 107.947 77.5286 107.77C77.4545 107.593 77.4426 107.416 77.4958 107.24C77.5267 107.131 77.6212 106.959 77.7769 106.725L78.7038 105.331ZM77.0832 104.318L76.4688 105.033L76.823 105.343C76.9678 105.467 77.0841 105.543 77.1739 105.573C77.2631 105.604 77.3524 105.607 77.4407 105.581C77.53 105.555 77.606 105.506 77.6682 105.434C77.7289 105.363 77.765 105.281 77.7769 105.19C77.7888 105.099 77.7745 105.014 77.7327 104.936C77.6914 104.857 77.5998 104.757 77.4569 104.636L77.0832 104.318ZM77.0471 103.934L77.4683 104.292C77.7099 104.498 77.8638 104.647 77.9303 104.74C78.0252 104.873 78.0718 105.017 78.0699 105.174C78.067 105.331 78.0058 105.481 77.8861 105.619C77.766 105.76 77.6297 105.843 77.4763 105.87C77.3239 105.899 77.1687 105.872 77.0096 105.791C76.8947 105.733 76.7057 105.592 76.4441 105.367L76.2931 105.239L75.4526 106.218L75.2418 106.038L77.0471 103.934Z" fill="#0F0E0E" fill-opacity="0.4"/>
<path d="M103.904 108.307L103.658 108.488C103.608 108.212 103.511 107.915 103.371 107.601C103.229 107.288 103.052 106.986 102.839 106.699C102.641 106.433 102.428 106.192 102.199 105.979C101.971 105.764 101.746 105.593 101.529 105.463L101.763 105.291C101.971 105.415 102.189 105.581 102.414 105.794C102.639 106.005 102.849 106.241 103.045 106.505C103.254 106.788 103.433 107.084 103.579 107.39C103.726 107.699 103.835 108.003 103.904 108.307ZM100.474 106.954L100.573 108.062L101.393 107.581L100.474 106.954ZM100.205 106.431L102.732 108.164L102.475 108.315L101.634 107.75L100.602 108.355L100.691 109.36L100.424 109.517L100.146 106.465L100.205 106.431ZM98.435 107.298L98.6881 107.183L99.84 109.705L99.5869 109.819L98.435 107.298ZM96.9241 110.565L97.2271 110.458C97.5889 110.33 97.832 110.219 97.9564 110.126C98.1311 109.992 98.2451 109.822 98.2992 109.617C98.3529 109.41 98.3377 109.187 98.2522 108.947C98.1629 108.695 98.0248 108.501 97.8396 108.365C97.6534 108.229 97.4402 108.167 97.1971 108.177C97.0162 108.185 96.7361 108.256 96.3596 108.388L96.1744 108.454L96.9241 110.565ZM96.7598 110.901L95.833 108.289L96.3771 108.097C96.7693 107.958 97.0647 107.891 97.2636 107.891C97.5499 107.891 97.803 107.974 98.0238 108.142C98.2451 108.311 98.4089 108.546 98.5162 108.849C98.6083 109.111 98.634 109.362 98.5912 109.6C98.548 109.84 98.453 110.037 98.3054 110.196C98.1577 110.354 97.9203 110.492 97.5941 110.606L96.7598 110.901ZM93.7433 111.584L93.1906 108.868L93.2499 108.856L95.4845 110.569L95.0609 108.491L95.3292 108.437L95.8824 111.152L95.8206 111.164L93.6065 109.475L94.0249 111.526L93.7433 111.584ZM92.3976 108.934L92.6754 108.912L92.8919 111.674L92.6146 111.696L92.3976 108.934ZM91.4314 108.872L91.7376 108.86C91.6246 109.117 91.5387 109.415 91.4793 109.755C91.4185 110.094 91.3967 110.442 91.4124 110.8C91.4266 111.131 91.4684 111.449 91.5382 111.754C91.6075 112.059 91.6963 112.326 91.8041 112.555L91.514 112.567C91.4105 112.348 91.3255 112.088 91.2571 111.788C91.1883 111.488 91.1474 111.175 91.1327 110.847C91.1175 110.495 91.136 110.15 91.1864 109.813C91.2367 109.476 91.3193 109.163 91.4314 108.872ZM87.741 110.318L87.6015 111.372L87.9424 111.417C88.1437 111.443 88.2937 111.443 88.3925 111.416C88.4913 111.389 88.5748 111.338 88.6427 111.262C88.7111 111.186 88.751 111.101 88.7638 111.003C88.78 110.88 88.7538 110.769 88.6855 110.667C88.6176 110.566 88.5169 110.49 88.3811 110.438C88.2899 110.403 88.1285 110.371 87.8963 110.339L87.741 110.318ZM87.8944 109.163L87.7776 110.042L87.9353 110.063C88.1261 110.088 88.2695 110.089 88.3635 110.066C88.4585 110.042 88.5364 109.995 88.5991 109.925C88.6622 109.856 88.6992 109.775 88.7116 109.68C88.7282 109.554 88.6973 109.451 88.6195 109.368C88.5406 109.284 88.4053 109.23 88.213 109.204L87.8944 109.163ZM87.6603 108.858L88.204 108.93C88.4224 108.959 88.5872 109.007 88.6978 109.075C88.808 109.141 88.8896 109.233 88.9442 109.349C88.9979 109.465 89.0169 109.588 88.9998 109.719C88.9837 109.841 88.9381 109.949 88.865 110.041C88.7918 110.132 88.6926 110.202 88.5687 110.249C88.7054 110.316 88.8089 110.388 88.8773 110.463C88.9466 110.539 88.996 110.627 89.0264 110.725C89.0573 110.822 89.0653 110.926 89.0516 111.034C89.0216 111.254 88.9162 111.431 88.7349 111.561C88.5525 111.692 88.3256 111.74 88.053 111.705L87.2957 111.604L87.6603 108.858ZM85.8522 109.139L85.1514 110.003L86.0758 110.224L85.8522 109.139ZM86.0236 108.576L86.6333 111.57L86.3432 111.501L86.1333 110.514L84.9686 110.235L84.3318 111.019L84.0303 110.946L85.9576 108.56L86.0236 108.576ZM83.9923 107.992L84.2592 108.076L83.6937 109.859C83.6068 110.134 83.5256 110.318 83.4482 110.411C83.3717 110.505 83.273 110.568 83.1538 110.6C83.0332 110.633 82.9031 110.627 82.7606 110.582C82.6538 110.549 82.555 110.495 82.4639 110.42C82.3732 110.347 82.2815 110.239 82.1885 110.094L82.395 109.928C82.5033 110.069 82.5963 110.173 82.6747 110.242C82.7269 110.287 82.7815 110.318 82.839 110.337C82.9145 110.36 82.9909 110.36 83.0674 110.334C83.1433 110.306 83.206 110.261 83.2549 110.193C83.3038 110.126 83.3622 109.983 83.4301 109.767L83.9923 107.992ZM79.5176 109.06L80.8029 106.603L80.8561 106.631L81.5119 109.362L82.4952 107.482L82.7388 107.608L81.4534 110.065L81.3979 110.035L80.7445 107.334L79.7726 109.191L79.5176 109.06ZM78.7038 105.331L78.9355 105.484L78.0077 106.878C77.898 107.043 77.8329 107.148 77.8116 107.194C77.7627 107.292 77.7394 107.386 77.7408 107.474C77.7418 107.563 77.7717 107.658 77.8315 107.757C77.8909 107.856 77.9649 107.934 78.0537 107.991C78.1306 108.043 78.2147 108.076 78.3063 108.089C78.398 108.103 78.4872 108.097 78.5732 108.071C78.6586 108.045 78.7398 107.997 78.8158 107.931C78.8699 107.882 78.9583 107.768 79.0798 107.586L80.0067 106.192L80.2384 106.344L79.311 107.738C79.1738 107.945 79.0428 108.097 78.9184 108.198C78.7935 108.299 78.6382 108.356 78.4545 108.37C78.2702 108.384 78.0922 108.334 77.9203 108.221C77.7332 108.097 77.6022 107.947 77.5286 107.77C77.4545 107.593 77.4426 107.416 77.4958 107.24C77.5267 107.131 77.6212 106.959 77.7769 106.725L78.7038 105.331ZM77.0832 104.318L76.4688 105.033L76.823 105.343C76.9678 105.467 77.0841 105.543 77.1739 105.573C77.2631 105.604 77.3524 105.607 77.4407 105.581C77.53 105.555 77.606 105.506 77.6682 105.434C77.7289 105.363 77.765 105.281 77.7769 105.19C77.7888 105.099 77.7745 105.014 77.7327 104.936C77.6914 104.857 77.5998 104.757 77.4569 104.636L77.0832 104.318ZM77.0471 103.934L77.4683 104.292C77.7099 104.498 77.8638 104.647 77.9303 104.74C78.0252 104.873 78.0718 105.017 78.0699 105.174C78.067 105.331 78.0058 105.481 77.8861 105.619C77.766 105.76 77.6297 105.843 77.4763 105.87C77.3239 105.899 77.1687 105.872 77.0096 105.791C76.8947 105.733 76.7057 105.592 76.4441 105.367L76.2931 105.239L75.4526 106.218L75.2418 106.038L77.0471 103.934Z" stroke="#0F0E0E" stroke-opacity="0.4" stroke-width="0.216" stroke-miterlimit="22.9256"/>
<path fill-rule="evenodd" clip-rule="evenodd" d="M72.7884 100.656C73.2281 100.656 73.587 101.013 73.587 101.452C73.587 101.889 73.2281 102.247 72.7884 102.247C72.3482 102.247 71.9893 101.889 71.9893 101.452C71.9893 101.013 72.3482 100.656 72.7884 100.656Z" fill="#0F0E0E" fill-opacity="0.4"/>
<path d="M72.7884 100.656C73.2281 100.656 73.587 101.013 73.587 101.452C73.587 101.889 73.2281 102.247 72.7884 102.247C72.3482 102.247 71.9893 101.889 71.9893 101.452C71.9893 101.013 72.3482 100.656 72.7884 100.656Z" stroke="#0F0E0E" stroke-opacity="0.4" stroke-width="0.216" stroke-miterlimit="22.9256"/>
<path fill-rule="evenodd" clip-rule="evenodd" d="M107.534 100.656C107.974 100.656 108.333 101.013 108.333 101.452C108.333 101.889 107.974 102.247 107.534 102.247C107.094 102.247 106.735 101.889 106.735 101.452C106.735 101.013 107.094 100.656 107.534 100.656Z" fill="#0F0E0E" fill-opacity="0.4"/>
<path d="M107.534 100.656C107.974 100.656 108.333 101.013 108.333 101.452C108.333 101.889 107.974 102.247 107.534 102.247C107.094 102.247 106.735 101.889 106.735 101.452C106.735 101.013 107.094 100.656 107.534 100.656Z" stroke="#0F0E0E" stroke-opacity="0.4" stroke-width="0.216" stroke-miterlimit="22.9256"/>
<path d="M135.186 66.6742H121.999V79.8126H135.186V66.6742Z" stroke="#0F0E0E" stroke-opacity="0.4" stroke-width="0.9514" stroke-miterlimit="22.9256"/>
<path d="M135.187 66.6726H121.999V79.8115H135.187V66.6726Z" fill="url(#paint5_linear_1162_3058)" fill-opacity="0.4"/>
<path d="M135.186 82.7922H121.999V95.9306H135.186V82.7922Z" stroke="#0F0E0E" stroke-opacity="0.4" stroke-width="0.9514" stroke-miterlimit="22.9256"/>
<path d="M135.187 82.7913H121.999V95.9297H135.187V82.7913Z" fill="url(#paint6_linear_1162_3058)" fill-opacity="0.4"/>
<path d="M135.186 98.9116H121.999V112.05H135.186V98.9116Z" stroke="#0F0E0E" stroke-opacity="0.4" stroke-width="0.9514" stroke-miterlimit="22.9256"/>
<path d="M135.187 98.91H121.999V112.047H135.187V98.91Z" fill="url(#paint7_linear_1162_3058)" fill-opacity="0.4"/>
<path fill-rule="evenodd" clip-rule="evenodd" d="M173.429 78.028V73.9616L176.629 68.4788H175.235L173.856 71.1142C173.486 71.8361 173.145 72.4601 172.89 73.0831H172.861C172.562 72.4175 172.263 71.8361 171.908 71.1142L170.557 68.4788H169.135L172.177 73.9758V78.0276H173.429V78.028ZM163.91 78.028H169.258V76.9934H165.162V68.4788H163.91V78.028ZM161.274 72.531H157.563V69.5133H161.501V68.4788H156.311V78.028H161.716V76.9934H157.563V73.5505H161.274V72.531ZM151.258 78.028L154.685 68.4788H153.363L151.741 73.1971C151.3 74.4436 150.916 75.648 150.646 76.7526H150.618C150.346 75.648 149.992 74.472 149.593 73.1824L148.1 68.4792H146.749L149.892 78.0285H151.258V78.028ZM141.185 77.1775C139.236 77.1775 138.127 75.3216 138.127 73.3102C138.127 71.2415 139.15 69.3289 141.213 69.3289C143.275 69.3289 144.27 71.3119 144.27 73.2108C144.27 75.3784 143.16 77.1775 141.198 77.1775H141.185ZM141.141 78.186C143.573 78.186 145.578 76.4267 145.578 73.1545C145.578 70.3209 143.885 68.3231 141.255 68.3231C138.696 68.3231 136.818 70.3062 136.818 73.3381C136.818 76.2285 138.581 78.186 141.127 78.186H141.141Z" fill="#0F0E0E" fill-opacity="0.4"/>
<path fill-rule="evenodd" clip-rule="evenodd" d="M198.198 94.0512H202.718V93.0181H199.256V84.5029H198.197V94.0512H198.198ZM192.759 90.0851L193.553 87.3219C193.71 86.741 193.842 86.1463 193.95 85.5938H193.986C194.107 86.1463 194.227 86.7126 194.395 87.3366L195.201 90.0855H192.759V90.0851ZM195.418 91.0487L196.284 94.0512H197.401L194.636 84.5029H193.373L190.619 94.0512H191.702L192.544 91.0487H195.418ZM184.688 94.0512V89.9715C184.688 88.3849 184.677 87.2372 184.618 86.0333L184.653 86.0191C185.05 87.0537 185.592 88.1441 186.156 89.2066L188.729 94.0512H189.788V84.5029H188.801V88.5126C188.801 89.9857 188.825 91.1476 188.921 92.4225L188.886 92.4376C188.514 91.4598 188.032 90.4541 187.443 89.3334L184.857 84.5029H183.704V94.0512H184.688ZM179.011 93.2021C177.364 93.2021 176.426 91.3458 176.426 89.3334C176.426 87.2651 177.291 85.353 179.035 85.353C180.778 85.353 181.621 87.3361 181.621 89.2345C181.621 91.4026 180.682 93.2021 179.023 93.2021H179.011ZM178.975 94.2102C181.03 94.2102 182.726 92.4509 182.726 89.1777C182.726 86.345 181.294 84.3468 179.071 84.3468C176.906 84.3468 175.319 86.3304 175.319 89.3622C175.319 92.2531 176.811 94.2102 178.963 94.2102H178.975ZM173.297 84.5029V94.0512H174.355V84.5029H173.297ZM167.354 93.5701C167.787 93.9103 168.64 94.1955 169.422 94.1955C171.334 94.1955 172.248 92.9045 172.248 91.4456C172.248 90.0425 171.563 89.2771 170.192 88.6399C169.073 88.1299 168.581 87.6904 168.581 86.8119C168.581 86.1605 169.002 85.3814 170.108 85.3814C170.841 85.3814 171.382 85.6506 171.635 85.8346L171.923 84.8147C171.575 84.5881 170.961 84.3615 170.143 84.3615C168.568 84.3615 167.522 85.4665 167.522 86.9539C167.522 88.2855 168.34 89.1072 169.662 89.6456C170.756 90.1276 171.189 90.6513 171.189 91.5445C171.189 92.5072 170.564 93.1595 169.494 93.1595C168.773 93.1595 168.099 92.8899 167.63 92.5497L167.354 93.5701ZM161.808 93.5701C162.241 93.9103 163.095 94.1955 163.876 94.1955C165.788 94.1955 166.702 92.9045 166.702 91.4456C166.702 90.0425 166.017 89.2771 164.646 88.6399C163.528 88.1299 163.034 87.6904 163.034 86.8119C163.034 86.1605 163.455 85.3814 164.562 85.3814C165.295 85.3814 165.836 85.6506 166.088 85.8346L166.377 84.8147C166.029 84.5881 165.415 84.3615 164.597 84.3615C163.022 84.3615 161.976 85.4665 161.976 86.9539C161.976 88.2855 162.794 89.1072 164.117 89.6456C165.211 90.1276 165.644 90.6513 165.644 91.5445C165.644 92.5072 165.018 93.1595 163.948 93.1595C163.226 93.1595 162.553 92.8899 162.084 92.5497L161.808 93.5701ZM160.868 88.5552H157.73V85.5375H161.061V84.5029H156.671V94.0512H161.241V93.0181H157.73V89.5751H160.868V88.5552ZM151.198 94.0512H152.256V89.7307H155.31V88.7108H152.256V85.5375H155.562V84.5029H151.198V94.0512ZM146.518 93.2021C144.87 93.2021 143.932 91.3458 143.932 89.3334C143.932 87.2651 144.798 85.353 146.542 85.353C148.286 85.353 149.127 87.3361 149.127 89.2345C149.127 91.4026 148.188 93.2021 146.529 93.2021H146.518ZM146.481 94.2102C148.538 94.2102 150.233 92.4509 150.233 89.1777C150.233 86.345 148.802 84.3468 146.578 84.3468C144.413 84.3468 142.826 86.3304 142.826 89.3622C142.826 92.2531 144.317 94.2102 146.47 94.2102H146.481ZM138.266 85.5091C138.447 85.4524 138.795 85.3956 139.301 85.3956C140.406 85.3956 141.164 85.9339 141.164 87.1663C141.164 88.2571 140.455 88.9795 139.336 88.9795H138.266V85.5091ZM137.22 94.0512H138.266V89.9157H139.253C140.203 89.9583 140.646 90.4541 140.887 91.7706C141.104 92.9613 141.284 93.7693 141.416 94.0512H142.498C142.343 93.6841 142.15 92.7636 141.885 91.4309C141.68 90.4389 141.308 89.7591 140.695 89.5041V89.4616C141.536 89.1219 142.222 88.286 142.222 87.0385C142.222 86.2883 141.981 85.6364 141.584 85.2258C141.079 84.6869 140.346 84.432 139.228 84.432C138.517 84.432 137.748 84.5171 137.219 84.6444V94.0512H137.22Z" fill="#0F0E0E" fill-opacity="0.4"/>
<path fill-rule="evenodd" clip-rule="evenodd" d="M200.013 110.076V106.009L203.213 100.528H201.819L200.439 103.162C200.07 103.884 199.728 104.508 199.472 105.131H199.443C199.146 104.465 198.847 103.884 198.492 103.162L197.14 100.528H195.718L198.761 106.023V110.076H200.013V110.076ZM190.23 110.076H191.48V101.575H194.411V100.528H187.313V101.575H190.23V110.076H190.23ZM184.243 100.528V110.076H185.494V100.528H184.243ZM176.01 109.594C176.521 109.935 177.53 110.219 178.454 110.219C180.716 110.219 181.796 108.928 181.796 107.469C181.796 106.067 180.986 105.302 179.364 104.664C178.042 104.154 177.459 103.715 177.459 102.836C177.459 102.185 177.957 101.406 179.265 101.406C180.133 101.406 180.773 101.675 181.072 101.859L181.413 100.839C181.001 100.613 180.275 100.385 179.308 100.385C177.445 100.385 176.208 101.491 176.208 102.978C176.208 104.309 177.175 105.131 178.74 105.669C180.033 106.152 180.546 106.675 180.546 107.568C180.546 108.532 179.806 109.184 178.539 109.184C177.687 109.184 176.89 108.914 176.337 108.574L176.01 109.594ZM169.325 101.533C169.538 101.476 169.951 101.42 170.549 101.42C171.856 101.42 172.753 101.958 172.753 103.19C172.753 104.281 171.913 105.004 170.591 105.004H169.325V101.533ZM168.089 110.076H169.325V105.938H170.491C171.616 105.982 172.141 106.478 172.426 107.796C172.681 108.985 172.894 109.792 173.051 110.076H174.331C174.145 109.708 173.919 108.787 173.606 107.456C173.364 106.464 172.923 105.783 172.198 105.528V105.486C173.194 105.146 174.003 104.31 174.003 103.063C174.003 102.312 173.719 101.661 173.249 101.25C172.653 100.711 171.786 100.456 170.463 100.456C169.625 100.456 168.714 100.541 168.088 100.669V110.076H168.089ZM165.287 104.579H161.576V101.561H165.515V100.528H160.324V110.076H165.728V109.042H161.576V105.598H165.287V104.579ZM155.12 110.076L158.547 100.528H157.224L155.603 105.244C155.162 106.491 154.779 107.697 154.508 108.801H154.479C154.21 107.697 153.853 106.52 153.456 105.231L151.962 100.528H150.612L153.754 110.077H155.12V110.076ZM147.484 100.528V110.076H148.735V100.528H147.484ZM138.553 110.076V105.996C138.553 104.409 138.539 103.261 138.468 102.056L138.511 102.043C138.979 103.078 139.62 104.168 140.288 105.231L143.331 110.076H144.583V100.528H143.417V104.536C143.417 106.009 143.445 107.171 143.558 108.447L143.517 108.461C143.075 107.483 142.507 106.478 141.809 105.358L138.752 100.528H137.387V110.076H138.553Z" fill="#0F0E0E" fill-opacity="0.4"/>
<path fill-rule="evenodd" clip-rule="evenodd" d="M125.281 100.526V106.151C125.281 109.125 126.759 110.233 128.722 110.233C130.798 110.233 132.348 109.04 132.348 106.108V100.526H131.097V106.193C131.097 108.29 130.173 109.225 128.765 109.225C127.485 109.225 126.532 108.318 126.532 106.193V100.526H125.281ZM126.532 85.5087C126.745 85.4519 127.157 85.4094 127.698 85.4094C129.062 85.4094 129.959 86.0158 129.959 87.2723C129.959 88.5709 129.049 89.2909 127.555 89.2909C127.143 89.2909 126.801 89.2625 126.532 89.192V85.5087ZM125.295 94.0513H126.532V90.1977C126.816 90.2687 127.157 90.2833 127.527 90.2833C128.736 90.2833 129.803 89.929 130.456 89.2346C130.954 88.7412 131.21 88.0633 131.21 87.2009C131.21 86.3678 130.883 85.6752 130.356 85.2249C129.788 84.7149 128.892 84.4311 127.669 84.4311C126.674 84.4311 125.892 84.5167 125.295 84.6298V94.0513ZM125.281 78.0282H130.627V76.9936H126.532V68.4789H125.281V78.0282Z" fill="white"/>
<defs>
<linearGradient id="paint0_linear_1162_3058" x1="72.8298" y1="65.3978" x2="72.8298" y2="109.022" gradientUnits="userSpaceOnUse">
<stop/>
<stop offset="1" stop-color="#050505" stop-opacity="0"/>
</linearGradient>
<linearGradient id="paint1_linear_1162_3058" x1="83.5652" y1="68.8914" x2="83.5652" y2="109.065" gradientUnits="userSpaceOnUse">
<stop/>
<stop offset="1" stop-color="#050505" stop-opacity="0"/>
</linearGradient>
<linearGradient id="paint2_linear_1162_3058" x1="89.8738" y1="74.1688" x2="89.8738" y2="109.024" gradientUnits="userSpaceOnUse">
<stop/>
<stop offset="1" stop-color="#050505" stop-opacity="0"/>
</linearGradient>
<linearGradient id="paint3_linear_1162_3058" x1="93.5115" y1="88.3763" x2="93.5115" y2="108.906" gradientUnits="userSpaceOnUse">
<stop/>
<stop offset="1" stop-color="#050505" stop-opacity="0"/>
</linearGradient>
<linearGradient id="paint4_linear_1162_3058" x1="93.9157" y1="103.724" x2="93.9157" y2="114.758" gradientUnits="userSpaceOnUse">
<stop/>
<stop offset="1" stop-color="#050505" stop-opacity="0"/>
</linearGradient>
<linearGradient id="paint5_linear_1162_3058" x1="127.428" y1="34.0652" x2="129.76" y2="77.0657" gradientUnits="userSpaceOnUse">
<stop stop-color="white" stop-opacity="0.49"/>
<stop offset="1"/>
</linearGradient>
<linearGradient id="paint6_linear_1162_3058" x1="127.428" y1="50.1851" x2="129.759" y2="93.184" gradientUnits="userSpaceOnUse">
<stop stop-color="white" stop-opacity="0.49"/>
<stop offset="1"/>
</linearGradient>
<linearGradient id="paint7_linear_1162_3058" x1="127.428" y1="66.3062" x2="129.759" y2="109.302" gradientUnits="userSpaceOnUse">
<stop stop-color="white" stop-opacity="0.49"/>
<stop offset="1"/>
</linearGradient>
</defs>
</svg>
