<svg width="270" height="180" viewBox="0 0 270 180" fill="none" xmlns="http://www.w3.org/2000/svg">
<g clip-path="url(#clip0_1162_3095)">
<path d="M54.3429 80.2397H58.6395L61.0939 92.4767L63.6955 80.2397H67.8441L68.2126 99.6369H65.2677L64.9484 86.4658L62.3955 99.6369H59.8924L57.2651 86.3939L56.9706 99.6369H54L54.3429 80.2397Z" fill="#0F0E0E" fill-opacity="0.4"/>
<path d="M74.0052 80.2397H78.4975L82.326 99.6369H78.5952L77.8593 95.3744H74.7175L73.9565 99.6369H70.1516L74.0052 80.2397ZM77.466 92.9314L76.2632 85.1244L75.0852 92.9314H77.466Z" fill="#0F0E0E" fill-opacity="0.4"/>
<path d="M85.1982 98.4277C84.2805 97.4448 83.7814 95.9241 83.7009 93.8656L87.1865 93.2909C87.1562 94.2237 87.3363 95.1516 87.714 96.0089C87.8396 96.2755 88.0425 96.5004 88.2977 96.6557C88.5529 96.8111 88.8492 96.89 89.1498 96.8827C89.3461 96.8995 89.5434 96.8678 89.7236 96.7904C89.9039 96.7129 90.0612 96.5924 90.181 96.4399C90.4061 96.1024 90.5177 95.7049 90.5003 95.3025C90.5224 94.6157 90.3391 93.9374 89.9728 93.3505C89.5059 92.6923 88.9483 92.1001 88.3156 91.5905L86.2541 89.842C85.4972 89.243 84.8605 88.5123 84.3766 87.6868C83.9226 86.8379 83.6987 85.8898 83.7261 84.9327C83.7261 83.3519 84.2048 82.1343 85.162 81.2798C86.1193 80.4252 87.4403 79.9994 89.125 80.0021C90.9254 80.0021 92.1773 80.5083 92.8807 81.5207C93.6315 82.6806 94.0471 84.0169 94.0835 85.3883L90.5739 85.8911C90.5843 85.1227 90.464 84.358 90.218 83.6279C90.1241 83.3941 89.9547 83.1965 89.7356 83.0648C89.5164 82.9331 89.2594 82.8744 89.003 82.8977C88.8028 82.8897 88.6036 82.9305 88.4235 83.0165C88.2434 83.1025 88.0882 83.231 87.9719 83.3903C87.7231 83.728 87.5937 84.1356 87.6034 84.5514C87.584 85.1194 87.7332 85.6808 88.0329 86.1682C88.415 86.7109 88.8734 87.1984 89.3947 87.6166L91.4078 89.3405C92.2891 90.0762 93.0434 90.9453 93.6417 91.9148C94.1988 92.8824 94.4785 93.9784 94.4516 95.0879C94.467 95.9546 94.2468 96.8098 93.8134 97.5665C93.3894 98.2916 92.764 98.8851 92.0094 99.2785C91.1823 99.7054 90.2574 99.9197 89.3219 99.9012C87.4891 99.9006 86.1145 99.4094 85.1982 98.4277Z" fill="#0F0E0E" fill-opacity="0.4"/>
<path d="M98.4528 83.1613H95.3845V80.2397H105.546V83.1613H102.527V99.6369H98.4523V83.1613H98.4528Z" fill="#0F0E0E" fill-opacity="0.4"/>
<path d="M107.338 80.2397H116.004V82.9696H111.363V88.1182H114.947V90.8735H111.363V96.9562H116.05V99.6381H107.338V80.2397Z" fill="#0F0E0E" fill-opacity="0.4"/>
<path d="M118.112 80.2397H123.267C125.41 80.2397 127.022 80.6228 128.102 81.389C129.182 82.1551 129.722 83.4802 129.722 85.3641C129.763 86.4075 129.579 87.4476 129.182 88.4174C128.793 89.2183 128.11 89.8469 127.267 90.1774L130.018 99.6369H125.87L123.612 90.8481H122.14V99.6369H118.112V80.2397ZM123.341 88.5011C124.291 88.5011 124.958 88.2736 125.342 87.8186C125.727 87.3635 125.919 86.6491 125.919 85.6753C125.978 84.9375 125.797 84.2003 125.404 83.568C125.06 83.1212 124.438 82.8976 123.538 82.8974H122.139V88.5011H123.342H123.341Z" fill="#0F0E0E" fill-opacity="0.4"/>
<path d="M133.357 98.4277C132.441 97.4459 131.942 95.9252 131.861 93.8656L135.346 93.2909C135.316 94.2237 135.496 95.1516 135.874 96.0089C135.999 96.2756 136.202 96.5005 136.458 96.6558C136.713 96.8111 137.009 96.89 137.31 96.8827C137.506 96.8995 137.703 96.8678 137.883 96.7904C138.063 96.7129 138.221 96.5924 138.341 96.4399C138.566 96.1024 138.678 95.7049 138.66 95.3025C138.682 94.6157 138.499 93.9374 138.132 93.3505C137.666 92.6924 137.108 92.1001 136.475 91.5905L134.414 89.842C133.657 89.243 133.02 88.5123 132.536 87.6868C132.082 86.8379 131.858 85.8898 131.886 84.9327C131.886 83.3519 132.365 82.1343 133.322 81.2798C134.279 80.4252 135.599 79.9994 137.283 80.0021C139.084 80.0021 140.335 80.5083 141.039 81.5207C141.789 82.6806 142.205 84.0169 142.241 85.3883L138.732 85.8911C138.742 85.1227 138.622 84.3579 138.376 83.6279C138.282 83.3941 138.113 83.1965 137.894 83.0648C137.675 82.9331 137.417 82.8744 137.161 82.8977C136.961 82.8897 136.761 82.9305 136.582 83.0166C136.401 83.1025 136.246 83.231 136.13 83.3903C135.881 83.7281 135.752 84.1357 135.762 84.5514C135.742 85.1195 135.892 85.6809 136.192 86.1682C136.574 86.7109 137.033 87.1984 137.554 87.6166L139.567 89.3405C140.448 90.0762 141.203 90.9454 141.801 91.9148C142.358 92.8824 142.638 93.9784 142.611 95.0879C142.626 95.9546 142.406 96.8098 141.973 97.5665C141.548 98.2916 140.923 98.8851 140.169 99.2785C139.341 99.7053 138.416 99.9193 137.48 99.9003C135.647 99.9003 134.273 99.4094 133.357 98.4277Z" fill="#0F0E0E" fill-opacity="0.4"/>
<path d="M144.919 85.7713C145.145 85.7879 145.371 85.743 145.573 85.6416C145.775 85.5401 145.943 85.3861 146.06 85.1966C146.297 84.6694 146.402 84.0949 146.367 83.5204H144.747V80.2397H148.134L148.109 82.8255C148.06 84.2465 147.827 85.2841 147.41 85.9383C146.993 86.5926 146.268 86.9278 145.237 86.9439L144.919 85.7713Z" fill="#0F0E0E" fill-opacity="0.4"/>
<path d="M158.515 99.1698C157.687 98.6904 157.061 97.9393 156.748 97.0506C156.371 95.9065 156.197 94.7079 156.233 93.5065V80.2397H160.209V94.0573C160.178 94.7985 160.295 95.5386 160.553 96.2363C160.7 96.4772 160.908 96.6768 161.157 96.8153C161.407 96.9539 161.689 97.0268 161.976 97.0268C162.263 97.0268 162.546 96.9539 162.796 96.8153C163.045 96.6768 163.254 96.4772 163.4 96.2363C163.658 95.5386 163.775 94.7985 163.744 94.0573V80.2397H167.745V93.5065C167.781 94.7079 167.606 95.9066 167.229 97.0506C166.914 97.9419 166.283 98.6937 165.449 99.1698C164.378 99.7081 163.18 99.9601 161.976 99.8999C160.504 99.9002 159.35 99.6568 158.515 99.1698Z" fill="#0F0E0E" fill-opacity="0.4"/>
<path d="M170.567 80.2397H173.39L177.807 90.3215V80.2397H181.17V99.6369H178.445L174.028 88.9087V99.6369H170.567V80.2397Z" fill="#0F0E0E" fill-opacity="0.4"/>
<path d="M184.215 80.2397H188.24V99.6369H184.215V80.2397Z" fill="#0F0E0E" fill-opacity="0.4"/>
<path d="M192.314 98.284C191.414 97.2064 190.964 95.6219 190.964 93.5302V86.2983C190.964 84.2069 191.414 82.6344 192.314 81.5806C193.214 80.5269 194.719 80 196.83 80C198.925 80 200.426 80.5309 201.334 81.5925C202.243 82.6542 202.697 84.2228 202.696 86.2983V93.554C202.696 95.6295 202.243 97.206 201.334 98.2836C200.427 99.3611 198.925 99.8999 196.83 99.8999C194.72 99.9002 193.215 99.3615 192.314 98.284ZM198.218 96.3919C198.483 95.8002 198.605 95.157 198.574 94.512V85.3403C198.607 84.7029 198.485 84.0669 198.218 83.4843C198.053 83.2791 197.843 83.1132 197.602 82.9991C197.362 82.8851 197.099 82.8258 196.831 82.8258C196.564 82.8258 196.3 82.8851 196.06 82.9991C195.82 83.1132 195.609 83.2791 195.444 83.4843C195.177 84.0669 195.055 84.7029 195.088 85.3403V94.512C195.056 95.1598 195.173 95.8064 195.432 96.4038C195.661 96.8509 196.127 97.0744 196.831 97.0744C197.105 97.106 197.383 97.0581 197.63 96.9367C197.876 96.8153 198.081 96.6259 198.217 96.3919H198.218Z" fill="#0F0E0E" fill-opacity="0.4"/>
<path d="M205.398 80.2397H208.221L212.638 90.3215V80.2397H216V99.6369H213.276L208.858 88.9087V99.6369H205.398V80.2397Z" fill="#0F0E0E" fill-opacity="0.4"/>
</g>
<defs>
<clipPath id="clip0_1162_3095">
<rect width="270" height="180" fill="white"/>
</clipPath>
</defs>
</svg>
