<svg width="270" height="180" viewBox="0 0 270 180" fill="none" xmlns="http://www.w3.org/2000/svg">
<g clip-path="url(#clip0_1162_2973)">
<path d="M105.608 90.0487C105.599 92.588 105.075 95.0999 104.065 97.4362C103.056 99.7724 101.582 101.886 99.731 103.651C97.8797 105.417 95.6883 106.799 93.2863 107.716C90.8843 108.633 88.3202 109.067 85.7454 108.991C75.1528 108.681 66.6328 100.001 67.0088 89.2896C67.3566 79.4673 75.5712 70.7862 86.7349 71.0038C97.1466 71.2074 105.586 79.5065 105.608 90.0487ZM75.3081 101.637C75.3299 101.197 75.3594 100.862 75.3594 100.526C75.3594 96.3805 75.3389 92.2348 75.3684 88.089C75.4005 83.7484 78.51 80.0822 83.4534 80.2378C86.5578 80.3352 89.2643 82.1228 90.3192 85.0021C90.6324 85.8826 90.822 86.8012 90.8826 87.7323C90.9853 89.1606 90.9481 90.5977 90.9455 92.0336C90.9455 92.9306 90.318 93.5985 89.503 93.6365C88.5521 93.6808 87.9194 93.1532 87.8527 92.1854C87.7975 91.3834 87.8257 90.5762 87.7975 89.7716C87.7654 88.8721 87.7898 87.9612 87.6499 87.0757C87.2906 84.7985 85.621 83.4208 83.2224 83.3284C81.0549 83.2449 79.2569 84.5568 78.7218 86.6898C78.5571 87.3792 78.4766 88.0855 78.4818 88.7937C78.4728 93.6808 78.4959 98.5679 78.4959 103.455C78.4959 103.786 78.5909 103.97 78.9002 104.124C82.1816 105.752 85.6222 106.289 89.2451 105.634C100.959 103.513 106.397 89.9551 99.2923 80.5566C98.6955 79.7659 97.9897 79.0549 97.3339 78.3072L97.2056 78.3857C97.1992 78.5236 97.1863 78.6614 97.1851 78.7993C97.1731 82.1375 97.1624 85.4761 97.153 88.8152C97.153 89.9538 97.2017 91.1063 97.1427 92.2474C96.9245 96.4223 94.2321 99.3055 90.164 99.7546C85.8494 100.23 82.0341 97.2117 81.6747 92.9458C81.531 91.2467 81.5964 89.53 81.5733 87.8221C81.5769 87.677 81.6025 87.5334 81.6491 87.3957C81.8582 86.686 82.4871 86.2938 83.3174 86.3495C84.0604 86.3988 84.5494 86.8416 84.6277 87.6007C84.6893 88.1915 84.6905 88.7899 84.7201 89.3845C84.7829 90.6686 84.7124 91.9767 84.9395 93.2329C85.304 95.2495 86.7362 96.3957 88.8999 96.6715C89.7916 96.7883 90.6983 96.6357 91.5003 96.2338C92.3022 95.832 92.9616 95.1999 93.3915 94.4209C93.8895 93.5011 94.0422 92.5004 94.0435 91.4757C94.0435 86.5076 94.0435 81.5383 94.0563 76.5702C94.0563 76.1641 93.9087 75.9756 93.5622 75.801C90.5429 74.2859 87.1163 73.7464 83.7684 74.2591C80.4205 74.7718 77.3214 76.3107 74.9107 78.6575C72.5 81.0043 70.9001 84.0398 70.338 87.3334C69.7759 90.627 70.28 94.0115 71.779 97.0067C72.643 98.7591 73.8412 100.331 75.3081 101.637Z" fill="#0F0E0E" fill-opacity="0.4"/>
<path d="M202.001 81.8457V85.388H201.466C198.189 85.388 194.911 85.3716 191.635 85.4007C190.899 85.4147 190.167 85.5093 189.453 85.6828C188.555 85.8928 187.995 86.5127 187.769 87.3983C187.676 87.7715 187.615 88.1574 187.531 88.5774H201.983V92.0362H187.61C187.531 93.8288 188.607 95.0497 190.407 95.2559C190.715 95.2904 191.026 95.3073 191.337 95.3065C194.68 95.3065 198.024 95.3065 201.366 95.3065H201.98V98.8083C201.935 98.8287 201.888 98.8428 201.84 98.85C198.087 98.85 194.332 98.931 190.584 98.8096C187.805 98.7197 185.595 97.5445 184.525 94.822C184.08 93.6905 183.868 92.4827 183.903 91.2695C183.94 89.8248 183.919 88.3522 184.202 86.9454C184.782 84.047 186.695 82.391 189.685 82.0026C190.61 81.8869 191.542 81.8286 192.474 81.828C195.522 81.8078 198.57 81.8205 201.618 81.8217C201.734 81.8293 201.845 81.8382 202.001 81.8457Z" fill="#0F0E0E" fill-opacity="0.4"/>
<path d="M164.532 98.1138V94.6449C165.43 94.8068 166.293 94.9826 167.16 95.1142C169.872 95.5241 172.593 95.7632 175.326 95.3558C175.862 95.2749 176.389 95.0535 176.889 94.8283C177.39 94.6031 177.572 94.1451 177.515 93.6201C177.459 93.0951 177.155 92.7345 176.624 92.6612C175.397 92.479 174.168 92.293 172.934 92.1779C171.137 92.0109 169.355 91.7984 167.645 91.2025C167.261 91.0653 166.888 90.896 166.533 90.6965C164.621 89.6363 163.926 88.0397 164.405 85.9257C164.863 83.9016 166.33 82.8895 168.178 82.3037C170.329 81.6256 172.554 81.5611 174.788 81.6712C176.72 81.7648 178.638 81.9419 180.524 82.4125C180.909 82.5087 181.048 82.6656 181.037 83.0666C181.005 84.0926 181.027 85.1199 181.027 86.2015C180.257 86.0383 179.566 85.865 178.864 85.7448C176.162 85.2805 173.442 85.0187 170.704 85.3096C170.088 85.3754 169.478 85.6398 168.907 85.8928C168.369 86.1307 168.216 86.6405 168.265 87.1946C168.314 87.7488 168.6 88.1409 169.135 88.2358C170.322 88.4471 171.516 88.6432 172.716 88.752C174.525 88.9177 176.339 89.0303 178.093 89.5439C178.343 89.6173 178.588 89.7109 178.832 89.8046C180.489 90.4371 181.448 91.6035 181.527 93.3709C181.605 95.056 181.024 96.4717 179.57 97.4585C178.21 98.3807 176.656 98.7704 175.046 98.9171C171.665 99.2245 168.308 99.0626 164.997 98.2719C164.886 98.2453 164.776 98.2137 164.667 98.1783C164.62 98.1613 164.575 98.1397 164.532 98.1138Z" fill="#0F0E0E" fill-opacity="0.4"/>
<path d="M144.811 99.2346C139.832 99.2346 135.857 95.2711 135.86 90.3068C135.86 85.5399 139.982 81.527 144.863 81.5384C149.771 81.5485 153.826 85.5614 153.821 90.4029C153.821 91.5671 153.588 92.7199 153.135 93.7948C152.682 94.8698 152.017 95.8458 151.18 96.6666C150.342 97.4874 149.348 98.1369 148.255 98.5776C147.162 99.0184 145.992 99.2417 144.811 99.2346ZM144.865 95.5557C147.709 95.5557 150.076 93.214 150.084 90.3928C150.092 87.5906 147.679 85.2438 144.794 85.2489C141.989 85.2489 139.61 87.6045 139.595 90.3878C139.583 93.195 141.989 95.5557 144.865 95.5557Z" fill="#0F0E0E" fill-opacity="0.4"/>
<path d="M116.276 98.7362C116.276 96.6779 116.253 94.6638 116.284 92.6511C116.307 91.2518 116.284 89.8349 116.492 88.4585C117.172 83.9965 121.204 81.0488 125.755 81.5902C130.023 82.0963 133.051 85.1578 133.256 89.4035C133.398 92.331 133.296 95.2711 133.303 98.2049V98.7261H129.402V98.1745C129.402 95.5785 129.41 92.9876 129.402 90.3865C129.402 89.0974 129.122 87.8677 128.233 86.8809C126.95 85.4589 125.313 85.1009 123.495 85.5816C121.608 86.0877 120.619 87.4122 120.324 89.2504C120.195 90.0247 120.206 90.8242 120.195 91.6124C120.181 93.8048 120.195 95.9972 120.195 98.1909V98.7362H116.276Z" fill="#0F0E0E" fill-opacity="0.4"/>
<path d="M156.781 81.9495H160.6V98.7969H156.781V81.9495Z" fill="#0F0E0E" fill-opacity="0.4"/>
</g>
<defs>
<clipPath id="clip0_1162_2973">
<rect width="135" height="38" fill="white" transform="translate(67 71)"/>
</clipPath>
</defs>
</svg>
