<svg width="270" height="180" viewBox="0 0 270 180" fill="none" xmlns="http://www.w3.org/2000/svg">
<path fill-rule="evenodd" clip-rule="evenodd" d="M101.156 68.3188V70.3807L168.597 51.0624V49L101.156 68.3188ZM101.156 73.4195V75.4815L134.174 66.0238C138.987 71.0996 148.634 69.0758 150.475 61.3549L168.597 56.1631V54.1012L148.053 59.9864C148.379 67.08 137.929 68.6939 135.492 63.5839L101.156 73.4195Z" fill="#0F0E0E" fill-opacity="0.4"/>
<path fill-rule="evenodd" clip-rule="evenodd" d="M101.156 78.3039V80.3658C111.206 77.4877 121.256 74.5767 131.305 71.698C138.288 78.4929 152.856 75.2039 156.033 64.6465L168.597 61.0475V58.9856L154.264 63.0918C152.895 72.6915 137.598 76.7116 132.002 69.4681L101.156 78.3039Z" fill="#0F0E0E" fill-opacity="0.4"/>
<path fill-rule="evenodd" clip-rule="evenodd" d="M101.156 83.4045V85.4669L131.213 76.8568C139.286 83.9774 155.02 81.0502 158.995 68.8985L168.597 66.1481V64.0862L158.005 67.1206C155.074 78.4791 138.725 82.5775 131.142 74.815L101.156 83.4045Z" fill="#0F0E0E" fill-opacity="0.4"/>
<path fill-rule="evenodd" clip-rule="evenodd" d="M101.156 88.2888V90.3507L132.954 81.2422C140.193 88.1032 156.216 85.9536 159.836 73.5414L168.597 71.0319V68.9695L159.55 71.5607C156.132 84.2413 139.41 86.9853 132.133 79.4143L101.156 88.2888Z" fill="#0F0E0E" fill-opacity="0.4"/>
<path fill-rule="evenodd" clip-rule="evenodd" d="M101.156 93.2813V95.3432L136.189 85.3082L134.641 83.6895L101.156 93.2813ZM159.22 78.7278L168.597 76.0415V73.9796L159.657 76.5405L159.22 78.7278ZM101.156 98.0564V100.118L142.264 88.3436C147.6 89.2749 151.976 88.0214 155.395 84.5821L168.597 80.8V78.7381L158.849 81.5311C158.252 81.7039 158.01 81.6735 158.121 81.4395L158.513 80.3299C157.93 80.9298 157.299 81.4845 156.764 82.1279C152.863 86.8286 144.05 88.2374 140.004 86.929L137.588 86.1475L138.485 87.0436C138.681 87.2169 138.626 87.3398 138.32 87.4108L101.156 98.0564ZM101.156 103.049V105.111L168.597 85.792V83.7301L101.156 103.049Z" fill="#0F0E0E" fill-opacity="0.4"/>
<path fill-rule="evenodd" clip-rule="evenodd" d="M111.471 109.292C106.867 109.292 103.104 113.508 103.104 118.677C103.104 123.846 106.867 128.062 111.471 128.062C116.075 128.062 119.838 123.846 119.838 118.677C119.838 113.508 116.075 109.292 111.471 109.292ZM111.471 107.531C105.3 107.531 100.257 112.537 100.257 118.677C100.257 124.816 105.3 129.823 111.471 129.823C117.642 129.823 122.685 124.816 122.685 118.677C122.685 112.537 117.642 107.531 111.471 107.531ZM143.077 108.38V129.202C143.069 129.493 142.564 130.014 142.79 130.015H146.224C146.455 130.014 145.933 129.497 145.935 129.202C145.934 122.262 145.934 115.321 145.935 108.38C145.934 108.11 146.468 107.57 146.224 107.567H142.79C142.558 107.566 143.074 108.092 143.077 108.38ZM159.144 114.967C160.779 112.772 162.413 110.576 164.049 108.38C164.205 108.11 164.025 107.555 164.35 107.581C165.4 107.581 166.149 107.567 167.2 107.567C167.974 107.54 167.881 107.847 167.195 108.38C165.014 111.425 162.834 114.47 160.654 117.513C160.51 117.714 160.518 117.914 160.679 118.115L168.597 129.202C169.019 129.681 169.301 130.089 168.597 130.015H164.888C164.542 130.02 165.052 129.417 164.885 129.176C162.966 126.543 160.739 123.417 158.819 120.783C158.647 120.565 158.461 120.502 158.246 120.783C156.153 123.589 154.061 126.396 151.966 129.202C151.835 129.484 152.459 130.02 151.966 130.015H148.506C148.009 130.053 147.867 129.871 148.507 129.205L149.07 128.371C151.603 124.987 154.134 121.603 156.667 118.218C156.774 118.044 156.774 117.853 156.667 117.648C154.474 114.559 152.282 111.47 150.088 108.38C149.462 107.84 149.462 107.568 150.088 107.567C151.176 107.567 152.265 107.577 153.354 107.576C153.772 107.586 153.711 108.11 153.89 108.381L158.525 114.967C158.755 115.277 158.976 115.211 159.144 114.967ZM127.488 109.478V116.329C129.695 117.425 134 115.948 133.999 112.923C134.001 109.628 129.848 108.667 127.488 109.478ZM127.488 117.993C127.478 117.498 127.857 117.682 128.084 117.993C131.069 121.729 133.683 125.466 136.668 129.202C136.846 129.468 136.166 130.018 136.668 130.015H140.607C141.188 130.015 141.12 129.712 140.607 129.202C137.593 125.65 134.95 122.098 131.936 118.547C131.667 118.222 131.667 118.038 131.936 117.993C135.066 117.472 136.967 115.938 137.038 112.923C137.123 109.37 134.77 107.585 130.011 107.567H124.513C123.855 107.559 124.487 108.045 124.513 108.38C124.513 115.322 124.501 122.262 124.501 129.202C124.501 129.474 124.006 130.008 124.273 130.015H127.73C128.125 130.008 127.488 129.474 127.488 129.202V117.993Z" fill="#0F0E0E" fill-opacity="0.4"/>
</svg>
