<svg width="270" height="180" viewBox="0 0 270 180" fill="none" xmlns="http://www.w3.org/2000/svg">
<g clip-path="url(#clip0_1162_3127)">
<path d="M132.382 106.764C131.539 103.881 123.609 73.0652 123.69 73.0039C123.75 72.9425 124.814 73.6173 126.058 74.4762L126.617 74.8707C127.601 75.5655 128.35 76.0947 128.367 76.112C128.387 76.112 129.35 79.6905 130.475 84.0256C131.599 88.3811 132.562 91.9186 132.582 91.8982C132.6 91.8797 133.354 89.0143 134.327 85.3149L134.65 84.0869C135.774 79.8132 136.798 76.2143 136.918 76.0916C137.5 75.519 141.314 72.9221 141.415 73.0243C141.555 73.1675 132.863 106.682 132.622 106.969C132.542 107.05 132.442 106.969 132.382 106.764Z" fill="#0F0E0E" fill-opacity="0.4"/>
<path fill-rule="evenodd" clip-rule="evenodd" d="M109.357 77.0322H113.573C117.306 77.0322 117.929 77.0731 119.053 77.4616C121.441 78.2591 123.469 80.3653 124.151 82.7373C124.633 84.4549 124.452 87.2359 123.73 88.7491C122.967 90.385 121.502 91.8368 119.856 92.6343C118.571 93.2477 118.33 93.2886 115.741 93.35L112.97 93.4318V103.615H109.357V77.0322ZM118.812 88.79C121.261 87.0519 121.261 83.3712 118.812 81.6331C117.989 81.0401 117.868 81.0196 115.46 80.9583L112.97 80.8765V89.5466L115.46 89.4648C117.868 89.4034 117.989 89.383 118.812 88.79Z" fill="#0F0E0E" fill-opacity="0.4"/>
<path fill-rule="evenodd" clip-rule="evenodd" d="M142.679 77.0322V103.615H146.493V93.3909H147.156C147.778 93.3909 147.898 93.5545 150.909 98.4621L154.041 103.513L156.39 103.574C157.674 103.595 158.738 103.554 158.738 103.472C158.738 103.39 157.293 101.018 155.546 98.1963L152.375 93.0842L153.499 92.5116C155.607 91.4278 157.052 89.5261 157.674 86.9496C158.437 83.7801 156.911 80.0381 154.141 78.2795C152.375 77.1958 151.472 77.0322 146.855 77.0322H142.679ZM151.652 81.3468C154.623 82.8191 154.864 86.9905 152.074 88.8309C151.271 89.3625 151.03 89.4034 148.862 89.4648L146.493 89.5466V80.9174H148.641C150.408 80.9174 150.93 80.9992 151.652 81.3468Z" fill="#0F0E0E" fill-opacity="0.4"/>
</g>
<defs>
<clipPath id="clip0_1162_3127">
<rect width="270" height="180" fill="white"/>
</clipPath>
</defs>
</svg>
