<svg width="270" height="180" viewBox="0 0 270 180" fill="none" xmlns="http://www.w3.org/2000/svg">
<g clip-path="url(#clip0_1391_4147)">
<path d="M104.824 82.5304H99.7734V82.5848C99.9363 82.8564 100.045 83.2366 100.045 83.6169C100.045 84.2145 99.6647 85.3009 99.5561 85.7899L96.352 95.0249C95.9175 96.22 95.8632 96.546 95.1029 97.6868V97.7411H99.2846V97.6868C99.0674 97.3065 98.9587 96.9806 98.9587 96.6003C98.9587 96.0027 99.2303 95.1879 99.3932 94.7533L99.6104 94.1014H104.172C104.172 94.1014 104.444 94.9163 104.661 95.4052C104.824 95.8398 104.878 96.2744 104.878 96.546C104.878 96.8719 104.824 97.1435 104.661 97.6868V97.7411H110.743V97.6868C110.092 96.8719 109.766 95.9484 109.223 94.4273L104.824 82.5304ZM100.425 91.6025L101.837 87.3653L103.303 91.6025H100.425ZM92.4962 94.373C92.4962 95.7311 92.6048 96.9806 93.0393 97.6868V97.7411H87.0655V97.6868C87.6629 96.6546 87.5542 95.6225 87.5542 94.4273V91.9285V91.3309L86.7396 89.7555L83.8614 84.3774C83.4812 83.6169 83.1554 83.128 82.558 82.5848V82.5304H87.7715V82.5848L90.867 88.8863C90.867 88.8863 91.573 87.4739 91.7359 87.148C92.0617 86.4961 92.4419 85.7355 92.6048 85.4096C92.8764 84.9207 93.1479 84.2145 93.1479 83.6712C93.1479 83.128 92.985 82.8564 92.822 82.6391V82.5304H96.9494V82.5848L92.7677 90.842L92.4419 91.4395L92.4962 94.373ZM122.528 97.7411H111.83V97.6868C112.264 96.7089 112.318 95.8941 112.318 94.4273V85.8442C112.318 84.0515 112.155 83.3453 111.83 82.6391V82.5848H117.64V82.6391C117.26 83.6712 117.206 84.2688 117.206 85.8985V94.6446C117.858 94.7533 118.618 94.8619 119.433 94.8619C121.17 94.8619 122.094 94.699 122.745 94.4273H122.908L122.528 97.7411ZM75.4981 82.1502C70.7733 82.1502 67.5149 85.0837 67.5149 89.2123C67.5149 95.2422 73.9232 96.1114 76.1497 94.1557L75.7696 93.3952C73.8145 93.7755 72.0767 92.3087 72.0767 88.995C72.0767 86.3331 73.4887 84.6491 75.4438 84.6491C77.7247 84.6491 79.1366 86.9307 79.1366 90.2444C79.1366 93.9928 76.9644 96.8176 72.9456 96.8176C68.3295 96.8176 64.8539 93.1779 62.6816 89.5382C65.0711 88.6147 66.4831 86.822 66.4831 84.3774C66.4831 81.2267 64.0936 78.9994 59.8033 78.9994H51.6572V79.0537C51.9831 79.7599 52.146 81.0637 52.146 82.8564V94.4273C52.146 95.8941 52.0917 96.7089 51.6572 97.6868V97.7411H57.6853V97.6868C57.3052 96.7633 57.1966 95.5138 57.1966 94.4273C57.1966 92.6347 57.1966 91.2222 57.1966 91.2222C57.2509 91.2222 57.8482 91.2222 57.9569 91.2222C62.1385 97.3608 66.9175 99.914 72.0224 99.914C79.4082 99.914 83.7527 95.2422 83.7527 90.0814C83.7527 85.6812 80.44 82.1502 75.4981 82.1502ZM57.2509 88.7777V81.8786H58.9344C60.8894 81.8786 61.704 83.0194 61.704 84.8664C61.704 87.0936 60.4007 88.832 58.2827 88.832C57.9569 88.7777 57.3595 88.7777 57.2509 88.7777ZM158.534 82.5848C158.208 83.291 158.045 84.0515 158.045 85.7899V95.2422C158.099 96.22 158.154 96.8719 158.534 97.6325V97.6868H158.045H157.067H155.004C154.243 97.3608 153.429 96.4373 152.343 95.2965C151.474 94.373 147.401 89.6469 147.401 89.6469H147.346C147.346 89.6469 147.346 94.1014 147.346 94.1557C146.152 94.2644 144.74 94.5903 143.654 94.8619V93.8841V85.7355C143.654 83.9429 143.491 83.2366 143.165 82.5304V82.4761H146.206H147.455L154.352 90.842V85.8442C154.352 84.0515 154.189 83.3453 153.863 82.6391V82.5848H157.067H158.534ZM151.419 97.7411C145.391 97.7954 143.979 101.055 136.322 101.055C132.629 101.055 129.371 100.077 129.371 100.077V100.023C129.805 99.0449 129.86 98.2843 129.86 96.8176V82.8564C129.86 81.0637 129.697 79.7599 129.371 79.0537V78.9994H141.698L142.079 82.4218C141.155 82.0415 140.015 81.9329 138.386 81.9329H135.127V87.8542H136.702C139.146 87.8542 140.558 87.6912 140.938 87.5825H141.047V91.1679H140.992C140.504 91.0049 138.82 90.842 136.811 90.842H135.182V96.7633C135.182 96.7633 137.082 97.1979 138.82 97.1979C143.382 97.1979 145.337 95.5681 149.845 95.5681C150.007 95.5681 150.116 95.5681 150.225 95.5681C151.094 96.6003 151.854 97.4152 152.18 97.7411C151.854 97.7411 151.854 97.7411 151.419 97.7411ZM177.65 85.8442V94.4817C177.65 95.9484 177.704 96.7633 178.139 97.7411V97.7954H172.273V97.7411C172.708 96.7633 172.762 95.9484 172.762 94.4817V85.8442C172.762 84.0515 172.599 83.3453 172.273 82.6391V82.5848H178.139V82.6391C177.813 83.3453 177.65 84.0515 177.65 85.8442ZM165.865 89.1579H166.3C168.472 89.1579 169.178 88.995 169.504 88.9406H169.612V92.0914H169.504C169.069 91.9285 168.146 91.7655 166.354 91.7655H165.865V93.6125V94.373C165.865 95.8941 165.919 96.9262 166.408 97.6868V97.7411H160.489V97.6868C160.923 96.7089 160.978 95.8941 160.978 94.4273V85.8442C160.978 84.0515 160.815 83.3453 160.489 82.6391V82.5848H170.59L170.97 85.6812H170.916C170.21 85.3553 169.287 85.1923 167.82 85.1923H165.865V87.6912V89.1579ZM190.955 94.5903L190.575 97.7411H183.569H180.148V97.6868C180.582 96.7089 180.637 95.8941 180.637 94.4273V85.8442C180.637 84.0515 180.474 83.3453 180.148 82.6391V82.5848H190.249L190.629 85.6812H190.575C189.869 85.3553 188.946 85.1923 187.479 85.1923H185.524V88.669H185.904C188.077 88.669 188.783 88.5061 189.109 88.4517H189.217V91.6025H189.109C188.674 91.4395 187.751 91.2766 185.959 91.2766H185.47V94.8619C186.176 94.9706 186.665 95.0249 187.479 95.0249C189.326 95.0249 189.978 94.9163 190.738 94.5903H190.955ZM217.837 90.6247C217.837 95.8398 214.036 99.914 207.627 99.914C202.685 99.914 201.11 97.7411 194.974 97.7411H192.421V97.6868C192.856 96.7089 192.91 95.8941 192.91 94.4273V85.7899C192.91 83.9972 192.747 83.291 192.421 82.5848V82.5304H198.287V82.5848C197.961 83.291 197.798 84.4318 197.798 85.8442V95.0792C201.436 95.0792 203.066 96.1657 206.27 96.1657C210.723 96.1657 212.895 93.7211 212.895 90.2444C212.895 87.2566 211.375 85.0293 208.714 85.0293C208.225 85.0293 207.519 85.0293 206.976 85.0293V94.4273C205.346 94.4817 203.446 94.2644 202.088 93.7755V85.7899C202.088 83.9972 201.925 83.291 201.599 82.5848V82.5304H208.496C214.199 82.5304 217.837 86.0615 217.837 90.6247Z" fill="#0F0E0E" fill-opacity="0.4"/>
</g>
<defs>
<clipPath id="clip0_1391_4147">
<rect width="166.56" height="22.3271" fill="white" transform="translate(51.4399 78.8364)"/>
</clipPath>
</defs>
</svg>
