<svg width="270" height="180" viewBox="0 0 270 180" fill="none" xmlns="http://www.w3.org/2000/svg">
<g clip-path="url(#clip0_2776_7911)">
<path d="M207.6 97.9H202C202.4 97.2 202.8 96.7 203.1 96.1C204.1 94.2 204.6 92.2 204.6 90C204.6 87.9 204.1 86 203.1 84.2C202.4 82.9 201.5 81.8 200.4 80.8C198 78.6 195.1 77.3 191.8 77.2C191 77.2 190.2 77.2 189.5 77.2C188.8 77.2 188.1 77.3 187.4 77.5C184.7 78.2 182.3 79.6 180.4 81.7C178.3 84 177.2 86.7 177.1 89.7C177.1 90.5 177.1 91.4 177.3 92.2C177.5 93.6 177.9 94.8 178.6 96C179.8 98.3 181.5 100.1 183.7 101.3C185.6 102.4 187.7 103.1 190 103.1C195.7 103.1 201.5 103.1 207.2 103.1C207.4 103.1 207.6 103.2 207.7 103C207.8 101.2 207.8 98.6 207.6 97.9ZM193.9 96.8C191.3 98.1 188.7 97.7 186.5 95.9C184.2 94.1 183.5 91.5 183.9 88.8C184.4 86.1 186 84.1 188.7 83.2C191.2 82.4 193.4 82.9 195.4 84.6C196.6 85.6 197.4 87 197.8 88.5C197.9 89 197.9 89.6 197.9 90.2C197.9 93.2 196.6 95.4 193.9 96.8Z" fill="#9F9E9E"/>
<path d="M84.4 90.5C83.1 89.6 81.6 89 80 88.7C77.6 88.1 75.1 87.7 72.6 87.2C71.6 87 70.7 86.7 69.8 86.1C68.9 85.5 68.9 84.1 69.6 83.4C70 83.1 70.3 82.8 70.8 82.7C72.7 82 74.6 82 76.5 82.4C77.7 82.7 78.8 83.3 79.2 84.6L79.3 84.7C81.4 84.7 83.6 84.7 85.7 84.7H85.8C85.8 84.7 85.8 84.7 85.9 84.6C86 82.4 85 80.8 83.3 79.5C81.3 78 78.9 77.5 76.5 77.3C75.3 77.2 74.1 77.3 73 77.3C70.6 77.3 68.3 77.9 66.2 79.2C64.7 80.1 63.4 81.3 62.9 83.1C62.6 84 62.5 84.9 62.7 85.8C62.9 86.7 63 87.5 63.5 88.3C64.4 89.7 65.8 90.6 67.4 91.2C69.4 92 71.6 92.3 73.7 92.7C75 92.9 76.3 93.2 77.6 93.5C78.5 93.7 79.4 94 80 94.7C80.4 95.2 80.6 95.7 80.3 96.3C79.9 97.2 79.2 97.6 78.4 97.9C77.3 98.3 76.2 98.3 75 98.4C74.3 98.5 73.6 98.3 72.9 98.2C71.2 98 69.7 97.5 69 95.8C66.8 95.8 64.7 95.8 62.7 95.8C62.6 95.9 62.6 96 62.7 96.1C62.7 96.2 62.8 96.3 62.8 96.4C62.9 98.1 63.8 99.3 64.9 100.4C67.2 102.4 69.9 103.2 72.9 103.3C74 103.4 75.1 103.3 76.2 103.3C77.9 103.3 79.4 103 81 102.5C82.9 101.9 84.6 101 85.8 99.3C87 97.6 87.3 95.7 86.9 93.7C86.5 92.3 85.6 91.3 84.4 90.5Z" fill="#9F9E9E"/>
<path d="M103.2 97.9C101.8 98.2 100.2 97.4 99.7 96.2C99.4 95.5 99.2 94.8 99.2 94.1C99.2 90.6 99.2 87.1 99.2 83.6C99.2 83.4 99.1 83.2 99.4 83C102 83 104.7 83 107.4 83C107.5 81.6 107.5 78.2 107.4 77.5C101.3 77.5 95.3 77.5 89.2 77.5C89.2 79.4 89.2 81.2 89.2 83C89.9 83 90.5 83 91.1 83C91.7 83 92.2999 82.9 92.7999 83.1C92.7999 83.5 92.7999 83.9 92.7999 84.3C92.8999 87.8 92.7 91.3 92.9 94.8C93 95.9 93.1999 97 93.5999 98.1C94.6999 101.1 97 102.7 100 103.1C102 103.4 104.1 103.3 106.1 102.4C107.4 101.8 108.7 101.1 109.8 100C108.9 98.7 108 97.4 107.1 96.1C105.9 97.1 104.6 97.6 103.2 97.9Z" fill="#9F9E9E"/>
<path d="M160 96.2C159.9 96.3 159.8 96.3 159.7 96.4C158.7 97.1 157.7 97.6 156.5 97.8C154.6 98.1 153.2 97.4 152.6 95.5C152.4 94.8 152.3 94.2 152.3 93.5C152.3 90.3 152.3 87.1 152.3 83.9C152.3 83.6 152.3 83.4 152.3 83C155.1 83 157.8 83 160.6 83C160.7 81.1 160.7 78.2 160.5 77.4C154.4 77.4 148.3 77.4 142.2 77.4C142.1 79.3 142.1 82.3 142.3 83C142.9 83 143.5 83 144.1 83C144.7 83 145.3 82.9 145.9 83.1C145.9 86.6 145.9 90.1 145.9 93.5C145.9 94.7 146 95.8 146.3 96.9C146.7 98.2 147.2 99.5 148.1 100.5C149.8 102.3 151.8 103.3 154.3 103.2C155.3 103.2 156.4 103.3 157.4 103C159.5 102.5 161.2 101.5 162.8 100.1C162.2 98.8 160.6 96.6 160 96.2Z" fill="#9F9E9E"/>
<path d="M138.2 77.5H131.7V80.8C128.7 78 125.8 77.1 123.5 77.2C121.3 77 119.3 77.5 117.5 78.5C115.1 79.8 113.3 81.8 112.2 84.3C111.2 86.5 110.8 88.8 111 91.2C111.1 92.7 111.4 94.2 112 95.6C113.4 99.1 115.8 101.5 119.4 102.7C120.4 103 121.4 103.3 122.5 103.2C123.5 103.2 124.5 103.3 125.4 103.1C127.1 102.8 128.7 102.1 130.1 101C130.7 100.6 131.1 100 131.9 99.6V102.8H138.1C138.2 102.8 138.2 102.8 138.3 102.8C138.5 102.7 138.5 102.6 138.4 102.4C138.4 102.2 138.4 102.1 138.4 101.9C138.5 97.6 138.4 93.3 138.5 89C138.6 85.4 138.5 81.7 138.5 78.1C138.4 77.9 138.5 77.6 138.2 77.5ZM131 93C130.7 93.9 130.2 94.6 129.6 95.3C129.5 95.5 129.3 95.6 129.2 95.8C129.1 95.9 128.9 96.1 128.7 96.2C128.3 96.5 127.9 96.8 127.4 97C127.4 97 127.3 97 127.2 97.1C126.6 97.4 126 97.5 125.4 97.6C125.2 97.6 125 97.6 124.7 97.7H124.6H124.5C120.7 97.7 117.6 94.4 117.6 90.3C117.6 90.1 117.6 89.9 117.6 89.7C117.6 89.5 117.6 89.3 117.7 89.1C117.7 89 117.7 89 117.7 88.9C118.3 85.6 120.5 83.3 123.6 82.7C123.7 82.7 123.8 82.7 123.9 82.7C124.1 82.7 124.3 82.7 124.5 82.7C125.1 82.7 125.7 82.9 126.3 82.9C126.5 82.9 126.7 83 126.8 83.1C126.9 83.2 127.1 83.3 127.3 83.4C128.2 83.9 129 84.5 129.6 85.2C131.1 87.1 131.6 89.2 131.4 91.5C131.4 91.7 131.3 92 131.3 92.2C131.3 92.3 131.2 92.4 131.2 92.5C131.1 92.7 131.1 92.8 131 93Z" fill="#9F9E9E"/>
<path d="M166.4 77.4C166.3 78.6 166.3 102 166.4 102.7C167.8 102.8 172.2 102.8 172.9 102.6C173.1 99.1 173 78.2 172.8 77.3C170.6 77.4 168.5 77.4 166.4 77.4Z" fill="#9F9E9E"/>
</g>
<defs>
<clipPath id="clip0_2776_7911">
<rect width="148.5" height="26.4" fill="white" transform="translate(61 77)"/>
</clipPath>
</defs>
</svg>
