<svg width="270" height="180" viewBox="0 0 270 180" fill="none" xmlns="http://www.w3.org/2000/svg">
<path d="M89.2004 106.248C89.1791 106.233 89.1557 106.213 89.1311 106.191C88.7331 105.695 86.2717 102.591 83.7637 98.6109C83.0114 97.3425 82.523 96.3533 82.6167 96.0975C82.8621 95.4324 87.2344 95.0683 88.581 95.6713C88.9904 95.8543 88.9801 96.0966 88.9801 96.2378C88.9801 96.8466 88.9502 98.4805 88.9502 98.4805C88.9505 98.8181 89.2232 99.0919 89.559 99.0913C89.8954 99.0913 90.167 98.8164 90.1659 98.4779L90.1589 94.4069H90.1578C90.1578 94.0535 89.7745 93.9653 89.7025 93.9515C88.9997 93.9481 87.5725 93.9433 86.04 93.9433C82.6586 93.9433 81.903 94.083 81.3285 93.705C80.0839 92.8858 78.0487 87.3648 78.0013 84.2585C77.9337 79.8763 80.5135 76.0824 84.1461 74.2026C85.6637 73.4335 87.3779 73 89.1883 73C94.9379 73 99.6728 77.3679 100.303 82.9876C100.303 82.9924 100.303 82.9977 100.305 83.0025C100.42 84.3611 92.9806 84.6498 91.5091 84.2546C91.2835 84.1938 91.2257 83.9614 91.2257 83.8613C91.2241 82.8282 91.2171 79.921 91.2171 79.921C91.216 79.5831 90.9433 79.309 90.6075 79.3098C90.2722 79.3104 89.9995 79.585 89.9995 79.9235L90.0115 85.2789C90.0218 85.6163 90.3032 85.7073 90.3802 85.7225C91.2171 85.7228 93.1741 85.7208 94.9968 85.7208C97.4604 85.7208 98.4952 86.0081 99.1838 86.5358C99.6416 86.8872 99.8188 87.5599 99.6639 88.4341C98.2825 96.2113 89.5292 105.847 89.2004 106.248ZM112.94 88.0971C115.149 89.0498 116.517 90.1068 116.517 92.4268C116.517 94.7968 114.733 96.3278 111.974 96.3278C109.737 96.3278 107.942 95.3082 107.048 93.5299L106.903 93.2431L109.533 91.7097L109.705 91.993C110.297 92.9671 110.959 93.3823 111.919 93.3823C112.747 93.3823 113.303 93.0132 113.303 92.4633C113.303 91.8542 112.9 91.6259 111.656 91.0777L111.024 90.8048C109.337 90.0809 107.773 89.0751 107.773 86.639C107.773 84.4497 109.441 82.9207 111.828 82.9207C113.637 82.9207 114.877 83.6255 115.73 85.1379L115.888 85.4187L113.34 87.0666L113.165 86.7503C112.739 85.9834 112.338 85.8297 111.828 85.8297C111.295 85.8297 110.952 86.1254 110.952 86.5842C110.952 87.1113 111.205 87.3426 112.307 87.8233L112.94 88.0971ZM131.552 88.5457L133.408 83.3361H136.594L131.873 96.5427H131.165L128.301 90.3577C128.168 90.0744 128.03 89.7224 127.912 89.4C127.791 89.723 127.65 90.0758 127.517 90.3591L124.541 96.5427H123.838L119.04 83.3361H122.444L124.32 88.5457C124.44 88.878 124.563 89.283 124.67 89.6589C124.798 89.271 124.951 88.8521 125.111 88.5145L127.576 83.2274H128.258L130.761 88.5151C130.921 88.8524 131.075 89.2715 131.202 89.6595C131.31 89.283 131.433 88.878 131.552 88.5457ZM140.31 96.1635V83.0663H143.525V96.1635H140.31ZM154.069 91.7631V88.8362H160.039V94.706L159.916 94.8084C159.233 95.3728 157.422 96.3278 154.969 96.3278C150.83 96.3278 147.941 93.5675 147.941 89.6154C147.941 85.7364 150.729 82.9207 154.57 82.9207C156.683 82.9207 158.231 83.5201 159.303 84.7533L159.512 84.9942L157.32 87.1782L157.082 86.9314C156.47 86.296 155.836 85.9025 154.57 85.9025C152.603 85.9025 151.228 87.4292 151.228 89.6154C151.228 91.8927 152.696 93.3646 154.969 93.3646C155.723 93.3646 156.508 93.2339 157.042 93.025V91.7631H154.069ZM170.364 91.7631V88.8362H176.335V94.706L176.212 94.8084C175.528 95.3728 173.717 96.3278 171.265 96.3278C167.126 96.3278 164.236 93.5675 164.236 89.6154C164.236 85.7364 167.025 82.9207 170.865 82.9207C172.979 82.9207 174.527 83.5201 175.598 84.7533L175.808 84.9942L173.617 87.1782L173.378 86.9314C172.766 86.296 172.131 85.9025 170.865 85.9025C168.898 85.9025 167.524 87.4292 167.524 89.6154C167.524 91.8927 168.992 93.3646 171.265 93.3646C172.019 93.3646 172.803 93.2339 173.337 93.025V91.7631H170.364ZM188.117 83.0664H191.478L186.865 91.7816V96.1636H183.632V91.9677L178.718 83.0664H182.304L184.575 87.2423C184.82 87.6965 185.075 88.297 185.268 88.7844C185.452 88.3009 185.695 87.7058 185.938 87.2462L188.117 83.0664Z" fill="#0F0E0E" fill-opacity="0.4"/>
</svg>
