<svg width="270" height="180" viewBox="0 0 270 180" fill="none" xmlns="http://www.w3.org/2000/svg">
<g clip-path="url(#clip0_1162_2985)">
<path d="M179.03 101.467C178.972 101.467 178.916 101.444 178.874 101.403C178.833 101.361 178.81 101.305 178.81 101.247V72.1933C178.81 72.1606 178.802 72.1285 178.786 72.0999C178.77 72.0713 178.747 72.0471 178.72 72.0297C178.692 72.0123 178.661 72.0022 178.628 72.0003C178.595 71.9984 178.563 72.0049 178.533 72.0191C178.533 72.0191 176.524 73.4096 174.356 75.2165C173.177 76.1829 172.053 77.2148 170.99 78.3078C170.99 78.3078 170.702 78.5708 170.702 78.7676V100.773C170.702 103.209 171.326 105.094 172.556 106.375C173.785 107.656 176.23 108.302 178.876 108.302H182.048C182.083 108.303 182.118 108.296 182.15 108.282C182.183 108.269 182.212 108.25 182.237 108.225C182.262 108.2 182.282 108.171 182.295 108.138C182.308 108.106 182.315 108.071 182.315 108.036V101.734C182.315 101.664 182.287 101.596 182.237 101.546C182.187 101.496 182.119 101.468 182.048 101.468L179.03 101.467Z" fill="#0F0E0E" fill-opacity="0.4"/>
<path d="M168.835 79.8313C168.801 79.7849 168.756 79.7473 168.705 79.7211C168.653 79.695 168.596 79.6808 168.538 79.6803C166.06 79.6692 163.581 79.6599 161.102 79.6518C161.025 79.6512 160.949 79.6761 160.887 79.7228C160.825 79.7694 160.78 79.8349 160.759 79.9096C159.704 83.6696 158.619 87.4326 157.505 91.1982C156.687 94.3981 155.855 97.5993 155.008 100.802C154.201 97.6052 153.381 94.4069 152.547 91.2075C151.381 87.4328 150.204 83.6566 149.017 79.8782C148.994 79.8039 148.947 79.7389 148.885 79.6926C148.822 79.6463 148.747 79.621 148.669 79.6204C147.443 84.1833 146.193 88.7477 144.917 93.314C146.536 98.249 148.133 103.182 149.708 108.112C149.731 108.185 149.776 108.248 149.838 108.294C149.899 108.339 149.974 108.363 150.05 108.363C153.167 108.357 156.284 108.349 159.402 108.34C159.478 108.339 159.553 108.314 159.615 108.269C159.678 108.225 159.725 108.161 159.75 108.089C162.942 98.7577 166.048 89.444 168.895 80.1589C168.912 80.1034 168.915 80.0449 168.904 79.988C168.894 79.931 168.87 79.8773 168.835 79.8313Z" fill="#0F0E0E" fill-opacity="0.1"/>
<path d="M148.666 79.62H148.142H148.139C145.729 79.6158 143.319 79.6129 140.909 79.6118H140.86C140.778 79.6117 140.699 79.6396 140.636 79.6901C140.572 79.7407 140.527 79.8111 140.508 79.8905C139.614 83.6636 138.711 87.4377 137.801 91.2125C137.236 93.7264 136.671 96.2404 136.105 98.7549C135.428 96.2376 134.752 93.7203 134.076 91.2031C132.991 87.4275 131.915 83.6528 130.846 79.8786C130.825 79.803 130.779 79.7364 130.717 79.6889C130.654 79.6415 130.578 79.6155 130.499 79.6155C128.108 79.6174 125.717 79.621 123.326 79.6257C123.247 79.626 123.169 79.6521 123.106 79.6999C123.043 79.7478 122.996 79.8146 122.974 79.8909C121.875 83.6631 120.786 87.4338 119.706 91.2027C119.04 93.7138 118.382 96.2242 117.733 98.7337C117.158 96.2295 116.592 93.7258 116.034 91.2231C115.136 87.4567 114.264 83.6924 113.418 79.9296C113.401 79.8507 113.357 79.7801 113.294 79.7297C113.23 79.6794 113.152 79.6524 113.071 79.653C110.537 79.6611 108.004 79.6706 105.473 79.682C105.416 79.6823 105.36 79.6956 105.31 79.7207C105.259 79.7459 105.215 79.7824 105.18 79.8272C105.145 79.8714 105.121 79.9229 105.11 79.9778C105.098 80.0327 105.099 80.0894 105.113 80.1438C107.517 89.4306 110.172 98.7423 112.929 108.07C112.952 108.146 112.999 108.213 113.062 108.261C113.126 108.309 113.204 108.335 113.283 108.336C115.975 108.345 118.667 108.353 121.359 108.359C121.438 108.359 121.514 108.334 121.576 108.286C121.639 108.239 121.684 108.172 121.705 108.097C122.797 104.152 123.912 100.205 125.05 96.256C125.599 94.1721 126.153 92.1495 126.709 90.0648C127.272 92.147 127.837 94.168 128.407 96.2519C129.549 100.204 130.696 104.157 131.849 108.111C131.871 108.187 131.917 108.253 131.98 108.301C132.043 108.348 132.12 108.374 132.198 108.375C134.944 108.377 137.689 108.377 140.434 108.375C140.514 108.374 140.591 108.348 140.654 108.299C140.718 108.251 140.763 108.183 140.785 108.107C142.157 103.161 143.528 98.2156 144.901 93.2707L144.915 93.3148C146.184 88.7485 147.434 84.1842 148.666 79.6212V79.62Z" fill="#0F0E0E" fill-opacity="0.4"/>
<path d="M149.728 82.2707L145.628 95.6086L144.876 93.3181L148.675 79.6531C148.753 79.6626 148.826 79.6945 148.886 79.7453C148.946 79.7961 148.99 79.8633 149.012 79.9387L149.728 82.2707Z" fill="#0F0E0E" fill-opacity="0.2"/>
<path d="M104.705 98.9049C104.58 95.9897 103.494 92.7529 96.5629 90.5278C96.1935 90.4058 95.8287 90.2901 95.4735 90.1769C93.0045 89.3919 90.6096 88.7616 90.5561 87.2839C90.506 85.9211 92.0116 85.1457 94.0391 85.0746C95.7812 85.0103 97.6289 85.6404 99.8231 87.0546C99.9187 87.1162 100.035 87.138 100.146 87.1158C100.258 87.0936 100.356 87.029 100.421 86.9355C101.532 85.3529 102.653 83.757 103.783 82.1478C103.818 82.0992 103.843 82.0444 103.857 81.9862C103.87 81.928 103.873 81.8673 103.863 81.8083C103.854 81.7516 103.833 81.6974 103.802 81.6492C103.771 81.601 103.73 81.5599 103.682 81.5284C100.719 79.4903 97.1833 78.4513 93.5891 78.5624C86.8687 78.7713 82.0913 82.3412 82.3336 87.8216C82.4923 91.6259 85.623 94.154 90.8013 95.9111C91.1276 96.0244 91.4539 96.1358 91.7752 96.2453C94.3357 97.1155 96.6109 97.9386 96.6685 99.4957C96.7233 100.973 95.4673 101.871 93.1729 101.948C93.0793 101.951 92.9858 101.953 92.8906 101.953C90.7578 101.953 88.5746 101.167 86.0625 99.4647C86.0145 99.4324 85.9606 99.41 85.9038 99.3986C85.8471 99.3872 85.7888 99.3869 85.7321 99.3982C85.6754 99.4095 85.6214 99.4321 85.5734 99.4643C85.5253 99.4965 85.4842 99.5381 85.4522 99.5863C84.3395 101.247 83.216 102.922 82.0818 104.613C82.0149 104.706 81.9873 104.821 82.0047 104.935C82.0222 105.048 82.0835 105.149 82.1753 105.218C85.2882 107.315 88.9492 108.451 92.7029 108.483C92.8571 108.483 93.0102 108.48 93.1627 108.475C100.481 108.255 104.957 104.656 104.705 98.9049Z" fill="#0F0E0E" fill-opacity="0.4"/>
<path d="M187.071 103.501L186.838 102.972H186.53V103.501H186.274V102.104H186.863C186.924 102.097 186.986 102.102 187.044 102.121C187.103 102.139 187.157 102.17 187.203 102.211C187.248 102.252 187.285 102.302 187.31 102.359C187.335 102.415 187.347 102.476 187.346 102.537C187.35 102.621 187.327 102.704 187.281 102.774C187.236 102.845 187.169 102.899 187.091 102.929L187.346 103.5L187.071 103.501ZM186.862 102.327H186.528V102.745H186.867C187.011 102.745 187.093 102.67 187.093 102.536C187.093 102.507 187.086 102.478 187.074 102.452C187.062 102.425 187.045 102.401 187.023 102.382C187.002 102.362 186.976 102.347 186.948 102.338C186.921 102.328 186.892 102.325 186.863 102.327L186.862 102.327Z" fill="#0F0E0E" fill-opacity="0.4"/>
<path d="M186.765 104.236C186.481 104.236 186.204 104.152 185.968 103.994C185.733 103.837 185.549 103.613 185.44 103.351C185.332 103.089 185.303 102.801 185.359 102.523C185.414 102.245 185.551 101.989 185.751 101.789C185.952 101.588 186.207 101.452 186.485 101.397C186.763 101.342 187.051 101.37 187.313 101.478C187.575 101.587 187.799 101.771 187.957 102.006C188.114 102.242 188.198 102.52 188.198 102.803C188.197 103.183 188.046 103.547 187.778 103.816C187.509 104.084 187.145 104.236 186.765 104.236ZM186.765 101.631C186.533 101.631 186.307 101.7 186.115 101.828C185.923 101.956 185.773 102.139 185.684 102.353C185.596 102.566 185.572 102.801 185.617 103.028C185.662 103.255 185.773 103.464 185.936 103.627C186.1 103.791 186.308 103.903 186.535 103.948C186.762 103.993 186.997 103.97 187.211 103.882C187.424 103.794 187.607 103.645 187.736 103.453C187.865 103.261 187.934 103.035 187.934 102.804C187.934 102.493 187.811 102.195 187.592 101.976C187.372 101.756 187.075 101.632 186.765 101.631Z" fill="#0F0E0E" fill-opacity="0.4"/>
</g>
<defs>
<clipPath id="clip0_1162_2985">
<rect width="106.198" height="36.4857" fill="white" transform="translate(82 72)"/>
</clipPath>
</defs>
</svg>
