<svg width="270" height="180" viewBox="0 0 270 180" fill="none" xmlns="http://www.w3.org/2000/svg">
<path d="M72.773 98.3915H70.1411L69.1152 102.183H81.8728L82.8542 98.3915H79.7763L82.8542 85.7677H84.9507L84.7723 87.8643H89.1884L90.9727 81.2178H69.7397L68 87.8643H72.5945L73.5313 85.7231H75.8063L72.773 98.3915ZM106.05 81.2178H115.908L102.749 102.183H94.4967L93.3369 85.0094H91.6418L92.6232 81.2178H103.552L102.571 85.0094H100.697L100.652 95.7597L106.942 85.0094H104.846L106.05 81.2178ZM131.342 87.4182C131.342 85.3216 132.011 83.4481 132.859 81.53C129.156 80.8609 125.142 80.5933 121.484 81.53C119.432 82.0653 117.291 83.3589 116.131 85.1878C114.793 87.2398 115.105 89.8716 116.756 91.6113C117.603 92.4588 118.629 93.0387 119.7 93.5294C120.547 93.9308 122.019 94.5553 122.242 95.5367C122.867 98.0347 118.852 98.2577 117.291 97.767V95.8043H113.098L111.492 101.648C115.239 102.585 119.164 102.897 122.956 102.049C125.231 101.514 127.283 100.354 128.8 98.5254C130.049 96.9641 130.762 94.0647 129.424 92.3696C128.666 91.4328 127.818 90.7191 126.792 90.1392C125.811 89.5593 124.74 89.2025 123.848 88.5334C122.778 87.7304 122.778 86.4814 123.937 85.7677C124.83 85.1878 126.302 85.4555 127.283 85.6339L127.461 87.3736H131.342V87.4182Z" fill="#0F0E0E" fill-opacity="0.4"/>
<path d="M188.885 81.1755C187.146 80.5064 185.495 80.551 183.711 80.997C181.971 81.4431 180.722 82.4245 179.34 83.495C177.957 84.5656 176.485 85.6362 174.879 86.3499C173.228 87.0636 171.355 87.8219 169.571 87.1082C170.864 87.1528 172.069 86.8852 173.184 86.1715C174.031 85.6362 175.503 84.521 175.816 83.495H174.344C175.414 82.3353 176.752 81.4431 178.224 80.9078L177.511 80.0603C179.473 78.7221 181.614 78.0976 183.979 78.0084C185.094 77.9638 186.209 78.0976 187.235 78.4098C188.35 78.7221 189.198 79.2574 190.001 80.0603L188.885 81.1755ZM160.649 85.8592C160.025 85.8592 159.489 85.9038 158.865 86.0823C158.285 86.2607 157.75 86.4837 157.17 86.7068C156.099 87.1528 155.073 87.7327 154.047 88.268C153.601 88.4911 153.066 88.7587 152.575 88.8479C152.04 88.9371 151.326 88.9371 150.836 88.7141C150.3 88.4464 149.854 88.1788 149.408 87.7773C148.962 87.3759 148.516 86.9744 148.07 86.6622C147.579 86.3499 147.089 86.1269 146.598 85.8146C146.821 85.8146 147.981 85.77 147.668 85.2793C147.401 84.8779 146.776 84.6994 146.286 84.6102C145.17 84.3872 144.055 84.3872 142.94 84.3872C143.877 83.5843 144.903 83.1828 146.152 83.1828C147.312 83.1828 148.248 83.7181 149.23 84.298C149.72 84.6102 150.3 85.1455 150.791 85.4578C151.282 85.77 151.817 85.9484 152.352 86.1269C153.378 86.4837 154.672 86.3053 155.698 85.9484C156.545 85.6362 157.304 85.2793 158.24 85.2793C159.088 85.1455 159.891 85.3686 160.649 85.8592Z" fill="#0F0E0E" fill-opacity="0.4"/>
<path d="M151.906 94.8254C153.735 94.7362 155.252 92.9519 156.278 91.6137C157.393 90.1862 158.151 88.0451 159.891 87.2422C162.478 86.0824 165.199 87.0637 167.563 88.3127C169.794 89.4279 172.916 89.2495 175.146 88.2681C177.6 87.1975 179.473 85.3687 181.57 83.8074C183.533 82.3354 186.075 81.3094 189.109 82.1123L190.447 80.5065L190.714 83.1383L195.443 87.9113L194.506 89.0264H191.473V88.2681C190.581 87.6436 189.644 87.1975 188.529 87.3314C187.369 87.4652 186.12 88.0005 186.298 89.3833C186.432 90.3201 187.77 91.1676 188.439 91.6583C189.376 92.2828 190.358 92.8627 191.339 93.4872C193.346 94.7362 195.264 96.119 197.138 97.591C198.878 98.9738 200.662 100.401 202 102.141L197.896 101.338C198.654 100.803 197.762 100.223 197.272 99.8214C196.647 99.3307 196.023 98.9292 195.309 98.5278C193.926 97.7695 192.454 97.368 190.937 97.0111C188.038 96.2974 184.291 95.8513 181.748 97.6802C181.659 97.7248 181.57 97.8141 181.481 97.8587L180.053 96.6543C175.459 98.2155 170.329 97.8141 166.091 95.4945C164.352 96.6989 162.344 96.9665 160.337 97.1896C158.419 97.4126 156.411 97.2788 154.449 97.1003C149.765 100.981 143.386 103.256 137.409 101.204L141.423 100.178V101.07C145.75 101.07 149.364 98.0371 151.906 94.8254Z" fill="#0F0E0E" fill-opacity="0.4"/>
</svg>
