<svg width="270" height="180" viewBox="0 0 270 180" fill="none" xmlns="http://www.w3.org/2000/svg">
<g clip-path="url(#clip0_1162_3019)">
<path d="M87.4016 80.813L84.423 85.0711H90.9317L81.7754 99.0162H96.3373L97.2198 94.5452H90.9317L97.6611 84.8581L98.5436 80.813H87.4016Z" fill="#0F0E0E" fill-opacity="0.4"/>
<path d="M101.191 80.813L100.309 84.8581H102.956L99.9778 99.0162H105.714L109.465 80.813H101.191Z" fill="#0F0E0E" fill-opacity="0.4"/>
<path d="M159.549 95.5032C161.425 93.0548 162.307 90.0742 162.197 87.0936C162.197 84.7516 161.535 83.0484 160.321 81.8774C158.887 80.6 156.902 80.0677 154.144 80.0677C150.172 80.0677 146.973 81.4516 144.987 84.1129C143.112 86.5613 142.229 89.4355 142.34 92.5226C142.34 94.8645 143.002 96.5677 144.215 97.7387C145.649 99.0161 147.635 99.5484 150.393 99.5484C154.364 99.4419 157.563 98.1645 159.549 95.5032ZM148.186 92.0968C148.186 90.3936 148.628 88.6903 149.29 87.2C150.282 85.4968 151.606 84.5387 153.261 84.5387C155.357 84.5387 156.24 85.4968 156.24 87.7323C156.24 90.7129 154.806 95.3968 151.165 95.3968C149.179 95.2903 148.186 94.2258 148.186 92.0968Z" fill="#0F0E0E" fill-opacity="0.4"/>
<path d="M175.876 80.2806C172.236 80.1742 168.816 81.6645 166.72 84.4322C164.844 86.9871 163.962 89.9677 164.072 93.0548C164.072 97.2064 166.168 99.5483 169.919 99.5483C172.456 99.5483 174.773 98.1645 176.207 96.1419L176.538 95.6096V98.9096H180.73L184.15 81.558C181.502 80.8129 178.744 80.2806 175.876 80.2806ZM177.09 88.4774C176.428 91.5645 174.001 94.9709 171.905 94.9709C170.25 94.9709 170.14 93.2677 170.14 91.9903C170.14 90.2871 170.471 88.6903 171.243 87.2C172.015 85.6032 173.559 84.6451 175.325 84.6451C176.097 84.6451 176.869 84.858 177.641 85.1774H177.752L177.09 88.4774Z" fill="#0F0E0E" fill-opacity="0.4"/>
<path d="M141.678 74L135.831 74.9581C135.831 75.9161 135.721 76.7677 135.61 77.6194L132.19 94.3323C131.859 96.1419 131.97 97.5258 132.742 98.271C133.404 99.0161 134.397 99.3355 136.052 99.3355C137.265 99.3355 138.368 99.229 139.471 98.8032L140.244 94.8645H139.361C138.809 94.8645 138.479 94.7581 138.368 94.5452C138.148 94.3323 138.037 93.8 138.258 92.9484C138.258 92.8419 141.457 76.9806 141.457 76.6613C141.567 75.7032 141.678 74.5323 141.678 74V74Z" fill="#0F0E0E" fill-opacity="0.4"/>
<path d="M204.007 91.2452L204.779 87.9452C204.89 87.0935 205 86.3484 205 85.4968C205 82.0903 203.125 80.1742 199.594 80.1742C196.947 80.1742 194.52 81.5581 193.086 83.5806L192.865 84.0065L192.644 80.8129H188.232L188.121 83.9L185.032 99.0161H190.769L192.424 91.1387C192.755 89.5419 193.417 88.0516 194.52 86.6677C195.513 85.2839 196.726 84.5387 197.719 84.5387C199.263 84.5387 199.484 85.8161 199.484 86.6677C199.484 87.3065 199.374 87.9452 199.263 88.6903L198.271 93.9065V94.0129C198.05 95.6097 197.719 96.8871 197.498 98.8032V98.9097H203.235C203.345 96.4613 203.676 94.1194 204.338 91.7774C203.897 91.5645 204.007 91.3516 204.007 91.2452Z" fill="#0F0E0E" fill-opacity="0.4"/>
<path d="M81.3341 89.7549L75.046 99.0162H67.4341L73.6119 89.7549H81.3341Z" fill="#0F0E0E" fill-opacity="0.2"/>
<path d="M79.9 80.4935H72.3984L66 89.7548H73.5016L79.9 80.4935Z" fill="#0F0E0E" fill-opacity="0.2"/>
<path d="M130.425 86.6677C130.425 82.5161 128.329 80.1742 124.579 80.1742C122.262 80.1742 120.056 81.2387 118.732 83.1548L118.511 83.4742L118.29 80.8129H113.436L113.326 83.7935L109.024 105.19L108.693 106.681L108.472 107L114.429 106.042C114.65 104.977 115.863 99.5484 115.863 99.4419V99.229H116.084C116.967 99.4419 117.739 99.4419 118.621 99.4419C122.262 99.5484 125.682 98.0581 127.778 95.2903C129.653 92.629 130.536 89.6484 130.425 86.6677ZM119.063 95.0774C118.29 95.0774 117.518 94.8645 116.746 94.5452H116.636L117.298 91.2452C117.629 89.6484 118.29 88.1581 119.394 86.7742C120.386 85.3903 121.6 84.6452 122.593 84.6452C124.248 84.6452 124.358 86.3484 124.358 87.6258C124.358 91.2452 122.703 95.0774 119.063 95.0774Z" fill="#0F0E0E" fill-opacity="0.4"/>
</g>
<defs>
<clipPath id="clip0_1162_3019">
<rect width="139" height="33" fill="white" transform="translate(66 74)"/>
</clipPath>
</defs>
</svg>
