<svg width="41" height="40" viewBox="0 0 41 40" fill="none" xmlns="http://www.w3.org/2000/svg">
<g clip-path="url(#clip0_6443_15732)">
<path d="M28.917 23.4512L29.6447 24.6001H28.2986V26.2885H27.9312V35.5025H13.2399V26.2885H12.8726V24.6001H11.5265L12.2542 23.4512H7.82397V40.0793H33.3472V23.4512H28.917ZM29.4914 28.579C29.4914 27.8931 29.9521 27.3377 30.5212 27.3377C31.0903 27.3377 31.551 27.8931 31.551 28.579V30.8462H29.4914V28.579ZM29.2764 31.1148H31.7659V31.6182H29.2764V31.1148ZM31.1458 37.7718V38.1753H10.0254V37.7718H31.1458ZM10.1214 34.7178V33.4435H11.1786V34.7178H10.1214ZM11.7459 37.0168V36.6133H29.4253V37.0168H11.7459ZM29.9926 34.7178V33.4435H31.0497V34.7178H29.9926ZM12.648 35.5153H28.5232V35.9188H12.648V35.5153ZM9.62019 28.579C9.62019 27.8931 10.0809 27.3377 10.65 27.3377C11.2191 27.3377 11.6798 27.8931 11.6798 28.579V30.8462H9.62019V28.579ZM9.40525 31.1148H11.8948V31.6182H9.40525V31.1148ZM32.9111 39.3349H8.26092V38.9314H32.9111V39.3349Z" fill="url(#paint0_linear_6443_15732)"/>
<path d="M12.2612 22.532V23.2381H6.60209L7.56583 22.532H12.2612ZM12.3493 22.4258H7.54116L6.2876 23.3443H12.322L12.3493 23.3008V22.4258Z" fill="url(#paint1_linear_6443_15732)"/>
<path d="M33.6044 22.532L34.5681 23.2381H28.909V22.532H33.6044ZM33.6291 22.4258H28.8209V23.3008L28.8482 23.3443H34.8826L33.6291 22.4258Z" fill="url(#paint2_linear_6443_15732)"/>
<path d="M14.8951 26.2891H13.6425V26.7287H14.8951V26.2891Z" fill="url(#paint3_linear_6443_15732)"/>
<path d="M14.6362 26.834H13.9023V33.8414H14.6362V26.834Z" fill="url(#paint4_linear_6443_15732)"/>
<path d="M14.7894 33.9492H13.749V35.5038H14.7894V33.9492Z" fill="url(#paint5_linear_6443_15732)"/>
<path d="M17.4216 26.2891H16.1698V26.7287H17.4216V26.2891Z" fill="url(#paint6_linear_6443_15732)"/>
<path d="M17.1626 26.834H16.4288V33.8414H17.1626V26.834Z" fill="url(#paint7_linear_6443_15732)"/>
<path d="M17.316 33.9492H16.2756V35.5038H17.316V33.9492Z" fill="url(#paint8_linear_6443_15732)"/>
<path d="M19.9481 26.2891H18.6963V26.7287H19.9481V26.2891Z" fill="url(#paint9_linear_6443_15732)"/>
<path d="M19.6891 26.834H18.9553V33.8414H19.6891V26.834Z" fill="url(#paint10_linear_6443_15732)"/>
<path d="M19.8425 33.9492H18.8021V35.5038H19.8425V33.9492Z" fill="url(#paint11_linear_6443_15732)"/>
<path d="M22.4747 26.2891H21.2229V26.7287H22.4747V26.2891Z" fill="url(#paint12_linear_6443_15732)"/>
<path d="M22.2158 26.834H21.4819V33.8414H22.2158V26.834Z" fill="url(#paint13_linear_6443_15732)"/>
<path d="M22.369 33.9492H21.3286V35.5038H22.369V33.9492Z" fill="url(#paint14_linear_6443_15732)"/>
<path d="M25.0012 26.2891H23.7494V26.7287H25.0012V26.2891Z" fill="url(#paint15_linear_6443_15732)"/>
<path d="M24.7413 26.834H24.0074V33.8414H24.7413V26.834Z" fill="url(#paint16_linear_6443_15732)"/>
<path d="M24.8946 33.9492H23.8542V35.5038H24.8946V33.9492Z" fill="url(#paint17_linear_6443_15732)"/>
<path d="M27.5277 26.2891H26.275V26.7287H27.5277V26.2891Z" fill="url(#paint18_linear_6443_15732)"/>
<path d="M27.2687 26.834H26.5358V33.8414H27.2687V26.834Z" fill="url(#paint19_linear_6443_15732)"/>
<path d="M27.422 33.9492H26.3816V35.5038H27.422V33.9492Z" fill="url(#paint20_linear_6443_15732)"/>
<path d="M28.2104 24.6016H12.9606V26.1838H28.2104V24.6016Z" fill="url(#paint21_linear_6443_15732)"/>
<path d="M28.7337 22.4258H12.4374V23.2381H28.7337V22.4258Z" fill="url(#paint22_linear_6443_15732)"/>
<path d="M26.1305 21.3874V22.2136H15.0405V21.3874H26.1305ZM26.2186 21.2812H14.9524V22.3198H26.2186V21.2812Z" fill="url(#paint23_linear_6443_15732)"/>
<path d="M27.0087 16.4688H14.1621V17.2567H27.0087V16.4688Z" fill="url(#paint24_linear_6443_15732)"/>
<path d="M27.0087 17.9531H14.1621V18.2197H27.0087V17.9531Z" fill="url(#paint25_linear_6443_15732)"/>
<path d="M14.9103 17.2539H14.5482V17.9548H14.9103V17.2539Z" fill="url(#paint26_linear_6443_15732)"/>
<path d="M15.7472 17.2539H15.3851V17.9548H15.7472V17.2539Z" fill="url(#paint27_linear_6443_15732)"/>
<path d="M16.5833 17.2539H16.2212V17.9548H16.5833V17.2539Z" fill="url(#paint28_linear_6443_15732)"/>
<path d="M17.42 17.2539H17.058V17.9548H17.42V17.2539Z" fill="url(#paint29_linear_6443_15732)"/>
<path d="M18.257 17.2539H17.8949V17.9548H18.257V17.2539Z" fill="url(#paint30_linear_6443_15732)"/>
<path d="M19.0929 17.2539H18.7308V17.9548H19.0929V17.2539Z" fill="url(#paint31_linear_6443_15732)"/>
<path d="M19.9298 17.2539H19.5677V17.9548H19.9298V17.2539Z" fill="url(#paint32_linear_6443_15732)"/>
<path d="M20.7667 17.2539H20.4047V17.9548H20.7667V17.2539Z" fill="url(#paint33_linear_6443_15732)"/>
<path d="M21.6027 17.2539H21.2406V17.9548H21.6027V17.2539Z" fill="url(#paint34_linear_6443_15732)"/>
<path d="M22.4396 17.2539H22.0775V17.9548H22.4396V17.2539Z" fill="url(#paint35_linear_6443_15732)"/>
<path d="M23.2765 17.2539H22.9144V17.9548H23.2765V17.2539Z" fill="url(#paint36_linear_6443_15732)"/>
<path d="M24.1126 17.2539H23.7505V17.9548H24.1126V17.2539Z" fill="url(#paint37_linear_6443_15732)"/>
<path d="M24.9493 17.2539H24.5873V17.9548H24.9493V17.2539Z" fill="url(#paint38_linear_6443_15732)"/>
<path d="M25.7863 17.2539H25.4242V17.9548H25.7863V17.2539Z" fill="url(#paint39_linear_6443_15732)"/>
<path d="M26.6222 17.2539H26.2601V17.9548H26.6222V17.2539Z" fill="url(#paint40_linear_6443_15732)"/>
<path d="M25.1087 14.7722V16.2557H16.0606V14.7722H25.1087ZM25.1968 14.666H15.9725V16.3619H25.1968V14.666Z" fill="url(#paint41_linear_6443_15732)"/>
<path d="M25.7835 14.5605H15.3867L15.0616 13.832H26.1085L25.7835 14.5605Z" fill="url(#paint42_linear_6443_15732)"/>
<path d="M22.2915 8.02806C24.337 8.82767 25.7104 10.978 25.7104 13.3853C25.7104 13.4671 25.7087 13.5456 25.706 13.621H15.4643C15.4617 13.5456 15.4599 13.4671 15.4599 13.3853C15.4599 10.9791 16.8333 8.82873 18.8788 8.02806H22.2915ZM22.3056 7.92188H18.8656C16.8315 8.71086 15.3727 10.8591 15.3727 13.3853C15.3727 13.5 15.3753 13.6147 15.3815 13.7272H25.7897C25.7959 13.6147 25.7985 13.5 25.7985 13.3853C25.7985 10.8591 24.3397 8.7098 22.3056 7.92188Z" fill="url(#paint43_linear_6443_15732)"/>
<path d="M22.0008 6.06445H19.1694V7.81444H22.0008V6.06445Z" fill="url(#paint44_linear_6443_15732)"/>
<path d="M20.5861 4.9265C21.0389 4.9265 21.4247 5.32471 21.504 5.85141H19.6681C19.7466 5.32471 20.1333 4.9265 20.587 4.9265M20.587 4.82031C20.0487 4.82031 19.6082 5.32046 19.5686 5.9576H21.6044C21.5648 5.32046 21.1243 4.82031 20.587 4.82031Z" fill="url(#paint45_linear_6443_15732)"/>
<path d="M14.9524 18.3281V21.0009H26.2186V18.3281H14.9524ZM15.9417 20.6409H15.6386V19.1798H15.9417V20.6409ZM16.8138 20.6409H16.5108V19.1798H16.8138V20.6409ZM17.6859 20.6409H17.3829V19.1798H17.6859V20.6409ZM18.558 20.6409H18.255V19.1798H18.558V20.6409ZM19.4302 20.6409H19.1271V19.1798H19.4302V20.6409ZM20.3023 20.6409H19.9993V19.1798H20.3023V20.6409ZM21.1744 20.6409H20.8714V19.1798H21.1744V20.6409ZM22.0465 20.6409H21.7435V19.1798H22.0465V20.6409ZM22.9187 20.6409H22.6156V19.1798H22.9187V20.6409ZM23.7908 20.6409H23.4877V19.1798H23.7908V20.6409ZM24.6629 20.6409H24.3599V19.1798H24.6629V20.6409ZM25.535 20.6409H25.232V19.1798H25.535V20.6409Z" fill="url(#paint46_linear_6443_15732)"/>
<path d="M33.0142 20.3992C33.1243 20.8292 33.1798 21.2805 33.1798 21.7424C33.1798 21.9017 33.1736 22.06 33.1604 22.2139H27.7118C27.6986 22.06 27.6925 21.9017 27.6925 21.7424C27.6925 21.2805 27.748 20.8292 27.8581 20.3992H33.0151M33.0794 20.293H27.7938C27.6713 20.7432 27.6044 21.2317 27.6044 21.7424C27.6044 21.9389 27.6141 22.1322 27.6334 22.3201H33.2397C33.2591 22.1322 33.2688 21.9389 33.2688 21.7424C33.2688 21.2317 33.2018 20.7432 33.0794 20.293Z" fill="url(#paint47_linear_6443_15732)"/>
<path d="M32.979 19.3008H27.8925L27.363 20.1864H33.5084L32.979 19.3008Z" fill="url(#paint48_linear_6443_15732)"/>
<path d="M31.4214 15.8581C32.3429 16.3328 32.9366 17.4138 32.9366 18.618C32.9366 18.7741 32.926 18.9312 32.9058 19.0884H27.9655C27.9452 18.9312 27.9347 18.7741 27.9347 18.618C27.9347 17.4138 28.5293 16.3328 29.4499 15.8581H31.4205M31.4381 15.752H29.4314C28.5002 16.2224 27.8457 17.3278 27.8457 18.618C27.8457 18.8155 27.8616 19.0077 27.8906 19.1946H32.9789C33.008 19.0077 33.0238 18.8155 33.0238 18.618C33.0238 17.3278 32.3693 16.2224 31.4381 15.752Z" fill="url(#paint49_linear_6443_15732)"/>
<path d="M31.1819 15.2266H29.6896V15.646H31.1819V15.2266Z" fill="url(#paint50_linear_6443_15732)"/>
<path d="M30.7696 15.121H30.1018L30.4366 13.6035L30.7696 15.121Z" fill="url(#paint51_linear_6443_15732)"/>
<path d="M13.313 20.3992C13.4231 20.8292 13.4786 21.2805 13.4786 21.7424C13.4786 21.9017 13.4724 22.06 13.4592 22.2139H8.01067C7.99746 22.06 7.99129 21.9017 7.99129 21.7424C7.99129 21.2805 8.04679 20.8292 8.15691 20.3992H13.3139M13.3782 20.293H8.0926C7.97015 20.7432 7.9032 21.2317 7.9032 21.7424C7.9032 21.9389 7.91289 22.1322 7.93227 22.3201H13.5385C13.5579 22.1322 13.5676 21.9389 13.5676 21.7424C13.5676 21.2317 13.5006 20.7432 13.3782 20.293Z" fill="url(#paint52_linear_6443_15732)"/>
<path d="M13.2778 19.3008H8.1913L7.66187 20.1864H13.8072L13.2778 19.3008Z" fill="url(#paint53_linear_6443_15732)"/>
<path d="M11.7202 15.8581C12.6417 16.3328 13.2354 17.4138 13.2354 18.618C13.2354 18.7741 13.2249 18.9312 13.2046 19.0884H8.26434C8.24408 18.9312 8.23351 18.7741 8.23351 18.618C8.23351 17.4138 8.82813 16.3328 9.74871 15.8581H11.7194M11.737 15.752H9.73021C8.79906 16.2224 8.14453 17.3278 8.14453 18.618C8.14453 18.8155 8.16039 19.0077 8.18946 19.1946H13.2777C13.3068 19.0077 13.3226 18.8155 13.3226 18.618C13.3226 17.3278 12.6681 16.2224 11.737 15.752Z" fill="url(#paint54_linear_6443_15732)"/>
<path d="M11.4807 15.2266H9.9884V15.646H11.4807V15.2266Z" fill="url(#paint55_linear_6443_15732)"/>
<path d="M11.0693 15.121H10.4006L10.7354 13.6035L11.0693 15.121Z" fill="url(#paint56_linear_6443_15732)"/>
<path d="M16.295 6.29493H11.9467C11.9238 6.29493 11.9044 6.27263 11.9027 6.24502V6.23122C11.9009 6.2121 11.9 6.19193 11.9 6.17281C11.9 5.56754 12.3088 5.07482 12.81 5.07482C12.8532 5.07482 12.8964 5.07907 12.9413 5.0865C13.1483 4.52689 13.6055 4.16797 14.1156 4.16797C14.6256 4.16797 15.0837 4.52795 15.2907 5.08756C15.3374 5.07907 15.3841 5.07482 15.4308 5.07482C15.9329 5.07482 16.3408 5.56754 16.3408 6.17281C16.3408 6.19299 16.3399 6.2121 16.339 6.23122V6.24502C16.3364 6.27263 16.3179 6.29493 16.2941 6.29493H16.295ZM11.9881 6.18874H16.2536C16.2536 6.18343 16.2536 6.17812 16.2536 6.17281C16.2536 5.62594 15.8845 5.18101 15.4317 5.18101C15.3797 5.18101 15.326 5.18738 15.2731 5.20012C15.252 5.20543 15.2317 5.19163 15.2238 5.16827C15.0379 4.62564 14.6027 4.27416 14.1156 4.27416C13.6284 4.27416 13.195 4.62458 13.0082 5.16614C13.0003 5.1895 12.98 5.20225 12.9598 5.198C12.9078 5.18632 12.8585 5.18101 12.81 5.18101C12.3563 5.18101 11.9881 5.62594 11.9881 6.17281C11.9881 6.17812 11.9881 6.18343 11.9881 6.18874Z" fill="url(#paint57_linear_6443_15732)"/>
<path d="M33.6789 10.1168H26.5901C26.5777 10.1168 26.5663 10.1104 26.5575 10.0998C26.5495 10.0892 26.5451 10.0743 26.546 10.0594C26.5857 9.44673 27.0155 8.96675 27.5256 8.96675C27.7018 8.96675 27.8736 9.02303 28.0251 9.13135C28.24 8.63438 28.6699 8.31688 29.136 8.31688C29.1844 8.31688 29.2364 8.32112 29.2936 8.33068C29.5905 7.70311 30.1437 7.31445 30.7437 7.31445C31.3436 7.31445 31.9118 7.71266 32.206 8.35723C32.3011 8.33068 32.3954 8.31688 32.4879 8.31688C33.1785 8.31688 33.7406 8.99436 33.7406 9.82688C33.7406 9.90334 33.7344 9.98298 33.723 10.0722C33.7194 10.0977 33.7009 10.1168 33.6798 10.1168H33.6789ZM26.6385 10.0106H33.641C33.6481 9.94581 33.6525 9.88529 33.6525 9.82794C33.6525 9.05383 33.1301 8.42413 32.4879 8.42413C32.3919 8.42413 32.2932 8.44006 32.1945 8.47085C32.1752 8.47722 32.154 8.46554 32.1443 8.4443C31.8704 7.81354 31.3339 7.4217 30.7437 7.4217C30.1534 7.4217 29.6337 7.80186 29.3553 8.41457C29.3465 8.43369 29.3289 8.44537 29.3104 8.44112C29.2452 8.42944 29.1897 8.42413 29.136 8.42413C28.6884 8.42413 28.2744 8.74057 28.0832 9.23116C28.078 9.24497 28.0674 9.25559 28.055 9.25983C28.0427 9.26408 28.0295 9.26196 28.0189 9.25346C27.8718 9.13665 27.7018 9.07507 27.5256 9.07507C27.0772 9.07507 26.6967 9.48283 26.6385 10.0127V10.0106Z" fill="url(#paint58_linear_6443_15732)"/>
<path d="M6.8706 9.69017H5.79234C5.76767 9.69017 5.74829 9.66681 5.74829 9.63708C5.74829 9.60735 5.76767 9.58398 5.79234 9.58398H6.8706C6.89526 9.58398 6.91464 9.60735 6.91464 9.63708C6.91464 9.66681 6.89526 9.69017 6.8706 9.69017Z" fill="url(#paint59_linear_6443_15732)"/>
<path d="M12.8926 11.1062H9.11521C9.09055 11.1062 9.07117 11.0828 9.07117 11.0531C9.07117 11.0234 9.09055 11 9.11521 11H12.8926C12.9173 11 12.9367 11.0234 12.9367 11.0531C12.9367 11.0828 12.9173 11.1062 12.8926 11.1062Z" fill="url(#paint60_linear_6443_15732)"/>
<path d="M10.0456 9.69017H7.48472C7.46005 9.69017 7.44067 9.66681 7.44067 9.63708C7.44067 9.60735 7.46005 9.58398 7.48472 9.58398H10.0456C10.0703 9.58398 10.0896 9.60735 10.0896 9.63708C10.0896 9.66681 10.0703 9.69017 10.0456 9.69017Z" fill="url(#paint61_linear_6443_15732)"/>
</g>
<defs>
<linearGradient id="paint0_linear_6443_15732" x1="7.82397" y1="31.7652" x2="33.3472" y2="31.7652" gradientUnits="userSpaceOnUse">
<stop stop-color="#EF8081"/>
<stop offset="0.619792" stop-color="#F63132"/>
<stop offset="1" stop-color="#9F1689"/>
</linearGradient>
<linearGradient id="paint1_linear_6443_15732" x1="6.2876" y1="22.885" x2="12.3493" y2="22.885" gradientUnits="userSpaceOnUse">
<stop stop-color="#EF8081"/>
<stop offset="0.619792" stop-color="#F63132"/>
<stop offset="1" stop-color="#9F1689"/>
</linearGradient>
<linearGradient id="paint2_linear_6443_15732" x1="28.8209" y1="22.885" x2="34.8826" y2="22.885" gradientUnits="userSpaceOnUse">
<stop stop-color="#EF8081"/>
<stop offset="0.619792" stop-color="#F63132"/>
<stop offset="1" stop-color="#9F1689"/>
</linearGradient>
<linearGradient id="paint3_linear_6443_15732" x1="13.6425" y1="26.5089" x2="14.8951" y2="26.5089" gradientUnits="userSpaceOnUse">
<stop stop-color="#EF8081"/>
<stop offset="0.619792" stop-color="#F63132"/>
<stop offset="1" stop-color="#9F1689"/>
</linearGradient>
<linearGradient id="paint4_linear_6443_15732" x1="13.9023" y1="30.3377" x2="14.6362" y2="30.3377" gradientUnits="userSpaceOnUse">
<stop stop-color="#EF8081"/>
<stop offset="0.619792" stop-color="#F63132"/>
<stop offset="1" stop-color="#9F1689"/>
</linearGradient>
<linearGradient id="paint5_linear_6443_15732" x1="13.749" y1="34.7265" x2="14.7894" y2="34.7265" gradientUnits="userSpaceOnUse">
<stop stop-color="#EF8081"/>
<stop offset="0.619792" stop-color="#F63132"/>
<stop offset="1" stop-color="#9F1689"/>
</linearGradient>
<linearGradient id="paint6_linear_6443_15732" x1="16.1698" y1="26.5089" x2="17.4216" y2="26.5089" gradientUnits="userSpaceOnUse">
<stop stop-color="#EF8081"/>
<stop offset="0.619792" stop-color="#F63132"/>
<stop offset="1" stop-color="#9F1689"/>
</linearGradient>
<linearGradient id="paint7_linear_6443_15732" x1="16.4288" y1="30.3377" x2="17.1626" y2="30.3377" gradientUnits="userSpaceOnUse">
<stop stop-color="#EF8081"/>
<stop offset="0.619792" stop-color="#F63132"/>
<stop offset="1" stop-color="#9F1689"/>
</linearGradient>
<linearGradient id="paint8_linear_6443_15732" x1="16.2756" y1="34.7265" x2="17.316" y2="34.7265" gradientUnits="userSpaceOnUse">
<stop stop-color="#EF8081"/>
<stop offset="0.619792" stop-color="#F63132"/>
<stop offset="1" stop-color="#9F1689"/>
</linearGradient>
<linearGradient id="paint9_linear_6443_15732" x1="18.6963" y1="26.5089" x2="19.9481" y2="26.5089" gradientUnits="userSpaceOnUse">
<stop stop-color="#EF8081"/>
<stop offset="0.619792" stop-color="#F63132"/>
<stop offset="1" stop-color="#9F1689"/>
</linearGradient>
<linearGradient id="paint10_linear_6443_15732" x1="18.9553" y1="30.3377" x2="19.6891" y2="30.3377" gradientUnits="userSpaceOnUse">
<stop stop-color="#EF8081"/>
<stop offset="0.619792" stop-color="#F63132"/>
<stop offset="1" stop-color="#9F1689"/>
</linearGradient>
<linearGradient id="paint11_linear_6443_15732" x1="18.8021" y1="34.7265" x2="19.8425" y2="34.7265" gradientUnits="userSpaceOnUse">
<stop stop-color="#EF8081"/>
<stop offset="0.619792" stop-color="#F63132"/>
<stop offset="1" stop-color="#9F1689"/>
</linearGradient>
<linearGradient id="paint12_linear_6443_15732" x1="21.2229" y1="26.5089" x2="22.4747" y2="26.5089" gradientUnits="userSpaceOnUse">
<stop stop-color="#EF8081"/>
<stop offset="0.619792" stop-color="#F63132"/>
<stop offset="1" stop-color="#9F1689"/>
</linearGradient>
<linearGradient id="paint13_linear_6443_15732" x1="21.4819" y1="30.3377" x2="22.2158" y2="30.3377" gradientUnits="userSpaceOnUse">
<stop stop-color="#EF8081"/>
<stop offset="0.619792" stop-color="#F63132"/>
<stop offset="1" stop-color="#9F1689"/>
</linearGradient>
<linearGradient id="paint14_linear_6443_15732" x1="21.3286" y1="34.7265" x2="22.369" y2="34.7265" gradientUnits="userSpaceOnUse">
<stop stop-color="#EF8081"/>
<stop offset="0.619792" stop-color="#F63132"/>
<stop offset="1" stop-color="#9F1689"/>
</linearGradient>
<linearGradient id="paint15_linear_6443_15732" x1="23.7494" y1="26.5089" x2="25.0012" y2="26.5089" gradientUnits="userSpaceOnUse">
<stop stop-color="#EF8081"/>
<stop offset="0.619792" stop-color="#F63132"/>
<stop offset="1" stop-color="#9F1689"/>
</linearGradient>
<linearGradient id="paint16_linear_6443_15732" x1="24.0074" y1="30.3377" x2="24.7413" y2="30.3377" gradientUnits="userSpaceOnUse">
<stop stop-color="#EF8081"/>
<stop offset="0.619792" stop-color="#F63132"/>
<stop offset="1" stop-color="#9F1689"/>
</linearGradient>
<linearGradient id="paint17_linear_6443_15732" x1="23.8542" y1="34.7265" x2="24.8946" y2="34.7265" gradientUnits="userSpaceOnUse">
<stop stop-color="#EF8081"/>
<stop offset="0.619792" stop-color="#F63132"/>
<stop offset="1" stop-color="#9F1689"/>
</linearGradient>
<linearGradient id="paint18_linear_6443_15732" x1="26.275" y1="26.5089" x2="27.5277" y2="26.5089" gradientUnits="userSpaceOnUse">
<stop stop-color="#EF8081"/>
<stop offset="0.619792" stop-color="#F63132"/>
<stop offset="1" stop-color="#9F1689"/>
</linearGradient>
<linearGradient id="paint19_linear_6443_15732" x1="26.5358" y1="30.3377" x2="27.2687" y2="30.3377" gradientUnits="userSpaceOnUse">
<stop stop-color="#EF8081"/>
<stop offset="0.619792" stop-color="#F63132"/>
<stop offset="1" stop-color="#9F1689"/>
</linearGradient>
<linearGradient id="paint20_linear_6443_15732" x1="26.3816" y1="34.7265" x2="27.422" y2="34.7265" gradientUnits="userSpaceOnUse">
<stop stop-color="#EF8081"/>
<stop offset="0.619792" stop-color="#F63132"/>
<stop offset="1" stop-color="#9F1689"/>
</linearGradient>
<linearGradient id="paint21_linear_6443_15732" x1="12.9606" y1="25.3927" x2="28.2104" y2="25.3927" gradientUnits="userSpaceOnUse">
<stop stop-color="#EF8081"/>
<stop offset="0.619792" stop-color="#F63132"/>
<stop offset="1" stop-color="#9F1689"/>
</linearGradient>
<linearGradient id="paint22_linear_6443_15732" x1="12.4374" y1="22.832" x2="28.7337" y2="22.832" gradientUnits="userSpaceOnUse">
<stop stop-color="#EF8081"/>
<stop offset="0.619792" stop-color="#F63132"/>
<stop offset="1" stop-color="#9F1689"/>
</linearGradient>
<linearGradient id="paint23_linear_6443_15732" x1="14.9524" y1="21.8005" x2="26.2186" y2="21.8005" gradientUnits="userSpaceOnUse">
<stop stop-color="#EF8081"/>
<stop offset="0.619792" stop-color="#F63132"/>
<stop offset="1" stop-color="#9F1689"/>
</linearGradient>
<linearGradient id="paint24_linear_6443_15732" x1="14.1621" y1="16.8627" x2="27.0087" y2="16.8627" gradientUnits="userSpaceOnUse">
<stop stop-color="#EF8081"/>
<stop offset="0.619792" stop-color="#F63132"/>
<stop offset="1" stop-color="#9F1689"/>
</linearGradient>
<linearGradient id="paint25_linear_6443_15732" x1="14.1621" y1="18.0864" x2="27.0087" y2="18.0864" gradientUnits="userSpaceOnUse">
<stop stop-color="#EF8081"/>
<stop offset="0.619792" stop-color="#F63132"/>
<stop offset="1" stop-color="#9F1689"/>
</linearGradient>
<linearGradient id="paint26_linear_6443_15732" x1="14.5482" y1="17.6043" x2="14.9103" y2="17.6043" gradientUnits="userSpaceOnUse">
<stop stop-color="#EF8081"/>
<stop offset="0.619792" stop-color="#F63132"/>
<stop offset="1" stop-color="#9F1689"/>
</linearGradient>
<linearGradient id="paint27_linear_6443_15732" x1="15.3851" y1="17.6043" x2="15.7472" y2="17.6043" gradientUnits="userSpaceOnUse">
<stop stop-color="#EF8081"/>
<stop offset="0.619792" stop-color="#F63132"/>
<stop offset="1" stop-color="#9F1689"/>
</linearGradient>
<linearGradient id="paint28_linear_6443_15732" x1="16.2212" y1="17.6043" x2="16.5833" y2="17.6043" gradientUnits="userSpaceOnUse">
<stop stop-color="#EF8081"/>
<stop offset="0.619792" stop-color="#F63132"/>
<stop offset="1" stop-color="#9F1689"/>
</linearGradient>
<linearGradient id="paint29_linear_6443_15732" x1="17.058" y1="17.6043" x2="17.42" y2="17.6043" gradientUnits="userSpaceOnUse">
<stop stop-color="#EF8081"/>
<stop offset="0.619792" stop-color="#F63132"/>
<stop offset="1" stop-color="#9F1689"/>
</linearGradient>
<linearGradient id="paint30_linear_6443_15732" x1="17.8949" y1="17.6043" x2="18.257" y2="17.6043" gradientUnits="userSpaceOnUse">
<stop stop-color="#EF8081"/>
<stop offset="0.619792" stop-color="#F63132"/>
<stop offset="1" stop-color="#9F1689"/>
</linearGradient>
<linearGradient id="paint31_linear_6443_15732" x1="18.7308" y1="17.6043" x2="19.0929" y2="17.6043" gradientUnits="userSpaceOnUse">
<stop stop-color="#EF8081"/>
<stop offset="0.619792" stop-color="#F63132"/>
<stop offset="1" stop-color="#9F1689"/>
</linearGradient>
<linearGradient id="paint32_linear_6443_15732" x1="19.5677" y1="17.6043" x2="19.9298" y2="17.6043" gradientUnits="userSpaceOnUse">
<stop stop-color="#EF8081"/>
<stop offset="0.619792" stop-color="#F63132"/>
<stop offset="1" stop-color="#9F1689"/>
</linearGradient>
<linearGradient id="paint33_linear_6443_15732" x1="20.4047" y1="17.6043" x2="20.7667" y2="17.6043" gradientUnits="userSpaceOnUse">
<stop stop-color="#EF8081"/>
<stop offset="0.619792" stop-color="#F63132"/>
<stop offset="1" stop-color="#9F1689"/>
</linearGradient>
<linearGradient id="paint34_linear_6443_15732" x1="21.2406" y1="17.6043" x2="21.6027" y2="17.6043" gradientUnits="userSpaceOnUse">
<stop stop-color="#EF8081"/>
<stop offset="0.619792" stop-color="#F63132"/>
<stop offset="1" stop-color="#9F1689"/>
</linearGradient>
<linearGradient id="paint35_linear_6443_15732" x1="22.0775" y1="17.6043" x2="22.4396" y2="17.6043" gradientUnits="userSpaceOnUse">
<stop stop-color="#EF8081"/>
<stop offset="0.619792" stop-color="#F63132"/>
<stop offset="1" stop-color="#9F1689"/>
</linearGradient>
<linearGradient id="paint36_linear_6443_15732" x1="22.9144" y1="17.6043" x2="23.2765" y2="17.6043" gradientUnits="userSpaceOnUse">
<stop stop-color="#EF8081"/>
<stop offset="0.619792" stop-color="#F63132"/>
<stop offset="1" stop-color="#9F1689"/>
</linearGradient>
<linearGradient id="paint37_linear_6443_15732" x1="23.7505" y1="17.6043" x2="24.1126" y2="17.6043" gradientUnits="userSpaceOnUse">
<stop stop-color="#EF8081"/>
<stop offset="0.619792" stop-color="#F63132"/>
<stop offset="1" stop-color="#9F1689"/>
</linearGradient>
<linearGradient id="paint38_linear_6443_15732" x1="24.5873" y1="17.6043" x2="24.9493" y2="17.6043" gradientUnits="userSpaceOnUse">
<stop stop-color="#EF8081"/>
<stop offset="0.619792" stop-color="#F63132"/>
<stop offset="1" stop-color="#9F1689"/>
</linearGradient>
<linearGradient id="paint39_linear_6443_15732" x1="25.4242" y1="17.6043" x2="25.7863" y2="17.6043" gradientUnits="userSpaceOnUse">
<stop stop-color="#EF8081"/>
<stop offset="0.619792" stop-color="#F63132"/>
<stop offset="1" stop-color="#9F1689"/>
</linearGradient>
<linearGradient id="paint40_linear_6443_15732" x1="26.2601" y1="17.6043" x2="26.6222" y2="17.6043" gradientUnits="userSpaceOnUse">
<stop stop-color="#EF8081"/>
<stop offset="0.619792" stop-color="#F63132"/>
<stop offset="1" stop-color="#9F1689"/>
</linearGradient>
<linearGradient id="paint41_linear_6443_15732" x1="15.9725" y1="15.5139" x2="25.1968" y2="15.5139" gradientUnits="userSpaceOnUse">
<stop stop-color="#EF8081"/>
<stop offset="0.619792" stop-color="#F63132"/>
<stop offset="1" stop-color="#9F1689"/>
</linearGradient>
<linearGradient id="paint42_linear_6443_15732" x1="15.0616" y1="14.1963" x2="26.1085" y2="14.1963" gradientUnits="userSpaceOnUse">
<stop stop-color="#EF8081"/>
<stop offset="0.619792" stop-color="#F63132"/>
<stop offset="1" stop-color="#9F1689"/>
</linearGradient>
<linearGradient id="paint43_linear_6443_15732" x1="15.3727" y1="10.8245" x2="25.7985" y2="10.8245" gradientUnits="userSpaceOnUse">
<stop stop-color="#EF8081"/>
<stop offset="0.619792" stop-color="#F63132"/>
<stop offset="1" stop-color="#9F1689"/>
</linearGradient>
<linearGradient id="paint44_linear_6443_15732" x1="19.1694" y1="6.93945" x2="22.0008" y2="6.93945" gradientUnits="userSpaceOnUse">
<stop stop-color="#EF8081"/>
<stop offset="0.619792" stop-color="#F63132"/>
<stop offset="1" stop-color="#9F1689"/>
</linearGradient>
<linearGradient id="paint45_linear_6443_15732" x1="19.5686" y1="5.38895" x2="21.6044" y2="5.38895" gradientUnits="userSpaceOnUse">
<stop stop-color="#EF8081"/>
<stop offset="0.619792" stop-color="#F63132"/>
<stop offset="1" stop-color="#9F1689"/>
</linearGradient>
<linearGradient id="paint46_linear_6443_15732" x1="14.9524" y1="19.6645" x2="26.2186" y2="19.6645" gradientUnits="userSpaceOnUse">
<stop stop-color="#EF8081"/>
<stop offset="0.619792" stop-color="#F63132"/>
<stop offset="1" stop-color="#9F1689"/>
</linearGradient>
<linearGradient id="paint47_linear_6443_15732" x1="27.6044" y1="21.3065" x2="33.2688" y2="21.3065" gradientUnits="userSpaceOnUse">
<stop stop-color="#EF8081"/>
<stop offset="0.619792" stop-color="#F63132"/>
<stop offset="1" stop-color="#9F1689"/>
</linearGradient>
<linearGradient id="paint48_linear_6443_15732" x1="27.363" y1="19.7436" x2="33.5084" y2="19.7436" gradientUnits="userSpaceOnUse">
<stop stop-color="#EF8081"/>
<stop offset="0.619792" stop-color="#F63132"/>
<stop offset="1" stop-color="#9F1689"/>
</linearGradient>
<linearGradient id="paint49_linear_6443_15732" x1="27.8457" y1="17.4733" x2="33.0238" y2="17.4733" gradientUnits="userSpaceOnUse">
<stop stop-color="#EF8081"/>
<stop offset="0.619792" stop-color="#F63132"/>
<stop offset="1" stop-color="#9F1689"/>
</linearGradient>
<linearGradient id="paint50_linear_6443_15732" x1="29.6896" y1="15.4363" x2="31.1819" y2="15.4363" gradientUnits="userSpaceOnUse">
<stop stop-color="#EF8081"/>
<stop offset="0.619792" stop-color="#F63132"/>
<stop offset="1" stop-color="#9F1689"/>
</linearGradient>
<linearGradient id="paint51_linear_6443_15732" x1="30.1018" y1="14.3622" x2="30.7696" y2="14.3622" gradientUnits="userSpaceOnUse">
<stop stop-color="#EF8081"/>
<stop offset="0.619792" stop-color="#F63132"/>
<stop offset="1" stop-color="#9F1689"/>
</linearGradient>
<linearGradient id="paint52_linear_6443_15732" x1="7.9032" y1="21.3065" x2="13.5676" y2="21.3065" gradientUnits="userSpaceOnUse">
<stop stop-color="#EF8081"/>
<stop offset="0.619792" stop-color="#F63132"/>
<stop offset="1" stop-color="#9F1689"/>
</linearGradient>
<linearGradient id="paint53_linear_6443_15732" x1="7.66187" y1="19.7436" x2="13.8072" y2="19.7436" gradientUnits="userSpaceOnUse">
<stop stop-color="#EF8081"/>
<stop offset="0.619792" stop-color="#F63132"/>
<stop offset="1" stop-color="#9F1689"/>
</linearGradient>
<linearGradient id="paint54_linear_6443_15732" x1="8.14453" y1="17.4733" x2="13.3226" y2="17.4733" gradientUnits="userSpaceOnUse">
<stop stop-color="#EF8081"/>
<stop offset="0.619792" stop-color="#F63132"/>
<stop offset="1" stop-color="#9F1689"/>
</linearGradient>
<linearGradient id="paint55_linear_6443_15732" x1="9.9884" y1="15.4363" x2="11.4807" y2="15.4363" gradientUnits="userSpaceOnUse">
<stop stop-color="#EF8081"/>
<stop offset="0.619792" stop-color="#F63132"/>
<stop offset="1" stop-color="#9F1689"/>
</linearGradient>
<linearGradient id="paint56_linear_6443_15732" x1="10.4006" y1="14.3622" x2="11.0693" y2="14.3622" gradientUnits="userSpaceOnUse">
<stop stop-color="#EF8081"/>
<stop offset="0.619792" stop-color="#F63132"/>
<stop offset="1" stop-color="#9F1689"/>
</linearGradient>
<linearGradient id="paint57_linear_6443_15732" x1="11.9" y1="5.23145" x2="16.3408" y2="5.23145" gradientUnits="userSpaceOnUse">
<stop stop-color="#EF8081"/>
<stop offset="0.619792" stop-color="#F63132"/>
<stop offset="1" stop-color="#9F1689"/>
</linearGradient>
<linearGradient id="paint58_linear_6443_15732" x1="26.5459" y1="8.71562" x2="33.7406" y2="8.71562" gradientUnits="userSpaceOnUse">
<stop stop-color="#EF8081"/>
<stop offset="0.619792" stop-color="#F63132"/>
<stop offset="1" stop-color="#9F1689"/>
</linearGradient>
<linearGradient id="paint59_linear_6443_15732" x1="5.74829" y1="9.63708" x2="6.91464" y2="9.63708" gradientUnits="userSpaceOnUse">
<stop stop-color="#EF8081"/>
<stop offset="0.619792" stop-color="#F63132"/>
<stop offset="1" stop-color="#9F1689"/>
</linearGradient>
<linearGradient id="paint60_linear_6443_15732" x1="9.07117" y1="11.0531" x2="12.9367" y2="11.0531" gradientUnits="userSpaceOnUse">
<stop stop-color="#EF8081"/>
<stop offset="0.619792" stop-color="#F63132"/>
<stop offset="1" stop-color="#9F1689"/>
</linearGradient>
<linearGradient id="paint61_linear_6443_15732" x1="7.44067" y1="9.63708" x2="10.0896" y2="9.63708" gradientUnits="userSpaceOnUse">
<stop stop-color="#EF8081"/>
<stop offset="0.619792" stop-color="#F63132"/>
<stop offset="1" stop-color="#9F1689"/>
</linearGradient>
<clipPath id="clip0_6443_15732">
<rect width="40" height="40" fill="white" transform="translate(0.625)"/>
</clipPath>
</defs>
</svg>
