<svg width="40" height="39" viewBox="0 0 40 39" fill="none" xmlns="http://www.w3.org/2000/svg">
<g clip-path="url(#clip0_6443_15494)">
<path d="M37.1346 25.8407C37.1358 25.8145 37.1382 25.7894 37.1382 25.7631C37.1382 25.115 36.62 24.5885 35.9793 24.5885C35.9028 24.5885 35.8286 24.5969 35.7568 24.6112C35.5071 24 34.9147 23.5703 34.2211 23.5703C33.5275 23.5703 32.9363 24 32.6866 24.61C32.6183 24.5969 32.5477 24.5897 32.4758 24.5897C31.8364 24.5897 31.317 25.115 31.317 25.7643C31.317 25.7906 31.3194 25.8168 31.3205 25.8419H37.1334L37.1346 25.8407Z" stroke="url(#paint0_linear_6443_15494)" stroke-width="0.177213" stroke-linecap="round" stroke-linejoin="round"/>
<path d="M13.0222 12.7288C13.0363 12.6417 13.0457 12.5533 13.0457 12.4638C13.0457 11.559 12.3226 10.8261 11.43 10.8261C11.2887 10.8261 11.1532 10.8464 11.0225 10.881C10.6598 10.1791 9.93435 9.69922 9.09821 9.69922C8.26208 9.69922 7.5602 10.1636 7.19159 10.8464C7.11269 10.8344 7.03143 10.8261 6.949 10.8261C6.30246 10.8261 5.74661 11.2116 5.48871 11.7667C5.29086 11.6342 5.05297 11.5554 4.79742 11.5554C4.13676 11.5554 3.59739 12.0723 3.54675 12.7288H13.0233H13.0222Z" stroke="url(#paint1_linear_6443_15494)" stroke-width="0.177213" stroke-linecap="round" stroke-linejoin="round"/>
<path d="M2.18188 18.8359H3.62216" stroke="url(#paint2_linear_6443_15494)" stroke-width="0.177213" stroke-linecap="round" stroke-linejoin="round"/>
<path d="M6.62268 20.4258H9.31715" stroke="url(#paint3_linear_6443_15494)" stroke-width="0.177213" stroke-linecap="round" stroke-linejoin="round"/>
<path d="M31.2639 8.88086H34.1916" stroke="url(#paint4_linear_6443_15494)" stroke-width="0.177213" stroke-linecap="round" stroke-linejoin="round"/>
<path d="M34.7203 8.88086H35.7473" stroke="url(#paint5_linear_6443_15494)" stroke-width="0.177213" stroke-linecap="round" stroke-linejoin="round"/>
<path d="M32.417 10.2559H34.3943" stroke="url(#paint6_linear_6443_15494)" stroke-width="0.177213" stroke-linecap="round" stroke-linejoin="round"/>
<path d="M4.44287 18.8359H7.86631" stroke="url(#paint7_linear_6443_15494)" stroke-width="0.177213" stroke-linecap="round" stroke-linejoin="round"/>
<path d="M17.9649 23.2544C17.939 23.2639 17.9131 23.2735 17.8884 23.2818C18.9106 22.8951 20.0753 22.3961 21.326 21.7539H24.3737L24.4208 24.0804H17.8872L17.9649 23.2532V23.2544Z" fill="url(#paint8_linear_6443_15494)"/>
<path d="M17.8682 24.2715H24.4242L24.4713 26.598H17.6492L17.8682 24.2715Z" fill="url(#paint9_linear_6443_15494)"/>
<path d="M17.6317 26.7891H24.4762L24.5222 29.1156H17.4115L17.6317 26.7891Z" fill="url(#paint10_linear_6443_15494)"/>
<path d="M17.3937 29.3105H24.5256L24.5739 31.6371H17.1747L17.3937 29.3105Z" fill="url(#paint11_linear_6443_15494)"/>
<path d="M17.1557 31.8281H24.5773L24.6232 34.1534H16.9366L17.1557 31.8281Z" fill="url(#paint12_linear_6443_15494)"/>
<path d="M24.675 36.6742H16.6987L16.919 34.3477H24.6279L24.675 36.6742Z" fill="url(#paint13_linear_6443_15494)"/>
<path d="M27.7404 36.8652L27.7098 39.1917H16.462L16.6811 36.8652H16.6893H24.6785L24.7103 38.4099L24.7186 36.8652H25.921L25.9504 38.4349L26.0152 36.8652H27.7404Z" fill="url(#paint14_linear_6443_15494)"/>
<path d="M25.8727 34.3477L25.9163 36.6742H24.7209L24.7339 34.3477H25.8727Z" fill="url(#paint15_linear_6443_15494)"/>
<path d="M27.7747 34.3477L27.7429 36.6742H26.0223L26.1154 34.3477H27.7747Z" fill="url(#paint16_linear_6443_15494)"/>
<path d="M25.8246 31.8281L25.8693 34.1534H24.7352L24.7482 31.8281H25.8246Z" fill="url(#paint17_linear_6443_15494)"/>
<path d="M27.8088 31.8281L27.777 34.1534H26.1235L26.2166 31.8281H27.8088Z" fill="url(#paint18_linear_6443_15494)"/>
<path d="M25.7763 29.3105L25.8211 31.6371H24.7494L24.7623 29.3105H25.7763Z" fill="url(#paint19_linear_6443_15494)"/>
<path d="M27.8418 29.3105L27.8112 31.6371H26.2249L26.3191 29.3105H27.8418Z" fill="url(#paint20_linear_6443_15494)"/>
<path d="M25.7278 26.7891L25.7726 29.1156H24.7633L24.7763 26.7891H25.7278Z" fill="url(#paint21_linear_6443_15494)"/>
<path d="M27.8758 26.7891L27.844 29.1156H26.326L26.4203 26.7891H27.8758Z" fill="url(#paint22_linear_6443_15494)"/>
<path d="M25.6797 24.2715L25.7244 26.598H24.7776L24.7917 24.2715H25.6797Z" fill="url(#paint23_linear_6443_15494)"/>
<path d="M27.9089 24.2715L27.8782 26.598H26.4274L26.5216 24.2715H27.9089Z" fill="url(#paint24_linear_6443_15494)"/>
<path d="M25.6313 21.7539L25.6761 24.0804H24.7928L24.8058 21.7539H25.6313Z" fill="url(#paint25_linear_6443_15494)"/>
<path d="M27.9428 21.7539L27.9122 24.0804H26.5297L26.6227 21.7539H27.9428Z" fill="url(#paint26_linear_6443_15494)"/>
<path d="M24.3383 20.0039L24.37 21.5617H21.6968C22.5482 21.1105 23.435 20.5948 24.3383 20.0039Z" fill="url(#paint27_linear_6443_15494)"/>
<path d="M25.5818 19.1523L25.6289 21.5648H24.8081L24.8187 19.6883C24.9895 19.5725 25.1614 19.4543 25.3333 19.3326C25.4181 19.2717 25.5017 19.2132 25.5818 19.1523Z" fill="url(#paint28_linear_6443_15494)"/>
<path d="M27.9772 19.2363L27.9465 21.5616H26.6311L26.7241 19.2363H27.9772Z" fill="url(#paint29_linear_6443_15494)"/>
<path d="M28.0148 16.4434L27.9794 19.0432H26.7323L26.7688 18.1384C27.3588 17.5523 27.7592 16.9841 28.0148 16.4434Z" fill="url(#paint30_linear_6443_15494)"/>
<path d="M14.6118 63.5856C14.0112 62.861 13.6755 61.9478 13.6602 61.0012L13.0808 23.7949C13.2304 23.9692 13.3752 24.1113 13.4977 24.2199L14.5682 59.2572L14.5705 59.2345L14.6118 63.5868V63.5856Z" fill="url(#paint31_linear_6443_15494)"/>
<path d="M26.6958 11.28C26.565 7.78967 26.4355 4.2993 26.3048 0.808936C26.3012 0.715827 26.2259 0.640625 26.1328 0.640625C26.0398 0.640625 25.9644 0.714634 25.9609 0.808936L25.5782 11.3481C21.7802 12.377 15.3279 15.3935 13.1292 18.4816C10.7374 21.8418 13.8005 23.7983 13.8005 23.7983C13.8005 23.7983 19.2553 22.9042 25.1695 18.7788C30.3559 15.1631 27.4813 12.0034 26.6934 11.28H26.6958ZM26.9454 13.8823H20.8263C22.6729 12.9309 24.51 12.2147 25.7866 11.9425C25.7878 11.9425 25.789 11.9425 25.7913 11.9425C25.809 11.9557 26.7346 12.6874 26.9454 13.8823ZM19.5827 14.5591H26.9808C26.9749 14.6379 26.9666 14.7179 26.9537 14.8002H19.1717C19.3083 14.7191 19.4449 14.6391 19.5827 14.5591ZM14.0383 19.7612H22.024C22.3997 19.5392 22.7836 19.3017 23.1722 19.0462C22.6399 19.396 22.1159 19.7135 21.6083 20.0024H13.983C14.016 19.8209 14.0678 19.6538 14.0383 19.7612ZM13.9677 20.0979H21.4375C17.8869 22.0818 15.1147 22.6416 15.1147 22.6416C15.1147 22.6416 13.7298 21.7237 13.9677 20.0979ZM23.1734 19.045H14.3269C14.4564 18.8003 14.6213 18.5449 14.8309 18.2799C14.9534 18.1235 15.09 17.9671 15.2348 17.8107H24.8963C24.7432 17.9361 24.5819 18.0614 24.4088 18.1891C23.993 18.4935 23.5809 18.7788 23.1746 19.045H23.1734ZM25.0117 17.7141H15.3243C15.4009 17.6341 15.4798 17.5541 15.561 17.4729H25.2861C25.199 17.5529 25.1071 17.6329 25.0117 17.7141ZM26.147 16.5502H16.6115C17.3311 15.976 18.1507 15.4162 19.0116 14.8957H26.9372C26.8418 15.4007 26.6027 15.9557 26.147 16.5502Z" fill="url(#paint32_linear_6443_15494)"/>
<path d="M16.5445 30.2569H14.3964L14.4047 31.1533H16.4597L16.369 32.1214H14.4141L14.4223 33.0179H16.2842L16.1935 33.9848H14.4318L14.4388 34.8813H16.1076L16.0169 35.8482H14.4483L14.4565 36.7446H15.9321L15.8414 37.7115H14.4659L14.4742 38.608H15.7566L15.666 39.5761H14.4836L14.4918 40.4725H15.5812L15.4905 41.4394H14.5013L14.7073 63.4177C14.7073 63.4715 14.6661 63.5144 14.6131 63.5144C14.5613 63.5144 14.5189 63.4715 14.5177 63.4189L14.1515 24.409C14.208 24.397 14.2704 24.3839 14.3399 24.3672C14.3399 24.3743 14.3423 24.3803 14.3423 24.3875L14.3882 29.2888H16.6375L16.5468 30.2557L16.5445 30.2569Z" fill="url(#paint33_linear_6443_15494)"/>
</g>
<defs>
<linearGradient id="paint0_linear_6443_15494" x1="31.317" y1="24.7061" x2="37.1382" y2="24.7061" gradientUnits="userSpaceOnUse">
<stop stop-color="#EF8081"/>
<stop offset="0.619792" stop-color="#F63132"/>
<stop offset="1" stop-color="#9F1689"/>
</linearGradient>
<linearGradient id="paint1_linear_6443_15494" x1="3.54675" y1="11.214" x2="13.0457" y2="11.214" gradientUnits="userSpaceOnUse">
<stop stop-color="#EF8081"/>
<stop offset="0.619792" stop-color="#F63132"/>
<stop offset="1" stop-color="#9F1689"/>
</linearGradient>
<linearGradient id="paint2_linear_6443_15494" x1="2.18188" y1="19.3359" x2="3.62216" y2="19.3359" gradientUnits="userSpaceOnUse">
<stop stop-color="#EF8081"/>
<stop offset="0.619792" stop-color="#F63132"/>
<stop offset="1" stop-color="#9F1689"/>
</linearGradient>
<linearGradient id="paint3_linear_6443_15494" x1="6.62268" y1="20.9258" x2="9.31715" y2="20.9258" gradientUnits="userSpaceOnUse">
<stop stop-color="#EF8081"/>
<stop offset="0.619792" stop-color="#F63132"/>
<stop offset="1" stop-color="#9F1689"/>
</linearGradient>
<linearGradient id="paint4_linear_6443_15494" x1="31.2639" y1="9.38086" x2="34.1916" y2="9.38086" gradientUnits="userSpaceOnUse">
<stop stop-color="#EF8081"/>
<stop offset="0.619792" stop-color="#F63132"/>
<stop offset="1" stop-color="#9F1689"/>
</linearGradient>
<linearGradient id="paint5_linear_6443_15494" x1="34.7203" y1="9.38086" x2="35.7473" y2="9.38086" gradientUnits="userSpaceOnUse">
<stop stop-color="#EF8081"/>
<stop offset="0.619792" stop-color="#F63132"/>
<stop offset="1" stop-color="#9F1689"/>
</linearGradient>
<linearGradient id="paint6_linear_6443_15494" x1="32.417" y1="10.7559" x2="34.3943" y2="10.7559" gradientUnits="userSpaceOnUse">
<stop stop-color="#EF8081"/>
<stop offset="0.619792" stop-color="#F63132"/>
<stop offset="1" stop-color="#9F1689"/>
</linearGradient>
<linearGradient id="paint7_linear_6443_15494" x1="4.44287" y1="19.3359" x2="7.86631" y2="19.3359" gradientUnits="userSpaceOnUse">
<stop stop-color="#EF8081"/>
<stop offset="0.619792" stop-color="#F63132"/>
<stop offset="1" stop-color="#9F1689"/>
</linearGradient>
<linearGradient id="paint8_linear_6443_15494" x1="17.8872" y1="22.9172" x2="24.4208" y2="22.9172" gradientUnits="userSpaceOnUse">
<stop stop-color="#EF8081"/>
<stop offset="0.619792" stop-color="#F63132"/>
<stop offset="1" stop-color="#9F1689"/>
</linearGradient>
<linearGradient id="paint9_linear_6443_15494" x1="17.6492" y1="25.4347" x2="24.4713" y2="25.4347" gradientUnits="userSpaceOnUse">
<stop stop-color="#EF8081"/>
<stop offset="0.619792" stop-color="#F63132"/>
<stop offset="1" stop-color="#9F1689"/>
</linearGradient>
<linearGradient id="paint10_linear_6443_15494" x1="17.4115" y1="27.9523" x2="24.5222" y2="27.9523" gradientUnits="userSpaceOnUse">
<stop stop-color="#EF8081"/>
<stop offset="0.619792" stop-color="#F63132"/>
<stop offset="1" stop-color="#9F1689"/>
</linearGradient>
<linearGradient id="paint11_linear_6443_15494" x1="17.1747" y1="30.4738" x2="24.5739" y2="30.4738" gradientUnits="userSpaceOnUse">
<stop stop-color="#EF8081"/>
<stop offset="0.619792" stop-color="#F63132"/>
<stop offset="1" stop-color="#9F1689"/>
</linearGradient>
<linearGradient id="paint12_linear_6443_15494" x1="16.9366" y1="32.9908" x2="24.6232" y2="32.9908" gradientUnits="userSpaceOnUse">
<stop stop-color="#EF8081"/>
<stop offset="0.619792" stop-color="#F63132"/>
<stop offset="1" stop-color="#9F1689"/>
</linearGradient>
<linearGradient id="paint13_linear_6443_15494" x1="16.6987" y1="35.5109" x2="24.675" y2="35.5109" gradientUnits="userSpaceOnUse">
<stop stop-color="#EF8081"/>
<stop offset="0.619792" stop-color="#F63132"/>
<stop offset="1" stop-color="#9F1689"/>
</linearGradient>
<linearGradient id="paint14_linear_6443_15494" x1="16.462" y1="38.0285" x2="27.7404" y2="38.0285" gradientUnits="userSpaceOnUse">
<stop stop-color="#EF8081"/>
<stop offset="0.619792" stop-color="#F63132"/>
<stop offset="1" stop-color="#9F1689"/>
</linearGradient>
<linearGradient id="paint15_linear_6443_15494" x1="24.7209" y1="35.5109" x2="25.9163" y2="35.5109" gradientUnits="userSpaceOnUse">
<stop stop-color="#EF8081"/>
<stop offset="0.619792" stop-color="#F63132"/>
<stop offset="1" stop-color="#9F1689"/>
</linearGradient>
<linearGradient id="paint16_linear_6443_15494" x1="26.0223" y1="35.5109" x2="27.7747" y2="35.5109" gradientUnits="userSpaceOnUse">
<stop stop-color="#EF8081"/>
<stop offset="0.619792" stop-color="#F63132"/>
<stop offset="1" stop-color="#9F1689"/>
</linearGradient>
<linearGradient id="paint17_linear_6443_15494" x1="24.7352" y1="32.9908" x2="25.8693" y2="32.9908" gradientUnits="userSpaceOnUse">
<stop stop-color="#EF8081"/>
<stop offset="0.619792" stop-color="#F63132"/>
<stop offset="1" stop-color="#9F1689"/>
</linearGradient>
<linearGradient id="paint18_linear_6443_15494" x1="26.1235" y1="32.9908" x2="27.8088" y2="32.9908" gradientUnits="userSpaceOnUse">
<stop stop-color="#EF8081"/>
<stop offset="0.619792" stop-color="#F63132"/>
<stop offset="1" stop-color="#9F1689"/>
</linearGradient>
<linearGradient id="paint19_linear_6443_15494" x1="24.7494" y1="30.4738" x2="25.8211" y2="30.4738" gradientUnits="userSpaceOnUse">
<stop stop-color="#EF8081"/>
<stop offset="0.619792" stop-color="#F63132"/>
<stop offset="1" stop-color="#9F1689"/>
</linearGradient>
<linearGradient id="paint20_linear_6443_15494" x1="26.2249" y1="30.4738" x2="27.8418" y2="30.4738" gradientUnits="userSpaceOnUse">
<stop stop-color="#EF8081"/>
<stop offset="0.619792" stop-color="#F63132"/>
<stop offset="1" stop-color="#9F1689"/>
</linearGradient>
<linearGradient id="paint21_linear_6443_15494" x1="24.7633" y1="27.9523" x2="25.7726" y2="27.9523" gradientUnits="userSpaceOnUse">
<stop stop-color="#EF8081"/>
<stop offset="0.619792" stop-color="#F63132"/>
<stop offset="1" stop-color="#9F1689"/>
</linearGradient>
<linearGradient id="paint22_linear_6443_15494" x1="26.326" y1="27.9523" x2="27.8758" y2="27.9523" gradientUnits="userSpaceOnUse">
<stop stop-color="#EF8081"/>
<stop offset="0.619792" stop-color="#F63132"/>
<stop offset="1" stop-color="#9F1689"/>
</linearGradient>
<linearGradient id="paint23_linear_6443_15494" x1="24.7776" y1="25.4347" x2="25.7244" y2="25.4347" gradientUnits="userSpaceOnUse">
<stop stop-color="#EF8081"/>
<stop offset="0.619792" stop-color="#F63132"/>
<stop offset="1" stop-color="#9F1689"/>
</linearGradient>
<linearGradient id="paint24_linear_6443_15494" x1="26.4274" y1="25.4347" x2="27.9089" y2="25.4347" gradientUnits="userSpaceOnUse">
<stop stop-color="#EF8081"/>
<stop offset="0.619792" stop-color="#F63132"/>
<stop offset="1" stop-color="#9F1689"/>
</linearGradient>
<linearGradient id="paint25_linear_6443_15494" x1="24.7928" y1="22.9172" x2="25.6761" y2="22.9172" gradientUnits="userSpaceOnUse">
<stop stop-color="#EF8081"/>
<stop offset="0.619792" stop-color="#F63132"/>
<stop offset="1" stop-color="#9F1689"/>
</linearGradient>
<linearGradient id="paint26_linear_6443_15494" x1="26.5297" y1="22.9172" x2="27.9428" y2="22.9172" gradientUnits="userSpaceOnUse">
<stop stop-color="#EF8081"/>
<stop offset="0.619792" stop-color="#F63132"/>
<stop offset="1" stop-color="#9F1689"/>
</linearGradient>
<linearGradient id="paint27_linear_6443_15494" x1="21.6968" y1="20.7828" x2="24.37" y2="20.7828" gradientUnits="userSpaceOnUse">
<stop stop-color="#EF8081"/>
<stop offset="0.619792" stop-color="#F63132"/>
<stop offset="1" stop-color="#9F1689"/>
</linearGradient>
<linearGradient id="paint28_linear_6443_15494" x1="24.8081" y1="20.3586" x2="25.6289" y2="20.3586" gradientUnits="userSpaceOnUse">
<stop stop-color="#EF8081"/>
<stop offset="0.619792" stop-color="#F63132"/>
<stop offset="1" stop-color="#9F1689"/>
</linearGradient>
<linearGradient id="paint29_linear_6443_15494" x1="26.6311" y1="20.399" x2="27.9772" y2="20.399" gradientUnits="userSpaceOnUse">
<stop stop-color="#EF8081"/>
<stop offset="0.619792" stop-color="#F63132"/>
<stop offset="1" stop-color="#9F1689"/>
</linearGradient>
<linearGradient id="paint30_linear_6443_15494" x1="26.7323" y1="17.7433" x2="28.0148" y2="17.7433" gradientUnits="userSpaceOnUse">
<stop stop-color="#EF8081"/>
<stop offset="0.619792" stop-color="#F63132"/>
<stop offset="1" stop-color="#9F1689"/>
</linearGradient>
<linearGradient id="paint31_linear_6443_15494" x1="13.0808" y1="43.6908" x2="14.6118" y2="43.6908" gradientUnits="userSpaceOnUse">
<stop stop-color="#EF8081"/>
<stop offset="0.619792" stop-color="#F63132"/>
<stop offset="1" stop-color="#9F1689"/>
</linearGradient>
<linearGradient id="paint32_linear_6443_15494" x1="12.2161" y1="12.2195" x2="28.1988" y2="12.2195" gradientUnits="userSpaceOnUse">
<stop stop-color="#EF8081"/>
<stop offset="0.619792" stop-color="#F63132"/>
<stop offset="1" stop-color="#9F1689"/>
</linearGradient>
<linearGradient id="paint33_linear_6443_15494" x1="14.1515" y1="43.9408" x2="16.6375" y2="43.9408" gradientUnits="userSpaceOnUse">
<stop stop-color="#EF8081"/>
<stop offset="0.619792" stop-color="#F63132"/>
<stop offset="1" stop-color="#9F1689"/>
</linearGradient>
<clipPath id="clip0_6443_15494">
<rect y="0.666016" width="40" height="38.3333" rx="19.1667" fill="white"/>
</clipPath>
</defs>
</svg>
