<svg width="40" height="40" viewBox="0 0 40 40" fill="none" xmlns="http://www.w3.org/2000/svg">
<path d="M19.9968 15.998C17.7933 15.998 15.9951 17.7961 15.9951 19.9996C15.9951 22.203 17.7933 24.0012 19.9968 24.0012C22.2002 24.0012 23.9984 22.203 23.9984 19.9996C23.9984 17.7961 22.2002 15.998 19.9968 15.998ZM31.9987 19.9996C31.9987 18.3425 32.0137 16.7004 31.9206 15.0463C31.8275 13.1251 31.3893 11.42 29.9843 10.015C28.5764 8.60711 26.8743 8.17182 24.953 8.07876C23.2959 7.9857 21.6539 8.00071 19.9998 8.00071C18.3427 8.00071 16.7006 7.9857 15.0465 8.07876C13.1253 8.17182 11.4201 8.61011 10.0152 10.015C8.60729 11.423 8.17201 13.1251 8.07894 15.0463C7.98588 16.7034 8.00089 18.3455 8.00089 19.9996C8.00089 21.6537 7.98588 23.2988 8.07894 24.9529C8.17201 26.8741 8.61029 28.5792 10.0152 29.9842C11.4231 31.3921 13.1253 31.8274 15.0465 31.9204C16.7036 32.0135 18.3457 31.9985 19.9998 31.9985C21.6569 31.9985 23.2989 32.0135 24.953 31.9204C26.8743 31.8274 28.5794 31.3891 29.9843 29.9842C31.3923 28.5762 31.8275 26.8741 31.9206 24.9529C32.0167 23.2988 31.9987 21.6567 31.9987 19.9996ZM19.9968 26.1566C16.5895 26.1566 13.8397 23.4068 13.8397 19.9996C13.8397 16.5924 16.5895 13.8425 19.9968 13.8425C23.404 13.8425 26.1538 16.5924 26.1538 19.9996C26.1538 23.4068 23.404 26.1566 19.9968 26.1566ZM26.406 15.0283C25.6105 15.0283 24.968 14.3859 24.968 13.5904C24.968 12.7949 25.6105 12.1524 26.406 12.1524C27.2015 12.1524 27.8439 12.7949 27.8439 13.5904C27.8442 13.7793 27.8071 13.9664 27.735 14.1409C27.6628 14.3155 27.5569 14.4741 27.4233 14.6077C27.2897 14.7413 27.1311 14.8472 26.9565 14.9194C26.782 14.9915 26.5949 15.0286 26.406 15.0283Z" fill="#0F0E0E" fill-opacity="0.8"/>
</svg>