<svg width="40" height="40" viewBox="0 0 40 40" fill="none" xmlns="http://www.w3.org/2000/svg">
<path fill-rule="evenodd" clip-rule="evenodd" d="M8.42188 10.356C8.42188 9.84285 8.62571 9.35074 8.98855 8.98791C9.35138 8.62507 9.84349 8.42124 10.3566 8.42124H29.6429C29.8972 8.42082 30.1491 8.47057 30.3841 8.56762C30.6192 8.66468 30.8328 8.80714 31.0127 8.98685C31.1926 9.16657 31.3353 9.38 31.4326 9.61493C31.5299 9.84986 31.5799 10.1017 31.5798 10.356V29.6423C31.58 29.8966 31.5302 30.1485 31.433 30.3836C31.3358 30.6186 31.1933 30.8322 31.0135 31.0121C30.8337 31.192 30.6202 31.3347 30.3852 31.432C30.1502 31.5293 29.8983 31.5793 29.644 31.5791H10.3566C10.1025 31.5791 9.85078 31.5291 9.61598 31.4318C9.38118 31.3345 9.16785 31.1919 8.98817 31.0121C8.8085 30.8323 8.66601 30.6189 8.56885 30.3841C8.47168 30.1492 8.42174 29.8975 8.42188 29.6433V10.356ZM17.5882 17.2507H20.724V18.8254C21.1766 17.9202 22.3345 17.1054 24.0745 17.1054C27.4103 17.1054 28.2008 18.9086 28.2008 22.217V28.3454H24.825V22.9707C24.825 21.0865 24.3724 20.0233 23.2229 20.0233C21.6282 20.0233 20.965 21.1697 20.965 22.9707V28.3454H17.5882V17.2507ZM11.7987 28.2012H15.1756V17.1054H11.7987V28.2002V28.2012ZM15.6587 13.4865C15.6651 13.7756 15.6136 14.0631 15.5074 14.3321C15.4011 14.6011 15.2422 14.8461 15.04 15.0528C14.8378 15.2596 14.5963 15.4238 14.3297 15.536C14.0632 15.6481 13.7769 15.7059 13.4877 15.7059C13.1985 15.7059 12.9122 15.6481 12.6456 15.536C12.379 15.4238 12.1375 15.2596 11.9353 15.0528C11.7331 14.8461 11.5742 14.6011 11.4679 14.3321C11.3617 14.0631 11.3102 13.7756 11.3166 13.4865C11.3291 12.919 11.5633 12.3789 11.9691 11.982C12.3749 11.585 12.92 11.3627 13.4877 11.3627C14.0553 11.3627 14.6004 11.585 15.0062 11.982C15.412 12.3789 15.6462 12.919 15.6587 13.4865Z" fill="#0F0E0E" fill-opacity="0.8"/>
</svg>