<svg width="40" height="40" viewBox="0 0 40 40" fill="none" xmlns="http://www.w3.org/2000/svg">
<path d="M31.7971 12.5416C30.9342 12.9711 30.0072 13.2613 29.0327 13.3925C30.0382 12.7167 30.7905 11.653 31.1492 10.3999C30.2044 11.0302 29.1705 11.4739 28.0923 11.7116C27.3672 10.842 26.4068 10.2656 25.3602 10.072C24.3136 9.87828 23.2394 10.0781 22.3043 10.6405C21.3692 11.2029 20.6255 12.0963 20.1887 13.1821C19.752 14.2678 19.6466 15.4852 19.8889 16.6451C17.9747 16.5372 16.102 15.9783 14.3925 15.0048C12.683 14.0313 11.1748 12.6649 9.96589 10.9943C9.55251 11.7952 9.31482 12.7239 9.31482 13.7129C9.31436 14.6032 9.50956 15.4799 9.88309 16.2652C10.2566 17.0505 10.7969 17.7201 11.4561 18.2145C10.6916 18.1872 9.94405 17.9552 9.27555 17.5378V17.6074C9.27548 18.8562 9.66002 20.0665 10.3639 21.033C11.0679 21.9995 12.0478 22.6627 13.1375 22.91C12.4283 23.1256 11.6848 23.1574 10.9631 23.0029C11.2706 24.0774 11.8695 25.0169 12.6759 25.6901C13.4824 26.3633 14.4561 26.7363 15.4606 26.757C13.7553 28.2607 11.6492 29.0764 9.48121 29.0728C9.09716 29.0729 8.71345 29.0477 8.33203 28.9974C10.5327 30.5867 13.0944 31.4302 15.7107 31.4269C24.5672 31.4269 29.4089 23.1875 29.4089 16.0415C29.4089 15.8093 29.4037 15.5748 29.3944 15.3427C30.3361 14.5777 31.1491 13.6304 31.7951 12.5451L31.7971 12.5416Z" fill="#0F0E0E" fill-opacity="0.8"/>
</svg>