<svg width="41" height="26" viewBox="0 0 41 26" fill="none" xmlns="http://www.w3.org/2000/svg">
<g clip-path="url(#clip0_6465_18630)">
<path d="M0.0241699 16.4551V17.0805H8.47781V17.3536H0.0241699V17.4486H8.57308V16.4551H0.0241699Z" fill="url(#paint0_linear_6465_18630)"/>
<path d="M10.495 16.4551V17.4486H34.6148V16.4551H10.495ZM34.5195 17.3536H10.5903V17.0805H34.5195V17.3536Z" fill="url(#paint1_linear_6465_18630)"/>
<path d="M40.8518 17.0805V16.4551H36.5367V17.4486H40.8518V17.3536H36.632V17.0805H40.8518Z" fill="url(#paint2_linear_6465_18630)"/>
<path d="M8.75134 11.9121V21.2615H10.3097V11.9121H8.75134ZM9.24954 21.1673H9.07561V12.0072H9.24954V21.1673ZM10.2145 21.1673H9.73113V12.0072H10.2145V21.1673Z" fill="url(#paint3_linear_6465_18630)"/>
<path d="M8.61926 21.3594V21.9159H10.4399V21.3594H8.61926ZM10.3455 21.8217H9.62527V21.4536H10.3455V21.8217Z" fill="url(#paint4_linear_6465_18630)"/>
<path d="M8.47253 22.0098V23.5075H10.5877V22.0098H8.47253ZM9.48554 22.1048H10.4933V23.4133H9.48554V22.1048Z" fill="url(#paint5_linear_6465_18630)"/>
<path d="M8.90955 7.91406V11.8194H10.1507V7.91406H8.90955ZM10.0554 11.7243H9.65597V8.00827H10.0554V11.7243Z" fill="url(#paint6_linear_6465_18630)"/>
<path d="M9.03894 4.5918V7.8202H10.0205V4.5918H9.03894ZM9.92608 7.72599H9.64465V4.68601H9.92608V7.72599Z" fill="url(#paint7_linear_6465_18630)"/>
<path d="M9.12366 1.7168V4.49596H9.93651V1.7168H9.12366ZM9.84124 4.40175H9.63934V1.81101H9.84124V4.40175Z" fill="url(#paint8_linear_6465_18630)"/>
<path d="M10.0781 1.3457H8.98291V1.62135H10.0781V1.3457Z" fill="url(#paint9_linear_6465_18630)"/>
<path d="M9.9347 1.05273H9.12622V1.25162H9.9347V1.05273Z" fill="url(#paint10_linear_6465_18630)"/>
<path d="M9.67352 0.722656H9.38684V0.959051H9.67352V0.722656Z" fill="url(#paint11_linear_6465_18630)"/>
<path d="M4.58655 11.9121V16.3565H6.14495V11.9121H4.58655ZM5.08562 16.2658H4.91256V12.0072H5.08562V16.2658ZM6.0523 16.2658H5.56809V12.0072H6.0523V16.2658Z" fill="url(#paint12_linear_6465_18630)"/>
<path d="M4.58655 17.543V21.2651H6.14495V17.543H4.58655ZM5.08562 21.1709H4.91256V17.6311H5.08562V21.1709ZM6.0523 21.1709H5.56809V17.6311H6.0523V21.1709Z" fill="url(#paint13_linear_6465_18630)"/>
<path d="M4.4563 21.3594V21.9159H6.27691V21.3594H4.4563ZM6.18164 21.8217H5.46231V21.4536H6.18164V21.8217Z" fill="url(#paint14_linear_6465_18630)"/>
<path d="M4.30859 22.0098V23.5075H6.42463V22.0098H4.30859ZM5.3216 22.1048H6.32936V23.4133H5.3216V22.1048Z" fill="url(#paint15_linear_6465_18630)"/>
<path d="M4.74561 7.91406V11.8194H5.98673V7.91406H4.74561ZM5.89321 11.7243H5.4929V8.00827H5.89321V11.7243Z" fill="url(#paint16_linear_6465_18630)"/>
<path d="M4.87585 4.5918V7.8202H5.85739V4.5918H4.87585ZM5.763 7.72599H5.48156V4.68601H5.763V7.72599Z" fill="url(#paint17_linear_6465_18630)"/>
<path d="M4.95984 1.7168V4.49596H5.77269V1.7168H4.95984ZM5.67917 4.40175H5.47639V1.81101H5.67917V4.40175Z" fill="url(#paint18_linear_6465_18630)"/>
<path d="M5.91425 1.3457H4.81909V1.62135H5.91425V1.3457Z" fill="url(#paint19_linear_6465_18630)"/>
<path d="M5.76991 1.05273H4.96143V1.25162H5.76991V1.05273Z" fill="url(#paint20_linear_6465_18630)"/>
<path d="M5.50958 0.722656H5.2229V0.959051H5.50958V0.722656Z" fill="url(#paint21_linear_6465_18630)"/>
<path d="M8.65693 12.3555H6.24023V14.0172H8.65693V12.3555Z" fill="url(#paint22_linear_6465_18630)"/>
<path d="M8.75309 19.2617H6.14673V19.6429H8.75309V19.2617Z" fill="url(#paint23_linear_6465_18630)"/>
<path d="M8.52495 21.5234H6.37134V21.9962H8.52495V21.5234Z" fill="url(#paint24_linear_6465_18630)"/>
<path d="M8.81513 8.35742H6.08203V9.68682H8.81513V8.35742Z" fill="url(#paint25_linear_6465_18630)"/>
<path d="M8.94459 4.9668H5.9519V5.98827H8.94459V4.9668Z" fill="url(#paint26_linear_6465_18630)"/>
<path d="M9.0293 1.74805H5.86792V2.70497H9.0293V1.74805Z" fill="url(#paint27_linear_6465_18630)"/>
<path d="M8.52495 21.4166V21.4297H8.14998L7.44988 20.7676L7.25498 20.5844L6.36084 19.7383H6.74978L7.44988 20.4004L7.64392 20.5844L8.52495 21.4166Z" fill="url(#paint28_linear_6465_18630)"/>
<path d="M8.53807 19.7383L7.64393 20.5844L7.44989 20.7676L6.74979 21.4297H6.37134V21.4192L7.25499 20.5844L7.44989 20.4004L8.14999 19.7383H8.53807Z" fill="url(#paint29_linear_6465_18630)"/>
<path d="M8.53623 19.1681H8.14728L7.44981 18.5322L7.2549 18.3551L6.36426 17.543H6.75233L7.44981 18.1789L7.64384 18.3551L8.53623 19.1681Z" fill="url(#paint30_linear_6465_18630)"/>
<path d="M8.53552 17.543L7.644 18.3551L7.44997 18.5322L6.75162 19.1681H6.36267L7.25506 18.3551L7.44997 18.1789L8.14657 17.543H8.53552Z" fill="url(#paint31_linear_6465_18630)"/>
<path d="M34.7931 11.9121V21.2615H36.3515V11.9121H34.7931ZM35.2913 21.1673H35.1182V12.0072H35.2913V21.1673ZM36.2562 21.1673H35.7738V12.0072H36.2562V21.1673Z" fill="url(#paint32_linear_6465_18630)"/>
<path d="M34.6611 21.3594V21.9159H36.4817V21.3594H34.6611ZM36.3873 21.8217H35.6671V21.4536H36.3873V21.8217Z" fill="url(#paint33_linear_6465_18630)"/>
<path d="M34.5143 22.0098V23.5075H36.6294V22.0098H34.5143ZM35.5273 22.1048H36.535V23.4133H35.5273V22.1048Z" fill="url(#paint34_linear_6465_18630)"/>
<path d="M34.9513 7.91406V11.8194H36.1924V7.91406H34.9513ZM36.0971 11.7243H35.6977V8.00827H36.0971V11.7243Z" fill="url(#paint35_linear_6465_18630)"/>
<path d="M35.0807 4.5918V7.8202H36.0622V4.5918H35.0807ZM35.9678 7.72599H35.6864V4.68601H35.9678V7.72599Z" fill="url(#paint36_linear_6465_18630)"/>
<path d="M35.1655 1.7168V4.49596H35.9784V1.7168H35.1655ZM35.8831 4.40175H35.6812V1.81101H35.8831V4.40175Z" fill="url(#paint37_linear_6465_18630)"/>
<path d="M36.1199 1.3457H35.0248V1.62135H36.1199V1.3457Z" fill="url(#paint38_linear_6465_18630)"/>
<path d="M35.9766 1.05273H35.1681V1.25162H35.9766V1.05273Z" fill="url(#paint39_linear_6465_18630)"/>
<path d="M35.7153 0.722656H35.4286V0.959051H35.7153V0.722656Z" fill="url(#paint40_linear_6465_18630)"/>
<path d="M30.6284 11.9121V16.3565H32.1868V11.9121H30.6284ZM31.1275 16.2658H30.9544V12.0072H31.1275V16.2658ZM32.0942 16.2658H31.61V12.0072H32.0942V16.2658Z" fill="url(#paint41_linear_6465_18630)"/>
<path d="M30.6284 17.543V21.2651H32.1868V17.543H30.6284ZM31.1275 21.1709H30.9544V17.6311H31.1275V21.1709ZM32.0942 21.1709H31.61V17.6311H32.0942V21.1709Z" fill="url(#paint42_linear_6465_18630)"/>
<path d="M30.4982 21.3594V21.9159H32.3188V21.3594H30.4982ZM32.2235 21.8217H31.5042V21.4536H32.2235V21.8217Z" fill="url(#paint43_linear_6465_18630)"/>
<path d="M30.3505 22.0098V23.5075H32.4665V22.0098H30.3505ZM31.3635 22.1048H32.3721V23.4133H31.3635V22.1048Z" fill="url(#paint44_linear_6465_18630)"/>
<path d="M30.7874 7.91406V11.8194H32.0285V7.91406H30.7874ZM31.935 11.7243H31.5355V8.00827H31.935V11.7243Z" fill="url(#paint45_linear_6465_18630)"/>
<path d="M30.9176 4.5918V7.8202H31.8991V4.5918H30.9176ZM31.8047 7.72599H31.5242V4.68601H31.8047V7.72599Z" fill="url(#paint46_linear_6465_18630)"/>
<path d="M31.0016 1.7168V4.49596H31.8144V1.7168H31.0016ZM31.7209 4.40175H31.5181V1.81101H31.7209V4.40175Z" fill="url(#paint47_linear_6465_18630)"/>
<path d="M31.9559 1.3457H30.8607V1.62135H31.9559V1.3457Z" fill="url(#paint48_linear_6465_18630)"/>
<path d="M31.8126 1.05273H31.0042V1.25162H31.8126V1.05273Z" fill="url(#paint49_linear_6465_18630)"/>
<path d="M31.5515 0.722656H31.2648V0.959051H31.5515V0.722656Z" fill="url(#paint50_linear_6465_18630)"/>
<path d="M34.6987 12.3555H32.282V14.0172H34.6987V12.3555Z" fill="url(#paint51_linear_6465_18630)"/>
<path d="M34.795 19.2617H32.1886V19.6429H34.795V19.2617Z" fill="url(#paint52_linear_6465_18630)"/>
<path d="M34.5667 21.5234H32.4131V21.9962H34.5667V21.5234Z" fill="url(#paint53_linear_6465_18630)"/>
<path d="M34.857 8.35742H32.1239V9.68682H34.857V8.35742Z" fill="url(#paint54_linear_6465_18630)"/>
<path d="M34.9863 4.9668H31.9937V5.98827H34.9863V4.9668Z" fill="url(#paint55_linear_6465_18630)"/>
<path d="M35.0712 1.74805H31.9098V2.70497H35.0712V1.74805Z" fill="url(#paint56_linear_6465_18630)"/>
<path d="M34.5667 21.4166V21.4297H34.1917L33.4916 20.7676L33.2976 20.5844L32.4026 19.7383H32.7915L33.4916 20.4004L33.6857 20.5844L34.5667 21.4166Z" fill="url(#paint57_linear_6465_18630)"/>
<path d="M34.5798 19.7383L33.6857 20.5844L33.4916 20.7676L32.7915 21.4297H32.4131V21.4192L33.2976 20.5844L33.4916 20.4004L34.1917 19.7383H34.5798Z" fill="url(#paint58_linear_6465_18630)"/>
<path d="M34.5782 19.1681H34.1902L33.4918 18.5322L33.2978 18.3551L32.4062 17.543H32.7943L33.4918 18.1789L33.6858 18.3551L34.5782 19.1681Z" fill="url(#paint59_linear_6465_18630)"/>
<path d="M34.5772 17.543L33.6857 18.3551L33.4917 18.5322L32.7933 19.1681H32.4053L33.2977 18.3551L33.4917 18.1789L34.1883 17.543H34.5772Z" fill="url(#paint60_linear_6465_18630)"/>
<path d="M0.0774572 14.4003L-0.0291748 14.1613C0.159616 14.0775 0.344037 13.992 0.520592 13.9057C0.904292 13.7199 1.28362 13.5166 1.64809 13.302C2.03092 13.0779 2.41025 12.8327 2.77647 12.5745C3.16978 12.2971 3.54911 12.0032 3.9031 11.7014C4.13297 11.5068 4.35847 11.3045 4.57261 11.1003C4.60058 11.0742 4.62855 11.0471 4.65477 11.0218C4.78237 10.8988 4.90824 10.7732 5.02973 10.6476C5.09003 10.5857 5.14859 10.5237 5.20715 10.4609L5.39944 10.6389C5.33913 10.7034 5.27883 10.7671 5.21852 10.8291C5.09528 10.9564 4.9668 11.0846 4.83744 11.2094C4.81034 11.2355 4.7815 11.2635 4.75266 11.2905C4.5359 11.4972 4.3069 11.7031 4.07266 11.9011C3.71256 12.2073 3.32711 12.5065 2.9268 12.7883C2.55534 13.0508 2.16902 13.2994 1.78095 13.528C1.41036 13.746 1.02491 13.9528 0.635964 14.1421C0.456787 14.2293 0.26887 14.3165 0.0774572 14.4011V14.4003Z" fill="url(#paint61_linear_6465_18630)"/>
<path d="M0.110681 11.7518L-0.0623779 11.5546C0.129909 11.3863 0.315204 11.2171 0.487389 11.0513C0.884199 10.6701 1.26266 10.2654 1.61402 9.84666C2.02481 9.35817 2.40414 8.84438 2.74152 8.31925C3.17242 7.65107 3.55175 6.94363 3.86815 6.21612C4.3139 5.19116 4.6373 4.11823 4.83133 3.02697C4.89514 2.66845 4.94496 2.3047 4.98079 1.94531L5.24125 1.97148C5.20454 2.33698 5.15385 2.70771 5.0883 3.07233C4.89164 4.18365 4.56125 5.27665 4.10763 6.3208C3.78599 7.06051 3.40054 7.78104 2.9609 8.46144C2.61741 8.99529 2.23196 9.5178 1.81417 10.015C1.45669 10.4407 1.07124 10.8533 0.668313 11.2406C0.493507 11.409 0.30559 11.5817 0.109807 11.7526L0.110681 11.7518Z" fill="url(#paint62_linear_6465_18630)"/>
<path d="M9.38844 1.89685L9.36747 2.07392C9.31328 2.58771 9.23199 3.09539 9.12361 3.5961C9.02397 4.05842 8.90248 4.51464 8.75739 4.96475C8.72768 5.05808 8.69708 5.15055 8.66562 5.24214C8.58433 5.47853 8.49693 5.71231 8.40341 5.94435C8.39817 5.9583 8.39205 5.97226 8.3868 5.98622C8.18578 6.48169 7.95591 6.96843 7.69807 7.44558C7.65087 7.53369 7.6028 7.62092 7.55385 7.70815C7.54511 7.72298 7.53637 7.73781 7.5285 7.75176C7.50403 7.79538 7.47956 7.83812 7.45421 7.88087C7.39303 7.98554 7.33097 8.08935 7.26629 8.19315C7.23308 8.24723 7.19987 8.30132 7.16491 8.3554C6.92455 8.73485 6.66671 9.10471 6.39226 9.46236C6.33632 9.53737 6.27864 9.61152 6.2192 9.68479C6.19036 9.7223 6.16064 9.75981 6.13005 9.79645C6.10733 9.82524 6.0846 9.85315 6.061 9.88194L5.98671 9.96917L5.91329 10.0547L5.89319 10.0372V9.67258C5.92465 9.6342 5.95612 9.59495 5.98671 9.55569C6.01905 9.51644 6.05051 9.47631 6.08111 9.43619C6.09859 9.41525 6.11432 9.39432 6.13005 9.37338C6.2192 9.25911 6.30661 9.14309 6.39226 9.02533C6.55221 8.80638 6.70604 8.58307 6.85288 8.3554C6.98311 8.15651 7.10809 7.95414 7.22784 7.74915C7.24095 7.72647 7.25406 7.70466 7.26629 7.68198C7.31 7.60609 7.35282 7.5302 7.39478 7.45431C7.44023 7.37231 7.4848 7.29031 7.5285 7.20745C7.532 7.20047 7.53637 7.19349 7.53899 7.18651C7.74701 6.7931 7.93493 6.39271 8.10362 5.98622C8.24346 5.64951 8.36932 5.30931 8.48207 4.96475C8.72418 4.22765 8.90423 3.47223 9.02135 2.70286C9.02397 2.68803 9.0266 2.67407 9.02834 2.65924C9.05893 2.45512 9.08516 2.251 9.10701 2.04514L9.12361 1.9047L9.12798 1.86719L9.38844 1.89685Z" fill="url(#paint63_linear_6465_18630)"/>
<path d="M40.9376 11.5544L40.7654 11.7515C40.6745 11.6722 40.5827 11.591 40.491 11.5064C40.4167 11.4384 40.3424 11.3695 40.269 11.2988C40.2558 11.2857 40.2419 11.2735 40.2287 11.2604C39.9263 10.9708 39.6335 10.6673 39.3547 10.3532C39.2761 10.2651 39.1991 10.177 39.1231 10.0881C39.1126 10.0758 39.1021 10.0636 39.0925 10.0514C38.7848 9.68766 38.4912 9.30646 38.2176 8.91393C38.1354 8.79616 38.055 8.67666 37.9764 8.55715C37.9694 8.54581 37.9624 8.53535 37.9554 8.52401C37.6337 8.03115 37.3409 7.51911 37.0814 6.99573C36.994 6.81865 36.91 6.6407 36.8305 6.461C36.827 6.45228 36.8226 6.44356 36.8191 6.43483C36.4652 5.64103 36.1828 4.81671 35.9783 3.97755C35.9442 3.83972 35.9119 3.70015 35.8831 3.56146V2.67956L35.9705 2.66211L35.9783 2.70136L36.0579 3.10088C36.0736 3.18462 36.0893 3.26749 36.1059 3.34949C36.3131 4.37794 36.6373 5.38807 37.07 6.35458C37.07 6.35545 37.0709 6.35633 37.0709 6.3572C37.3864 7.06464 37.764 7.75463 38.194 8.41061C38.1949 8.41235 38.1957 8.41322 38.1957 8.41497C38.5366 8.93399 38.9142 9.43731 39.3163 9.91097C39.3189 9.91359 39.3206 9.91621 39.3232 9.91882C39.6755 10.334 40.0548 10.7344 40.4499 11.1095C40.4499 11.1104 40.4516 11.1113 40.4525 11.1121C40.6133 11.2665 40.7768 11.4148 40.9376 11.5544Z" fill="url(#paint64_linear_6465_18630)"/>
<path d="M40.9043 14.1612L40.7986 14.4002C40.6972 14.3557 40.5949 14.3086 40.4909 14.2597C40.4289 14.2318 40.3659 14.2013 40.3021 14.1708C40.2777 14.1586 40.2532 14.1472 40.2287 14.135C39.9298 13.9893 39.637 13.8358 39.3547 13.6762C39.2883 13.6387 39.2227 13.6011 39.1572 13.5628C39.1353 13.5506 39.1143 13.5375 39.0925 13.5253C38.7971 13.3525 38.5034 13.1676 38.2176 12.9731C38.1485 12.9269 38.0795 12.8798 38.0113 12.8318C37.9929 12.8187 37.9737 12.8056 37.9554 12.7925C37.6599 12.5849 37.3671 12.3633 37.0813 12.1313C37.0088 12.0729 36.9371 12.0136 36.8654 11.9542C36.8497 11.9411 36.8349 11.9281 36.8191 11.915C36.6059 11.7335 36.3961 11.546 36.1924 11.355C36.1688 11.3332 36.1461 11.3113 36.1225 11.2895C36.1181 11.2852 36.1094 11.2765 36.1007 11.2686C36.0998 11.2677 36.098 11.2669 36.0972 11.2651V10.8359L36.1924 10.9677L36.2536 11.0523C36.2624 11.061 36.272 11.0697 36.2816 11.0784C36.2903 11.0872 36.2947 11.0924 36.2999 11.0959C36.4695 11.2581 36.6434 11.416 36.8191 11.5687C36.8899 11.6315 36.9625 11.6925 37.0341 11.7536C37.0499 11.7667 37.0656 11.7798 37.0813 11.7929C37.3663 12.0301 37.6591 12.2569 37.9554 12.4706C38.0244 12.5204 38.0926 12.5692 38.1616 12.6172C38.18 12.6303 38.1992 12.6434 38.2176 12.6556C38.5025 12.8536 38.7962 13.0437 39.0925 13.2208C39.158 13.2601 39.2236 13.2985 39.2891 13.3368C39.311 13.3499 39.3328 13.3621 39.3547 13.3752C39.6361 13.5375 39.9289 13.6945 40.2287 13.8436C40.2908 13.8742 40.3537 13.9047 40.4166 13.9352C40.442 13.9475 40.4665 13.9588 40.4909 13.971C40.6334 14.039 40.7689 14.101 40.9043 14.1612Z" fill="url(#paint65_linear_6465_18630)"/>
<path d="M35.2582 10.0297L35.0493 10.1876L34.9514 10.0585L34.8683 9.94857C34.8482 9.92415 34.8273 9.89885 34.808 9.87443C34.7565 9.81249 34.7058 9.75056 34.6559 9.68775C34.6184 9.64065 34.5817 9.59354 34.5458 9.54644C34.2486 9.16524 33.969 8.76747 33.7102 8.35836C33.6971 8.3383 33.684 8.31823 33.6718 8.2973C33.5853 8.16122 33.5022 8.02339 33.4209 7.8847C33.4174 7.87772 33.4131 7.87161 33.4096 7.86463C33.3825 7.81753 33.3554 7.77043 33.33 7.72332C33.2793 7.63696 33.2313 7.54973 33.185 7.46163C32.9437 7.01675 32.727 6.56228 32.5347 6.09909C32.5198 6.06245 32.5041 6.02581 32.4901 5.98918C32.4132 5.80076 32.3406 5.6106 32.2725 5.41869C32.2183 5.26952 32.1676 5.11862 32.1186 4.96771C32.0024 4.60657 31.901 4.2402 31.8145 3.87034C31.7804 3.7299 31.7498 3.58859 31.7209 3.4464V2.29758L31.7847 2.28711L31.8145 2.46768L31.9045 3.01461C32.0216 3.67757 32.1851 4.32918 32.3948 4.96771C32.4359 5.09419 32.4787 5.2198 32.5242 5.34454C32.6011 5.56087 32.6841 5.77633 32.7733 5.98918C32.9437 6.40091 33.1334 6.80566 33.3432 7.20343C33.3659 7.2453 33.3869 7.2863 33.4096 7.32642C33.4358 7.37527 33.462 7.42412 33.4882 7.4721C33.5407 7.56631 33.594 7.65964 33.6482 7.75211C33.6561 7.76519 33.6639 7.77828 33.6718 7.79136C33.7837 7.9824 33.9008 8.17169 34.0223 8.35836C34.1883 8.61482 34.3631 8.86691 34.5458 9.1129C34.6315 9.22892 34.7189 9.34407 34.808 9.45747C34.8238 9.47753 34.8404 9.49846 34.8561 9.51853C34.8876 9.55778 34.919 9.59703 34.9514 9.63629C34.9916 9.68688 35.0327 9.7366 35.0737 9.78632L35.2582 10.0297Z" fill="url(#paint66_linear_6465_18630)"/>
<path d="M35.4356 1.81322L35.3849 2.02955L35.3552 2.2738C35.3054 2.62534 35.2424 2.97426 35.1655 3.31882C35.0685 3.76021 34.9488 4.19549 34.8081 4.62205C34.7705 4.73807 34.7311 4.85234 34.6892 4.96661C34.6437 5.09484 34.5965 5.22219 34.5458 5.34868C34.4619 5.56414 34.3719 5.77785 34.2758 5.98808C34.094 6.38934 33.8929 6.78101 33.6718 7.1622C33.6124 7.26601 33.5512 7.36894 33.4883 7.471C33.4629 7.51287 33.4367 7.55474 33.4096 7.59661C33.3843 7.63848 33.3572 7.68035 33.3301 7.72222C33.1911 7.93856 33.046 8.14965 32.8939 8.35726C32.7785 8.51689 32.6579 8.67391 32.5347 8.82831C32.449 8.9356 32.3625 9.04115 32.2725 9.14496C32.2244 9.20253 32.1746 9.2601 32.1239 9.3168C32.0933 9.35256 32.0618 9.38833 32.0286 9.42322C31.9989 9.45811 31.9674 9.49213 31.9351 9.52615C31.8057 9.66747 31.6729 9.80616 31.5357 9.94137C31.4911 9.98673 31.4448 10.0321 31.3985 10.0757C31.3119 10.1603 31.2245 10.2423 31.1362 10.3226C31.1074 10.3505 31.0777 10.3767 31.0488 10.4028C30.9623 10.4805 30.8758 10.5563 30.7875 10.6314C30.6153 10.7779 30.4405 10.9201 30.2613 11.0562C30.1748 11.1225 30.0874 11.1879 29.9991 11.2516C29.7151 11.4583 29.4231 11.6528 29.1251 11.8343C29.0386 11.8875 28.9512 11.939 28.8629 11.9895C28.5771 12.1553 28.2851 12.3088 27.988 12.4501C27.9014 12.492 27.814 12.533 27.7258 12.5714C27.4391 12.7013 27.1472 12.82 26.8517 12.9273C26.7652 12.9595 26.6778 12.9901 26.5895 13.0197C26.3011 13.1174 26.0092 13.2055 25.7146 13.2814C25.6281 13.305 25.5407 13.3268 25.4524 13.3469C25.164 13.4166 24.8721 13.4751 24.5784 13.5231C24.491 13.5379 24.4036 13.551 24.3162 13.5632C24.026 13.6051 23.7349 13.6365 23.4421 13.6574C23.3547 13.6644 23.2673 13.6696 23.1799 13.6731C22.9649 13.6853 22.749 13.6905 22.5323 13.6905C22.4562 13.6905 22.3811 13.6897 22.305 13.6879C22.2176 13.6871 22.1302 13.6844 22.0428 13.6801C21.75 13.6696 21.459 13.6478 21.1688 13.6155C21.0814 13.6068 20.994 13.5963 20.9066 13.5841C20.7527 13.5649 20.5998 13.5422 20.4468 13.5152H20.4459C20.307 13.4925 20.1689 13.4672 20.0317 13.4393C19.9443 13.4219 19.8568 13.4027 19.7694 13.3826C19.7345 13.3756 19.7004 13.3678 19.6654 13.3591H19.6646C19.4058 13.2989 19.1498 13.23 18.8954 13.1532C18.808 13.127 18.7206 13.1 18.6332 13.0712C18.3378 12.9761 18.0459 12.8688 17.7583 12.7511C17.67 12.7153 17.5835 12.6787 17.4961 12.6403C17.1998 12.5129 16.9079 12.3725 16.6221 12.2207C16.5338 12.1753 16.4464 12.1274 16.3598 12.0785C16.0618 11.9128 15.7699 11.7348 15.4849 11.5438C15.3967 11.4854 15.3093 11.426 15.2227 11.3632C14.9229 11.1539 14.6319 10.9297 14.3487 10.6924C14.2753 10.6305 14.2027 10.5686 14.1302 10.5049C14.1153 10.4918 14.1013 10.4796 14.0865 10.4656C13.7806 10.1961 13.4886 9.91171 13.2125 9.61513C13.1224 9.52005 13.035 9.42409 12.9502 9.32727C12.6382 8.97486 12.3463 8.60674 12.0753 8.22467C11.9853 8.09819 11.8979 7.97083 11.8131 7.84173C11.488 7.34975 11.1961 6.83683 10.9391 6.30647C10.8464 6.11805 10.759 5.92702 10.6769 5.73337C10.3657 5.0111 10.1184 4.25917 9.93658 3.48805C9.90249 3.34063 9.87015 3.19321 9.84131 3.04492V1.97024L9.91036 1.95803L9.93658 2.1037L10.0179 2.55556C10.4269 5.03378 11.5317 7.33841 13.174 9.18595C13.5262 9.58198 13.9029 9.95707 14.3032 10.3086C14.3059 10.3104 14.3076 10.313 14.3102 10.3147C16.0662 11.8543 18.1918 12.8636 20.4459 13.25C20.5989 13.2771 20.7527 13.3006 20.9066 13.3207C20.994 13.3329 21.0814 13.3434 21.1688 13.353C21.1889 13.3556 21.209 13.3573 21.2291 13.3591C21.4992 13.3887 21.7701 13.4079 22.0428 13.4184C22.1302 13.4227 22.2176 13.4254 22.305 13.4262C22.3811 13.428 22.4562 13.4288 22.5323 13.4288C22.749 13.4288 22.9649 13.4227 23.1799 13.4114C23.2673 13.407 23.3547 13.4018 23.4421 13.3948C23.7349 13.3739 24.0269 13.3416 24.3162 13.298C24.4044 13.2867 24.4918 13.2727 24.5784 13.257C24.8729 13.2082 25.164 13.1488 25.4524 13.0773C25.5407 13.0572 25.6281 13.0346 25.7146 13.011C26.01 12.9325 26.302 12.8435 26.5895 12.7423C26.6778 12.7127 26.7652 12.6813 26.8517 12.6481C27.148 12.5382 27.4391 12.417 27.7258 12.2844C27.8132 12.2443 27.9014 12.2024 27.988 12.1588C28.2851 12.014 28.5771 11.8561 28.8629 11.686C28.9512 11.6345 29.0386 11.5813 29.1251 11.5255C29.424 11.3397 29.7151 11.1399 29.9991 10.9262C30.0874 10.8608 30.1748 10.7936 30.2613 10.7238C30.4405 10.5834 30.6153 10.4368 30.7875 10.2833C30.8163 10.2598 30.8443 10.2336 30.8732 10.2083C31.1022 10.0024 31.3233 9.78872 31.5357 9.56802C31.672 9.42671 31.8057 9.28191 31.9351 9.13449C31.9666 9.0996 31.998 9.06383 32.0286 9.02719C32.061 8.99056 32.0924 8.95305 32.1239 8.91467C32.1746 8.85535 32.2244 8.79516 32.2725 8.73497C32.3625 8.62506 32.4499 8.51341 32.5347 8.40088C32.5461 8.38605 32.5574 8.37209 32.5679 8.35726C32.7864 8.06678 32.9927 7.76846 33.185 7.46053C33.24 7.37592 33.2925 7.28956 33.3432 7.2032C33.5792 6.80979 33.7942 6.40417 33.9865 5.98808C34.142 5.65399 34.2836 5.31379 34.4104 4.96661C34.6787 4.23649 34.8832 3.4802 35.0204 2.70472C35.0388 2.60353 35.0554 2.50234 35.0703 2.40029C35.079 2.34707 35.0869 2.29299 35.0947 2.23891L35.1253 1.99117C35.1253 1.99117 35.1271 1.98245 35.1279 1.97809L35.1655 1.81497L35.1795 1.75391L35.4356 1.81322Z" fill="url(#paint67_linear_6465_18630)"/>
<path d="M31.2717 1.7969L31.18 2.2819C31.1328 2.61599 31.0733 2.94747 31.0017 3.27545C30.8269 4.08321 30.5778 4.86829 30.2614 5.6237C30.1792 5.82172 30.0918 6.01798 29.9992 6.21164C29.7431 6.75072 29.4511 7.27149 29.1251 7.77132C29.0403 7.90217 28.9529 8.03127 28.8629 8.15862C28.592 8.54506 28.3 8.91753 27.988 9.27343C27.9032 9.372 27.8149 9.4697 27.7258 9.56565C27.4557 9.857 27.1717 10.1361 26.8754 10.4031C26.8675 10.41 26.8596 10.417 26.8518 10.424C26.7652 10.5016 26.6778 10.5775 26.5896 10.6517C26.3064 10.8924 26.0144 11.1192 25.7147 11.3321C25.6281 11.394 25.5407 11.4542 25.4524 11.5135C25.1675 11.7054 24.8765 11.886 24.5784 12.0526C24.4919 12.1023 24.4045 12.1503 24.3162 12.1965C24.0304 12.3501 23.7385 12.4914 23.4422 12.6213C23.3556 12.6597 23.2682 12.6972 23.18 12.7339C22.8924 12.8516 22.6005 12.9598 22.305 13.0566C22.2176 13.0863 22.1302 13.1142 22.0428 13.1404C21.7736 13.2224 21.5027 13.2956 21.2291 13.3593C21.209 13.3645 21.1889 13.3689 21.1688 13.3733C21.0814 13.3933 20.994 13.4125 20.9066 13.43C20.7536 13.4622 20.6007 13.491 20.4469 13.5155C20.3088 13.5399 20.1707 13.5608 20.0317 13.5783C19.9443 13.5913 19.8569 13.6018 19.7695 13.6114C19.4802 13.6446 19.1882 13.6672 18.8954 13.6786C18.808 13.6829 18.7206 13.6856 18.6332 13.6873C18.5415 13.6899 18.4506 13.6908 18.3588 13.6908C18.1586 13.6908 17.9585 13.6856 17.7583 13.676C17.6709 13.6725 17.5835 13.6672 17.4961 13.6611C17.2033 13.6411 16.9114 13.6105 16.6221 13.5704C16.5347 13.5582 16.4464 13.5451 16.3599 13.5312C16.0653 13.4832 15.7743 13.4256 15.485 13.3576C15.3967 13.3375 15.3093 13.3157 15.2228 13.293C14.9282 13.218 14.6372 13.1316 14.3487 13.0348C14.2605 13.006 14.173 12.9755 14.0865 12.9432C13.7902 12.8377 13.4992 12.7208 13.2125 12.5917C13.1242 12.5533 13.0368 12.5132 12.9503 12.4713C12.6531 12.3317 12.3612 12.18 12.0754 12.0168C11.988 11.9662 11.9006 11.9156 11.8132 11.8624C11.5151 11.6827 11.2232 11.4908 10.9391 11.2858C10.8509 11.223 10.7634 11.1585 10.6769 11.0922C10.4986 10.957 10.3229 10.8165 10.1508 10.67C10.1193 10.6447 10.0869 10.6177 10.0555 10.5889C10.0301 10.5688 10.0057 10.547 9.98031 10.5252C9.92001 10.4729 9.86057 10.4196 9.80201 10.3664C9.75307 10.3219 9.70412 10.2775 9.65605 10.2312C9.61672 10.1955 9.57826 10.1588 9.5398 10.1213C9.32129 9.9137 9.11065 9.69737 8.90962 9.47493C8.87641 9.44004 8.84495 9.40515 8.81435 9.36939C8.76366 9.31356 8.71384 9.25686 8.66577 9.20016C8.57662 9.09723 8.48921 8.99255 8.40356 8.887C8.26371 8.71428 8.12824 8.5372 7.99801 8.35751C7.8433 8.14641 7.69472 7.93008 7.554 7.71026C7.54438 7.69717 7.53652 7.68409 7.52865 7.67101C7.4832 7.60035 7.43775 7.52882 7.39493 7.45642C7.35122 7.38576 7.3084 7.3151 7.26644 7.24445C7.02871 6.83795 6.81107 6.41837 6.61616 5.98833C6.5375 5.81648 6.46321 5.64289 6.39241 5.46756C6.32511 5.30182 6.2613 5.13521 6.20187 4.96686C6.17652 4.89882 6.15292 4.83078 6.1302 4.76274C5.99123 4.35799 5.87236 3.94626 5.77272 3.52842C5.73951 3.38798 5.70804 3.2458 5.6792 3.10361V2.05684L5.76398 2.04376L5.77272 2.09959L5.85488 2.62123C5.85925 2.64565 5.86275 2.6692 5.86799 2.69363C5.86799 2.69712 5.86886 2.70148 5.86974 2.70497C5.98861 3.38188 6.16079 4.0457 6.38192 4.69034C6.41339 4.7828 6.44573 4.87526 6.47981 4.96686C6.60655 5.31403 6.74814 5.65423 6.90459 5.98833C7.09513 6.39918 7.30665 6.80044 7.53914 7.18862C7.58983 7.27585 7.64315 7.36221 7.69821 7.44769C7.89312 7.75998 8.10202 8.06354 8.32402 8.35751C8.34937 8.39327 8.37646 8.42817 8.40356 8.46306C8.48834 8.57471 8.57574 8.68463 8.66577 8.79279C8.71384 8.85298 8.76366 8.9123 8.81435 8.97074C8.84495 9.00825 8.87728 9.04489 8.90962 9.08152C9.14649 9.35456 9.39559 9.61799 9.65605 9.86922C9.69188 9.90498 9.72772 9.93987 9.76355 9.97389C9.8597 10.0646 9.95672 10.1545 10.0555 10.2417C10.0869 10.2705 10.1184 10.2984 10.1508 10.3263L10.1525 10.328C10.3238 10.4781 10.4986 10.6229 10.6769 10.7616C10.7634 10.8296 10.8509 10.8968 10.9391 10.9613C11.2232 11.1724 11.5142 11.3705 11.8132 11.5554C11.8997 11.6095 11.9871 11.6627 12.0754 11.7133C12.3612 11.8816 12.6531 12.0378 12.9503 12.1817C13.0368 12.2244 13.1242 12.2654 13.2125 12.3056C13.4992 12.4373 13.7911 12.5568 14.0865 12.665C14.1739 12.6972 14.2613 12.7286 14.3487 12.7583C14.6372 12.8577 14.9282 12.9458 15.2228 13.0226C15.3102 13.0462 15.3976 13.068 15.485 13.088C15.7743 13.1587 16.0662 13.2171 16.3599 13.2651C16.4473 13.2799 16.5347 13.2939 16.6221 13.3061C16.9123 13.3471 17.2033 13.3785 17.4961 13.3986C17.5835 13.4047 17.6709 13.4099 17.7583 13.4143C17.9576 13.4239 18.1578 13.4291 18.3588 13.4291C18.4506 13.4291 18.5415 13.4282 18.6332 13.4256C18.7206 13.4239 18.808 13.4212 18.8954 13.4169C19.1524 13.4064 19.4094 13.3872 19.6646 13.3593C19.6996 13.3558 19.7345 13.3523 19.7695 13.348C19.8569 13.3384 19.9443 13.327 20.0317 13.3148C20.1707 13.2965 20.3088 13.2747 20.446 13.2503C22.7517 12.856 24.9202 11.8092 26.7006 10.2085C27.0773 9.87009 27.4321 9.5107 27.7643 9.13299C29.4529 7.21304 30.5594 4.8142 30.9213 2.23916L31.0017 1.8126L31.0139 1.74805L31.2717 1.7969Z" fill="url(#paint68_linear_6465_18630)"/>
<path d="M0.578248 16.7654C0.505704 16.7654 0.447144 16.707 0.447144 16.6346V11.1426C0.447144 11.0702 0.505704 11.0117 0.578248 11.0117C0.650793 11.0117 0.709353 11.0702 0.709353 11.1426V16.6346C0.709353 16.707 0.650793 16.7654 0.578248 16.7654Z" fill="url(#paint69_linear_6465_18630)"/>
<path d="M1.7146 16.7677C1.64206 16.7677 1.5835 16.7092 1.5835 16.6368V9.92967C1.5835 9.85727 1.64206 9.79883 1.7146 9.79883C1.78715 9.79883 1.84571 9.85727 1.84571 9.92967V16.6368C1.84571 16.7092 1.78715 16.7677 1.7146 16.7677Z" fill="url(#paint70_linear_6465_18630)"/>
<path d="M2.85156 16.7652C2.77902 16.7652 2.72046 16.7068 2.72046 16.6344V8.38671C2.72046 8.3143 2.77902 8.25586 2.85156 8.25586C2.92411 8.25586 2.98267 8.3143 2.98267 8.38671V16.6344C2.98267 16.7068 2.92411 16.7652 2.85156 16.7652Z" fill="url(#paint71_linear_6465_18630)"/>
<path d="M3.98792 16.7675C3.91537 16.7675 3.85681 16.7091 3.85681 16.6367V6.26756C3.85681 6.19516 3.91537 6.13672 3.98792 6.13672C4.06046 6.13672 4.11902 6.19516 4.11902 6.26756V16.6367C4.11902 16.7091 4.06046 16.7675 3.98792 16.7675Z" fill="url(#paint72_linear_6465_18630)"/>
<path d="M5.12402 16.7676C5.05148 16.7676 4.99292 16.7092 4.99292 16.6368V10.7383C4.99292 10.6659 5.05148 10.6074 5.12402 10.6074C5.19657 10.6074 5.25513 10.6659 5.25513 10.7383V16.6368C5.25513 16.7092 5.19657 16.7676 5.12402 16.7676Z" fill="url(#paint73_linear_6465_18630)"/>
<path d="M6.26123 16.7667C6.18869 16.7667 6.13013 16.7083 6.13013 16.6359V4.74022C6.13013 4.66782 6.18869 4.60938 6.26123 4.60938C6.33378 4.60938 6.39234 4.66782 6.39234 4.74022V16.6359C6.39234 16.7083 6.33378 16.7667 6.26123 16.7667Z" fill="url(#paint74_linear_6465_18630)"/>
<path d="M7.39746 16.767C7.32492 16.767 7.26636 16.7086 7.26636 16.6362V7.21092C7.26636 7.13852 7.32492 7.08008 7.39746 7.08008C7.47001 7.08008 7.52857 7.13852 7.52857 7.21092V16.6362C7.52857 16.7086 7.47001 16.767 7.39746 16.767Z" fill="url(#paint75_linear_6465_18630)"/>
<path d="M8.66565 5.21875H8.40344V16.461H8.66565V5.21875Z" fill="url(#paint76_linear_6465_18630)"/>
<path d="M9.67078 16.7674C9.59823 16.7674 9.53967 16.709 9.53967 16.6366V10.0664C9.53967 9.99399 9.59823 9.93555 9.67078 9.93555C9.74332 9.93555 9.80188 9.99399 9.80188 10.0664V16.6366C9.80188 16.709 9.74332 16.7674 9.67078 16.7674Z" fill="url(#paint77_linear_6465_18630)"/>
<path d="M10.8079 16.7674C10.7353 16.7674 10.6768 16.709 10.6768 16.6366V5.71092C10.6768 5.63852 10.7353 5.58008 10.8079 5.58008C10.8804 5.58008 10.939 5.63852 10.939 5.71092V16.6366C10.939 16.709 10.8804 16.7674 10.8079 16.7674Z" fill="url(#paint78_linear_6465_18630)"/>
<path d="M11.9441 16.7676C11.8715 16.7676 11.813 16.7092 11.813 16.6368V7.80467C11.813 7.73227 11.8715 7.67383 11.9441 7.67383C12.0166 7.67383 12.0752 7.73227 12.0752 7.80467V16.6368C12.0752 16.7092 12.0166 16.7676 11.9441 16.7676Z" fill="url(#paint79_linear_6465_18630)"/>
<path d="M13.0813 16.768C13.0088 16.768 12.9502 16.7096 12.9502 16.6372V9.27928C12.9502 9.20688 13.0088 9.14844 13.0813 9.14844C13.1538 9.14844 13.2124 9.20688 13.2124 9.27928V16.6372C13.2124 16.7096 13.1538 16.768 13.0813 16.768Z" fill="url(#paint80_linear_6465_18630)"/>
<path d="M14.2177 16.7662C14.1451 16.7662 14.0865 16.7078 14.0865 16.6354V10.4062C14.0865 10.3338 14.1451 10.2754 14.2177 10.2754C14.2902 10.2754 14.3488 10.3338 14.3488 10.4062V16.6354C14.3488 16.7078 14.2902 16.7662 14.2177 16.7662Z" fill="url(#paint81_linear_6465_18630)"/>
<path d="M15.3538 16.7682C15.2812 16.7682 15.2227 16.7097 15.2227 16.6373V11.2988C15.2227 11.2264 15.2812 11.168 15.3538 11.168C15.4263 11.168 15.4849 11.2264 15.4849 11.2988V16.6373C15.4849 16.7097 15.4263 16.7682 15.3538 16.7682Z" fill="url(#paint82_linear_6465_18630)"/>
<path d="M16.4908 16.7678C16.4183 16.7678 16.3597 16.7093 16.3597 16.6369V12.0058C16.3597 11.9334 16.4183 11.875 16.4908 11.875C16.5634 11.875 16.622 11.9334 16.622 12.0058V16.6369C16.622 16.7093 16.5634 16.7678 16.4908 16.7678Z" fill="url(#paint83_linear_6465_18630)"/>
<path d="M17.6271 16.7675C17.5545 16.7675 17.496 16.709 17.496 16.6366V12.5586C17.496 12.4862 17.5545 12.4277 17.6271 12.4277C17.6996 12.4277 17.7582 12.4862 17.7582 12.5586V16.6366C17.7582 16.709 17.6996 16.7675 17.6271 16.7675Z" fill="url(#paint84_linear_6465_18630)"/>
<path d="M18.7643 16.7661C18.6917 16.7661 18.6332 16.7076 18.6332 16.6352V12.9785C18.6332 12.9061 18.6917 12.8477 18.7643 12.8477C18.8368 12.8477 18.8954 12.9061 18.8954 12.9785V16.6352C18.8954 16.7076 18.8368 16.7661 18.7643 16.7661Z" fill="url(#paint85_linear_6465_18630)"/>
<path d="M19.9005 16.767C19.828 16.767 19.7694 16.7085 19.7694 16.6361V13.2812C19.7694 13.2088 19.828 13.1504 19.9005 13.1504C19.9731 13.1504 20.0316 13.2088 20.0316 13.2812V16.6361C20.0316 16.7085 19.9731 16.767 19.9005 16.767Z" fill="url(#paint86_linear_6465_18630)"/>
<path d="M21.0376 16.7677C20.9651 16.7677 20.9065 16.7092 20.9065 16.6368V13.2715C20.9065 13.1991 20.9651 13.1406 21.0376 13.1406C21.1101 13.1406 21.1687 13.1991 21.1687 13.2715V16.6368C21.1687 16.7092 21.1101 16.7677 21.0376 16.7677Z" fill="url(#paint87_linear_6465_18630)"/>
<path d="M22.1738 16.7653C22.1013 16.7653 22.0427 16.7068 22.0427 16.6344V12.9629C22.0427 12.8905 22.1013 12.832 22.1738 12.832C22.2464 12.832 22.3049 12.8905 22.3049 12.9629V16.6344C22.3049 16.7068 22.2464 16.7653 22.1738 16.7653Z" fill="url(#paint88_linear_6465_18630)"/>
<path d="M23.311 16.7652C23.2385 16.7652 23.1799 16.7067 23.1799 16.6343V12.5371C23.1799 12.4647 23.2385 12.4062 23.311 12.4062C23.3836 12.4062 23.4421 12.4647 23.4421 12.5371V16.6343C23.4421 16.7067 23.3836 16.7652 23.311 16.7652Z" fill="url(#paint89_linear_6465_18630)"/>
<path d="M24.4473 16.7655C24.3747 16.7655 24.3162 16.7071 24.3162 16.6347V11.9765C24.3162 11.9041 24.3747 11.8457 24.4473 11.8457C24.5198 11.8457 24.5784 11.9041 24.5784 11.9765V16.6347C24.5784 16.7071 24.5198 16.7655 24.4473 16.7655Z" fill="url(#paint90_linear_6465_18630)"/>
<path d="M25.5834 16.7672C25.5108 16.7672 25.4523 16.7088 25.4523 16.6364V11.2656C25.4523 11.1932 25.5108 11.1348 25.5834 11.1348C25.6559 11.1348 25.7145 11.1932 25.7145 11.2656V16.6364C25.7145 16.7088 25.6559 16.7672 25.5834 16.7672Z" fill="url(#paint91_linear_6465_18630)"/>
<path d="M26.7206 16.7682C26.648 16.7682 26.5895 16.7097 26.5895 16.6373V10.3672C26.5895 10.2948 26.648 10.2363 26.7206 10.2363C26.7931 10.2363 26.8517 10.2948 26.8517 10.3672V16.6373C26.8517 16.7097 26.7931 16.7682 26.7206 16.7682Z" fill="url(#paint92_linear_6465_18630)"/>
<path d="M27.8568 16.7666C27.7843 16.7666 27.7257 16.7081 27.7257 16.6357V9.2246C27.7257 9.15219 27.7843 9.09375 27.8568 9.09375C27.9294 9.09375 27.9879 9.15219 27.9879 9.2246V16.6357C27.9879 16.7081 27.9294 16.7666 27.8568 16.7666Z" fill="url(#paint93_linear_6465_18630)"/>
<path d="M28.994 16.768C28.9215 16.768 28.8629 16.7095 28.8629 16.6371V7.73436C28.8629 7.66196 28.9215 7.60352 28.994 7.60352C29.0666 7.60352 29.1251 7.66196 29.1251 7.73436V16.6371C29.1251 16.7095 29.0666 16.768 28.994 16.768Z" fill="url(#paint94_linear_6465_18630)"/>
<path d="M30.1301 16.7679C30.0576 16.7679 29.999 16.7095 29.999 16.6371V5.60155C29.999 5.52915 30.0576 5.4707 30.1301 5.4707C30.2027 5.4707 30.2612 5.52915 30.2612 5.60155V16.6371C30.2612 16.7095 30.2027 16.7679 30.1301 16.7679Z" fill="url(#paint95_linear_6465_18630)"/>
<path d="M31.2672 16.7679C31.1947 16.7679 31.1361 16.7094 31.1361 16.637V10.0215C31.1361 9.94907 31.1947 9.89062 31.2672 9.89062C31.3398 9.89062 31.3983 9.94907 31.3983 10.0215V16.637C31.3983 16.7094 31.3398 16.7679 31.2672 16.7679Z" fill="url(#paint96_linear_6465_18630)"/>
<path d="M32.4036 16.7657C32.331 16.7657 32.2725 16.7072 32.2725 16.6348V5.39256C32.2725 5.32016 32.331 5.26172 32.4036 5.26172C32.4761 5.26172 32.5347 5.32016 32.5347 5.39256V16.6348C32.5347 16.7072 32.4761 16.7657 32.4036 16.7657Z" fill="url(#paint97_linear_6465_18630)"/>
<path d="M33.5408 16.767C33.4682 16.767 33.4097 16.7086 33.4097 16.6362V7.12889C33.4097 7.05649 33.4682 6.99805 33.5408 6.99805C33.6133 6.99805 33.6719 7.05649 33.6719 7.12889V16.6362C33.6719 16.7086 33.6133 16.767 33.5408 16.767Z" fill="url(#paint98_linear_6465_18630)"/>
<path d="M34.8079 4.60547H34.5457V16.4514H34.8079V4.60547Z" fill="url(#paint99_linear_6465_18630)"/>
<path d="M36.9502 16.7666C36.8777 16.7666 36.8191 16.7082 36.8191 16.6358V6.40624C36.8191 6.33384 36.8777 6.27539 36.9502 6.27539C37.0227 6.27539 37.0813 6.33384 37.0813 6.40624V16.6358C37.0813 16.7082 37.0227 16.7666 36.9502 16.7666Z" fill="url(#paint100_linear_6465_18630)"/>
<path d="M38.0865 16.7669C38.014 16.7669 37.9554 16.7085 37.9554 16.6361V8.48436C37.9554 8.41196 38.014 8.35352 38.0865 8.35352C38.1591 8.35352 38.2177 8.41196 38.2177 8.48436V16.6361C38.2177 16.7085 38.1591 16.7669 38.0865 16.7669Z" fill="url(#paint101_linear_6465_18630)"/>
<path d="M39.2235 16.7667C39.151 16.7667 39.0924 16.7082 39.0924 16.6358V10.0019C39.0924 9.92954 39.151 9.87109 39.2235 9.87109C39.2961 9.87109 39.3546 9.92954 39.3546 10.0019V16.6358C39.3546 16.7082 39.2961 16.7667 39.2235 16.7667Z" fill="url(#paint102_linear_6465_18630)"/>
<path d="M40.3599 16.7686C40.2873 16.7686 40.2288 16.7102 40.2288 16.6378V11.2051C40.2288 11.1327 40.2873 11.0742 40.3599 11.0742C40.4324 11.0742 40.491 11.1327 40.491 11.2051V16.6378C40.491 16.7102 40.4324 16.7686 40.3599 16.7686Z" fill="url(#paint103_linear_6465_18630)"/>
<path d="M40.1588 23.5657H0.716309C0.691836 23.5657 0.672607 23.5466 0.672607 23.5221C0.672607 23.4977 0.691836 23.4785 0.716309 23.4785H40.1588C40.1833 23.4785 40.2025 23.4977 40.2025 23.5221C40.2025 23.5466 40.1833 23.5657 40.1588 23.5657Z" fill="url(#paint104_linear_6465_18630)"/>
<path d="M22.4177 25.2767H8.85974C8.83527 25.2767 8.81604 25.2575 8.81604 25.2331C8.81604 25.2086 8.83527 25.1895 8.85974 25.1895H22.4177C22.4422 25.1895 22.4614 25.2086 22.4614 25.2331C22.4614 25.2575 22.4422 25.2767 22.4177 25.2767Z" fill="url(#paint105_linear_6465_18630)"/>
<path d="M30.1983 25.2767H24.9165C24.892 25.2767 24.8728 25.2575 24.8728 25.2331C24.8728 25.2086 24.892 25.1895 24.9165 25.1895H30.1983C30.2228 25.1895 30.242 25.2086 30.242 25.2331C30.242 25.2575 30.2228 25.2767 30.1983 25.2767Z" fill="url(#paint106_linear_6465_18630)"/>
<path d="M27.1996 4.15731C27.0737 3.88864 26.8054 3.7168 26.5065 3.7168C26.2076 3.7168 25.9392 3.88864 25.8134 4.15644C25.4812 4.11544 25.2015 4.37539 25.2015 4.69814C25.2015 4.70861 25.2015 4.71908 25.2033 4.73478C25.205 4.75746 25.2243 4.7749 25.247 4.7749H27.7712C27.7939 4.7749 27.8132 4.75222 27.8149 4.72954C27.8158 4.71908 27.8166 4.70861 27.8166 4.69814C27.8166 4.37364 27.5273 4.1137 27.1996 4.15731ZM25.2889 4.68767C25.2951 4.43994 25.4987 4.24018 25.7487 4.24018C25.7758 4.24018 25.8029 4.24193 25.8317 4.24803C25.8518 4.25152 25.8728 4.24105 25.8807 4.22186C25.9855 3.96802 26.2312 3.80403 26.5065 3.80403C26.7818 3.80403 27.0274 3.96802 27.1323 4.22186C27.1401 4.24193 27.1611 4.25239 27.1812 4.24803C27.2109 4.2428 27.2407 4.24018 27.2695 4.24018C27.5195 4.24018 27.7231 4.43994 27.7284 4.68767H25.2889Z" fill="url(#paint107_linear_6465_18630)"/>
<path d="M16.1362 1.9578C16.0907 1.9578 16.0453 1.96129 15.9989 1.96827C15.7953 1.51293 15.346 1.2207 14.8443 1.2207C14.3426 1.2207 13.8943 1.51293 13.6906 1.9674C13.646 1.96129 13.6041 1.9578 13.5621 1.9578C13.0683 1.9578 12.6671 2.35819 12.6671 2.85017C12.6671 2.86674 12.668 2.88245 12.6697 2.89815V2.90949C12.6715 2.93304 12.6907 2.95049 12.7134 2.95049H16.984C17.0067 2.95049 17.0259 2.93304 17.0277 2.91036V2.89989C17.0294 2.88419 17.0303 2.86762 17.0303 2.85017C17.0303 2.35819 16.6291 1.9578 16.1362 1.9578ZM16.9429 2.86326H12.7554C12.7545 2.85889 12.7545 2.85453 12.7545 2.85017C12.7545 2.40617 13.1172 2.04503 13.5621 2.04503C13.6093 2.04503 13.6574 2.04939 13.709 2.05899C13.7291 2.06335 13.75 2.05201 13.7579 2.03282C13.9406 1.59231 14.3671 1.30793 14.8443 1.30793C15.3216 1.30793 15.749 1.59318 15.9316 2.03369C15.9395 2.05288 15.9596 2.06422 15.9806 2.05986C16.033 2.05027 16.0846 2.04503 16.1362 2.04503C16.581 2.04503 16.9429 2.40617 16.9429 2.85017V2.86326Z" fill="url(#paint108_linear_6465_18630)"/>
<path d="M20.3541 6.27278H16.4952C16.4708 6.27278 16.4515 6.25359 16.4515 6.22916C16.4515 6.20474 16.4708 6.18555 16.4952 6.18555H20.3541C20.3786 6.18555 20.3978 6.20474 20.3978 6.22916C20.3978 6.25359 20.3786 6.27278 20.3541 6.27278Z" fill="url(#paint109_linear_6465_18630)"/>
<path d="M22.4064 6.27278H21.0525C21.028 6.27278 21.0088 6.25359 21.0088 6.22916C21.0088 6.20474 21.028 6.18555 21.0525 6.18555H22.4064C22.4308 6.18555 22.4501 6.20474 22.4501 6.22916C22.4501 6.25359 22.4308 6.27278 22.4064 6.27278Z" fill="url(#paint110_linear_6465_18630)"/>
<path d="M21.0858 7.13411H18.7067C18.6822 7.13411 18.663 7.11491 18.663 7.09049C18.663 7.06607 18.6822 7.04688 18.7067 7.04688H21.0858C21.1103 7.04688 21.1295 7.06607 21.1295 7.09049C21.1295 7.11491 21.1103 7.13411 21.0858 7.13411Z" fill="url(#paint111_linear_6465_18630)"/>
<path d="M24.2287 2.73957H22.5785C22.554 2.73957 22.5348 2.72038 22.5348 2.69596C22.5348 2.67153 22.554 2.65234 22.5785 2.65234H24.2287C24.2531 2.65234 24.2724 2.67153 24.2724 2.69596C24.2724 2.72038 24.2531 2.73957 24.2287 2.73957Z" fill="url(#paint112_linear_6465_18630)"/>
</g>
<defs>
<linearGradient id="paint0_linear_6465_18630" x1="0.0241699" y1="16.9519" x2="8.57308" y2="16.9519" gradientUnits="userSpaceOnUse">
<stop stop-color="#EF8081"/>
<stop offset="0.619792" stop-color="#F63132"/>
<stop offset="1" stop-color="#9F1689"/>
</linearGradient>
<linearGradient id="paint1_linear_6465_18630" x1="10.495" y1="16.9519" x2="34.6148" y2="16.9519" gradientUnits="userSpaceOnUse">
<stop stop-color="#EF8081"/>
<stop offset="0.619792" stop-color="#F63132"/>
<stop offset="1" stop-color="#9F1689"/>
</linearGradient>
<linearGradient id="paint2_linear_6465_18630" x1="36.5367" y1="16.9519" x2="40.8518" y2="16.9519" gradientUnits="userSpaceOnUse">
<stop stop-color="#EF8081"/>
<stop offset="0.619792" stop-color="#F63132"/>
<stop offset="1" stop-color="#9F1689"/>
</linearGradient>
<linearGradient id="paint3_linear_6465_18630" x1="8.75134" y1="16.5868" x2="10.3097" y2="16.5868" gradientUnits="userSpaceOnUse">
<stop stop-color="#EF8081"/>
<stop offset="0.619792" stop-color="#F63132"/>
<stop offset="1" stop-color="#9F1689"/>
</linearGradient>
<linearGradient id="paint4_linear_6465_18630" x1="8.61926" y1="21.6376" x2="10.4399" y2="21.6376" gradientUnits="userSpaceOnUse">
<stop stop-color="#EF8081"/>
<stop offset="0.619792" stop-color="#F63132"/>
<stop offset="1" stop-color="#9F1689"/>
</linearGradient>
<linearGradient id="paint5_linear_6465_18630" x1="8.47253" y1="22.7586" x2="10.5877" y2="22.7586" gradientUnits="userSpaceOnUse">
<stop stop-color="#EF8081"/>
<stop offset="0.619792" stop-color="#F63132"/>
<stop offset="1" stop-color="#9F1689"/>
</linearGradient>
<linearGradient id="paint6_linear_6465_18630" x1="8.90955" y1="9.86672" x2="10.1507" y2="9.86672" gradientUnits="userSpaceOnUse">
<stop stop-color="#EF8081"/>
<stop offset="0.619792" stop-color="#F63132"/>
<stop offset="1" stop-color="#9F1689"/>
</linearGradient>
<linearGradient id="paint7_linear_6465_18630" x1="9.03894" y1="6.206" x2="10.0205" y2="6.206" gradientUnits="userSpaceOnUse">
<stop stop-color="#EF8081"/>
<stop offset="0.619792" stop-color="#F63132"/>
<stop offset="1" stop-color="#9F1689"/>
</linearGradient>
<linearGradient id="paint8_linear_6465_18630" x1="9.12366" y1="3.10638" x2="9.93651" y2="3.10638" gradientUnits="userSpaceOnUse">
<stop stop-color="#EF8081"/>
<stop offset="0.619792" stop-color="#F63132"/>
<stop offset="1" stop-color="#9F1689"/>
</linearGradient>
<linearGradient id="paint9_linear_6465_18630" x1="8.98291" y1="1.48353" x2="10.0781" y2="1.48353" gradientUnits="userSpaceOnUse">
<stop stop-color="#EF8081"/>
<stop offset="0.619792" stop-color="#F63132"/>
<stop offset="1" stop-color="#9F1689"/>
</linearGradient>
<linearGradient id="paint10_linear_6465_18630" x1="9.12622" y1="1.15218" x2="9.9347" y2="1.15218" gradientUnits="userSpaceOnUse">
<stop stop-color="#EF8081"/>
<stop offset="0.619792" stop-color="#F63132"/>
<stop offset="1" stop-color="#9F1689"/>
</linearGradient>
<linearGradient id="paint11_linear_6465_18630" x1="9.38684" y1="0.840854" x2="9.67352" y2="0.840854" gradientUnits="userSpaceOnUse">
<stop stop-color="#EF8081"/>
<stop offset="0.619792" stop-color="#F63132"/>
<stop offset="1" stop-color="#9F1689"/>
</linearGradient>
<linearGradient id="paint12_linear_6465_18630" x1="4.58655" y1="14.1343" x2="6.14495" y2="14.1343" gradientUnits="userSpaceOnUse">
<stop stop-color="#EF8081"/>
<stop offset="0.619792" stop-color="#F63132"/>
<stop offset="1" stop-color="#9F1689"/>
</linearGradient>
<linearGradient id="paint13_linear_6465_18630" x1="4.58655" y1="19.404" x2="6.14495" y2="19.404" gradientUnits="userSpaceOnUse">
<stop stop-color="#EF8081"/>
<stop offset="0.619792" stop-color="#F63132"/>
<stop offset="1" stop-color="#9F1689"/>
</linearGradient>
<linearGradient id="paint14_linear_6465_18630" x1="4.4563" y1="21.6376" x2="6.27691" y2="21.6376" gradientUnits="userSpaceOnUse">
<stop stop-color="#EF8081"/>
<stop offset="0.619792" stop-color="#F63132"/>
<stop offset="1" stop-color="#9F1689"/>
</linearGradient>
<linearGradient id="paint15_linear_6465_18630" x1="4.30859" y1="22.7586" x2="6.42463" y2="22.7586" gradientUnits="userSpaceOnUse">
<stop stop-color="#EF8081"/>
<stop offset="0.619792" stop-color="#F63132"/>
<stop offset="1" stop-color="#9F1689"/>
</linearGradient>
<linearGradient id="paint16_linear_6465_18630" x1="4.74561" y1="9.86672" x2="5.98673" y2="9.86672" gradientUnits="userSpaceOnUse">
<stop stop-color="#EF8081"/>
<stop offset="0.619792" stop-color="#F63132"/>
<stop offset="1" stop-color="#9F1689"/>
</linearGradient>
<linearGradient id="paint17_linear_6465_18630" x1="4.87585" y1="6.206" x2="5.85739" y2="6.206" gradientUnits="userSpaceOnUse">
<stop stop-color="#EF8081"/>
<stop offset="0.619792" stop-color="#F63132"/>
<stop offset="1" stop-color="#9F1689"/>
</linearGradient>
<linearGradient id="paint18_linear_6465_18630" x1="4.95984" y1="3.10638" x2="5.77269" y2="3.10638" gradientUnits="userSpaceOnUse">
<stop stop-color="#EF8081"/>
<stop offset="0.619792" stop-color="#F63132"/>
<stop offset="1" stop-color="#9F1689"/>
</linearGradient>
<linearGradient id="paint19_linear_6465_18630" x1="4.81909" y1="1.48353" x2="5.91425" y2="1.48353" gradientUnits="userSpaceOnUse">
<stop stop-color="#EF8081"/>
<stop offset="0.619792" stop-color="#F63132"/>
<stop offset="1" stop-color="#9F1689"/>
</linearGradient>
<linearGradient id="paint20_linear_6465_18630" x1="4.96143" y1="1.15218" x2="5.76991" y2="1.15218" gradientUnits="userSpaceOnUse">
<stop stop-color="#EF8081"/>
<stop offset="0.619792" stop-color="#F63132"/>
<stop offset="1" stop-color="#9F1689"/>
</linearGradient>
<linearGradient id="paint21_linear_6465_18630" x1="5.2229" y1="0.840854" x2="5.50958" y2="0.840854" gradientUnits="userSpaceOnUse">
<stop stop-color="#EF8081"/>
<stop offset="0.619792" stop-color="#F63132"/>
<stop offset="1" stop-color="#9F1689"/>
</linearGradient>
<linearGradient id="paint22_linear_6465_18630" x1="6.24023" y1="13.1863" x2="8.65693" y2="13.1863" gradientUnits="userSpaceOnUse">
<stop stop-color="#EF8081"/>
<stop offset="0.619792" stop-color="#F63132"/>
<stop offset="1" stop-color="#9F1689"/>
</linearGradient>
<linearGradient id="paint23_linear_6465_18630" x1="6.14673" y1="19.4523" x2="8.75309" y2="19.4523" gradientUnits="userSpaceOnUse">
<stop stop-color="#EF8081"/>
<stop offset="0.619792" stop-color="#F63132"/>
<stop offset="1" stop-color="#9F1689"/>
</linearGradient>
<linearGradient id="paint24_linear_6465_18630" x1="6.37134" y1="21.7598" x2="8.52495" y2="21.7598" gradientUnits="userSpaceOnUse">
<stop stop-color="#EF8081"/>
<stop offset="0.619792" stop-color="#F63132"/>
<stop offset="1" stop-color="#9F1689"/>
</linearGradient>
<linearGradient id="paint25_linear_6465_18630" x1="6.08203" y1="9.02212" x2="8.81513" y2="9.02212" gradientUnits="userSpaceOnUse">
<stop stop-color="#EF8081"/>
<stop offset="0.619792" stop-color="#F63132"/>
<stop offset="1" stop-color="#9F1689"/>
</linearGradient>
<linearGradient id="paint26_linear_6465_18630" x1="5.9519" y1="5.47753" x2="8.94459" y2="5.47753" gradientUnits="userSpaceOnUse">
<stop stop-color="#EF8081"/>
<stop offset="0.619792" stop-color="#F63132"/>
<stop offset="1" stop-color="#9F1689"/>
</linearGradient>
<linearGradient id="paint27_linear_6465_18630" x1="5.86792" y1="2.22651" x2="9.0293" y2="2.22651" gradientUnits="userSpaceOnUse">
<stop stop-color="#EF8081"/>
<stop offset="0.619792" stop-color="#F63132"/>
<stop offset="1" stop-color="#9F1689"/>
</linearGradient>
<linearGradient id="paint28_linear_6465_18630" x1="6.36084" y1="20.584" x2="8.52495" y2="20.584" gradientUnits="userSpaceOnUse">
<stop stop-color="#EF8081"/>
<stop offset="0.619792" stop-color="#F63132"/>
<stop offset="1" stop-color="#9F1689"/>
</linearGradient>
<linearGradient id="paint29_linear_6465_18630" x1="6.37134" y1="20.584" x2="8.53807" y2="20.584" gradientUnits="userSpaceOnUse">
<stop stop-color="#EF8081"/>
<stop offset="0.619792" stop-color="#F63132"/>
<stop offset="1" stop-color="#9F1689"/>
</linearGradient>
<linearGradient id="paint30_linear_6465_18630" x1="6.36426" y1="18.3555" x2="8.53623" y2="18.3555" gradientUnits="userSpaceOnUse">
<stop stop-color="#EF8081"/>
<stop offset="0.619792" stop-color="#F63132"/>
<stop offset="1" stop-color="#9F1689"/>
</linearGradient>
<linearGradient id="paint31_linear_6465_18630" x1="6.36267" y1="18.3555" x2="8.53552" y2="18.3555" gradientUnits="userSpaceOnUse">
<stop stop-color="#EF8081"/>
<stop offset="0.619792" stop-color="#F63132"/>
<stop offset="1" stop-color="#9F1689"/>
</linearGradient>
<linearGradient id="paint32_linear_6465_18630" x1="34.7931" y1="16.5868" x2="36.3515" y2="16.5868" gradientUnits="userSpaceOnUse">
<stop stop-color="#EF8081"/>
<stop offset="0.619792" stop-color="#F63132"/>
<stop offset="1" stop-color="#9F1689"/>
</linearGradient>
<linearGradient id="paint33_linear_6465_18630" x1="34.6611" y1="21.6376" x2="36.4817" y2="21.6376" gradientUnits="userSpaceOnUse">
<stop stop-color="#EF8081"/>
<stop offset="0.619792" stop-color="#F63132"/>
<stop offset="1" stop-color="#9F1689"/>
</linearGradient>
<linearGradient id="paint34_linear_6465_18630" x1="34.5143" y1="22.7586" x2="36.6294" y2="22.7586" gradientUnits="userSpaceOnUse">
<stop stop-color="#EF8081"/>
<stop offset="0.619792" stop-color="#F63132"/>
<stop offset="1" stop-color="#9F1689"/>
</linearGradient>
<linearGradient id="paint35_linear_6465_18630" x1="34.9513" y1="9.86672" x2="36.1924" y2="9.86672" gradientUnits="userSpaceOnUse">
<stop stop-color="#EF8081"/>
<stop offset="0.619792" stop-color="#F63132"/>
<stop offset="1" stop-color="#9F1689"/>
</linearGradient>
<linearGradient id="paint36_linear_6465_18630" x1="35.0807" y1="6.206" x2="36.0622" y2="6.206" gradientUnits="userSpaceOnUse">
<stop stop-color="#EF8081"/>
<stop offset="0.619792" stop-color="#F63132"/>
<stop offset="1" stop-color="#9F1689"/>
</linearGradient>
<linearGradient id="paint37_linear_6465_18630" x1="35.1655" y1="3.10638" x2="35.9784" y2="3.10638" gradientUnits="userSpaceOnUse">
<stop stop-color="#EF8081"/>
<stop offset="0.619792" stop-color="#F63132"/>
<stop offset="1" stop-color="#9F1689"/>
</linearGradient>
<linearGradient id="paint38_linear_6465_18630" x1="35.0248" y1="1.48353" x2="36.1199" y2="1.48353" gradientUnits="userSpaceOnUse">
<stop stop-color="#EF8081"/>
<stop offset="0.619792" stop-color="#F63132"/>
<stop offset="1" stop-color="#9F1689"/>
</linearGradient>
<linearGradient id="paint39_linear_6465_18630" x1="35.1681" y1="1.15218" x2="35.9766" y2="1.15218" gradientUnits="userSpaceOnUse">
<stop stop-color="#EF8081"/>
<stop offset="0.619792" stop-color="#F63132"/>
<stop offset="1" stop-color="#9F1689"/>
</linearGradient>
<linearGradient id="paint40_linear_6465_18630" x1="35.4286" y1="0.840854" x2="35.7153" y2="0.840854" gradientUnits="userSpaceOnUse">
<stop stop-color="#EF8081"/>
<stop offset="0.619792" stop-color="#F63132"/>
<stop offset="1" stop-color="#9F1689"/>
</linearGradient>
<linearGradient id="paint41_linear_6465_18630" x1="30.6284" y1="14.1343" x2="32.1868" y2="14.1343" gradientUnits="userSpaceOnUse">
<stop stop-color="#EF8081"/>
<stop offset="0.619792" stop-color="#F63132"/>
<stop offset="1" stop-color="#9F1689"/>
</linearGradient>
<linearGradient id="paint42_linear_6465_18630" x1="30.6284" y1="19.404" x2="32.1868" y2="19.404" gradientUnits="userSpaceOnUse">
<stop stop-color="#EF8081"/>
<stop offset="0.619792" stop-color="#F63132"/>
<stop offset="1" stop-color="#9F1689"/>
</linearGradient>
<linearGradient id="paint43_linear_6465_18630" x1="30.4982" y1="21.6376" x2="32.3188" y2="21.6376" gradientUnits="userSpaceOnUse">
<stop stop-color="#EF8081"/>
<stop offset="0.619792" stop-color="#F63132"/>
<stop offset="1" stop-color="#9F1689"/>
</linearGradient>
<linearGradient id="paint44_linear_6465_18630" x1="30.3505" y1="22.7586" x2="32.4665" y2="22.7586" gradientUnits="userSpaceOnUse">
<stop stop-color="#EF8081"/>
<stop offset="0.619792" stop-color="#F63132"/>
<stop offset="1" stop-color="#9F1689"/>
</linearGradient>
<linearGradient id="paint45_linear_6465_18630" x1="30.7874" y1="9.86672" x2="32.0285" y2="9.86672" gradientUnits="userSpaceOnUse">
<stop stop-color="#EF8081"/>
<stop offset="0.619792" stop-color="#F63132"/>
<stop offset="1" stop-color="#9F1689"/>
</linearGradient>
<linearGradient id="paint46_linear_6465_18630" x1="30.9176" y1="6.206" x2="31.8991" y2="6.206" gradientUnits="userSpaceOnUse">
<stop stop-color="#EF8081"/>
<stop offset="0.619792" stop-color="#F63132"/>
<stop offset="1" stop-color="#9F1689"/>
</linearGradient>
<linearGradient id="paint47_linear_6465_18630" x1="31.0016" y1="3.10638" x2="31.8144" y2="3.10638" gradientUnits="userSpaceOnUse">
<stop stop-color="#EF8081"/>
<stop offset="0.619792" stop-color="#F63132"/>
<stop offset="1" stop-color="#9F1689"/>
</linearGradient>
<linearGradient id="paint48_linear_6465_18630" x1="30.8607" y1="1.48353" x2="31.9559" y2="1.48353" gradientUnits="userSpaceOnUse">
<stop stop-color="#EF8081"/>
<stop offset="0.619792" stop-color="#F63132"/>
<stop offset="1" stop-color="#9F1689"/>
</linearGradient>
<linearGradient id="paint49_linear_6465_18630" x1="31.0042" y1="1.15218" x2="31.8126" y2="1.15218" gradientUnits="userSpaceOnUse">
<stop stop-color="#EF8081"/>
<stop offset="0.619792" stop-color="#F63132"/>
<stop offset="1" stop-color="#9F1689"/>
</linearGradient>
<linearGradient id="paint50_linear_6465_18630" x1="31.2648" y1="0.840854" x2="31.5515" y2="0.840854" gradientUnits="userSpaceOnUse">
<stop stop-color="#EF8081"/>
<stop offset="0.619792" stop-color="#F63132"/>
<stop offset="1" stop-color="#9F1689"/>
</linearGradient>
<linearGradient id="paint51_linear_6465_18630" x1="32.282" y1="13.1863" x2="34.6987" y2="13.1863" gradientUnits="userSpaceOnUse">
<stop stop-color="#EF8081"/>
<stop offset="0.619792" stop-color="#F63132"/>
<stop offset="1" stop-color="#9F1689"/>
</linearGradient>
<linearGradient id="paint52_linear_6465_18630" x1="32.1886" y1="19.4523" x2="34.795" y2="19.4523" gradientUnits="userSpaceOnUse">
<stop stop-color="#EF8081"/>
<stop offset="0.619792" stop-color="#F63132"/>
<stop offset="1" stop-color="#9F1689"/>
</linearGradient>
<linearGradient id="paint53_linear_6465_18630" x1="32.4131" y1="21.7598" x2="34.5667" y2="21.7598" gradientUnits="userSpaceOnUse">
<stop stop-color="#EF8081"/>
<stop offset="0.619792" stop-color="#F63132"/>
<stop offset="1" stop-color="#9F1689"/>
</linearGradient>
<linearGradient id="paint54_linear_6465_18630" x1="32.1239" y1="9.02212" x2="34.857" y2="9.02212" gradientUnits="userSpaceOnUse">
<stop stop-color="#EF8081"/>
<stop offset="0.619792" stop-color="#F63132"/>
<stop offset="1" stop-color="#9F1689"/>
</linearGradient>
<linearGradient id="paint55_linear_6465_18630" x1="31.9937" y1="5.47753" x2="34.9863" y2="5.47753" gradientUnits="userSpaceOnUse">
<stop stop-color="#EF8081"/>
<stop offset="0.619792" stop-color="#F63132"/>
<stop offset="1" stop-color="#9F1689"/>
</linearGradient>
<linearGradient id="paint56_linear_6465_18630" x1="31.9098" y1="2.22651" x2="35.0712" y2="2.22651" gradientUnits="userSpaceOnUse">
<stop stop-color="#EF8081"/>
<stop offset="0.619792" stop-color="#F63132"/>
<stop offset="1" stop-color="#9F1689"/>
</linearGradient>
<linearGradient id="paint57_linear_6465_18630" x1="32.4026" y1="20.584" x2="34.5667" y2="20.584" gradientUnits="userSpaceOnUse">
<stop stop-color="#EF8081"/>
<stop offset="0.619792" stop-color="#F63132"/>
<stop offset="1" stop-color="#9F1689"/>
</linearGradient>
<linearGradient id="paint58_linear_6465_18630" x1="32.4131" y1="20.584" x2="34.5798" y2="20.584" gradientUnits="userSpaceOnUse">
<stop stop-color="#EF8081"/>
<stop offset="0.619792" stop-color="#F63132"/>
<stop offset="1" stop-color="#9F1689"/>
</linearGradient>
<linearGradient id="paint59_linear_6465_18630" x1="32.4062" y1="18.3555" x2="34.5782" y2="18.3555" gradientUnits="userSpaceOnUse">
<stop stop-color="#EF8081"/>
<stop offset="0.619792" stop-color="#F63132"/>
<stop offset="1" stop-color="#9F1689"/>
</linearGradient>
<linearGradient id="paint60_linear_6465_18630" x1="32.4053" y1="18.3555" x2="34.5772" y2="18.3555" gradientUnits="userSpaceOnUse">
<stop stop-color="#EF8081"/>
<stop offset="0.619792" stop-color="#F63132"/>
<stop offset="1" stop-color="#9F1689"/>
</linearGradient>
<linearGradient id="paint61_linear_6465_18630" x1="-0.0291748" y1="12.431" x2="5.39944" y2="12.431" gradientUnits="userSpaceOnUse">
<stop stop-color="#EF8081"/>
<stop offset="0.619792" stop-color="#F63132"/>
<stop offset="1" stop-color="#9F1689"/>
</linearGradient>
<linearGradient id="paint62_linear_6465_18630" x1="-0.0623779" y1="6.84898" x2="5.24125" y2="6.84898" gradientUnits="userSpaceOnUse">
<stop stop-color="#EF8081"/>
<stop offset="0.619792" stop-color="#F63132"/>
<stop offset="1" stop-color="#9F1689"/>
</linearGradient>
<linearGradient id="paint63_linear_6465_18630" x1="5.89319" y1="5.96092" x2="9.38844" y2="5.96092" gradientUnits="userSpaceOnUse">
<stop stop-color="#EF8081"/>
<stop offset="0.619792" stop-color="#F63132"/>
<stop offset="1" stop-color="#9F1689"/>
</linearGradient>
<linearGradient id="paint64_linear_6465_18630" x1="35.8831" y1="7.20682" x2="40.9376" y2="7.20682" gradientUnits="userSpaceOnUse">
<stop stop-color="#EF8081"/>
<stop offset="0.619792" stop-color="#F63132"/>
<stop offset="1" stop-color="#9F1689"/>
</linearGradient>
<linearGradient id="paint65_linear_6465_18630" x1="36.0972" y1="12.6181" x2="40.9043" y2="12.6181" gradientUnits="userSpaceOnUse">
<stop stop-color="#EF8081"/>
<stop offset="0.619792" stop-color="#F63132"/>
<stop offset="1" stop-color="#9F1689"/>
</linearGradient>
<linearGradient id="paint66_linear_6465_18630" x1="31.7209" y1="6.23735" x2="35.2582" y2="6.23735" gradientUnits="userSpaceOnUse">
<stop stop-color="#EF8081"/>
<stop offset="0.619792" stop-color="#F63132"/>
<stop offset="1" stop-color="#9F1689"/>
</linearGradient>
<linearGradient id="paint67_linear_6465_18630" x1="9.84131" y1="7.72222" x2="35.4356" y2="7.72222" gradientUnits="userSpaceOnUse">
<stop stop-color="#EF8081"/>
<stop offset="0.619792" stop-color="#F63132"/>
<stop offset="1" stop-color="#9F1689"/>
</linearGradient>
<linearGradient id="paint68_linear_6465_18630" x1="5.6792" y1="7.71942" x2="31.2717" y2="7.71942" gradientUnits="userSpaceOnUse">
<stop stop-color="#EF8081"/>
<stop offset="0.619792" stop-color="#F63132"/>
<stop offset="1" stop-color="#9F1689"/>
</linearGradient>
<linearGradient id="paint69_linear_6465_18630" x1="0.447144" y1="13.8886" x2="0.709353" y2="13.8886" gradientUnits="userSpaceOnUse">
<stop stop-color="#EF8081"/>
<stop offset="0.619792" stop-color="#F63132"/>
<stop offset="1" stop-color="#9F1689"/>
</linearGradient>
<linearGradient id="paint70_linear_6465_18630" x1="1.5835" y1="13.2833" x2="1.84571" y2="13.2833" gradientUnits="userSpaceOnUse">
<stop stop-color="#EF8081"/>
<stop offset="0.619792" stop-color="#F63132"/>
<stop offset="1" stop-color="#9F1689"/>
</linearGradient>
<linearGradient id="paint71_linear_6465_18630" x1="2.72046" y1="12.5105" x2="2.98267" y2="12.5105" gradientUnits="userSpaceOnUse">
<stop stop-color="#EF8081"/>
<stop offset="0.619792" stop-color="#F63132"/>
<stop offset="1" stop-color="#9F1689"/>
</linearGradient>
<linearGradient id="paint72_linear_6465_18630" x1="3.85681" y1="11.4521" x2="4.11902" y2="11.4521" gradientUnits="userSpaceOnUse">
<stop stop-color="#EF8081"/>
<stop offset="0.619792" stop-color="#F63132"/>
<stop offset="1" stop-color="#9F1689"/>
</linearGradient>
<linearGradient id="paint73_linear_6465_18630" x1="4.99292" y1="13.6875" x2="5.25513" y2="13.6875" gradientUnits="userSpaceOnUse">
<stop stop-color="#EF8081"/>
<stop offset="0.619792" stop-color="#F63132"/>
<stop offset="1" stop-color="#9F1689"/>
</linearGradient>
<linearGradient id="paint74_linear_6465_18630" x1="6.13013" y1="10.688" x2="6.39234" y2="10.688" gradientUnits="userSpaceOnUse">
<stop stop-color="#EF8081"/>
<stop offset="0.619792" stop-color="#F63132"/>
<stop offset="1" stop-color="#9F1689"/>
</linearGradient>
<linearGradient id="paint75_linear_6465_18630" x1="7.26636" y1="11.9236" x2="7.52857" y2="11.9236" gradientUnits="userSpaceOnUse">
<stop stop-color="#EF8081"/>
<stop offset="0.619792" stop-color="#F63132"/>
<stop offset="1" stop-color="#9F1689"/>
</linearGradient>
<linearGradient id="paint76_linear_6465_18630" x1="8.40344" y1="10.8399" x2="8.66565" y2="10.8399" gradientUnits="userSpaceOnUse">
<stop stop-color="#EF8081"/>
<stop offset="0.619792" stop-color="#F63132"/>
<stop offset="1" stop-color="#9F1689"/>
</linearGradient>
<linearGradient id="paint77_linear_6465_18630" x1="9.53967" y1="13.3515" x2="9.80188" y2="13.3515" gradientUnits="userSpaceOnUse">
<stop stop-color="#EF8081"/>
<stop offset="0.619792" stop-color="#F63132"/>
<stop offset="1" stop-color="#9F1689"/>
</linearGradient>
<linearGradient id="paint78_linear_6465_18630" x1="10.6768" y1="11.1737" x2="10.939" y2="11.1737" gradientUnits="userSpaceOnUse">
<stop stop-color="#EF8081"/>
<stop offset="0.619792" stop-color="#F63132"/>
<stop offset="1" stop-color="#9F1689"/>
</linearGradient>
<linearGradient id="paint79_linear_6465_18630" x1="11.813" y1="12.2207" x2="12.0752" y2="12.2207" gradientUnits="userSpaceOnUse">
<stop stop-color="#EF8081"/>
<stop offset="0.619792" stop-color="#F63132"/>
<stop offset="1" stop-color="#9F1689"/>
</linearGradient>
<linearGradient id="paint80_linear_6465_18630" x1="12.9502" y1="12.9582" x2="13.2124" y2="12.9582" gradientUnits="userSpaceOnUse">
<stop stop-color="#EF8081"/>
<stop offset="0.619792" stop-color="#F63132"/>
<stop offset="1" stop-color="#9F1689"/>
</linearGradient>
<linearGradient id="paint81_linear_6465_18630" x1="14.0865" y1="13.5208" x2="14.3488" y2="13.5208" gradientUnits="userSpaceOnUse">
<stop stop-color="#EF8081"/>
<stop offset="0.619792" stop-color="#F63132"/>
<stop offset="1" stop-color="#9F1689"/>
</linearGradient>
<linearGradient id="paint82_linear_6465_18630" x1="15.2227" y1="13.9681" x2="15.4849" y2="13.9681" gradientUnits="userSpaceOnUse">
<stop stop-color="#EF8081"/>
<stop offset="0.619792" stop-color="#F63132"/>
<stop offset="1" stop-color="#9F1689"/>
</linearGradient>
<linearGradient id="paint83_linear_6465_18630" x1="16.3597" y1="14.3214" x2="16.622" y2="14.3214" gradientUnits="userSpaceOnUse">
<stop stop-color="#EF8081"/>
<stop offset="0.619792" stop-color="#F63132"/>
<stop offset="1" stop-color="#9F1689"/>
</linearGradient>
<linearGradient id="paint84_linear_6465_18630" x1="17.496" y1="14.5976" x2="17.7582" y2="14.5976" gradientUnits="userSpaceOnUse">
<stop stop-color="#EF8081"/>
<stop offset="0.619792" stop-color="#F63132"/>
<stop offset="1" stop-color="#9F1689"/>
</linearGradient>
<linearGradient id="paint85_linear_6465_18630" x1="18.6332" y1="14.8069" x2="18.8954" y2="14.8069" gradientUnits="userSpaceOnUse">
<stop stop-color="#EF8081"/>
<stop offset="0.619792" stop-color="#F63132"/>
<stop offset="1" stop-color="#9F1689"/>
</linearGradient>
<linearGradient id="paint86_linear_6465_18630" x1="19.7694" y1="14.9587" x2="20.0316" y2="14.9587" gradientUnits="userSpaceOnUse">
<stop stop-color="#EF8081"/>
<stop offset="0.619792" stop-color="#F63132"/>
<stop offset="1" stop-color="#9F1689"/>
</linearGradient>
<linearGradient id="paint87_linear_6465_18630" x1="20.9065" y1="14.9541" x2="21.1687" y2="14.9541" gradientUnits="userSpaceOnUse">
<stop stop-color="#EF8081"/>
<stop offset="0.619792" stop-color="#F63132"/>
<stop offset="1" stop-color="#9F1689"/>
</linearGradient>
<linearGradient id="paint88_linear_6465_18630" x1="22.0427" y1="14.7986" x2="22.3049" y2="14.7986" gradientUnits="userSpaceOnUse">
<stop stop-color="#EF8081"/>
<stop offset="0.619792" stop-color="#F63132"/>
<stop offset="1" stop-color="#9F1689"/>
</linearGradient>
<linearGradient id="paint89_linear_6465_18630" x1="23.1799" y1="14.5857" x2="23.4421" y2="14.5857" gradientUnits="userSpaceOnUse">
<stop stop-color="#EF8081"/>
<stop offset="0.619792" stop-color="#F63132"/>
<stop offset="1" stop-color="#9F1689"/>
</linearGradient>
<linearGradient id="paint90_linear_6465_18630" x1="24.3162" y1="14.3056" x2="24.5784" y2="14.3056" gradientUnits="userSpaceOnUse">
<stop stop-color="#EF8081"/>
<stop offset="0.619792" stop-color="#F63132"/>
<stop offset="1" stop-color="#9F1689"/>
</linearGradient>
<linearGradient id="paint91_linear_6465_18630" x1="25.4523" y1="13.951" x2="25.7145" y2="13.951" gradientUnits="userSpaceOnUse">
<stop stop-color="#EF8081"/>
<stop offset="0.619792" stop-color="#F63132"/>
<stop offset="1" stop-color="#9F1689"/>
</linearGradient>
<linearGradient id="paint92_linear_6465_18630" x1="26.5895" y1="13.5022" x2="26.8517" y2="13.5022" gradientUnits="userSpaceOnUse">
<stop stop-color="#EF8081"/>
<stop offset="0.619792" stop-color="#F63132"/>
<stop offset="1" stop-color="#9F1689"/>
</linearGradient>
<linearGradient id="paint93_linear_6465_18630" x1="27.7257" y1="12.9302" x2="27.9879" y2="12.9302" gradientUnits="userSpaceOnUse">
<stop stop-color="#EF8081"/>
<stop offset="0.619792" stop-color="#F63132"/>
<stop offset="1" stop-color="#9F1689"/>
</linearGradient>
<linearGradient id="paint94_linear_6465_18630" x1="28.8629" y1="12.1857" x2="29.1251" y2="12.1857" gradientUnits="userSpaceOnUse">
<stop stop-color="#EF8081"/>
<stop offset="0.619792" stop-color="#F63132"/>
<stop offset="1" stop-color="#9F1689"/>
</linearGradient>
<linearGradient id="paint95_linear_6465_18630" x1="29.999" y1="11.1193" x2="30.2612" y2="11.1193" gradientUnits="userSpaceOnUse">
<stop stop-color="#EF8081"/>
<stop offset="0.619792" stop-color="#F63132"/>
<stop offset="1" stop-color="#9F1689"/>
</linearGradient>
<linearGradient id="paint96_linear_6465_18630" x1="31.1361" y1="13.3293" x2="31.3983" y2="13.3293" gradientUnits="userSpaceOnUse">
<stop stop-color="#EF8081"/>
<stop offset="0.619792" stop-color="#F63132"/>
<stop offset="1" stop-color="#9F1689"/>
</linearGradient>
<linearGradient id="paint97_linear_6465_18630" x1="32.2725" y1="11.0137" x2="32.5347" y2="11.0137" gradientUnits="userSpaceOnUse">
<stop stop-color="#EF8081"/>
<stop offset="0.619792" stop-color="#F63132"/>
<stop offset="1" stop-color="#9F1689"/>
</linearGradient>
<linearGradient id="paint98_linear_6465_18630" x1="33.4097" y1="11.8825" x2="33.6719" y2="11.8825" gradientUnits="userSpaceOnUse">
<stop stop-color="#EF8081"/>
<stop offset="0.619792" stop-color="#F63132"/>
<stop offset="1" stop-color="#9F1689"/>
</linearGradient>
<linearGradient id="paint99_linear_6465_18630" x1="34.5457" y1="10.5284" x2="34.8079" y2="10.5284" gradientUnits="userSpaceOnUse">
<stop stop-color="#EF8081"/>
<stop offset="0.619792" stop-color="#F63132"/>
<stop offset="1" stop-color="#9F1689"/>
</linearGradient>
<linearGradient id="paint100_linear_6465_18630" x1="36.8191" y1="11.521" x2="37.0813" y2="11.521" gradientUnits="userSpaceOnUse">
<stop stop-color="#EF8081"/>
<stop offset="0.619792" stop-color="#F63132"/>
<stop offset="1" stop-color="#9F1689"/>
</linearGradient>
<linearGradient id="paint101_linear_6465_18630" x1="37.9554" y1="12.5602" x2="38.2177" y2="12.5602" gradientUnits="userSpaceOnUse">
<stop stop-color="#EF8081"/>
<stop offset="0.619792" stop-color="#F63132"/>
<stop offset="1" stop-color="#9F1689"/>
</linearGradient>
<linearGradient id="paint102_linear_6465_18630" x1="39.0924" y1="13.3189" x2="39.3546" y2="13.3189" gradientUnits="userSpaceOnUse">
<stop stop-color="#EF8081"/>
<stop offset="0.619792" stop-color="#F63132"/>
<stop offset="1" stop-color="#9F1689"/>
</linearGradient>
<linearGradient id="paint103_linear_6465_18630" x1="40.2288" y1="13.9214" x2="40.491" y2="13.9214" gradientUnits="userSpaceOnUse">
<stop stop-color="#EF8081"/>
<stop offset="0.619792" stop-color="#F63132"/>
<stop offset="1" stop-color="#9F1689"/>
</linearGradient>
<linearGradient id="paint104_linear_6465_18630" x1="0.672607" y1="23.5221" x2="40.2025" y2="23.5221" gradientUnits="userSpaceOnUse">
<stop stop-color="#EF8081"/>
<stop offset="0.619792" stop-color="#F63132"/>
<stop offset="1" stop-color="#9F1689"/>
</linearGradient>
<linearGradient id="paint105_linear_6465_18630" x1="8.81604" y1="25.2331" x2="22.4614" y2="25.2331" gradientUnits="userSpaceOnUse">
<stop stop-color="#EF8081"/>
<stop offset="0.619792" stop-color="#F63132"/>
<stop offset="1" stop-color="#9F1689"/>
</linearGradient>
<linearGradient id="paint106_linear_6465_18630" x1="24.8728" y1="25.2331" x2="30.242" y2="25.2331" gradientUnits="userSpaceOnUse">
<stop stop-color="#EF8081"/>
<stop offset="0.619792" stop-color="#F63132"/>
<stop offset="1" stop-color="#9F1689"/>
</linearGradient>
<linearGradient id="paint107_linear_6465_18630" x1="25.2015" y1="4.24585" x2="27.8166" y2="4.24585" gradientUnits="userSpaceOnUse">
<stop stop-color="#EF8081"/>
<stop offset="0.619792" stop-color="#F63132"/>
<stop offset="1" stop-color="#9F1689"/>
</linearGradient>
<linearGradient id="paint108_linear_6465_18630" x1="12.6671" y1="2.08559" x2="17.0303" y2="2.08559" gradientUnits="userSpaceOnUse">
<stop stop-color="#EF8081"/>
<stop offset="0.619792" stop-color="#F63132"/>
<stop offset="1" stop-color="#9F1689"/>
</linearGradient>
<linearGradient id="paint109_linear_6465_18630" x1="16.4515" y1="6.22916" x2="20.3978" y2="6.22916" gradientUnits="userSpaceOnUse">
<stop stop-color="#EF8081"/>
<stop offset="0.619792" stop-color="#F63132"/>
<stop offset="1" stop-color="#9F1689"/>
</linearGradient>
<linearGradient id="paint110_linear_6465_18630" x1="21.0088" y1="6.22916" x2="22.4501" y2="6.22916" gradientUnits="userSpaceOnUse">
<stop stop-color="#EF8081"/>
<stop offset="0.619792" stop-color="#F63132"/>
<stop offset="1" stop-color="#9F1689"/>
</linearGradient>
<linearGradient id="paint111_linear_6465_18630" x1="18.663" y1="7.09049" x2="21.1295" y2="7.09049" gradientUnits="userSpaceOnUse">
<stop stop-color="#EF8081"/>
<stop offset="0.619792" stop-color="#F63132"/>
<stop offset="1" stop-color="#9F1689"/>
</linearGradient>
<linearGradient id="paint112_linear_6465_18630" x1="22.5348" y1="2.69596" x2="24.2724" y2="2.69596" gradientUnits="userSpaceOnUse">
<stop stop-color="#EF8081"/>
<stop offset="0.619792" stop-color="#F63132"/>
<stop offset="1" stop-color="#9F1689"/>
</linearGradient>
<clipPath id="clip0_6465_18630">
<rect width="41" height="24.5537" fill="white" transform="translate(-0.0623779 0.724609)"/>
</clipPath>
</defs>
</svg>
