<svg width="32" height="32" viewBox="0 0 32 32" fill="none" xmlns="http://www.w3.org/2000/svg">
<path d="M20.0489 3.74887C19.1888 3.74887 18.364 4.09053 17.7558 4.69868L8.30164 14.1529C7.30742 15.1471 6.74887 16.4956 6.74887 17.9016C6.74887 19.3076 7.30742 20.6561 8.30164 21.6503C9.29586 22.6445 10.6443 23.2031 12.0504 23.2031C13.4564 23.2031 14.8049 22.6445 15.7991 21.6503L25.1534 12.296L26.39 13.5327L17.0357 22.887C15.7135 24.2092 13.9202 24.952 12.0504 24.952C10.1805 24.952 8.3872 24.2092 7.065 22.887C5.7428 21.5648 5 19.7715 5 17.9016C5 16.0317 5.7428 14.2384 7.065 12.9162L16.5192 3.46204C17.4553 2.52591 18.725 2 20.0489 2C21.3728 2 22.6424 2.52591 23.5786 3.46204C24.5147 4.39817 25.0406 5.66783 25.0406 6.99172C25.0406 8.3156 24.5147 9.58527 23.5786 10.5214L14.1141 19.9756C13.564 20.5254 12.8178 20.8347 12.0401 20.8347C11.2622 20.8347 10.5161 20.5257 9.96607 19.9756C9.41601 19.4255 9.10699 18.6795 9.10699 17.9016C9.10699 17.1237 9.41601 16.3777 9.96607 15.8276L18.3038 7.49973L19.5404 8.73637L11.2027 17.0642C10.9806 17.2863 10.8559 17.5875 10.8559 17.9016C10.8559 18.2157 10.9806 18.5169 11.2027 18.739C11.4248 18.961 11.726 19.0858 12.0401 19.0858C12.3541 19.0858 12.6553 18.961 12.8774 18.739L22.3419 9.28476C22.9499 8.67664 23.2917 7.85162 23.2917 6.99172C23.2917 6.13166 22.9501 5.30683 22.3419 4.69868C21.7338 4.09053 20.9089 3.74887 20.0489 3.74887Z" fill="#C6C8C9"/>
</svg>
