<svg width="112" height="112" viewBox="0 0 112 112" fill="none" xmlns="http://www.w3.org/2000/svg">
<g clip-path="url(#clip0_357_4025)">
<rect width="112" height="112" rx="56" fill="white"/>
<g opacity="0.3">
<g filter="url(#filter0_f_357_4025)">
<circle cx="104.7" cy="19.8571" r="24.8571" fill="#FF8989"/>
</g>
<g filter="url(#filter1_f_357_4025)">
<circle cx="63.6848" cy="34.7712" r="34.8" fill="#E53617"/>
</g>
<g filter="url(#filter2_f_357_4025)">
<ellipse cx="87.2974" cy="54.0361" rx="27.3429" ry="27.9643" fill="#5454FD"/>
</g>
</g>
<path d="M68.72 71.5599L56 58.8199L43.28 71.5599L40.44 68.7199L53.18 55.9999L40.44 43.2799L43.28 40.4399L56 53.1799L68.72 40.4599L71.54 43.2799L58.82 55.9999L71.54 68.7199L68.72 71.5599Z" fill="url(#paint0_linear_357_4025)" fill-opacity="0.4"/>
</g>
<defs>
<filter id="filter0_f_357_4025" x="19.8428" y="-65" width="169.714" height="169.714" filterUnits="userSpaceOnUse" color-interpolation-filters="sRGB">
<feFlood flood-opacity="0" result="BackgroundImageFix"/>
<feBlend mode="normal" in="SourceGraphic" in2="BackgroundImageFix" result="shape"/>
<feGaussianBlur stdDeviation="30" result="effect1_foregroundBlur_357_4025"/>
</filter>
<filter id="filter1_f_357_4025" x="-31.1152" y="-60.0288" width="189.6" height="189.6" filterUnits="userSpaceOnUse" color-interpolation-filters="sRGB">
<feFlood flood-opacity="0" result="BackgroundImageFix"/>
<feBlend mode="normal" in="SourceGraphic" in2="BackgroundImageFix" result="shape"/>
<feGaussianBlur stdDeviation="30" result="effect1_foregroundBlur_357_4025"/>
</filter>
<filter id="filter2_f_357_4025" x="-0.0454102" y="-33.9282" width="174.686" height="175.928" filterUnits="userSpaceOnUse" color-interpolation-filters="sRGB">
<feFlood flood-opacity="0" result="BackgroundImageFix"/>
<feBlend mode="normal" in="SourceGraphic" in2="BackgroundImageFix" result="shape"/>
<feGaussianBlur stdDeviation="30" result="effect1_foregroundBlur_357_4025"/>
</filter>
<linearGradient id="paint0_linear_357_4025" x1="40.44" y1="43.7507" x2="78.105" y2="43.5043" gradientUnits="userSpaceOnUse">
<stop stop-color="#EF8081"/>
<stop offset="0.58125" stop-color="#F63132"/>
<stop offset="1" stop-color="#B0187C"/>
</linearGradient>
<clipPath id="clip0_357_4025">
<rect width="112" height="112" rx="56" fill="white"/>
</clipPath>
</defs>
</svg>
