<svg width="112" height="112" viewBox="0 0 112 112" fill="none" xmlns="http://www.w3.org/2000/svg">
<g clip-path="url(#clip0_357_4037)">
<rect width="112" height="112" rx="56" fill="white"/>
<g opacity="0.3">
<g filter="url(#filter0_f_357_4037)">
<circle cx="104.7" cy="19.8571" r="24.8571" fill="#FF8989"/>
</g>
<g filter="url(#filter1_f_357_4037)">
<circle cx="63.6848" cy="34.7712" r="34.8" fill="#E53617"/>
</g>
<g filter="url(#filter2_f_357_4037)">
<ellipse cx="87.2974" cy="54.0361" rx="27.3429" ry="27.9643" fill="#5454FD"/>
</g>
</g>
<path d="M44.7106 58.2C44.4973 58.84 44.1773 59.384 43.7506 59.832C43.324 60.2693 42.8226 60.6 42.2466 60.824C41.6706 61.048 41.036 61.16 40.3426 61.16C39.3293 61.16 38.4493 60.9413 37.7026 60.504C36.956 60.0667 36.38 59.4427 35.9746 58.632C35.5693 57.8213 35.3666 56.8507 35.3666 55.72C35.3666 54.5893 35.5693 53.6187 35.9746 52.808C36.38 51.9973 36.956 51.3733 37.7026 50.936C38.4493 50.4987 39.324 50.28 40.3266 50.28C41.02 50.28 41.644 50.376 42.1986 50.568C42.764 50.76 43.244 51.048 43.6386 51.432C44.0333 51.816 44.3373 52.296 44.5506 52.872L42.9346 53.592C42.7213 52.9627 42.412 52.504 42.0066 52.216C41.6013 51.9173 41.0733 51.768 40.4226 51.768C39.772 51.768 39.2013 51.9227 38.7106 52.232C38.22 52.5413 37.836 52.9893 37.5586 53.576C37.292 54.1627 37.1586 54.8773 37.1586 55.72C37.1586 56.552 37.2866 57.2667 37.5426 57.864C37.7986 58.4507 38.1666 58.8987 38.6466 59.208C39.1266 59.5173 39.7026 59.672 40.3746 59.672C41.0253 59.672 41.5853 59.5067 42.0546 59.176C42.5346 58.8347 42.876 58.328 43.0786 57.656L44.7106 58.2ZM48.3201 49.4V58.76C48.3201 59.1547 48.3895 59.4267 48.5281 59.576C48.6668 59.7253 48.8961 59.8 49.2161 59.8C49.4081 59.8 49.5681 59.7893 49.6961 59.768C49.8348 59.736 50.0055 59.6827 50.2081 59.608L50.0161 60.888C49.8348 60.9733 49.6268 61.0373 49.3921 61.08C49.1575 61.1333 48.9228 61.16 48.6881 61.16C47.9735 61.16 47.4455 60.9787 47.1041 60.616C46.7735 60.2427 46.6081 59.672 46.6081 58.904V49.4H48.3201ZM55.1125 52.84C55.8912 52.84 56.5792 53.0053 57.1765 53.336C57.7738 53.6667 58.2378 54.1467 58.5685 54.776C58.9098 55.3947 59.0805 56.136 59.0805 57C59.0805 57.864 58.9098 58.6107 58.5685 59.24C58.2378 59.8587 57.7738 60.3333 57.1765 60.664C56.5792 60.9947 55.8912 61.16 55.1125 61.16C54.3338 61.16 53.6458 60.9947 53.0485 60.664C52.4512 60.3333 51.9818 59.8587 51.6405 59.24C51.2992 58.6107 51.1285 57.864 51.1285 57C51.1285 56.136 51.2992 55.3947 51.6405 54.776C51.9818 54.1467 52.4512 53.6667 53.0485 53.336C53.6458 53.0053 54.3338 52.84 55.1125 52.84ZM55.1125 54.184C54.6325 54.184 54.2218 54.296 53.8805 54.52C53.5498 54.7333 53.2938 55.048 53.1125 55.464C52.9312 55.88 52.8405 56.392 52.8405 57C52.8405 57.5973 52.9312 58.1093 53.1125 58.536C53.2938 58.952 53.5498 59.272 53.8805 59.496C54.2218 59.7093 54.6325 59.816 55.1125 59.816C55.5925 59.816 55.9978 59.7093 56.3285 59.496C56.6592 59.272 56.9152 58.952 57.0965 58.536C57.2778 58.1093 57.3685 57.5973 57.3685 57C57.3685 56.392 57.2778 55.88 57.0965 55.464C56.9152 55.048 56.6592 54.7333 56.3285 54.52C55.9978 54.296 55.5925 54.184 55.1125 54.184ZM64.2743 61.16C63.4743 61.16 62.7436 61.0053 62.0823 60.696C61.4209 60.3867 60.8983 59.9493 60.5143 59.384L61.6983 58.36C61.9329 58.7973 62.2689 59.1493 62.7063 59.416C63.1543 59.672 63.6876 59.8 64.3063 59.8C64.7969 59.8 65.1863 59.7147 65.4743 59.544C65.7623 59.3733 65.9063 59.1333 65.9063 58.824C65.9063 58.6213 65.8369 58.4453 65.6983 58.296C65.5703 58.136 65.3196 58.0133 64.9463 57.928L63.2663 57.576C62.4129 57.4053 61.8049 57.1333 61.4423 56.76C61.0796 56.376 60.8983 55.8907 60.8983 55.304C60.8983 54.8667 61.0263 54.4613 61.2823 54.088C61.5383 53.7147 61.9116 53.416 62.4023 53.192C62.9036 52.9573 63.5009 52.84 64.1943 52.84C64.9943 52.84 65.6769 52.984 66.2423 53.272C66.8076 53.5493 67.2396 53.9493 67.5383 54.472L66.3543 55.464C66.1516 55.0373 65.8529 54.7227 65.4583 54.52C65.0636 54.3067 64.6529 54.2 64.2263 54.2C63.8849 54.2 63.5916 54.2427 63.3463 54.328C63.1009 54.4133 62.9143 54.5307 62.7863 54.68C62.6583 54.8293 62.5943 55.0053 62.5943 55.208C62.5943 55.4213 62.6743 55.608 62.8343 55.768C62.9943 55.928 63.2823 56.0507 63.6983 56.136L65.5223 56.52C66.2903 56.6693 66.8289 56.9253 67.1383 57.288C67.4583 57.64 67.6183 58.072 67.6183 58.584C67.6183 59.096 67.4849 59.5493 67.2183 59.944C66.9516 60.328 66.5676 60.6267 66.0663 60.84C65.5649 61.0533 64.9676 61.16 64.2743 61.16ZM73.2074 61.16C72.4074 61.16 71.7034 60.9947 71.0954 60.664C70.4874 60.3333 70.0127 59.8587 69.6714 59.24C69.3407 58.6107 69.1754 57.864 69.1754 57C69.1754 56.136 69.3407 55.3947 69.6714 54.776C70.0127 54.1467 70.482 53.6667 71.0794 53.336C71.6767 53.0053 72.354 52.84 73.1114 52.84C73.89 52.84 74.5514 53 75.0954 53.32C75.6394 53.64 76.0554 54.0773 76.3434 54.632C76.6314 55.1867 76.7754 55.816 76.7754 56.52C76.7754 56.712 76.77 56.8933 76.7594 57.064C76.7487 57.2347 76.7327 57.384 76.7114 57.512H70.2794V56.2H75.9594L75.1114 56.456C75.1114 55.7307 74.93 55.176 74.5674 54.792C74.2047 54.3973 73.7087 54.2 73.0794 54.2C72.6207 54.2 72.2207 54.3067 71.8794 54.52C71.538 54.7333 71.2767 55.0533 71.0954 55.48C70.914 55.896 70.8234 56.408 70.8234 57.016C70.8234 57.6133 70.9194 58.12 71.1114 58.536C71.3034 58.952 71.5754 59.2667 71.9274 59.48C72.2794 59.6933 72.6954 59.8 73.1754 59.8C73.7087 59.8 74.1407 59.6987 74.4714 59.496C74.802 59.2933 75.0634 59.0107 75.2554 58.648L76.6154 59.288C76.4234 59.672 76.162 60.008 75.8314 60.296C75.5114 60.5733 75.1274 60.7867 74.6794 60.936C74.2314 61.0853 73.7407 61.16 73.2074 61.16Z" fill="#0F0E0E"/>
</g>
<defs>
<filter id="filter0_f_357_4037" x="19.8429" y="-65" width="169.714" height="169.714" filterUnits="userSpaceOnUse" color-interpolation-filters="sRGB">
<feFlood flood-opacity="0" result="BackgroundImageFix"/>
<feBlend mode="normal" in="SourceGraphic" in2="BackgroundImageFix" result="shape"/>
<feGaussianBlur stdDeviation="30" result="effect1_foregroundBlur_357_4037"/>
</filter>
<filter id="filter1_f_357_4037" x="-31.1152" y="-60.0288" width="189.6" height="189.6" filterUnits="userSpaceOnUse" color-interpolation-filters="sRGB">
<feFlood flood-opacity="0" result="BackgroundImageFix"/>
<feBlend mode="normal" in="SourceGraphic" in2="BackgroundImageFix" result="shape"/>
<feGaussianBlur stdDeviation="30" result="effect1_foregroundBlur_357_4037"/>
</filter>
<filter id="filter2_f_357_4037" x="-0.0454102" y="-33.9282" width="174.686" height="175.928" filterUnits="userSpaceOnUse" color-interpolation-filters="sRGB">
<feFlood flood-opacity="0" result="BackgroundImageFix"/>
<feBlend mode="normal" in="SourceGraphic" in2="BackgroundImageFix" result="shape"/>
<feGaussianBlur stdDeviation="30" result="effect1_foregroundBlur_357_4037"/>
</filter>
<clipPath id="clip0_357_4037">
<rect width="112" height="112" rx="56" fill="white"/>
</clipPath>
</defs>
</svg>
