<svg width="96" height="96" viewBox="0 0 96 96" fill="none" xmlns="http://www.w3.org/2000/svg">
<g clip-path="url(#clip0_210_3921)">
<rect width="96" height="96" rx="48" transform="matrix(-1 0 0 1 96 0)" fill="white"/>
<g opacity="0.3">
<g filter="url(#filter0_f_210_3921)">
<ellipse rx="31.5" ry="32" transform="matrix(-1 0 0 1 -0.5 41)" fill="#FF8989"/>
</g>
<g filter="url(#filter1_f_210_3921)">
<circle r="44" transform="matrix(-1 0 0 1 52 60)" fill="#E53617"/>
</g>
<g filter="url(#filter2_f_210_3921)">
<ellipse rx="34.5" ry="35.5" transform="matrix(-1 0 0 1 21.5 84.5)" fill="#5454FD"/>
</g>
</g>
<path d="M44.6667 32L46.8457 34.2288L35.2952 46.4H66V49.6H35.2952L46.8457 61.7168L44.6667 64L29.4286 48L44.6667 32Z" fill="url(#paint0_linear_210_3921)" fill-opacity="0.5"/>
</g>
<defs>
<filter id="filter0_f_210_3921" x="-82" y="-41" width="163" height="164" filterUnits="userSpaceOnUse" color-interpolation-filters="sRGB">
<feFlood flood-opacity="0" result="BackgroundImageFix"/>
<feBlend mode="normal" in="SourceGraphic" in2="BackgroundImageFix" result="shape"/>
<feGaussianBlur stdDeviation="25" result="effect1_foregroundBlur_210_3921"/>
</filter>
<filter id="filter1_f_210_3921" x="-42" y="-34" width="188" height="188" filterUnits="userSpaceOnUse" color-interpolation-filters="sRGB">
<feFlood flood-opacity="0" result="BackgroundImageFix"/>
<feBlend mode="normal" in="SourceGraphic" in2="BackgroundImageFix" result="shape"/>
<feGaussianBlur stdDeviation="25" result="effect1_foregroundBlur_210_3921"/>
</filter>
<filter id="filter2_f_210_3921" x="-63" y="-1" width="169" height="171" filterUnits="userSpaceOnUse" color-interpolation-filters="sRGB">
<feFlood flood-opacity="0" result="BackgroundImageFix"/>
<feBlend mode="normal" in="SourceGraphic" in2="BackgroundImageFix" result="shape"/>
<feGaussianBlur stdDeviation="25" result="effect1_foregroundBlur_210_3921"/>
</filter>
<linearGradient id="paint0_linear_210_3921" x1="66" y1="35.4044" x2="21.7091" y2="35.0731" gradientUnits="userSpaceOnUse">
<stop stop-color="#EF8081"/>
<stop offset="0.58125" stop-color="#F63132"/>
<stop offset="1" stop-color="#B0187C"/>
</linearGradient>
<clipPath id="clip0_210_3921">
<rect width="96" height="96" rx="48" transform="matrix(-1 0 0 1 96 0)" fill="white"/>
</clipPath>
</defs>
</svg>
