<svg width="96" height="96" viewBox="0 0 96 96" fill="none" xmlns="http://www.w3.org/2000/svg">
<g clip-path="url(#clip0_150_3508)">
<rect width="96" height="96" rx="48" fill="white"/>
<g opacity="0.3">
<g filter="url(#filter0_f_150_3508)">
<ellipse cx="95.7461" cy="43.8829" rx="31.2539" ry="34.8829" fill="#FF8989"/>
</g>
<g filter="url(#filter1_f_150_3508)">
<ellipse cx="43.6562" cy="64.5946" rx="43.6562" ry="47.964" fill="#E53617"/>
</g>
<g filter="url(#filter2_f_150_3508)">
<ellipse cx="73.918" cy="91.3018" rx="34.2305" ry="38.6982" fill="#5454FD"/>
</g>
</g>
<path d="M35.4444 42.44C37.0978 42.44 38.3831 42.8987 39.3004 43.816C40.2284 44.7227 40.6924 46.024 40.6924 47.72C40.6924 49.416 40.2284 50.7227 39.3004 51.64C38.3831 52.5467 37.0978 53 35.4444 53H31.7164V42.44H35.4444ZM35.4444 51.544C36.5644 51.544 37.4178 51.2133 38.0044 50.552C38.6018 49.88 38.9004 48.936 38.9004 47.72C38.9004 46.504 38.6018 45.5653 38.0044 44.904C37.4178 44.232 36.5644 43.896 35.4444 43.896H33.4284V51.544H35.4444ZM42.9296 53V45H44.3856L44.5456 46.44C44.7589 45.9173 45.0736 45.5227 45.4896 45.256C45.9162 44.9787 46.4389 44.84 47.0576 44.84C47.2176 44.84 47.3776 44.856 47.5376 44.888C47.6976 44.9093 47.8309 44.9467 47.9376 45L47.6976 46.504C47.5802 46.4613 47.4469 46.4293 47.2976 46.408C47.1589 46.376 46.9669 46.36 46.7216 46.36C46.3909 46.36 46.0656 46.4507 45.7456 46.632C45.4256 46.8027 45.1589 47.064 44.9456 47.416C44.7429 47.768 44.6416 48.216 44.6416 48.76V53H42.9296ZM54.0067 47.864C54.0067 47.3307 53.8574 46.92 53.5587 46.632C53.2707 46.3333 52.8707 46.184 52.3587 46.184C51.8787 46.184 51.468 46.296 51.1267 46.52C50.7854 46.744 50.5347 47.1067 50.3747 47.608L48.9347 47C49.1374 46.3493 49.532 45.8267 50.1187 45.432C50.716 45.0373 51.484 44.84 52.4227 44.84C53.0627 44.84 53.628 44.9467 54.1187 45.16C54.6094 45.3627 54.9934 45.672 55.2707 46.088C55.5587 46.504 55.7027 47.0373 55.7027 47.688V51.256C55.7027 51.6507 55.9 51.848 56.2947 51.848C56.4867 51.848 56.6734 51.8213 56.8547 51.768L56.7587 52.952C56.5134 53.0693 56.204 53.128 55.8307 53.128C55.4894 53.128 55.18 53.0693 54.9027 52.952C54.636 52.824 54.4227 52.6373 54.2627 52.392C54.1134 52.136 54.0387 51.8213 54.0387 51.448V51.336L54.3907 51.32C54.2947 51.736 54.0974 52.0827 53.7987 52.36C53.5 52.6267 53.1534 52.8293 52.7587 52.968C52.364 53.096 51.964 53.16 51.5587 53.16C51.0574 53.16 50.604 53.08 50.1987 52.92C49.804 52.76 49.4894 52.52 49.2547 52.2C49.0307 51.8693 48.9187 51.464 48.9187 50.984C48.9187 50.3867 49.1107 49.896 49.4947 49.512C49.8894 49.128 50.444 48.8667 51.1587 48.728L54.2627 48.12L54.2467 49.32L51.9907 49.784C51.5427 49.8693 51.2067 49.992 50.9827 50.152C50.7587 50.312 50.6467 50.5467 50.6467 50.856C50.6467 51.1547 50.7587 51.3947 50.9827 51.576C51.2174 51.7467 51.5267 51.832 51.9107 51.832C52.1774 51.832 52.4334 51.8 52.6787 51.736C52.9347 51.672 53.164 51.5707 53.3667 51.432C53.5694 51.2827 53.724 51.096 53.8307 50.872C53.948 50.6373 54.0067 50.36 54.0067 50.04V47.864ZM65.5789 43.32L65.8509 44.664C65.8189 44.664 65.7869 44.664 65.7549 44.664C65.7229 44.6533 65.6909 44.648 65.6589 44.648C65.1469 44.648 64.7576 44.76 64.4909 44.984C64.2243 45.1973 64.0909 45.512 64.0909 45.928L63.2589 45.544C63.2589 45.1173 63.3496 44.7387 63.5309 44.408C63.7123 44.0667 63.9683 43.8 64.2989 43.608C64.6403 43.416 65.0243 43.32 65.4509 43.32C65.4723 43.32 65.4936 43.32 65.5149 43.32C65.5363 43.32 65.5576 43.32 65.5789 43.32ZM63.0509 51.752C63.8616 51.752 64.4909 51.9333 64.9389 52.296C65.3869 52.648 65.6109 53.1387 65.6109 53.768C65.6109 54.3227 65.4349 54.7973 65.0829 55.192C64.7309 55.5973 64.2509 55.9067 63.6429 56.12C63.0456 56.3333 62.3576 56.44 61.5789 56.44C60.2669 56.44 59.2963 56.2373 58.6669 55.832C58.0376 55.4267 57.7229 54.92 57.7229 54.312C57.7229 53.8853 57.8723 53.512 58.1709 53.192C58.4803 52.872 58.9976 52.6907 59.7229 52.648L59.6269 52.904C59.1789 52.808 58.8163 52.6373 58.5389 52.392C58.2723 52.136 58.1389 51.7787 58.1389 51.32C58.1389 50.8613 58.3149 50.472 58.6669 50.152C59.0189 49.832 59.5149 49.6453 60.1549 49.592L61.0509 50.024H60.8589C60.3683 50.0667 60.0216 50.1787 59.8189 50.36C59.6163 50.5413 59.5149 50.744 59.5149 50.968C59.5149 51.2347 59.6109 51.432 59.8029 51.56C60.0056 51.688 60.2883 51.752 60.6509 51.752H63.0509ZM61.5789 55.16C62.1656 55.16 62.6456 55.1013 63.0189 54.984C63.4029 54.8773 63.6856 54.7333 63.8669 54.552C64.0589 54.3813 64.1549 54.1893 64.1549 53.976C64.1549 53.7307 64.0536 53.5333 63.8509 53.384C63.6589 53.2347 63.3069 53.16 62.7949 53.16H60.2189C59.9203 53.16 59.6696 53.2347 59.4669 53.384C59.2643 53.544 59.1629 53.7573 59.1629 54.024C59.1629 54.376 59.3763 54.6533 59.8029 54.856C60.2296 55.0587 60.8216 55.16 61.5789 55.16ZM61.5149 44.84C62.2189 44.84 62.8269 44.952 63.3389 45.176C63.8616 45.4 64.2616 45.7147 64.5389 46.12C64.8269 46.5253 64.9709 47 64.9709 47.544C64.9709 48.088 64.8269 48.5627 64.5389 48.968C64.2616 49.3733 63.8616 49.688 63.3389 49.912C62.8269 50.136 62.2189 50.248 61.5149 50.248C60.4056 50.248 59.5523 50.0027 58.9549 49.512C58.3683 49.0107 58.0749 48.3547 58.0749 47.544C58.0749 47 58.2189 46.5253 58.5069 46.12C58.7949 45.7147 59.1949 45.4 59.7069 45.176C60.2296 44.952 60.8323 44.84 61.5149 44.84ZM61.5149 46.04C61.0243 46.04 60.6136 46.1787 60.2829 46.456C59.9629 46.7227 59.8029 47.0853 59.8029 47.544C59.8029 48.0027 59.9629 48.3707 60.2829 48.648C60.6136 48.9253 61.0243 49.064 61.5149 49.064C62.0163 49.064 62.4269 48.9253 62.7469 48.648C63.0776 48.3707 63.2429 48.0027 63.2429 47.544C63.2429 47.0853 63.0776 46.7227 62.7469 46.456C62.4269 46.1787 62.0163 46.04 61.5149 46.04Z" fill="#0F0E0E"/>
</g>
<defs>
<filter id="filter0_f_150_3508" x="14.4922" y="-41" width="162.508" height="169.766" filterUnits="userSpaceOnUse" color-interpolation-filters="sRGB">
<feFlood flood-opacity="0" result="BackgroundImageFix"/>
<feBlend mode="normal" in="SourceGraphic" in2="BackgroundImageFix" result="shape"/>
<feGaussianBlur stdDeviation="25" result="effect1_foregroundBlur_150_3508"/>
</filter>
<filter id="filter1_f_150_3508" x="-50" y="-33.3694" width="187.312" height="195.928" filterUnits="userSpaceOnUse" color-interpolation-filters="sRGB">
<feFlood flood-opacity="0" result="BackgroundImageFix"/>
<feBlend mode="normal" in="SourceGraphic" in2="BackgroundImageFix" result="shape"/>
<feGaussianBlur stdDeviation="25" result="effect1_foregroundBlur_150_3508"/>
</filter>
<filter id="filter2_f_150_3508" x="-10.3125" y="2.60361" width="168.461" height="177.396" filterUnits="userSpaceOnUse" color-interpolation-filters="sRGB">
<feFlood flood-opacity="0" result="BackgroundImageFix"/>
<feBlend mode="normal" in="SourceGraphic" in2="BackgroundImageFix" result="shape"/>
<feGaussianBlur stdDeviation="25" result="effect1_foregroundBlur_150_3508"/>
</filter>
<clipPath id="clip0_150_3508">
<rect width="96" height="96" rx="48" fill="white"/>
</clipPath>
</defs>
</svg>
