<svg width="86" height="135" viewBox="0 0 86 135" fill="none" xmlns="http://www.w3.org/2000/svg">
<path opacity="0.6" fill-rule="evenodd" clip-rule="evenodd" d="M37.3238 62.1824V0H34.3238V62.9563V63.7302L34.9545 64.1787L58.5631 80.9671L59.3964 81.5597L60.2526 81.0006L85.9597 64.2122L84.3194 61.7004L59.4683 77.9296L37.3238 62.1824ZM3.74706 87.3649V25.1825H0.747055V88.1388V88.9128L1.37776 89.3613L24.9864 106.15L25.8197 106.742L26.6758 106.183L52.383 89.3947L50.7426 86.8829L25.8916 103.112L3.74706 87.3649ZM83.9795 85.6365L54.9947 108.882L83.9912 132.622L82.0908 134.943L51.6619 110.031L50.2295 108.858L51.6736 107.7L82.1025 83.2962L83.9795 85.6365Z" fill="url(#paint0_linear_86_7564)"/>
<defs>
<linearGradient id="paint0_linear_86_7564" x1="85.9597" y1="67.4714" x2="0.747047" y2="67.4714" gradientUnits="userSpaceOnUse">
<stop stop-color="#EF8081"/>
<stop offset="0.619792" stop-color="#F63132"/>
<stop offset="1" stop-color="#9F1689"/>
</linearGradient>
</defs>
</svg>
