<?xml version="1.0" encoding="utf-8"?>
<!-- Generator: Adobe Illustrator 27.0.0, SVG Export Plug-In . SVG Version: 6.00 Build 0)  -->
<svg version="1.1" id="Layer_1" xmlns="http://www.w3.org/2000/svg" xmlns:xlink="http://www.w3.org/1999/xlink" x="0px" y="0px"
	 viewBox="0 0 612 792" style="enable-background:new 0 0 612 792;" xml:space="preserve">
<style type="text/css">
	.st0{fill:#FFFFFF;}
</style>
<g id="Or8crb.tif">
	<g>
		<path class="st0" d="M309.7,651.7c-2,0-4,0-6,0c-4.8-1.7-8.5-4.7-11.2-9.2c-46.2-75.8-92.5-151.6-138.8-227.3
			c-11.5-18.9-19.8-39-23.9-60.8c-1.5-8.3-2.4-16.7-3.6-25c0-5,0-10,0-15c0.3-1.4,0.8-2.9,0.9-4.3c0.7-19.3,5-37.8,12.1-55.7
			c14.2-35.5,37.3-63.7,69.3-84.5c26.7-17.4,56.1-26.6,88-28.4c28.8-1.7,56.1,3.4,82.3,15.1c35.6,16,63.3,41.1,82.7,75
			c19.9,34.7,27,72.2,22.2,111.8c-3.2,26.4-12.7,50.6-26.5,73.3c-45.3,74.3-90.3,148.7-135.4,223.1
			C318.7,644.9,315.2,649.3,309.7,651.7z M215.7,320.2c-0.1,49.2,39.9,90.1,88.3,90.2c50.8,0.1,91.2-39.5,91.5-89.6
			c0.3-49.7-40.9-90.4-91.5-90.3C256.1,230.5,215.8,271.4,215.7,320.2z"/>
	</g>
</g>
</svg>
