<svg width="350" height="320" viewBox="0 0 350 320" fill="none" xmlns="http://www.w3.org/2000/svg">
<g clip-path="url(#clip0_853_4849)">
<rect width="350" height="320" fill="#E33335"/>
<path fill-rule="evenodd" clip-rule="evenodd" d="M457.217 31.4113C472.768 47.1024 472.654 72.4288 456.962 87.9793L17.7239 523.28C2.03278 538.83 -23.2936 538.716 -38.844 523.025C-54.3945 507.334 -54.2805 482.008 -38.5893 466.457L400.649 31.1566C416.34 15.6061 441.667 15.7201 457.217 31.4113Z" fill="#0F0E0E" fill-opacity="0.05"/>
<path fill-rule="evenodd" clip-rule="evenodd" d="M458.569 215.919C474.19 231.54 474.19 256.866 458.569 272.487L185.914 545.143C170.293 560.764 144.966 560.764 129.345 545.143C113.724 529.522 113.724 504.196 129.345 488.575L402.001 215.919C417.622 200.298 442.949 200.298 458.569 215.919Z" fill="#0F0E0E" fill-opacity="0.05"/>
</g>
<defs>
<clipPath id="clip0_853_4849">
<rect width="350" height="320" fill="white"/>
</clipPath>
</defs>
</svg>
