<svg width="16" height="16" viewBox="0 0 16 16" fill="none" xmlns="http://www.w3.org/2000/svg">
<path fill-rule="evenodd" clip-rule="evenodd" d="M12 10.7199C11.4933 10.7199 11.04 10.9199 10.6933 11.2333L5.94 8.46659C5.97333 8.31325 6 8.15992 6 7.99992C6 7.83992 5.97333 7.68659 5.94 7.53325L10.64 4.79325C11 5.12659 11.4733 5.33325 12 5.33325C13.1067 5.33325 14 4.43992 14 3.33325C14 2.22659 13.1067 1.33325 12 1.33325C10.8933 1.33325 10 2.22659 10 3.33325C10 3.49325 10.0267 3.64659 10.06 3.79992L5.36 6.53992C5 6.20659 4.52667 5.99992 4 5.99992C2.89333 5.99992 2 6.89325 2 7.99992C2 9.10659 2.89333 9.99992 4 9.99992C4.52667 9.99992 5 9.79325 5.36 9.45992L10.1067 12.2333C10.0733 12.3733 10.0533 12.5199 10.0533 12.6666C10.0533 13.7399 10.9267 14.6133 12 14.6133C13.0733 14.6133 13.9467 13.7399 13.9467 12.6666C13.9467 11.5933 13.0733 10.7199 12 10.7199ZM12 2.66659C12.3667 2.66659 12.6667 2.96659 12.6667 3.33325C12.6667 3.69992 12.3667 3.99992 12 3.99992C11.6333 3.99992 11.3333 3.69992 11.3333 3.33325C11.3333 2.96659 11.6333 2.66659 12 2.66659ZM4 8.66659C3.63333 8.66659 3.33333 8.36659 3.33333 7.99992C3.33333 7.63325 3.63333 7.33325 4 7.33325C4.36667 7.33325 4.66667 7.63325 4.66667 7.99992C4.66667 8.36659 4.36667 8.66659 4 8.66659ZM12 13.3466C11.6333 13.3466 11.3333 13.0466 11.3333 12.6799C11.3333 12.3133 11.6333 12.0133 12 12.0133C12.3667 12.0133 12.6667 12.3133 12.6667 12.6799C12.6667 13.0466 12.3667 13.3466 12 13.3466Z" fill="white" fill-opacity="0.6"/>
</svg>
