<svg width="32" height="32" viewBox="0 0 32 32" fill="none" xmlns="http://www.w3.org/2000/svg">
<g clip-path="url(#clip0_1_3228)">
<path d="M16 3.99854C8.84853 3.99854 2.44023 8.69099 0.0534765 15.6755C-0.0178255 15.8855 -0.0178255 16.112 0.0534765 16.322C2.44023 23.3065 8.84853 27.999 16 27.999C23.1515 27.999 29.5598 23.3065 31.9466 16.322C32.0179 16.112 32.0179 15.8855 31.9466 15.6755C29.5598 8.69099 23.1515 3.99854 16 3.99854ZM16 25.9989C9.81441 25.9989 4.25472 21.994 2.06032 15.9987C4.25472 10.0035 9.81435 5.99859 16 5.99859C22.1856 5.99859 27.7453 10.0035 29.9397 15.9987C27.7453 21.994 22.1856 25.9989 16 25.9989Z" fill="#E53617"/>
<path d="M15.9997 10.001C12.6911 10.001 9.99963 12.6925 9.99963 16.0011C9.99963 19.3097 12.6911 22.0012 15.9997 22.0012C19.3084 22.0012 21.9999 19.3098 21.9999 16.0011C21.9999 12.6924 19.3084 10.001 15.9997 10.001ZM15.9997 20.0011C13.7936 20.0011 11.9997 18.2072 11.9997 16.0011C11.9997 13.795 13.7937 12.001 15.9997 12.001C18.2059 12.001 19.9998 13.795 19.9998 16.0011C19.9998 18.2072 18.2058 20.0011 15.9997 20.0011Z" fill="#E53617"/>
</g>
<defs>
<clipPath id="clip0_1_3228">
<rect width="32" height="32" fill="white"/>
</clipPath>
</defs>
</svg>
