<svg width="32" height="32" viewBox="0 0 32 32" fill="none" xmlns="http://www.w3.org/2000/svg">
<path d="M4 14.9091V17.091C4 18.1955 3.10456 19.091 2 19.091C0.895437 19.091 0 18.1955 0 17.091V14.9091C0 13.8045 0.895437 12.9091 2 12.9091C3.10456 12.9091 4 13.8045 4 14.9091Z" fill="#0066D9"/>
<path d="M28.0008 14.9659C28.0003 14.947 28 14.928 28 14.9091C28 13.8045 28.8954 12.9091 30 12.9091C31.1046 12.9091 32 13.8045 32 14.9091C32 14.9281 31.9997 14.9471 31.9992 14.9659H32V17.1478H31.9992C31.9692 18.226 31.0856 19.0909 30 19.0909C28.9144 19.0909 28.0309 18.226 28.0008 17.1478H28V14.9659H28.0008V14.9659Z" fill="#4285F4"/>
<path d="M10.9089 21.4546V23.6364C10.9089 24.741 10.0136 25.6364 8.90894 25.6364C7.80431 25.6364 6.90894 24.741 6.90894 23.6364V21.4545C6.90894 20.35 7.80437 19.4545 8.90894 19.4545C10.0135 19.4545 10.9089 20.35 10.9089 21.4545V21.4546ZM10.9089 8.36365V15.5H10.9084C10.8843 16.5836 9.99831 17.4546 8.90894 17.4546C7.81956 17.4546 6.93362 16.5836 6.9095 15.5H6.90894V8.36365C6.90894 7.25908 7.80437 6.36365 8.90894 6.36365C10.0135 6.36365 10.9089 7.25908 10.9089 8.36365Z" fill="#EA4335"/>
<path d="M21.0911 10.5455C21.0911 11.65 21.9864 12.5455 23.0911 12.5455C24.1957 12.5455 25.0911 11.65 25.0911 10.5455V8.36365C25.0911 7.25909 24.1956 6.36365 23.0911 6.36365C21.9865 6.36365 21.0911 7.25909 21.0911 8.36365V10.5455Z" fill="#34A853"/>
<path d="M14 4.18188C14 5.28638 14.8954 6.18188 16 6.18188C17.1046 6.18188 18 5.28638 18 4.18188V2C18 0.895437 17.1046 0 16 0C14.8954 0 14 0.895437 14 2V4.18188ZM14 27.8181C14 26.7136 14.8954 25.8181 16 25.8181C17.1046 25.8181 18 26.7136 18 27.8181V30C18 31.1046 17.1046 32 16 32C14.8954 32 14 31.1046 14 30V27.8181Z" fill="#FAB908"/>
<path d="M21.0911 16.5454C21.0911 15.4408 21.9864 14.5454 23.0911 14.5454C24.1957 14.5454 25.0911 15.4408 25.0911 16.5454V23.6363C25.0911 24.7409 24.1956 25.6363 23.0911 25.6363C21.9865 25.6363 21.0911 24.7409 21.0911 23.6363V16.5454Z" fill="#34A853"/>
<path d="M18 10.1819V21.8181C18 22.9228 17.1046 23.8181 16 23.8181C14.8954 23.8181 14 22.9228 14 21.8181V10.1819C14 9.07726 14.8954 8.18188 16 8.18188C17.1046 8.18188 18 9.07726 18 10.1819Z" fill="#FAB908"/>
</svg>
