<svg width="32" height="32" viewBox="0 0 32 32" fill="none" xmlns="http://www.w3.org/2000/svg">
<g clip-path="url(#clip0_9291_7554)">
<path d="M30.3374 9.27542C30.1654 8.64233 29.8297 8.06517 29.3639 7.6014C28.8981 7.13763 28.3183 6.80344 27.6824 6.6321C25.3544 6 15.9848 6 15.9848 6C15.9848 6 6.61471 6.01913 4.28666 6.65123C3.65075 6.82258 3.07101 7.15679 2.60519 7.62058C2.13937 8.08437 1.80372 8.66156 1.63166 9.29467C0.927483 13.4128 0.654319 19.6878 1.651 23.6412C1.82307 24.2743 2.15873 24.8514 2.62455 25.3152C3.09037 25.779 3.6701 26.1131 4.306 26.2845C6.63405 26.9166 16.0039 26.9166 16.0039 26.9166C16.0039 26.9166 25.3736 26.9166 27.7015 26.2845C28.3375 26.1132 28.9172 25.779 29.3831 25.3152C29.8489 24.8514 30.1846 24.2743 30.3567 23.6412C31.0994 19.5172 31.3283 13.2462 30.3374 9.27553V9.27542Z" fill="#FF0000"/>
<path d="M13.0024 20.9408L20.7753 16.4587L13.0024 11.9766V20.9408Z" fill="white"/>
</g>
<defs>
<clipPath id="clip0_9291_7554">
<rect width="30" height="21" fill="white" transform="translate(1 6)"/>
</clipPath>
</defs>
</svg>
