<svg width="80" height="80" viewBox="0 0 80 80" fill="none" xmlns="http://www.w3.org/2000/svg">
<path d="M55.8557 46.5664L57.61 48.8643H54.3648V52.2411H53.4792V70.6692H18.061V52.2411H17.1754V48.8643H13.9303L15.6845 46.5664H5.00403V79.8226H66.5362V46.5664H55.8557ZM57.2404 56.8221C57.2404 55.4502 58.3512 54.3394 59.7231 54.3394C61.0951 54.3394 62.2058 55.4502 62.2058 56.8221V61.3564H57.2404V56.8221ZM56.7222 61.8937H62.724V62.9004H56.7222V61.8937ZM61.2289 75.2077V76.0147H10.3113V75.2077H61.2289ZM10.5428 69.0997V66.5511H13.0914V69.0997H10.5428ZM14.4591 73.6977V72.8906H57.0812V73.6977H14.4591ZM58.4489 69.0997V66.5511H60.9974V69.0997H58.4489ZM16.6338 70.6946H54.9064V71.5017H16.6338V70.6946ZM9.33441 56.8221C9.33441 55.4502 10.4451 54.3394 11.8171 54.3394C13.1891 54.3394 14.2998 55.4502 14.2998 56.8221V61.3564H9.33441V56.8221ZM8.81621 61.8937H14.818V62.9004H8.81621V61.8937ZM65.4849 78.3339H6.05742V77.5268H65.4849V78.3339Z" fill="white"/>
<path d="M15.7015 44.73V46.1423H2.05836L4.38177 44.73H15.7015ZM15.9139 44.5176H4.3223L1.30017 46.3546H15.848L15.9139 46.2676V44.5176Z" fill="white"/>
<path d="M67.1562 44.73L69.4797 46.1423H55.8365V44.73H67.1562ZM67.2157 44.5176H55.6241V46.2676L55.69 46.3546H70.2379L67.2157 44.5176Z" fill="white"/>
<path d="M22.0516 52.2402H19.0316V53.1195H22.0516V52.2402Z" fill="white"/>
<path d="M21.4272 53.332H19.6581V67.3468H21.4272V53.332Z" fill="white"/>
<path d="M21.7968 67.5586H19.2886V70.6678H21.7968V67.5586Z" fill="white"/>
<path d="M28.1424 52.2402H25.1245V53.1195H28.1424V52.2402Z" fill="white"/>
<path d="M27.5181 53.332H25.749V67.3468H27.5181V53.332Z" fill="white"/>
<path d="M27.8877 67.5586H25.3795V70.6678H27.8877V67.5586Z" fill="white"/>
<path d="M34.2335 52.2402H31.2156V53.1195H34.2335V52.2402Z" fill="white"/>
<path d="M33.6092 53.332H31.8401V67.3468H33.6092V53.332Z" fill="white"/>
<path d="M33.9788 67.5586H31.4706V70.6678H33.9788V67.5586Z" fill="white"/>
<path d="M40.3245 52.2402H37.3066V53.1195H40.3245V52.2402Z" fill="white"/>
<path d="M39.7003 53.332H37.9312V67.3468H39.7003V53.332Z" fill="white"/>
<path d="M40.0697 67.5586H37.5615V70.6678H40.0697V67.5586Z" fill="white"/>
<path d="M46.4156 52.2402H43.3977V53.1195H46.4156V52.2402Z" fill="white"/>
<path d="M45.789 53.332H44.0199V67.3468H45.789V53.332Z" fill="white"/>
<path d="M46.1585 67.5586H43.6503V70.6678H46.1585V67.5586Z" fill="white"/>
<path d="M52.5065 52.2402H49.4865V53.1195H52.5065V52.2402Z" fill="white"/>
<path d="M51.8822 53.332H50.1152V67.3468H51.8822V53.332Z" fill="white"/>
<path d="M52.2516 67.5586H49.7434V70.6678H52.2516V67.5586Z" fill="white"/>
<path d="M54.1524 48.8633H17.3877V52.0277H54.1524V48.8633Z" fill="white"/>
<path d="M55.414 44.5156H16.1262V46.1403H55.414V44.5156Z" fill="white"/>
<path d="M49.1382 42.4409V44.0932H22.402V42.4409H49.1382ZM49.3506 42.2285H22.1896V44.3056H49.3506V42.2285Z" fill="white"/>
<path d="M51.2555 32.5977H20.2844V34.1735H51.2555V32.5977Z" fill="white"/>
<path d="M51.2555 35.5742H20.2844V36.1073H51.2555V35.5742Z" fill="white"/>
<path d="M22.0878 34.1738H21.215V35.5755H22.0878V34.1738Z" fill="white"/>
<path d="M24.1055 34.1738H23.2327V35.5755H24.1055V34.1738Z" fill="white"/>
<path d="M26.1209 34.1738H25.248V35.5755H26.1209V34.1738Z" fill="white"/>
<path d="M28.1384 34.1738H27.2655V35.5755H28.1384V34.1738Z" fill="white"/>
<path d="M30.1561 34.1738H29.2832V35.5755H30.1561V34.1738Z" fill="white"/>
<path d="M32.1715 34.1738H31.2986V35.5755H32.1715V34.1738Z" fill="white"/>
<path d="M34.1892 34.1738H33.3163V35.5755H34.1892V34.1738Z" fill="white"/>
<path d="M36.2066 34.1738H35.3337V35.5755H36.2066V34.1738Z" fill="white"/>
<path d="M38.2221 34.1738H37.3492V35.5755H38.2221V34.1738Z" fill="white"/>
<path d="M40.2398 34.1738H39.3669V35.5755H40.2398V34.1738Z" fill="white"/>
<path d="M42.2574 34.1738H41.3845V35.5755H42.2574V34.1738Z" fill="white"/>
<path d="M44.2729 34.1738H43.4V35.5755H44.2729V34.1738Z" fill="white"/>
<path d="M46.2902 34.1738H45.4174V35.5755H46.2902V34.1738Z" fill="white"/>
<path d="M48.3079 34.1738H47.4351V35.5755H48.3079V34.1738Z" fill="white"/>
<path d="M50.3234 34.1738H49.4506V35.5755H50.3234V34.1738Z" fill="white"/>
<path d="M46.6746 29.2085V32.1754H24.8613V29.2085H46.6746ZM46.887 28.9961H24.6489V32.3878H46.887V28.9961Z" fill="white"/>
<path d="M48.3015 28.785H23.2367L22.453 27.3281H49.0852L48.3015 28.785Z" fill="white"/>
<path d="M39.8828 15.7163C44.8142 17.3155 48.1252 21.6161 48.1252 26.4307C48.1252 26.5943 48.1209 26.7514 48.1145 26.9022H23.4235C23.4171 26.7514 23.4129 26.5943 23.4129 26.4307C23.4129 21.6183 26.7239 17.3176 31.6553 15.7163H39.8828ZM39.9168 15.5039H31.6234C26.7196 17.0819 23.2026 21.3783 23.2026 26.4307C23.2026 26.6601 23.209 26.8895 23.2239 27.1146H48.3163C48.3312 26.8895 48.3375 26.6601 48.3375 26.4307C48.3375 21.3783 44.8206 17.0797 39.9168 15.5039Z" fill="white"/>
<path d="M39.182 11.791H32.3562V15.291H39.182V11.791Z" fill="white"/>
<path d="M35.7712 9.51707C36.8628 9.51707 37.793 10.3135 37.9842 11.3669H33.5582C33.7472 10.3135 34.6796 9.51707 35.7733 9.51707M35.7733 9.30469C34.4757 9.30469 33.4138 10.305 33.3182 11.5793H38.2263C38.1307 10.305 37.0688 9.30469 35.7733 9.30469Z" fill="white"/>
<path d="M22.1896 36.3203V41.6659H49.3506V36.3203H22.1896ZM24.5746 40.9459H23.844V38.0236H24.5746V40.9459ZM26.6771 40.9459H25.9465V38.0236H26.6771V40.9459ZM28.7797 40.9459H28.0491V38.0236H28.7797V40.9459ZM30.8822 40.9459H30.1516V38.0236H30.8822V40.9459ZM32.9847 40.9459H32.2542V38.0236H32.9847V40.9459ZM35.0873 40.9459H34.3567V38.0236H35.0873V40.9459ZM37.1898 40.9459H36.4592V38.0236H37.1898V40.9459ZM39.2923 40.9459H38.5618V38.0236H39.2923V40.9459ZM41.3949 40.9459H40.6643V38.0236H41.3949V40.9459ZM43.4974 40.9459H42.7669V38.0236H43.4974V40.9459ZM45.6 40.9459H44.8694V38.0236H45.6V40.9459ZM47.7025 40.9459H46.9719V38.0236H47.7025V40.9459Z" fill="white"/>
<path d="M65.7333 40.4624C65.9988 41.3225 66.1325 42.2251 66.1325 43.149C66.1325 43.4675 66.1177 43.784 66.0858 44.0919H52.9503C52.9184 43.784 52.9035 43.4675 52.9035 43.149C52.9035 42.2251 53.0373 41.3225 53.3028 40.4624H65.7354M65.8904 40.25H53.1478C52.8526 41.1505 52.6912 42.1274 52.6912 43.149C52.6912 43.5419 52.7145 43.9284 52.7613 44.3043H66.277C66.3237 43.9284 66.347 43.5419 66.347 43.149C66.347 42.1274 66.1856 41.1505 65.8904 40.25Z" fill="white"/>
<path d="M65.6485 38.2656H53.3858L52.1094 40.0369H66.9248L65.6485 38.2656Z" fill="white"/>
<path d="M61.8936 31.3803C64.1151 32.3297 65.5465 34.4917 65.5465 36.9C65.5465 37.2122 65.521 37.5266 65.4722 37.8409H53.562C53.5132 37.5266 53.4877 37.2122 53.4877 36.9C53.4877 34.4917 54.9212 32.3297 57.1406 31.3803H61.8915M61.934 31.168H57.096C54.8512 32.1088 53.2732 34.3197 53.2732 36.9C53.2732 37.2951 53.3114 37.6795 53.3815 38.0533H65.6484C65.7185 37.6795 65.7568 37.2951 65.7568 36.9C65.7568 34.3197 64.1788 32.1088 61.934 31.168Z" fill="white"/>
<path d="M61.3159 30.1191H57.7183V30.958H61.3159V30.1191Z" fill="white"/>
<path d="M60.3221 29.906H58.7123L59.5193 26.8711L60.3221 29.906Z" fill="white"/>
<path d="M18.2372 40.4624C18.5027 41.3225 18.6364 42.2251 18.6364 43.149C18.6364 43.4675 18.6216 43.784 18.5897 44.0919H5.45417C5.42231 43.784 5.40745 43.4675 5.40745 43.149C5.40745 42.2251 5.54124 41.3225 5.80672 40.4624H18.2393M18.3943 40.25H5.65168C5.35647 41.1505 5.19507 42.1274 5.19507 43.149C5.19507 43.5419 5.21843 43.9284 5.26515 44.3043H18.7809C18.8276 43.9284 18.8509 43.5419 18.8509 43.149C18.8509 42.1274 18.6895 41.1505 18.3943 40.25Z" fill="white"/>
<path d="M18.1524 38.2656H5.88967L4.61328 40.0369H19.4287L18.1524 38.2656Z" fill="white"/>
<path d="M14.3974 31.3803C16.6189 32.3297 18.0503 34.4917 18.0503 36.9C18.0503 37.2122 18.0248 37.5266 17.9759 37.8409H6.06581C6.01697 37.5266 5.99148 37.2122 5.99148 36.9C5.99148 34.4917 7.42503 32.3297 9.64437 31.3803H14.3953M14.4377 31.168H9.59978C7.35494 32.1088 5.77698 34.3197 5.77698 36.9C5.77698 37.2951 5.81521 37.6795 5.88529 38.0533H18.1522C18.2223 37.6795 18.2605 37.2951 18.2605 36.9C18.2605 34.3197 16.6826 32.1088 14.4377 31.168Z" fill="white"/>
<path d="M13.8198 30.1191H10.2222V30.958H13.8198V30.1191Z" fill="white"/>
<path d="M12.8279 29.906H11.2159L12.023 26.8711L12.8279 29.906Z" fill="white"/>
<path d="M70.4864 79.9975H1.05162C0.992158 79.9975 0.945435 79.9508 0.945435 79.8913C0.945435 79.8319 0.992158 79.7852 1.05162 79.7852H70.4864C70.5458 79.7852 70.5926 79.8319 70.5926 79.8913C70.5926 79.9508 70.5458 79.9975 70.4864 79.9975Z" fill="white"/>
<path d="M25.4262 12.2539H14.9432C14.888 12.2539 14.8413 12.2093 14.8371 12.1541V12.1265C14.8328 12.0883 14.8307 12.0479 14.8307 12.0097C14.8307 10.7991 15.8161 9.8137 17.0246 9.8137C17.1286 9.8137 17.2327 9.8222 17.341 9.83707C17.8401 8.71784 18.9423 8 20.172 8C21.4017 8 22.506 8.71996 23.0051 9.83919C23.1177 9.8222 23.2302 9.8137 23.3428 9.8137C24.5533 9.8137 25.5366 10.7991 25.5366 12.0097C25.5366 12.05 25.5345 12.0883 25.5324 12.1265V12.1541C25.526 12.2093 25.4814 12.2539 25.4241 12.2539H25.4262ZM15.0431 12.0415H25.3264C25.3264 12.0309 25.3264 12.0203 25.3264 12.0097C25.3264 10.9159 24.4365 10.0261 23.3449 10.0261C23.2196 10.0261 23.0901 10.0388 22.9626 10.0643C22.9117 10.0749 22.8628 10.0473 22.8437 10.0006C22.3956 8.91535 21.3464 8.21238 20.172 8.21238C18.9975 8.21238 17.9526 8.91322 17.5024 9.99635C17.4833 10.0431 17.4344 10.0686 17.3856 10.0601C17.2603 10.0367 17.1414 10.0261 17.0246 10.0261C15.9308 10.0261 15.0431 10.9159 15.0431 12.0097C15.0431 12.0203 15.0431 12.0309 15.0431 12.0415Z" fill="white"/>
<path d="M67.3359 19.8957H50.2459C50.2161 19.8957 50.1885 19.8829 50.1673 19.8617C50.1482 19.8404 50.1375 19.8107 50.1397 19.781C50.2352 18.5556 51.2717 17.5956 52.5013 17.5956C52.9261 17.5956 53.3402 17.7082 53.7055 17.9248C54.2237 16.9309 55.2601 16.2959 56.3836 16.2959C56.5004 16.2959 56.6257 16.3044 56.7637 16.3235C57.4794 15.0683 58.8132 14.291 60.2595 14.291C61.7058 14.291 63.0756 15.0874 63.7849 16.3766C64.0143 16.3235 64.2416 16.2959 64.4645 16.2959C66.1296 16.2959 67.4846 17.6508 67.4846 19.3159C67.4846 19.4688 67.4697 19.6281 67.4421 19.8065C67.4336 19.8574 67.389 19.8957 67.338 19.8957H67.3359ZM50.3627 19.6833H67.2446C67.2616 19.5537 67.2722 19.4327 67.2722 19.318C67.2722 17.7698 66.0128 16.5104 64.4645 16.5104C64.2331 16.5104 63.9952 16.5422 63.7573 16.6038C63.7106 16.6166 63.6596 16.5932 63.6363 16.5507C62.9758 15.2892 61.6824 14.5055 60.2595 14.5055C58.8365 14.5055 57.5835 15.2658 56.9124 16.4913C56.8912 16.5295 56.8487 16.5528 56.8041 16.5443C56.6469 16.521 56.5131 16.5104 56.3836 16.5104C55.3047 16.5104 54.3065 17.1433 53.8457 18.1244C53.8329 18.152 53.8074 18.1733 53.7777 18.1818C53.748 18.1903 53.7161 18.186 53.6906 18.169C53.336 17.9354 52.9261 17.8122 52.5013 17.8122C51.4203 17.8122 50.5028 18.6278 50.3627 19.6875V19.6833Z" fill="white"/>
<path d="M2.70569 19.0464H0.106189C0.0467231 19.0464 0 18.9996 0 18.9402C0 18.8807 0.0467231 18.834 0.106189 18.834H2.70569C2.76516 18.834 2.81188 18.8807 2.81188 18.9402C2.81188 18.9996 2.76516 19.0464 2.70569 19.0464Z" fill="white"/>
<path d="M17.2238 21.8725H8.11705C8.05759 21.8725 8.01086 21.8258 8.01086 21.7663C8.01086 21.7069 8.05759 21.6602 8.11705 21.6602H17.2238C17.2833 21.6602 17.33 21.7069 17.33 21.7663C17.33 21.8258 17.2833 21.8725 17.2238 21.8725Z" fill="white"/>
<path d="M10.3598 19.0464H4.18602C4.12656 19.0464 4.07983 18.9996 4.07983 18.9402C4.07983 18.8807 4.12656 18.834 4.18602 18.834H10.3598C10.4193 18.834 10.466 18.8807 10.466 18.9402C10.466 18.9996 10.4193 19.0464 10.3598 19.0464Z" fill="white"/>
</svg>
