<svg width="80" height="80" viewBox="0 0 80 80" fill="none" xmlns="http://www.w3.org/2000/svg">
<g clip-path="url(#clip0_3801_10826)">
<path d="M69.6274 55.5631C69.6296 55.5145 69.634 55.4681 69.634 55.4196C69.634 54.2206 68.6624 53.2468 67.4612 53.2468C67.3177 53.2468 67.1786 53.2622 67.0439 53.2887C66.5758 52.1582 65.4651 51.3633 64.1645 51.3633C62.864 51.3633 61.7555 52.1582 61.2874 53.2865C61.1593 53.2622 61.0268 53.249 60.8921 53.249C59.6931 53.249 58.7194 54.2206 58.7194 55.4218C58.7194 55.4703 58.7238 55.5189 58.726 55.5653H69.6252L69.6274 55.5631Z" stroke="white" stroke-width="0.354425" stroke-linecap="round" stroke-linejoin="round"/>
<path d="M24.4164 31.3092C24.4429 31.148 24.4606 30.9846 24.4606 30.819C24.4606 29.1453 23.1048 27.7895 21.4311 27.7895C21.1661 27.7895 20.9121 27.8271 20.6671 27.8911C19.987 26.5927 18.6268 25.7051 17.059 25.7051C15.4913 25.7051 14.1752 26.564 13.4841 27.8271C13.3362 27.805 13.1838 27.7895 13.0292 27.7895C11.817 27.7895 10.7748 28.5027 10.2912 29.5295C9.92022 29.2844 9.47419 29.1387 8.99503 29.1387C7.75629 29.1387 6.74497 30.0948 6.65002 31.3092H24.4186H24.4164Z" stroke="white" stroke-width="0.354425" stroke-linecap="round" stroke-linejoin="round"/>
<path d="M4.09094 42.6074H6.79145" stroke="white" stroke-width="0.354425" stroke-linecap="round" stroke-linejoin="round"/>
<path d="M12.4174 45.5469H17.4695" stroke="white" stroke-width="0.354425" stroke-linecap="round" stroke-linejoin="round"/>
<path d="M58.6198 24.1934H64.1091" stroke="white" stroke-width="0.354425" stroke-linecap="round" stroke-linejoin="round"/>
<path d="M65.1006 24.1934H67.0261" stroke="white" stroke-width="0.354425" stroke-linecap="round" stroke-linejoin="round"/>
<path d="M60.7817 26.7324H64.4891" stroke="white" stroke-width="0.354425" stroke-linecap="round" stroke-linejoin="round"/>
<path d="M8.3302 42.6074H14.7492" stroke="white" stroke-width="0.354425" stroke-linecap="round" stroke-linejoin="round"/>
<path d="M33.6842 50.7756C33.6356 50.7932 33.587 50.8109 33.5407 50.8264C35.4573 50.1109 37.6411 49.188 39.9861 48H45.7007L45.789 52.3036H33.5385L33.6842 50.7734V50.7756Z" fill="white"/>
<path d="M33.5029 52.6602H45.7954L45.8837 56.9637H33.0922L33.5029 52.6602Z" fill="white"/>
<path d="M33.0594 57.3184H45.8929L45.979 61.6219H32.6465L33.0594 57.3184Z" fill="white"/>
<path d="M32.6132 61.9785H45.9855L46.076 66.2821H32.2025L32.6132 61.9785Z" fill="white"/>
<path d="M32.1668 66.6387H46.0823L46.1684 70.9401H31.7561L32.1668 66.6387Z" fill="white"/>
<path d="M46.2655 75.6005H31.3101L31.723 71.2969H46.1772L46.2655 75.6005Z" fill="white"/>
<path d="M52.0133 75.9531L51.9559 80.2567H30.8663L31.277 75.9531H31.2925H46.2723L46.3319 78.8104L46.3473 75.9531H48.6018L48.657 78.8568L48.7784 75.9531H52.0133Z" fill="white"/>
<path d="M48.5111 71.2969L48.5928 75.6005H46.3516L46.3759 71.2969H48.5111Z" fill="white"/>
<path d="M52.0775 71.2969L52.0179 75.6005H48.7919L48.9663 71.2969H52.0775Z" fill="white"/>
<path d="M48.4209 66.6387L48.5048 70.9401H46.3784L46.4027 66.6387H48.4209Z" fill="white"/>
<path d="M52.1415 66.6387L52.0819 70.9401H48.9817L49.1561 66.6387H52.1415Z" fill="white"/>
<path d="M48.3305 61.9785L48.4144 66.2821H46.405L46.4293 61.9785H48.3305Z" fill="white"/>
<path d="M52.2031 61.9785L52.1457 66.2821H49.1714L49.348 61.9785H52.2031Z" fill="white"/>
<path d="M48.2396 57.3184L48.3235 61.6219H46.4312L46.4554 57.3184H48.2396Z" fill="white"/>
<path d="M52.2673 57.3184L52.2077 61.6219H49.3615L49.5381 57.3184H52.2673Z" fill="white"/>
<path d="M48.1493 52.6602L48.2332 56.9637H46.4579L46.4844 52.6602H48.1493Z" fill="white"/>
<path d="M52.3289 52.6602L52.2715 56.9637H49.5511L49.7278 52.6602H52.3289Z" fill="white"/>
<path d="M48.0587 48L48.1426 52.3036H46.4866L46.5109 48H48.0587Z" fill="white"/>
<path d="M52.393 48L52.3356 52.3036H49.7433L49.9177 48H52.393Z" fill="white"/>
<path d="M45.6342 44.7637L45.6938 47.6452H40.6814C42.2779 46.8106 43.9406 45.8567 45.6342 44.7637Z" fill="white"/>
<path d="M47.9659 43.1875L48.0542 47.6501H46.5151L46.535 44.1789C46.8552 43.9648 47.1776 43.7462 47.5 43.5209C47.6589 43.4083 47.8157 43.3001 47.9659 43.1875Z" fill="white"/>
<path d="M52.4572 43.3457L52.3998 47.6471H49.9333L50.1078 43.3457H52.4572Z" fill="white"/>
<path d="M52.5277 38.1777L52.4614 42.987H50.123L50.1915 41.3132C51.2978 40.2291 52.0485 39.178 52.5277 38.1777Z" fill="white"/>
<path d="M27.3971 125.38C26.271 124.04 25.6417 122.351 25.613 120.6L24.5266 51.7754C24.807 52.0978 25.0786 52.3605 25.3083 52.5615L27.3154 117.374L27.3199 117.332L27.3971 125.382V125.38Z" fill="white"/>
<path d="M50.0546 28.6261C49.8095 22.1696 49.5666 15.7131 49.3215 9.25665C49.3149 9.08442 49.1735 8.94531 48.9991 8.94531C48.8247 8.94531 48.6834 9.08221 48.6767 9.25665L47.9591 28.752C40.838 30.6554 28.7398 36.2352 24.6173 41.9476C20.1326 48.1634 25.8759 51.7825 25.8759 51.7825C25.8759 51.7825 36.1038 50.1286 47.1929 42.4974C56.9174 35.8091 51.5274 29.9642 50.0502 28.6261H50.0546ZM50.5227 33.4398H39.0494C42.5117 31.6799 45.9563 30.3551 48.3499 29.8516C48.3521 29.8516 48.3543 29.8516 48.3588 29.8516C48.3919 29.8759 50.1275 31.2295 50.5227 33.4398ZM36.7177 34.6918H50.5889C50.5779 34.8375 50.5624 34.9854 50.5382 35.1378H35.947C36.2032 34.9877 36.4593 34.8397 36.7177 34.6918ZM26.3219 44.3147H41.295C41.9994 43.904 42.7193 43.4646 43.4479 42.992C42.4499 43.639 41.4673 44.2264 40.5156 44.7607H26.2181C26.28 44.4251 26.3771 44.1159 26.3219 44.3147ZM26.1894 44.9374H40.1954C33.538 48.6072 28.3401 49.6428 28.3401 49.6428C28.3401 49.6428 25.7434 47.9448 26.1894 44.9374ZM43.4502 42.9898H26.8629C27.1058 42.5372 27.4149 42.0646 27.808 41.5744C28.0376 41.2852 28.2938 40.9959 28.5653 40.7066H46.6806C46.3936 40.9385 46.091 41.1703 45.7665 41.4066C44.987 41.9697 44.2142 42.4974 43.4524 42.9898H43.4502ZM46.897 40.5278H28.7332C28.8767 40.3798 29.0246 40.2319 29.177 40.0817H47.4115C47.2481 40.2297 47.0759 40.3776 46.897 40.5278ZM49.0256 38.3749H31.1466C32.4958 37.3128 34.0326 36.2772 35.6467 35.3145H50.5072C50.3284 36.2485 49.8801 37.2752 49.0256 38.3749Z" fill="white"/>
<path d="M31.0208 63.7268H26.9932L27.0087 65.3851H30.8618L30.6918 67.1759H27.0263L27.0418 68.8341H30.5328L30.3628 70.6227H27.0595L27.0727 72.281H30.2016L30.0316 74.0695H27.0904L27.1058 75.7278H29.8726L29.7026 77.5164H27.1235L27.139 79.1747H29.5436L29.3736 80.9654H27.1566L27.1721 82.6237H29.2146L29.0445 84.4123H27.1897L27.5762 125.068C27.5762 125.167 27.4989 125.247 27.3995 125.247C27.3024 125.247 27.2229 125.167 27.2207 125.07L26.5339 52.9093C26.6399 52.8872 26.757 52.8629 26.8872 52.832C26.8872 52.8453 26.8916 52.8563 26.8916 52.8696L26.9778 61.936H31.1952L31.0252 63.7246L31.0208 63.7268Z" fill="white"/>
</g>
<defs>
<clipPath id="clip0_3801_10826">
<rect y="9" width="75" height="70.9091" rx="35.4545" fill="white"/>
</clipPath>
</defs>
</svg>
