<svg width="80" height="80" viewBox="0 0 80 80" fill="none" xmlns="http://www.w3.org/2000/svg">
<g clip-path="url(#clip0_3783_10886)">
<path d="M-2.90869 61.7441V63.046H14.6531V63.6144H-2.90869V63.8123H14.851V61.7441H-2.90869Z" fill="white"/>
<path d="M18.8439 61.7441V63.8123H68.951V61.7441H18.8439ZM68.753 63.6144H19.0418V63.046H68.753V63.6144Z" fill="white"/>
<path d="M81.908 63.046V61.7441H72.9437V63.8123H81.908V63.6144H73.1416V63.046H81.908Z" fill="white"/>
<path d="M15.2214 52.2969V71.7579H18.4589V52.2969H15.2214ZM16.2564 71.5618H15.8951V52.4948H16.2564V71.5618ZM18.261 71.5618H17.2569V52.4948H18.261V71.5618Z" fill="white"/>
<path d="M14.9473 71.957V73.1155H18.7294V71.957H14.9473ZM18.5333 72.9194H17.0372V72.1531H18.5333V72.9194Z" fill="white"/>
<path d="M14.6422 73.3086V76.4262H19.0363V73.3086H14.6422ZM18.8402 76.2301H16.7467V73.5065H18.8402V76.2301Z" fill="white"/>
<path d="M15.55 43.9707V52.0998H18.1284V43.9707H15.55ZM17.9305 51.9018H17.1007V44.1668H17.9305V51.9018Z" fill="white"/>
<path d="M15.8188 37.0527V43.7728H17.8579V37.0527H15.8188ZM17.6618 43.5767H17.0772V37.2488H17.6618V43.5767Z" fill="white"/>
<path d="M15.995 31.0703V36.8553H17.6836V31.0703H15.995ZM17.4857 36.6592H17.0663V31.2664H17.4857V36.6592Z" fill="white"/>
<path d="M17.9778 30.2988H15.7026V30.8726H17.9778V30.2988Z" fill="white"/>
<path d="M17.6799 29.6875H16.0004V30.1015H17.6799V29.6875Z" fill="white"/>
<path d="M17.1369 29H16.5414V29.4921H17.1369V29Z" fill="white"/>
<path d="M6.56946 52.2969V61.5481H9.80692V52.2969H6.56946ZM7.60625 61.3592H7.24673V52.4948H7.60625V61.3592ZM9.61445 61.3592H8.60853V52.4948H9.61445V61.3592Z" fill="white"/>
<path d="M6.56946 64.0098V71.7575H9.80692V64.0098H6.56946ZM7.60625 71.5614H7.24673V64.1932H7.60625V71.5614ZM9.61445 71.5614H8.60853V64.1932H9.61445V71.5614Z" fill="white"/>
<path d="M6.29883 71.957V73.1155H10.081V71.957H6.29883ZM9.88309 72.9194H8.38874V72.1531H9.88309V72.9194Z" fill="white"/>
<path d="M5.99207 73.3086V76.4262H10.388V73.3086H5.99207ZM10.19 76.2301H8.0965V73.5065H10.19V76.2301Z" fill="white"/>
<path d="M6.8999 43.9707V52.0998H9.47825V43.9707H6.8999ZM9.28396 51.9018H8.45236V44.1668H9.28396V51.9018Z" fill="white"/>
<path d="M7.17041 37.0527V43.7728H9.20948V37.0527H7.17041ZM9.01339 43.5767H8.42872V37.2488H9.01339V43.5767Z" fill="white"/>
<path d="M7.34473 31.0703V36.8553H9.03336V31.0703H7.34473ZM8.83908 36.6592H8.41783V31.2664H8.83908V36.6592Z" fill="white"/>
<path d="M9.32749 30.2988H7.05237V30.8726H9.32749V30.2988Z" fill="white"/>
<path d="M9.02978 29.6875H7.35022V30.1015H9.02978V29.6875Z" fill="white"/>
<path d="M8.4868 29H7.89124V29.4921H8.4868V29Z" fill="white"/>
<path d="M15.0253 53.209H10.0048V56.668H15.0253V53.209Z" fill="white"/>
<path d="M15.2251 67.5898H9.81055V68.3833H15.2251V67.5898Z" fill="white"/>
<path d="M14.7511 72.2969H10.2771V73.281H14.7511V72.2969Z" fill="white"/>
<path d="M15.354 44.8906H9.67615V47.6578H15.354V44.8906Z" fill="white"/>
<path d="M15.6227 37.832H9.40564V39.9583H15.6227V37.832Z" fill="white"/>
<path d="M15.7987 31.1328H9.2312V33.1247H15.7987V31.1328Z" fill="white"/>
<path d="M14.7512 72.0736V72.1008H13.9722L12.5178 70.7226L12.1147 70.3413L10.2572 68.5801H11.0634L12.5178 69.9582L12.9209 70.3413L14.7512 72.0736Z" fill="white"/>
<path d="M14.7781 68.5801L12.9206 70.3413L12.5175 70.7226L11.0631 72.1008H10.2769V72.079L12.1144 70.3413L12.5175 69.9582L13.9719 68.5801H14.7781Z" fill="white"/>
<path d="M14.7749 67.3905H13.9687L12.518 66.0669L12.1149 65.6983L10.2628 64.0078H11.069L12.518 65.3315L12.9211 65.6983L14.7749 67.3905Z" fill="white"/>
<path d="M14.7731 64.0078L12.921 65.6983L12.5179 66.0669L11.0672 67.3905H10.261L12.1149 65.6983L12.5179 65.3315L13.9669 64.0078H14.7731Z" fill="white"/>
<path d="M69.3214 52.2969V71.7579H72.5589V52.2969H69.3214ZM70.3564 71.5618H69.9969V52.4948H70.3564V71.5618ZM72.361 71.5618H71.3587V52.4948H72.361V71.5618Z" fill="white"/>
<path d="M69.0471 71.957V73.1155H72.8293V71.957H69.0471ZM72.6332 72.9194H71.137V72.1531H72.6332V72.9194Z" fill="white"/>
<path d="M68.7422 73.3086V76.4262H73.1363V73.3086H68.7422ZM72.9402 76.2301H70.8466V73.5065H72.9402V76.2301Z" fill="white"/>
<path d="M69.65 43.9707V52.0998H72.2284V43.9707H69.65ZM72.0305 51.9018H71.2007V44.1668H72.0305V51.9018Z" fill="white"/>
<path d="M69.9187 37.0527V43.7728H71.9578V37.0527H69.9187ZM71.7617 43.5767H71.177V37.2488H71.7617V43.5767Z" fill="white"/>
<path d="M70.0948 31.0703V36.8553H71.7835V31.0703H70.0948ZM71.5856 36.6592H71.1661V31.2664H71.5856V36.6592Z" fill="white"/>
<path d="M72.0777 30.2988H69.8026V30.8726H72.0777V30.2988Z" fill="white"/>
<path d="M71.7799 29.6875H70.1003V30.1015H71.7799V29.6875Z" fill="white"/>
<path d="M71.237 29H70.6415V29.4921H71.237V29Z" fill="white"/>
<path d="M60.6694 52.2969V61.5481H63.9069V52.2969H60.6694ZM61.7062 61.3592H61.3467V52.4948H61.7062V61.3592ZM63.7144 61.3592H62.7085V52.4948H63.7144V61.3592Z" fill="white"/>
<path d="M60.6694 64.0098V71.7575H63.9069V64.0098H60.6694ZM61.7062 71.5614H61.3467V64.1932H61.7062V71.5614ZM63.7144 71.5614H62.7085V64.1932H63.7144V71.5614Z" fill="white"/>
<path d="M60.3988 71.957V73.1155H64.181V71.957H60.3988ZM63.9831 72.9194H62.4887V72.1531H63.9831V72.9194Z" fill="white"/>
<path d="M60.092 73.3086V76.4262H64.4879V73.3086H60.092ZM64.2918 76.2301H62.1965V73.5065H64.2918V76.2301Z" fill="white"/>
<path d="M60.9999 43.9707V52.0998H63.5782V43.9707H60.9999ZM63.3839 51.9018H62.5541V44.1668H63.3839V51.9018Z" fill="white"/>
<path d="M61.2703 37.0527V43.7728H63.3093V37.0527H61.2703ZM63.1132 43.5767H62.5304V37.2488H63.1132V43.5767Z" fill="white"/>
<path d="M61.4447 31.0703V36.8553H63.1333V31.0703H61.4447ZM62.9391 36.6592H62.5178V31.2664H62.9391V36.6592Z" fill="white"/>
<path d="M63.4276 30.2988H61.1525V30.8726H63.4276V30.2988Z" fill="white"/>
<path d="M63.1298 29.6875H61.4502V30.1015H63.1298V29.6875Z" fill="white"/>
<path d="M62.5869 29H61.9913V29.4921H62.5869V29Z" fill="white"/>
<path d="M69.1254 53.209H64.1049V56.668H69.1254V53.209Z" fill="white"/>
<path d="M69.3251 67.5898H63.9105V68.3833H69.3251V67.5898Z" fill="white"/>
<path d="M68.8529 72.2969H64.3789V73.281H68.8529V72.2969Z" fill="white"/>
<path d="M69.4539 44.8906H63.7761V47.6578H69.4539V44.8906Z" fill="white"/>
<path d="M69.7227 37.832H63.5056V39.9583H69.7227V37.832Z" fill="white"/>
<path d="M69.8987 31.1328H63.3312V33.1247H69.8987V31.1328Z" fill="white"/>
<path d="M68.8513 72.0736V72.1008H68.0723L66.6179 70.7226L66.2148 70.3413L64.3573 68.5801H65.1635L66.6179 69.9582L67.021 70.3413L68.8513 72.0736Z" fill="white"/>
<path d="M68.8782 68.5801L67.0207 70.3413L66.6176 70.7226L65.1632 72.1008H64.3788V72.079L66.2145 70.3413L66.6176 69.9582L68.072 68.5801H68.8782Z" fill="white"/>
<path d="M68.8748 67.3905H68.0686L66.6178 66.0669L66.2147 65.6983L64.3627 64.0078H65.1689L66.6178 65.3315L67.0209 65.6983L68.8748 67.3905Z" fill="white"/>
<path d="M68.873 64.0078L67.0209 65.6983L66.6178 66.0669L65.167 67.3905H64.3608L66.2147 65.6983L66.6178 65.3315L68.0668 64.0078H68.873Z" fill="white"/>
<path d="M-2.90874 57.31C-2.94324 57.31 -2.97592 57.29 -2.99227 57.2555C-3.01224 57.2101 -2.99227 57.1556 -2.94687 57.1357C-2.55286 56.9614 -2.1661 56.7816 -1.79933 56.6018C-0.998585 56.2115 -0.206923 55.7866 0.555686 55.3381C1.35461 54.8678 2.14627 54.3558 2.9107 53.8147C3.73323 53.2337 4.52489 52.6181 5.26389 51.9881C5.74506 51.5795 6.21534 51.1565 6.66201 50.7298C6.72011 50.6753 6.77822 50.619 6.83451 50.5645C7.0996 50.3067 7.3647 50.0434 7.6189 49.7801C7.74419 49.6512 7.86766 49.5205 7.98932 49.3897C8.02382 49.3534 8.0801 49.3516 8.11823 49.3861C8.15636 49.4206 8.15636 49.4769 8.12368 49.515C8.00021 49.6476 7.87674 49.7801 7.74964 49.909C7.49362 50.1741 7.22852 50.4392 6.96161 50.6971C6.90532 50.7515 6.84722 50.8078 6.7873 50.8641C6.33881 51.2926 5.8649 51.7193 5.38192 52.1297C4.63747 52.7652 3.84217 53.3825 3.01419 53.9672C2.24614 54.5101 1.44903 55.0258 0.646473 55.4979C-0.117952 55.95 -0.915062 56.3767 -1.72125 56.7689C-2.09166 56.9487 -2.48023 57.1302 -2.87606 57.3064C-2.88877 57.3118 -2.89966 57.3136 -2.91237 57.3136L-2.90874 57.31Z" fill="white"/>
<path d="M-2.90865 51.8385C-2.93407 51.8385 -2.95949 51.8276 -2.97765 51.8076C-3.01033 51.7695 -3.0067 51.7132 -2.96857 51.6787C-2.56729 51.3283 -2.18054 50.9724 -1.82102 50.6256C-0.993049 49.8285 -0.201386 48.9787 0.532172 48.1035C1.3892 47.0813 2.18268 46.0045 2.88718 44.906C3.78779 43.5061 4.57945 42.0263 5.24038 40.5029C6.17185 38.3567 6.84912 36.1088 7.25403 33.8228C7.38658 33.0729 7.49189 32.3102 7.56634 31.5585C7.57179 31.5077 7.61536 31.4732 7.6662 31.4768C7.71523 31.4823 7.75154 31.5259 7.74791 31.5767C7.67347 32.3339 7.56634 33.1001 7.43379 33.8554C7.02706 36.156 6.34616 38.4166 5.40924 40.5755C4.74468 42.108 3.94758 43.5969 3.04152 45.0041C2.33157 46.108 1.53446 47.1902 0.671984 48.2197C-0.0652049 49.1004 -0.862315 49.9538 -1.69574 50.7563C-2.05889 51.1068 -2.44564 51.4627 -2.85055 51.8167C-2.86689 51.8312 -2.88868 51.8385 -2.91047 51.8385H-2.90865Z" fill="white"/>
<path d="M9.42184 47.9832C9.40186 47.9832 9.38189 47.976 9.36373 47.9633C9.3256 47.9306 9.32015 47.8743 9.35102 47.8362C10.4114 46.5434 11.3738 45.1579 12.2126 43.7199C14.3715 40.0067 15.6934 35.9885 16.1401 31.7741C16.1455 31.7251 16.1891 31.687 16.2399 31.6942C16.289 31.6997 16.3253 31.7451 16.3198 31.7941C15.8695 36.0339 14.5404 40.0775 12.3688 43.8125C11.5245 45.2596 10.5567 46.6523 9.49083 47.9524C9.47267 47.9742 9.44725 47.985 9.42002 47.985L9.42184 47.9832Z" fill="white"/>
<path d="M81.908 51.8383C81.8862 51.8383 81.8662 51.831 81.8481 51.8165C81.5067 51.5206 81.1617 51.2046 80.8222 50.8796C79.9924 50.0898 79.1953 49.2454 78.4545 48.3721C77.6011 47.368 76.8058 46.3021 76.0849 45.2036C75.1789 43.82 74.3818 42.3602 73.7172 40.8658C72.8075 38.8304 72.1266 36.7005 71.6927 34.538C71.6564 34.3655 71.6237 34.1912 71.591 34.015C71.5819 33.966 71.6146 33.9188 71.6636 33.9097C71.7127 33.9006 71.7599 33.9333 71.7689 33.9823C71.8016 34.1567 71.8343 34.3291 71.8706 34.5016C72.3028 36.6533 72.98 38.7686 73.8843 40.7932C74.5452 42.2784 75.3369 43.7292 76.2375 45.1055C76.9529 46.1986 77.7445 47.259 78.5925 48.2559C79.3297 49.1238 80.1213 49.9626 80.9457 50.7489C81.2834 51.0721 81.6266 51.3844 81.9643 51.6785C82.0024 51.7112 82.0061 51.7693 81.9734 51.8074C81.9552 51.8274 81.9298 51.8383 81.9044 51.8383H81.908Z" fill="white"/>
<path d="M81.908 57.3107C81.8953 57.3107 81.8826 57.3089 81.8717 57.3035C81.5376 57.1564 81.2017 57.0003 80.8458 56.8278C80.0287 56.4338 79.2316 56.0107 78.4781 55.5695C77.6755 55.1028 76.8784 54.5926 76.1103 54.0551C75.306 53.4923 74.5107 52.8822 73.7444 52.2376C73.2179 51.7945 72.7022 51.3297 72.2101 50.8613C72.1974 50.8504 72.1811 50.834 72.1647 50.8177C72.1393 50.7941 72.1121 50.7668 72.0849 50.7414C72.0485 50.7069 72.0485 50.6488 72.0849 50.6125C72.1194 50.578 72.1774 50.5762 72.2138 50.6125C72.2392 50.6379 72.2646 50.6615 72.2918 50.6869C72.3064 50.7015 72.3209 50.716 72.3336 50.7269C72.8257 51.1972 73.3395 51.6565 73.8625 52.0978C74.6251 52.7369 75.4167 53.3452 76.2157 53.9044C76.9801 54.4401 77.7717 54.9467 78.5707 55.4115C79.3206 55.8491 80.1122 56.2703 80.9257 56.6625C81.2797 56.8332 81.612 56.9875 81.9461 57.1346C81.9915 57.1546 82.0133 57.2091 81.9915 57.2545C81.977 57.289 81.9425 57.3089 81.908 57.3089V57.3107Z" fill="white"/>
<path d="M69.6935 48.1278C69.6681 48.1278 69.6409 48.1169 69.6245 48.0951C68.5115 46.7533 67.5037 45.3134 66.6285 43.8118C64.8128 40.6924 63.5799 37.3333 62.9626 33.8271C62.9535 33.778 62.9862 33.7308 63.037 33.7218C63.086 33.7145 63.1333 33.7454 63.1423 33.7962C63.7561 37.2806 64.9817 40.6197 66.7865 43.721C67.6563 45.2136 68.6585 46.6462 69.7643 47.9789C69.797 48.0171 69.7916 48.0752 69.7516 48.106C69.7353 48.1206 69.7135 48.1278 69.6935 48.1278Z" fill="white"/>
<path d="M43.8501 55.8102C37.4986 55.8102 31.3433 53.4715 26.5171 49.2245C21.7453 45.0266 18.5405 39.2198 17.4947 32.8756C17.4874 32.8266 17.5201 32.7794 17.5691 32.7721C17.6163 32.7631 17.6653 32.7976 17.6726 32.8466C18.7112 39.149 21.8942 44.9176 26.6351 49.0884C31.4286 53.3063 37.5422 55.6286 43.8483 55.6286C50.1543 55.6286 56.4658 53.2319 61.2993 48.8777C66.0856 44.5654 69.2214 38.637 70.1274 32.1802C70.1347 32.1312 70.1801 32.0967 70.2291 32.1021C70.2781 32.1094 70.3126 32.1548 70.3072 32.2038C69.3957 38.7023 66.2399 44.6707 61.421 49.0103C56.5548 53.3935 50.3141 55.8066 43.8483 55.8066L43.8501 55.8102Z" fill="white"/>
<path d="M35.18 55.8101C28.8504 55.8101 22.7114 53.4859 17.8924 49.2662C13.1297 45.0954 9.91588 39.3214 8.84459 33.0062C8.83551 32.9572 8.87001 32.91 8.91904 32.9009C8.96806 32.8937 9.01527 32.9263 9.02435 32.9754C10.0884 39.2487 13.2804 44.9846 18.0123 49.1282C22.7985 53.3189 28.894 55.6267 35.18 55.6267C41.4661 55.6267 47.7976 53.2299 52.6311 48.8758C57.4174 44.5634 60.5532 38.635 61.4592 32.1783C61.4665 32.1292 61.5119 32.0947 61.5609 32.1002C61.6099 32.1074 61.6444 32.1528 61.639 32.2019C60.7275 38.7004 57.5717 44.6687 52.7528 49.0083C47.8866 53.3915 41.6459 55.8046 35.1819 55.8046L35.18 55.8101Z" fill="white"/>
<path d="M0.602994 62.215C0.552153 62.215 0.512207 62.1751 0.512207 62.1243V48.1631C0.512207 48.1122 0.552153 48.0723 0.602994 48.0723C0.653835 48.0723 0.693781 48.1122 0.693781 48.1631V62.1243C0.693781 62.1751 0.653835 62.215 0.602994 62.215Z" fill="white"/>
<path d="M2.9653 62.2146C2.91446 62.2146 2.87451 62.1747 2.87451 62.1238V44.956C2.87451 44.9052 2.91446 44.8652 2.9653 44.8652C3.01614 44.8652 3.05609 44.9052 3.05609 44.956V62.1238C3.05609 62.1747 3.01614 62.2146 2.9653 62.2146Z" fill="white"/>
<path d="M5.32565 62.2164C5.27481 62.2164 5.23486 62.1765 5.23486 62.1256V40.542C5.23486 40.4911 5.27481 40.4512 5.32565 40.4512C5.37649 40.4512 5.41644 40.4911 5.41644 40.542V62.1256C5.41644 62.1765 5.37649 62.2164 5.32565 62.2164Z" fill="white"/>
<path d="M7.68612 62.2154C7.63528 62.2154 7.59534 62.1755 7.59534 62.1247V49.8466C7.59534 49.7958 7.63528 49.7559 7.68612 49.7559C7.73696 49.7559 7.77691 49.7958 7.77691 49.8466V62.1247C7.77691 62.1755 7.73696 62.2154 7.68612 62.2154Z" fill="white"/>
<path d="M10.0486 62.2162C9.99771 62.2162 9.95776 62.1763 9.95776 62.1254V37.3642C9.95776 37.3134 9.99771 37.2734 10.0486 37.2734C10.0994 37.2734 10.1393 37.3134 10.1393 37.3642V62.1254C10.1393 62.1763 10.0994 62.2162 10.0486 62.2162Z" fill="white"/>
<path d="M12.4089 62.2147C12.3581 62.2147 12.3181 62.1747 12.3181 62.1239V42.5048C12.3181 42.454 12.3581 42.4141 12.4089 42.4141C12.4597 42.4141 12.4997 42.454 12.4997 42.5048V62.1239C12.4997 62.1747 12.4597 62.2147 12.4089 62.2147Z" fill="white"/>
<path d="M14.8619 38.3613H14.6803V61.7625H14.8619V38.3613Z" fill="white"/>
<path d="M17.1317 62.2151C17.0808 62.2151 17.0409 62.1752 17.0409 62.1243V48.4482C17.0409 48.3974 17.0808 48.3574 17.1317 48.3574C17.1825 48.3574 17.2225 48.3974 17.2225 48.4482V62.1243C17.2225 62.1752 17.1825 62.2151 17.1317 62.2151Z" fill="white"/>
<path d="M19.494 62.2167C19.4431 62.2167 19.4032 62.1767 19.4032 62.1259V39.3838C19.4032 39.3329 19.4431 39.293 19.494 39.293C19.5448 39.293 19.5848 39.3329 19.5848 39.3838V62.1259C19.5848 62.1767 19.5448 62.2167 19.494 62.2167Z" fill="white"/>
<path d="M21.8543 62.2163C21.8035 62.2163 21.7635 62.1764 21.7635 62.1255V43.7412C21.7635 43.6903 21.8035 43.6504 21.8543 43.6504C21.9052 43.6504 21.9451 43.6903 21.9451 43.7412V62.1255C21.9451 62.1764 21.9052 62.2163 21.8543 62.2163Z" fill="white"/>
<path d="M24.2166 62.2161C24.1658 62.2161 24.1259 62.1761 24.1259 62.1253V46.8095C24.1259 46.7587 24.1658 46.7188 24.2166 46.7188C24.2675 46.7188 24.3074 46.7587 24.3074 46.8095V62.1253C24.3074 62.1761 24.2675 62.2161 24.2166 62.2161Z" fill="white"/>
<path d="M26.5771 62.2142C26.5263 62.2142 26.4863 62.1742 26.4863 62.1234V49.1572C26.4863 49.1064 26.5263 49.0664 26.5771 49.0664C26.628 49.0664 26.6679 49.1064 26.6679 49.1572V62.1234C26.6679 62.1742 26.628 62.2142 26.5771 62.2142Z" fill="white"/>
<path d="M28.9375 62.2158C28.8866 62.2158 28.8467 62.1758 28.8467 62.125V51.0127C28.8467 50.9618 28.8866 50.9219 28.9375 50.9219C28.9883 50.9219 29.0283 50.9618 29.0283 51.0127V62.125C29.0283 62.1758 28.9883 62.2158 28.9375 62.2158Z" fill="white"/>
<path d="M31.2999 62.2159C31.2491 62.2159 31.2091 62.1759 31.2091 62.1251V52.4853C31.2091 52.4345 31.2491 52.3945 31.2999 52.3945C31.3507 52.3945 31.3907 52.4345 31.3907 52.4853V62.1251C31.3907 62.1759 31.3507 62.2159 31.2999 62.2159Z" fill="white"/>
<path d="M33.6604 62.2151C33.6095 62.2151 33.5696 62.1751 33.5696 62.1243V53.6357C33.5696 53.5849 33.6095 53.5449 33.6604 53.5449C33.7112 53.5449 33.7512 53.5849 33.7512 53.6357V62.1243C33.7512 62.1751 33.7112 62.2151 33.6604 62.2151Z" fill="white"/>
<path d="M36.0227 62.215C35.9718 62.215 35.9319 62.1751 35.9319 62.1242V54.5127C35.9319 54.4618 35.9718 54.4219 36.0227 54.4219C36.0735 54.4219 36.1135 54.4618 36.1135 54.5127V62.1242C36.1135 62.1751 36.0735 62.215 36.0227 62.215Z" fill="white"/>
<path d="M38.383 62.2157C38.3322 62.2157 38.2922 62.1757 38.2922 62.1249V55.1416C38.2922 55.0907 38.3322 55.0508 38.383 55.0508C38.4339 55.0508 38.4738 55.0907 38.4738 55.1416V62.1249C38.4738 62.1757 38.4339 62.2157 38.383 62.2157Z" fill="white"/>
<path d="M40.7452 62.216C40.6944 62.216 40.6544 62.176 40.6544 62.1252V55.1201C40.6544 55.0692 40.6944 55.0293 40.7452 55.0293C40.796 55.0293 40.836 55.0692 40.836 55.1201V62.1252C40.836 62.176 40.796 62.216 40.7452 62.216Z" fill="white"/>
<path d="M43.1058 62.2146C43.055 62.2146 43.015 62.1747 43.015 62.1238V54.4814C43.015 54.4306 43.055 54.3906 43.1058 54.3906C43.1566 54.3906 43.1966 54.4306 43.1966 54.4814V62.1238C43.1966 62.1747 43.1566 62.2146 43.1058 62.2146Z" fill="white"/>
<path d="M45.4681 62.216C45.4173 62.216 45.3773 62.176 45.3773 62.1252V53.5966C45.3773 53.5458 45.4173 53.5059 45.4681 53.5059C45.5189 53.5059 45.5589 53.5458 45.5589 53.5966V62.1252C45.5589 62.176 45.5189 62.216 45.4681 62.216Z" fill="white"/>
<path d="M47.8285 62.2155C47.7776 62.2155 47.7377 62.1756 47.7377 62.1247V52.4287C47.7377 52.3778 47.7776 52.3379 47.8285 52.3379C47.8793 52.3379 47.9192 52.3778 47.9192 52.4287V62.1247C47.9192 62.1756 47.8793 62.2155 47.8285 62.2155Z" fill="white"/>
<path d="M50.1889 62.2146C50.1381 62.2146 50.0981 62.1746 50.0981 62.1238V50.9443C50.0981 50.8935 50.1381 50.8535 50.1889 50.8535C50.2398 50.8535 50.2797 50.8935 50.2797 50.9443V62.1238C50.2797 62.1746 50.2398 62.2146 50.1889 62.2146Z" fill="white"/>
<path d="M52.5512 62.2155C52.5004 62.2155 52.4604 62.1756 52.4604 62.1247V49.0732C52.4604 49.0224 52.5004 48.9824 52.5512 48.9824C52.6021 48.9824 52.642 49.0224 52.642 49.0732V62.1247C52.642 62.1756 52.6021 62.2155 52.5512 62.2155Z" fill="white"/>
<path d="M54.9116 62.2155C54.8607 62.2155 54.8208 62.1756 54.8208 62.1247V46.6982C54.8208 46.6474 54.8607 46.6074 54.9116 46.6074C54.9624 46.6074 55.0024 46.6474 55.0024 46.6982V62.1247C55.0024 62.1756 54.9624 62.2155 54.9116 62.2155Z" fill="white"/>
<path d="M57.274 62.2169C57.2232 62.2169 57.1832 62.177 57.1832 62.1261V43.5947C57.1832 43.5439 57.2232 43.5039 57.274 43.5039C57.3249 43.5039 57.3648 43.5439 57.3648 43.5947V62.1261C57.3648 62.177 57.3249 62.2169 57.274 62.2169Z" fill="white"/>
<path d="M59.6344 62.215C59.5835 62.215 59.5436 62.175 59.5436 62.1242V39.1533C59.5436 39.1024 59.5835 39.0625 59.6344 39.0625C59.6852 39.0625 59.7252 39.1024 59.7252 39.1533V62.1242C59.7252 62.175 59.6852 62.215 59.6344 62.215Z" fill="white"/>
<path d="M61.9967 62.2158C61.9458 62.2158 61.9059 62.1759 61.9059 62.125V48.3545C61.9059 48.3036 61.9458 48.2637 61.9967 48.2637C62.0475 48.2637 62.0875 48.3036 62.0875 48.3545V62.125C62.0875 62.1759 62.0475 62.2158 61.9967 62.2158Z" fill="white"/>
<path d="M64.3571 62.2156C64.3063 62.2156 64.2664 62.1757 64.2664 62.1248V38.7236C64.2664 38.6728 64.3063 38.6328 64.3571 38.6328C64.408 38.6328 64.4479 38.6728 64.4479 38.7236V62.1248C64.4479 62.1757 64.408 62.2156 64.3571 62.2156Z" fill="white"/>
<path d="M66.7194 62.2154C66.6686 62.2154 66.6287 62.1755 66.6287 62.1246V42.3349C66.6287 42.2841 66.6686 42.2441 66.7194 42.2441C66.7703 42.2441 66.8102 42.2841 66.8102 42.3349V62.1246C66.8102 62.1755 66.7703 62.2154 66.7194 62.2154Z" fill="white"/>
<path d="M69.1706 37.084H68.989V61.7417H69.1706V37.084Z" fill="white"/>
<path d="M73.8026 62.2169C73.7517 62.2169 73.7118 62.177 73.7118 62.1261V40.833C73.7118 40.7821 73.7517 40.7422 73.8026 40.7422C73.8534 40.7422 73.8934 40.7821 73.8934 40.833V62.1261C73.8934 62.177 73.8534 62.2169 73.8026 62.2169Z" fill="white"/>
<path d="M76.1631 62.216C76.1122 62.216 76.0723 62.1761 76.0723 62.1253V45.1572C76.0723 45.1064 76.1122 45.0664 76.1631 45.0664C76.2139 45.0664 76.2538 45.1064 76.2538 45.1572V62.1253C76.2538 62.1761 76.2139 62.216 76.1631 62.216Z" fill="white"/>
<path d="M78.5254 62.2149C78.4745 62.2149 78.4346 62.1749 78.4346 62.1241V48.3154C78.4346 48.2646 78.4745 48.2246 78.5254 48.2246C78.5762 48.2246 78.6161 48.2646 78.6161 48.3154V62.1241C78.6161 62.1749 78.5762 62.2149 78.5254 62.2149Z" fill="white"/>
<path d="M-2.90874 57.31C-2.94324 57.31 -2.97592 57.29 -2.99227 57.2555C-3.01224 57.2101 -2.99227 57.1556 -2.94687 57.1357C-2.55286 56.9614 -2.1661 56.7816 -1.79933 56.6018C-0.998585 56.2115 -0.206923 55.7866 0.555686 55.3381C1.35461 54.8678 2.14627 54.3558 2.9107 53.8147C3.73323 53.2337 4.52489 52.6181 5.26389 51.9881C5.74506 51.5795 6.21534 51.1565 6.66201 50.7298C6.72011 50.6753 6.77822 50.619 6.83451 50.5645C7.0996 50.3067 7.3647 50.0434 7.6189 49.7801C7.74419 49.6512 7.86766 49.5205 7.98932 49.3897C8.02382 49.3534 8.0801 49.3516 8.11823 49.3861C8.15636 49.4206 8.15636 49.4769 8.12368 49.515C8.00021 49.6476 7.87674 49.7801 7.74964 49.909C7.49362 50.1741 7.22852 50.4392 6.96161 50.6971C6.90532 50.7515 6.84722 50.8078 6.7873 50.8641C6.33881 51.2926 5.8649 51.7193 5.38192 52.1297C4.63747 52.7652 3.84217 53.3825 3.01419 53.9672C2.24614 54.5101 1.44903 55.0258 0.646473 55.4979C-0.117952 55.95 -0.915062 56.3767 -1.72125 56.7689C-2.09166 56.9487 -2.48023 57.1302 -2.87606 57.3064C-2.88877 57.3118 -2.89966 57.3136 -2.91237 57.3136L-2.90874 57.31Z" fill="white"/>
<path d="M-2.90865 51.8385C-2.93407 51.8385 -2.95949 51.8276 -2.97765 51.8076C-3.01033 51.7695 -3.0067 51.7132 -2.96857 51.6787C-2.56729 51.3283 -2.18054 50.9724 -1.82102 50.6256C-0.993049 49.8285 -0.201386 48.9787 0.532172 48.1035C1.3892 47.0813 2.18268 46.0045 2.88718 44.906C3.78779 43.5061 4.57945 42.0263 5.24038 40.5029C6.17185 38.3567 6.84912 36.1088 7.25403 33.8228C7.38658 33.0729 7.49189 32.3102 7.56634 31.5585C7.57179 31.5077 7.61536 31.4732 7.6662 31.4768C7.71523 31.4823 7.75154 31.5259 7.74791 31.5767C7.67347 32.3339 7.56634 33.1001 7.43379 33.8554C7.02706 36.156 6.34616 38.4166 5.40924 40.5755C4.74468 42.108 3.94758 43.5969 3.04152 45.0041C2.33157 46.108 1.53446 47.1902 0.671984 48.2197C-0.0652049 49.1004 -0.862315 49.9538 -1.69574 50.7563C-2.05889 51.1068 -2.44564 51.4627 -2.85055 51.8167C-2.86689 51.8312 -2.88868 51.8385 -2.91047 51.8385H-2.90865Z" fill="white"/>
<path d="M9.42184 47.9832C9.40186 47.9832 9.38189 47.976 9.36373 47.9633C9.3256 47.9306 9.32015 47.8743 9.35102 47.8362C10.4114 46.5434 11.3738 45.1579 12.2126 43.7199C14.3715 40.0067 15.6934 35.9885 16.1401 31.7741C16.1455 31.7251 16.1891 31.687 16.2399 31.6942C16.289 31.6997 16.3253 31.7451 16.3198 31.7941C15.8695 36.0339 14.5404 40.0775 12.3688 43.8125C11.5245 45.2596 10.5567 46.6523 9.49083 47.9524C9.47267 47.9742 9.44725 47.985 9.42002 47.985L9.42184 47.9832Z" fill="white"/>
<path d="M81.908 51.8383C81.8862 51.8383 81.8662 51.831 81.8481 51.8165C81.5067 51.5206 81.1617 51.2046 80.8222 50.8796C79.9924 50.0898 79.1953 49.2454 78.4545 48.3721C77.6011 47.368 76.8058 46.3021 76.0849 45.2036C75.1789 43.82 74.3818 42.3602 73.7172 40.8658C72.8075 38.8304 72.1266 36.7005 71.6927 34.538C71.6564 34.3655 71.6237 34.1912 71.591 34.015C71.5819 33.966 71.6146 33.9188 71.6636 33.9097C71.7127 33.9006 71.7599 33.9333 71.7689 33.9823C71.8016 34.1567 71.8343 34.3291 71.8706 34.5016C72.3028 36.6533 72.98 38.7686 73.8843 40.7932C74.5452 42.2784 75.3369 43.7292 76.2375 45.1055C76.9529 46.1986 77.7445 47.259 78.5925 48.2559C79.3297 49.1238 80.1213 49.9626 80.9457 50.7489C81.2834 51.0721 81.6266 51.3844 81.9643 51.6785C82.0024 51.7112 82.0061 51.7693 81.9734 51.8074C81.9552 51.8274 81.9298 51.8383 81.9044 51.8383H81.908Z" fill="white"/>
<path d="M81.908 57.3107C81.8953 57.3107 81.8826 57.3089 81.8717 57.3035C81.5376 57.1564 81.2017 57.0003 80.8458 56.8278C80.0287 56.4338 79.2316 56.0107 78.4781 55.5695C77.6755 55.1028 76.8784 54.5926 76.1103 54.0551C75.306 53.4923 74.5107 52.8822 73.7444 52.2376C73.2179 51.7945 72.7022 51.3297 72.2101 50.8613C72.1974 50.8504 72.1811 50.834 72.1647 50.8177C72.1393 50.7941 72.1121 50.7668 72.0849 50.7414C72.0485 50.7069 72.0485 50.6488 72.0849 50.6125C72.1194 50.578 72.1774 50.5762 72.2138 50.6125C72.2392 50.6379 72.2646 50.6615 72.2918 50.6869C72.3064 50.7015 72.3209 50.716 72.3336 50.7269C72.8257 51.1972 73.3395 51.6565 73.8625 52.0978C74.6251 52.7369 75.4167 53.3452 76.2157 53.9044C76.9801 54.4401 77.7717 54.9467 78.5707 55.4115C79.3206 55.8491 80.1122 56.2703 80.9257 56.6625C81.2797 56.8332 81.612 56.9875 81.9461 57.1346C81.9915 57.1546 82.0133 57.2091 81.9915 57.2545C81.977 57.289 81.9425 57.3089 81.908 57.3089V57.3107Z" fill="white"/>
<path d="M69.6935 48.1278C69.6681 48.1278 69.6409 48.1169 69.6245 48.0951C68.5115 46.7533 67.5037 45.3134 66.6285 43.8118C64.8128 40.6924 63.5799 37.3333 62.9626 33.8271C62.9535 33.778 62.9862 33.7308 63.037 33.7218C63.086 33.7145 63.1333 33.7454 63.1423 33.7962C63.7561 37.2806 64.9817 40.6197 66.7865 43.721C67.6563 45.2136 68.6585 46.6462 69.7643 47.9789C69.797 48.0171 69.7916 48.0752 69.7516 48.106C69.7353 48.1206 69.7135 48.1278 69.6935 48.1278Z" fill="white"/>
<path d="M43.8501 55.8102C37.4986 55.8102 31.3433 53.4715 26.5171 49.2245C21.7453 45.0266 18.5405 39.2198 17.4947 32.8756C17.4874 32.8266 17.5201 32.7794 17.5691 32.7721C17.6163 32.7631 17.6653 32.7976 17.6726 32.8466C18.7112 39.149 21.8942 44.9176 26.6351 49.0884C31.4286 53.3063 37.5422 55.6286 43.8483 55.6286C50.1543 55.6286 56.4658 53.2319 61.2993 48.8777C66.0856 44.5654 69.2214 38.637 70.1274 32.1802C70.1347 32.1312 70.1801 32.0967 70.2291 32.1021C70.2781 32.1094 70.3126 32.1548 70.3072 32.2038C69.3957 38.7023 66.2399 44.6707 61.421 49.0103C56.5548 53.3935 50.3141 55.8066 43.8483 55.8066L43.8501 55.8102Z" fill="white"/>
<path d="M35.18 55.8101C28.8504 55.8101 22.7114 53.4859 17.8924 49.2662C13.1297 45.0954 9.91588 39.3214 8.84459 33.0062C8.83551 32.9572 8.87001 32.91 8.91904 32.9009C8.96806 32.8937 9.01527 32.9263 9.02435 32.9754C10.0884 39.2487 13.2804 44.9846 18.0123 49.1282C22.7985 53.3189 28.894 55.6267 35.18 55.6267C41.4661 55.6267 47.7976 53.2299 52.6311 48.8758C57.4174 44.5634 60.5532 38.635 61.4592 32.1783C61.4665 32.1292 61.5119 32.0947 61.5609 32.1002C61.6099 32.1074 61.6444 32.1528 61.639 32.2019C60.7275 38.7004 57.5717 44.6687 52.7528 49.0083C47.8866 53.3915 41.6459 55.8046 35.1819 55.8046L35.18 55.8101Z" fill="white"/>
<path d="M80.47 76.5429H-1.47061C-1.52146 76.5429 -1.5614 76.503 -1.5614 76.4521C-1.5614 76.4013 -1.52146 76.3613 -1.47061 76.3613H80.4682C80.519 76.3613 80.559 76.4013 80.559 76.4521C80.559 76.503 80.519 76.5429 80.4682 76.5429H80.47Z" fill="white"/>
<path d="M43.6123 80.1093H15.4466C15.3958 80.1093 15.3558 80.0694 15.3558 80.0185C15.3558 79.9677 15.3958 79.9277 15.4466 79.9277H43.6123C43.6632 79.9277 43.7031 79.9677 43.7031 80.0185C43.7031 80.0694 43.6632 80.1093 43.6123 80.1093Z" fill="white"/>
<path d="M59.7779 80.1093H48.8054C48.7545 80.1093 48.7146 80.0694 48.7146 80.0185C48.7146 79.9677 48.7545 79.9277 48.8054 79.9277H59.7779C59.8287 79.9277 59.8687 79.9677 59.8687 80.0185C59.8687 80.0694 59.8287 80.1093 59.7779 80.1093Z" fill="white"/>
<path d="M54.7339 37.5248H49.49C49.4428 37.5248 49.4029 37.4884 49.3993 37.4394C49.3974 37.4067 49.3956 37.3849 49.3956 37.3632C49.3956 36.7367 49.9059 36.2283 50.5305 36.2283C50.574 36.2283 50.6194 36.232 50.6666 36.2374C50.9281 35.6782 51.4855 35.3223 52.1065 35.3223C52.7275 35.3223 53.2849 35.68 53.5464 36.2392C54.2273 36.1484 54.8283 36.6913 54.8283 37.365C54.8283 37.3868 54.8283 37.4085 54.8247 37.4303C54.8211 37.4775 54.7811 37.5248 54.7339 37.5248ZM49.579 37.3432H54.6467C54.6359 36.8275 54.211 36.4099 53.6935 36.4099C53.6336 36.4099 53.5718 36.4153 53.5101 36.428C53.4665 36.4371 53.4248 36.4135 53.4084 36.3736C53.1905 35.8452 52.6785 35.5038 52.1083 35.5038C51.5382 35.5038 51.0262 35.8452 50.8083 36.3736C50.7919 36.4135 50.7502 36.4353 50.7084 36.428C50.6485 36.4172 50.5904 36.4117 50.5341 36.4117C50.0148 36.4117 49.5917 36.8275 49.5808 37.345L49.579 37.3432Z" fill="white"/>
<path d="M32.3239 33.7216H23.4522C23.405 33.7216 23.365 33.6852 23.3614 33.6362V33.6162C23.3578 33.5817 23.356 33.5473 23.356 33.5128C23.356 32.4887 24.1894 31.6534 25.2153 31.6534C25.3024 31.6534 25.3914 31.6607 25.4822 31.6734C25.9053 30.7274 26.8385 30.1191 27.879 30.1191C28.9194 30.1191 29.8545 30.7274 30.2775 31.6752C30.3738 31.6607 30.4682 31.6534 30.5626 31.6534C31.5867 31.6534 32.4219 32.4869 32.4219 33.5128C32.4219 33.5473 32.4201 33.5817 32.4165 33.6162V33.6362C32.411 33.6834 32.3729 33.7216 32.3239 33.7216ZM23.5375 33.54H32.2385C32.2385 33.54 32.2385 33.5218 32.2385 33.5128C32.2385 32.5885 31.4868 31.835 30.5608 31.835C30.4555 31.835 30.3465 31.8459 30.2376 31.8659C30.194 31.875 30.1523 31.8514 30.1359 31.8114C29.7564 30.8926 28.8704 30.2989 27.8771 30.2989C26.8839 30.2989 25.9997 30.8908 25.6184 31.8078C25.602 31.8477 25.5603 31.8695 25.5185 31.8622C25.4114 31.8423 25.3115 31.8332 25.2135 31.8332C24.2892 31.8332 23.5357 32.5849 23.5357 33.5109C23.5357 33.52 23.5357 33.5291 23.5357 33.5382L23.5375 33.54Z" fill="white"/>
<path d="M39.3272 40.6464H31.3108C31.2599 40.6464 31.22 40.6065 31.22 40.5556C31.22 40.5048 31.2599 40.4648 31.3108 40.4648H39.3272C39.3781 40.4648 39.418 40.5048 39.418 40.5556C39.418 40.6065 39.3781 40.6464 39.3272 40.6464Z" fill="white"/>
<path d="M43.5888 40.6464H40.7762C40.7254 40.6464 40.6854 40.6065 40.6854 40.5556C40.6854 40.5048 40.7254 40.4648 40.7762 40.4648H43.5888C43.6396 40.4648 43.6796 40.5048 43.6796 40.5556C43.6796 40.6065 43.6396 40.6464 43.5888 40.6464Z" fill="white"/>
<path d="M40.8451 42.4316H35.9027C35.8518 42.4316 35.8119 42.3916 35.8119 42.3408C35.8119 42.2899 35.8518 42.25 35.9027 42.25H40.8451C40.896 42.25 40.9359 42.2899 40.9359 42.3408C40.9359 42.3916 40.896 42.4316 40.8451 42.4316Z" fill="white"/>
<path d="M47.3745 33.289H43.9464C43.8955 33.289 43.8556 33.249 43.8556 33.1982C43.8556 33.1474 43.8955 33.1074 43.9464 33.1074H47.3745C47.4253 33.1074 47.4653 33.1474 47.4653 33.1982C47.4653 33.249 47.4253 33.289 47.3745 33.289Z" fill="white"/>
</g>
<defs>
<clipPath id="clip0_3783_10886">
<rect width="80" height="80" fill="white"/>
</clipPath>
</defs>
</svg>
