<svg width="31" height="36" viewBox="0 0 31 36" fill="none" xmlns="http://www.w3.org/2000/svg">
<path d="M23.917 19.4512L24.6447 20.6001H23.2986V22.2885H22.9312V31.5025H8.23994V22.2885H7.8726V20.6001H6.52653L7.25418 19.4512H2.82397V36.0793H28.3472V19.4512H23.917ZM24.4914 24.579C24.4914 23.8931 24.9521 23.3377 25.5212 23.3377C26.0903 23.3377 26.551 23.8931 26.551 24.579V26.8462H24.4914V24.579ZM24.2764 27.1148H26.7659V27.6182H24.2764V27.1148ZM26.1458 33.7718V34.1753H5.02542V33.7718H26.1458ZM5.12144 30.7178V29.4435H6.17856V30.7178H5.12144ZM6.74588 33.0168V32.6133H24.4253V33.0168H6.74588ZM24.9926 30.7178V29.4435H26.0497V30.7178H24.9926ZM7.64796 31.5153H23.5232V31.9188H7.64796V31.5153ZM4.62019 24.579C4.62019 23.8931 5.08092 23.3377 5.65 23.3377C6.21909 23.3377 6.67981 23.8931 6.67981 24.579V26.8462H4.62019V24.579ZM4.40525 27.1148H6.89476V27.6182H4.40525V27.1148ZM27.9111 35.3349H3.26092V34.9314H27.9111V35.3349Z" fill="url(#paint0_linear_6443_15733)"/>
<path d="M7.2612 18.532V19.2381H1.60209L2.56583 18.532H7.2612ZM7.34929 18.4258H2.54116L1.2876 19.3443H7.32198L7.34929 19.3008V18.4258Z" fill="url(#paint1_linear_6443_15733)"/>
<path d="M28.6044 18.532L29.5681 19.2381H23.909V18.532H28.6044ZM28.6291 18.4258H23.8209V19.3008L23.8482 19.3443H29.8826L28.6291 18.4258Z" fill="url(#paint2_linear_6443_15733)"/>
<path d="M9.89514 22.2891H8.64246V22.7287H9.89514V22.2891Z" fill="url(#paint3_linear_6443_15733)"/>
<path d="M9.63616 22.834H8.90234V29.8414H9.63616V22.834Z" fill="url(#paint4_linear_6443_15733)"/>
<path d="M9.7894 29.9492H8.74902V31.5038H9.7894V29.9492Z" fill="url(#paint5_linear_6443_15733)"/>
<path d="M12.4216 22.2891H11.1698V22.7287H12.4216V22.2891Z" fill="url(#paint6_linear_6443_15733)"/>
<path d="M12.1626 22.834H11.4288V29.8414H12.1626V22.834Z" fill="url(#paint7_linear_6443_15733)"/>
<path d="M12.316 29.9492H11.2756V31.5038H12.316V29.9492Z" fill="url(#paint8_linear_6443_15733)"/>
<path d="M14.9481 22.2891H13.6963V22.7287H14.9481V22.2891Z" fill="url(#paint9_linear_6443_15733)"/>
<path d="M14.6891 22.834H13.9553V29.8414H14.6891V22.834Z" fill="url(#paint10_linear_6443_15733)"/>
<path d="M14.8425 29.9492H13.8021V31.5038H14.8425V29.9492Z" fill="url(#paint11_linear_6443_15733)"/>
<path d="M17.4747 22.2891H16.2229V22.7287H17.4747V22.2891Z" fill="url(#paint12_linear_6443_15733)"/>
<path d="M17.2158 22.834H16.4819V29.8414H17.2158V22.834Z" fill="url(#paint13_linear_6443_15733)"/>
<path d="M17.369 29.9492H16.3286V31.5038H17.369V29.9492Z" fill="url(#paint14_linear_6443_15733)"/>
<path d="M20.0012 22.2891H18.7494V22.7287H20.0012V22.2891Z" fill="url(#paint15_linear_6443_15733)"/>
<path d="M19.7413 22.834H19.0074V29.8414H19.7413V22.834Z" fill="url(#paint16_linear_6443_15733)"/>
<path d="M19.8946 29.9492H18.8542V31.5038H19.8946V29.9492Z" fill="url(#paint17_linear_6443_15733)"/>
<path d="M22.5277 22.2891H21.275V22.7287H22.5277V22.2891Z" fill="url(#paint18_linear_6443_15733)"/>
<path d="M22.2687 22.834H21.5358V29.8414H22.2687V22.834Z" fill="url(#paint19_linear_6443_15733)"/>
<path d="M22.422 29.9492H21.3816V31.5038H22.422V29.9492Z" fill="url(#paint20_linear_6443_15733)"/>
<path d="M23.2104 20.6016H7.96057V22.1838H23.2104V20.6016Z" fill="url(#paint21_linear_6443_15733)"/>
<path d="M23.7337 18.4258H7.43738V19.2381H23.7337V18.4258Z" fill="url(#paint22_linear_6443_15733)"/>
<path d="M21.1305 17.3874V18.2136H10.0405V17.3874H21.1305ZM21.2186 17.2812H9.95239V18.3198H21.2186V17.2812Z" fill="url(#paint23_linear_6443_15733)"/>
<path d="M22.0087 12.4688H9.16211V13.2567H22.0087V12.4688Z" fill="url(#paint24_linear_6443_15733)"/>
<path d="M22.0087 13.9531H9.16211V14.2197H22.0087V13.9531Z" fill="url(#paint25_linear_6443_15733)"/>
<path d="M9.91028 13.2539H9.54822V13.9548H9.91028V13.2539Z" fill="url(#paint26_linear_6443_15733)"/>
<path d="M10.7472 13.2539H10.3851V13.9548H10.7472V13.2539Z" fill="url(#paint27_linear_6443_15733)"/>
<path d="M11.5833 13.2539H11.2212V13.9548H11.5833V13.2539Z" fill="url(#paint28_linear_6443_15733)"/>
<path d="M12.42 13.2539H12.058V13.9548H12.42V13.2539Z" fill="url(#paint29_linear_6443_15733)"/>
<path d="M13.257 13.2539H12.8949V13.9548H13.257V13.2539Z" fill="url(#paint30_linear_6443_15733)"/>
<path d="M14.0929 13.2539H13.7308V13.9548H14.0929V13.2539Z" fill="url(#paint31_linear_6443_15733)"/>
<path d="M14.9298 13.2539H14.5677V13.9548H14.9298V13.2539Z" fill="url(#paint32_linear_6443_15733)"/>
<path d="M15.7667 13.2539H15.4047V13.9548H15.7667V13.2539Z" fill="url(#paint33_linear_6443_15733)"/>
<path d="M16.6027 13.2539H16.2406V13.9548H16.6027V13.2539Z" fill="url(#paint34_linear_6443_15733)"/>
<path d="M17.4396 13.2539H17.0775V13.9548H17.4396V13.2539Z" fill="url(#paint35_linear_6443_15733)"/>
<path d="M18.2765 13.2539H17.9144V13.9548H18.2765V13.2539Z" fill="url(#paint36_linear_6443_15733)"/>
<path d="M19.1126 13.2539H18.7505V13.9548H19.1126V13.2539Z" fill="url(#paint37_linear_6443_15733)"/>
<path d="M19.9493 13.2539H19.5873V13.9548H19.9493V13.2539Z" fill="url(#paint38_linear_6443_15733)"/>
<path d="M20.7863 13.2539H20.4242V13.9548H20.7863V13.2539Z" fill="url(#paint39_linear_6443_15733)"/>
<path d="M21.6222 13.2539H21.2601V13.9548H21.6222V13.2539Z" fill="url(#paint40_linear_6443_15733)"/>
<path d="M20.1087 10.7722V12.2557H11.0606V10.7722H20.1087ZM20.1968 10.666H10.9725V12.3619H20.1968V10.666Z" fill="url(#paint41_linear_6443_15733)"/>
<path d="M20.7835 10.5605H10.3867L10.0616 9.83203H21.1085L20.7835 10.5605Z" fill="url(#paint42_linear_6443_15733)"/>
<path d="M17.2915 4.02806C19.337 4.82767 20.7104 6.97799 20.7104 9.38529C20.7104 9.46706 20.7087 9.54564 20.706 9.62103H10.4643C10.4617 9.54564 10.4599 9.46706 10.4599 9.38529C10.4599 6.97905 11.8333 4.82873 13.8788 4.02806H17.2915ZM17.3056 3.92188H13.8656C11.8315 4.71086 10.3727 6.85906 10.3727 9.38529C10.3727 9.49998 10.3753 9.61466 10.3815 9.72722H20.7897C20.7959 9.61466 20.7985 9.49998 20.7985 9.38529C20.7985 6.85906 19.3397 4.7098 17.3056 3.92188Z" fill="url(#paint43_linear_6443_15733)"/>
<path d="M17.0008 2.06445H14.1694V3.81444H17.0008V2.06445Z" fill="url(#paint44_linear_6443_15733)"/>
<path d="M15.5861 0.926501C16.0389 0.926501 16.4247 1.32471 16.504 1.85141H14.6681C14.7466 1.32471 15.1333 0.926501 15.587 0.926501M15.587 0.820312C15.0487 0.820312 14.6082 1.32046 14.5686 1.9576H16.6044C16.5648 1.32046 16.1243 0.820312 15.587 0.820312Z" fill="url(#paint45_linear_6443_15733)"/>
<path d="M9.95239 14.3281V17.0009H21.2186V14.3281H9.95239ZM10.9417 16.6409H10.6386V15.1798H10.9417V16.6409ZM11.8138 16.6409H11.5108V15.1798H11.8138V16.6409ZM12.6859 16.6409H12.3829V15.1798H12.6859V16.6409ZM13.558 16.6409H13.255V15.1798H13.558V16.6409ZM14.4302 16.6409H14.1271V15.1798H14.4302V16.6409ZM15.3023 16.6409H14.9993V15.1798H15.3023V16.6409ZM16.1744 16.6409H15.8714V15.1798H16.1744V16.6409ZM17.0465 16.6409H16.7435V15.1798H17.0465V16.6409ZM17.9187 16.6409H17.6156V15.1798H17.9187V16.6409ZM18.7908 16.6409H18.4877V15.1798H18.7908V16.6409ZM19.6629 16.6409H19.3599V15.1798H19.6629V16.6409ZM20.535 16.6409H20.232V15.1798H20.535V16.6409Z" fill="url(#paint46_linear_6443_15733)"/>
<path d="M28.0142 16.3992C28.1243 16.8292 28.1798 17.2805 28.1798 17.7424C28.1798 17.9017 28.1736 18.06 28.1604 18.2139H22.7118C22.6986 18.06 22.6925 17.9017 22.6925 17.7424C22.6925 17.2805 22.748 16.8292 22.8581 16.3992H28.0151M28.0794 16.293H22.7938C22.6713 16.7432 22.6044 17.2317 22.6044 17.7424C22.6044 17.9389 22.6141 18.1322 22.6334 18.3201H28.2397C28.2591 18.1322 28.2688 17.9389 28.2688 17.7424C28.2688 17.2317 28.2018 16.7432 28.0794 16.293Z" fill="url(#paint47_linear_6443_15733)"/>
<path d="M27.979 15.3008H22.8925L22.363 16.1864H28.5084L27.979 15.3008Z" fill="url(#paint48_linear_6443_15733)"/>
<path d="M26.4214 11.8581C27.3429 12.3328 27.9366 13.4138 27.9366 14.618C27.9366 14.7741 27.926 14.9312 27.9058 15.0884H22.9655C22.9452 14.9312 22.9347 14.7741 22.9347 14.618C22.9347 13.4138 23.5293 12.3328 24.4499 11.8581H26.4205M26.4381 11.752H24.4314C23.5002 12.2224 22.8457 13.3278 22.8457 14.618C22.8457 14.8155 22.8616 15.0077 22.8906 15.1946H27.9789C28.008 15.0077 28.0238 14.8155 28.0238 14.618C28.0238 13.3278 27.3693 12.2224 26.4381 11.752Z" fill="url(#paint49_linear_6443_15733)"/>
<path d="M26.1819 11.2266H24.6896V11.646H26.1819V11.2266Z" fill="url(#paint50_linear_6443_15733)"/>
<path d="M25.7696 11.121H25.1018L25.4366 9.60352L25.7696 11.121Z" fill="url(#paint51_linear_6443_15733)"/>
<path d="M8.313 16.3992C8.42312 16.8292 8.47861 17.2805 8.47861 17.7424C8.47861 17.9017 8.47245 18.06 8.45923 18.2139H3.01067C2.99746 18.06 2.99129 17.9017 2.99129 17.7424C2.99129 17.2805 3.04679 16.8292 3.15691 16.3992H8.31388M8.37819 16.293H3.0926C2.97015 16.7432 2.9032 17.2317 2.9032 17.7424C2.9032 17.9389 2.91289 18.1322 2.93227 18.3201H8.53852C8.5579 18.1322 8.56759 17.9389 8.56759 17.7424C8.56759 17.2317 8.50064 16.7432 8.37819 16.293Z" fill="url(#paint52_linear_6443_15733)"/>
<path d="M8.2778 15.3008H3.1913L2.66187 16.1864H8.80724L8.2778 15.3008Z" fill="url(#paint53_linear_6443_15733)"/>
<path d="M6.72023 11.8581C7.64169 12.3328 8.23544 13.4138 8.23544 14.618C8.23544 14.7741 8.22487 14.9312 8.2046 15.0884H3.26434C3.24408 14.9312 3.23351 14.7741 3.23351 14.618C3.23351 13.4138 3.82813 12.3328 4.74871 11.8581H6.71935M6.73697 11.752H4.73021C3.79906 12.2224 3.14453 13.3278 3.14453 14.618C3.14453 14.8155 3.16039 15.0077 3.18946 15.1946H8.27772C8.30679 15.0077 8.32265 14.8155 8.32265 14.618C8.32265 13.3278 7.66812 12.2224 6.73697 11.752Z" fill="url(#paint54_linear_6443_15733)"/>
<path d="M6.4807 11.2266H4.9884V11.646H6.4807V11.2266Z" fill="url(#paint55_linear_6443_15733)"/>
<path d="M6.06926 11.121H5.40063L5.73539 9.60352L6.06926 11.121Z" fill="url(#paint56_linear_6443_15733)"/>
<path d="M11.295 2.29493H6.94671C6.92381 2.29493 6.90443 2.27263 6.90267 2.24502V2.23122C6.90091 2.2121 6.90002 2.19193 6.90002 2.17281C6.90002 1.56754 7.30878 1.07482 7.81003 1.07482C7.85319 1.07482 7.89636 1.07907 7.94129 1.0865C8.14831 0.526886 8.60551 0.167969 9.11557 0.167969C9.62563 0.167969 10.0837 0.527949 10.2907 1.08756C10.3374 1.07907 10.3841 1.07482 10.4308 1.07482C10.9329 1.07482 11.3408 1.56754 11.3408 2.17281C11.3408 2.19299 11.3399 2.2121 11.339 2.23122V2.24502C11.3364 2.27263 11.3179 2.29493 11.2941 2.29493H11.295ZM6.98812 2.18874H11.2536C11.2536 2.18343 11.2536 2.17812 11.2536 2.17281C11.2536 1.62594 10.8845 1.18101 10.4317 1.18101C10.3797 1.18101 10.326 1.18738 10.2731 1.20012C10.252 1.20543 10.2317 1.19163 10.2238 1.16827C10.0379 0.625642 9.60273 0.274158 9.11557 0.274158C8.62842 0.274158 8.195 0.62458 8.00824 1.16614C8.00031 1.1895 7.98005 1.20225 7.95979 1.198C7.90781 1.18632 7.85848 1.18101 7.81003 1.18101C7.35635 1.18101 6.98812 1.62594 6.98812 2.17281C6.98812 2.17812 6.98812 2.18343 6.98812 2.18874Z" fill="url(#paint57_linear_6443_15733)"/>
<path d="M28.6789 6.11678H21.5901C21.5777 6.11678 21.5663 6.11041 21.5575 6.09979C21.5495 6.08917 21.5451 6.0743 21.546 6.05943C21.5857 5.44673 22.0155 4.96675 22.5256 4.96675C22.7018 4.96675 22.8736 5.02303 23.0251 5.13135C23.24 4.63438 23.6699 4.31688 24.136 4.31688C24.1844 4.31688 24.2364 4.32112 24.2936 4.33068C24.5905 3.70311 25.1437 3.31445 25.7437 3.31445C26.3436 3.31445 26.9118 3.71266 27.206 4.35723C27.3011 4.33068 27.3954 4.31688 27.4879 4.31688C28.1785 4.31688 28.7406 4.99436 28.7406 5.82688C28.7406 5.90334 28.7344 5.98298 28.723 6.07218C28.7194 6.09766 28.7009 6.11678 28.6798 6.11678H28.6789ZM21.6385 6.01059H28.641C28.6481 5.94581 28.6525 5.88529 28.6525 5.82794C28.6525 5.05383 28.1301 4.42413 27.4879 4.42413C27.3919 4.42413 27.2932 4.44006 27.1945 4.47085C27.1752 4.47722 27.154 4.46554 27.1443 4.4443C26.8704 3.81354 26.3339 3.4217 25.7437 3.4217C25.1534 3.4217 24.6337 3.80186 24.3553 4.41457C24.3465 4.43369 24.3289 4.44537 24.3104 4.44112C24.2452 4.42944 24.1897 4.42413 24.136 4.42413C23.6884 4.42413 23.2744 4.74057 23.0832 5.23116C23.078 5.24497 23.0674 5.25559 23.055 5.25983C23.0427 5.26408 23.0295 5.26196 23.0189 5.25346C22.8718 5.13665 22.7018 5.07507 22.5256 5.07507C22.0772 5.07507 21.6967 5.48283 21.6385 6.01271V6.01059Z" fill="url(#paint58_linear_6443_15733)"/>
<path d="M1.8706 5.69017H0.792338C0.767672 5.69017 0.748291 5.66681 0.748291 5.63708C0.748291 5.60735 0.767672 5.58398 0.792338 5.58398H1.8706C1.89526 5.58398 1.91464 5.60735 1.91464 5.63708C1.91464 5.66681 1.89526 5.69017 1.8706 5.69017Z" fill="url(#paint59_linear_6443_15733)"/>
<path d="M7.89265 7.10619H4.11521C4.09055 7.10619 4.07117 7.08283 4.07117 7.05309C4.07117 7.02336 4.09055 7 4.11521 7H7.89265C7.91732 7 7.9367 7.02336 7.9367 7.05309C7.9367 7.08283 7.91732 7.10619 7.89265 7.10619Z" fill="url(#paint60_linear_6443_15733)"/>
<path d="M5.04559 5.69017H2.48472C2.46005 5.69017 2.44067 5.66681 2.44067 5.63708C2.44067 5.60735 2.46005 5.58398 2.48472 5.58398H5.04559C5.07026 5.58398 5.08964 5.60735 5.08964 5.63708C5.08964 5.66681 5.07026 5.69017 5.04559 5.69017Z" fill="url(#paint61_linear_6443_15733)"/>
<defs>
<linearGradient id="paint0_linear_6443_15733" x1="2.82397" y1="27.7652" x2="28.3472" y2="27.7652" gradientUnits="userSpaceOnUse">
<stop stop-color="#EF8081"/>
<stop offset="0.619792" stop-color="#F63132"/>
<stop offset="1" stop-color="#9F1689"/>
</linearGradient>
<linearGradient id="paint1_linear_6443_15733" x1="1.2876" y1="18.885" x2="7.34929" y2="18.885" gradientUnits="userSpaceOnUse">
<stop stop-color="#EF8081"/>
<stop offset="0.619792" stop-color="#F63132"/>
<stop offset="1" stop-color="#9F1689"/>
</linearGradient>
<linearGradient id="paint2_linear_6443_15733" x1="23.8209" y1="18.885" x2="29.8826" y2="18.885" gradientUnits="userSpaceOnUse">
<stop stop-color="#EF8081"/>
<stop offset="0.619792" stop-color="#F63132"/>
<stop offset="1" stop-color="#9F1689"/>
</linearGradient>
<linearGradient id="paint3_linear_6443_15733" x1="8.64246" y1="22.5089" x2="9.89514" y2="22.5089" gradientUnits="userSpaceOnUse">
<stop stop-color="#EF8081"/>
<stop offset="0.619792" stop-color="#F63132"/>
<stop offset="1" stop-color="#9F1689"/>
</linearGradient>
<linearGradient id="paint4_linear_6443_15733" x1="8.90234" y1="26.3377" x2="9.63616" y2="26.3377" gradientUnits="userSpaceOnUse">
<stop stop-color="#EF8081"/>
<stop offset="0.619792" stop-color="#F63132"/>
<stop offset="1" stop-color="#9F1689"/>
</linearGradient>
<linearGradient id="paint5_linear_6443_15733" x1="8.74902" y1="30.7265" x2="9.7894" y2="30.7265" gradientUnits="userSpaceOnUse">
<stop stop-color="#EF8081"/>
<stop offset="0.619792" stop-color="#F63132"/>
<stop offset="1" stop-color="#9F1689"/>
</linearGradient>
<linearGradient id="paint6_linear_6443_15733" x1="11.1698" y1="22.5089" x2="12.4216" y2="22.5089" gradientUnits="userSpaceOnUse">
<stop stop-color="#EF8081"/>
<stop offset="0.619792" stop-color="#F63132"/>
<stop offset="1" stop-color="#9F1689"/>
</linearGradient>
<linearGradient id="paint7_linear_6443_15733" x1="11.4288" y1="26.3377" x2="12.1626" y2="26.3377" gradientUnits="userSpaceOnUse">
<stop stop-color="#EF8081"/>
<stop offset="0.619792" stop-color="#F63132"/>
<stop offset="1" stop-color="#9F1689"/>
</linearGradient>
<linearGradient id="paint8_linear_6443_15733" x1="11.2756" y1="30.7265" x2="12.316" y2="30.7265" gradientUnits="userSpaceOnUse">
<stop stop-color="#EF8081"/>
<stop offset="0.619792" stop-color="#F63132"/>
<stop offset="1" stop-color="#9F1689"/>
</linearGradient>
<linearGradient id="paint9_linear_6443_15733" x1="13.6963" y1="22.5089" x2="14.9481" y2="22.5089" gradientUnits="userSpaceOnUse">
<stop stop-color="#EF8081"/>
<stop offset="0.619792" stop-color="#F63132"/>
<stop offset="1" stop-color="#9F1689"/>
</linearGradient>
<linearGradient id="paint10_linear_6443_15733" x1="13.9553" y1="26.3377" x2="14.6891" y2="26.3377" gradientUnits="userSpaceOnUse">
<stop stop-color="#EF8081"/>
<stop offset="0.619792" stop-color="#F63132"/>
<stop offset="1" stop-color="#9F1689"/>
</linearGradient>
<linearGradient id="paint11_linear_6443_15733" x1="13.8021" y1="30.7265" x2="14.8425" y2="30.7265" gradientUnits="userSpaceOnUse">
<stop stop-color="#EF8081"/>
<stop offset="0.619792" stop-color="#F63132"/>
<stop offset="1" stop-color="#9F1689"/>
</linearGradient>
<linearGradient id="paint12_linear_6443_15733" x1="16.2229" y1="22.5089" x2="17.4747" y2="22.5089" gradientUnits="userSpaceOnUse">
<stop stop-color="#EF8081"/>
<stop offset="0.619792" stop-color="#F63132"/>
<stop offset="1" stop-color="#9F1689"/>
</linearGradient>
<linearGradient id="paint13_linear_6443_15733" x1="16.4819" y1="26.3377" x2="17.2158" y2="26.3377" gradientUnits="userSpaceOnUse">
<stop stop-color="#EF8081"/>
<stop offset="0.619792" stop-color="#F63132"/>
<stop offset="1" stop-color="#9F1689"/>
</linearGradient>
<linearGradient id="paint14_linear_6443_15733" x1="16.3286" y1="30.7265" x2="17.369" y2="30.7265" gradientUnits="userSpaceOnUse">
<stop stop-color="#EF8081"/>
<stop offset="0.619792" stop-color="#F63132"/>
<stop offset="1" stop-color="#9F1689"/>
</linearGradient>
<linearGradient id="paint15_linear_6443_15733" x1="18.7494" y1="22.5089" x2="20.0012" y2="22.5089" gradientUnits="userSpaceOnUse">
<stop stop-color="#EF8081"/>
<stop offset="0.619792" stop-color="#F63132"/>
<stop offset="1" stop-color="#9F1689"/>
</linearGradient>
<linearGradient id="paint16_linear_6443_15733" x1="19.0074" y1="26.3377" x2="19.7413" y2="26.3377" gradientUnits="userSpaceOnUse">
<stop stop-color="#EF8081"/>
<stop offset="0.619792" stop-color="#F63132"/>
<stop offset="1" stop-color="#9F1689"/>
</linearGradient>
<linearGradient id="paint17_linear_6443_15733" x1="18.8542" y1="30.7265" x2="19.8946" y2="30.7265" gradientUnits="userSpaceOnUse">
<stop stop-color="#EF8081"/>
<stop offset="0.619792" stop-color="#F63132"/>
<stop offset="1" stop-color="#9F1689"/>
</linearGradient>
<linearGradient id="paint18_linear_6443_15733" x1="21.275" y1="22.5089" x2="22.5277" y2="22.5089" gradientUnits="userSpaceOnUse">
<stop stop-color="#EF8081"/>
<stop offset="0.619792" stop-color="#F63132"/>
<stop offset="1" stop-color="#9F1689"/>
</linearGradient>
<linearGradient id="paint19_linear_6443_15733" x1="21.5358" y1="26.3377" x2="22.2687" y2="26.3377" gradientUnits="userSpaceOnUse">
<stop stop-color="#EF8081"/>
<stop offset="0.619792" stop-color="#F63132"/>
<stop offset="1" stop-color="#9F1689"/>
</linearGradient>
<linearGradient id="paint20_linear_6443_15733" x1="21.3816" y1="30.7265" x2="22.422" y2="30.7265" gradientUnits="userSpaceOnUse">
<stop stop-color="#EF8081"/>
<stop offset="0.619792" stop-color="#F63132"/>
<stop offset="1" stop-color="#9F1689"/>
</linearGradient>
<linearGradient id="paint21_linear_6443_15733" x1="7.96057" y1="21.3927" x2="23.2104" y2="21.3927" gradientUnits="userSpaceOnUse">
<stop stop-color="#EF8081"/>
<stop offset="0.619792" stop-color="#F63132"/>
<stop offset="1" stop-color="#9F1689"/>
</linearGradient>
<linearGradient id="paint22_linear_6443_15733" x1="7.43738" y1="18.832" x2="23.7337" y2="18.832" gradientUnits="userSpaceOnUse">
<stop stop-color="#EF8081"/>
<stop offset="0.619792" stop-color="#F63132"/>
<stop offset="1" stop-color="#9F1689"/>
</linearGradient>
<linearGradient id="paint23_linear_6443_15733" x1="9.95239" y1="17.8005" x2="21.2186" y2="17.8005" gradientUnits="userSpaceOnUse">
<stop stop-color="#EF8081"/>
<stop offset="0.619792" stop-color="#F63132"/>
<stop offset="1" stop-color="#9F1689"/>
</linearGradient>
<linearGradient id="paint24_linear_6443_15733" x1="9.16211" y1="12.8627" x2="22.0087" y2="12.8627" gradientUnits="userSpaceOnUse">
<stop stop-color="#EF8081"/>
<stop offset="0.619792" stop-color="#F63132"/>
<stop offset="1" stop-color="#9F1689"/>
</linearGradient>
<linearGradient id="paint25_linear_6443_15733" x1="9.16211" y1="14.0864" x2="22.0087" y2="14.0864" gradientUnits="userSpaceOnUse">
<stop stop-color="#EF8081"/>
<stop offset="0.619792" stop-color="#F63132"/>
<stop offset="1" stop-color="#9F1689"/>
</linearGradient>
<linearGradient id="paint26_linear_6443_15733" x1="9.54822" y1="13.6043" x2="9.91028" y2="13.6043" gradientUnits="userSpaceOnUse">
<stop stop-color="#EF8081"/>
<stop offset="0.619792" stop-color="#F63132"/>
<stop offset="1" stop-color="#9F1689"/>
</linearGradient>
<linearGradient id="paint27_linear_6443_15733" x1="10.3851" y1="13.6043" x2="10.7472" y2="13.6043" gradientUnits="userSpaceOnUse">
<stop stop-color="#EF8081"/>
<stop offset="0.619792" stop-color="#F63132"/>
<stop offset="1" stop-color="#9F1689"/>
</linearGradient>
<linearGradient id="paint28_linear_6443_15733" x1="11.2212" y1="13.6043" x2="11.5833" y2="13.6043" gradientUnits="userSpaceOnUse">
<stop stop-color="#EF8081"/>
<stop offset="0.619792" stop-color="#F63132"/>
<stop offset="1" stop-color="#9F1689"/>
</linearGradient>
<linearGradient id="paint29_linear_6443_15733" x1="12.058" y1="13.6043" x2="12.42" y2="13.6043" gradientUnits="userSpaceOnUse">
<stop stop-color="#EF8081"/>
<stop offset="0.619792" stop-color="#F63132"/>
<stop offset="1" stop-color="#9F1689"/>
</linearGradient>
<linearGradient id="paint30_linear_6443_15733" x1="12.8949" y1="13.6043" x2="13.257" y2="13.6043" gradientUnits="userSpaceOnUse">
<stop stop-color="#EF8081"/>
<stop offset="0.619792" stop-color="#F63132"/>
<stop offset="1" stop-color="#9F1689"/>
</linearGradient>
<linearGradient id="paint31_linear_6443_15733" x1="13.7308" y1="13.6043" x2="14.0929" y2="13.6043" gradientUnits="userSpaceOnUse">
<stop stop-color="#EF8081"/>
<stop offset="0.619792" stop-color="#F63132"/>
<stop offset="1" stop-color="#9F1689"/>
</linearGradient>
<linearGradient id="paint32_linear_6443_15733" x1="14.5677" y1="13.6043" x2="14.9298" y2="13.6043" gradientUnits="userSpaceOnUse">
<stop stop-color="#EF8081"/>
<stop offset="0.619792" stop-color="#F63132"/>
<stop offset="1" stop-color="#9F1689"/>
</linearGradient>
<linearGradient id="paint33_linear_6443_15733" x1="15.4047" y1="13.6043" x2="15.7667" y2="13.6043" gradientUnits="userSpaceOnUse">
<stop stop-color="#EF8081"/>
<stop offset="0.619792" stop-color="#F63132"/>
<stop offset="1" stop-color="#9F1689"/>
</linearGradient>
<linearGradient id="paint34_linear_6443_15733" x1="16.2406" y1="13.6043" x2="16.6027" y2="13.6043" gradientUnits="userSpaceOnUse">
<stop stop-color="#EF8081"/>
<stop offset="0.619792" stop-color="#F63132"/>
<stop offset="1" stop-color="#9F1689"/>
</linearGradient>
<linearGradient id="paint35_linear_6443_15733" x1="17.0775" y1="13.6043" x2="17.4396" y2="13.6043" gradientUnits="userSpaceOnUse">
<stop stop-color="#EF8081"/>
<stop offset="0.619792" stop-color="#F63132"/>
<stop offset="1" stop-color="#9F1689"/>
</linearGradient>
<linearGradient id="paint36_linear_6443_15733" x1="17.9144" y1="13.6043" x2="18.2765" y2="13.6043" gradientUnits="userSpaceOnUse">
<stop stop-color="#EF8081"/>
<stop offset="0.619792" stop-color="#F63132"/>
<stop offset="1" stop-color="#9F1689"/>
</linearGradient>
<linearGradient id="paint37_linear_6443_15733" x1="18.7505" y1="13.6043" x2="19.1126" y2="13.6043" gradientUnits="userSpaceOnUse">
<stop stop-color="#EF8081"/>
<stop offset="0.619792" stop-color="#F63132"/>
<stop offset="1" stop-color="#9F1689"/>
</linearGradient>
<linearGradient id="paint38_linear_6443_15733" x1="19.5873" y1="13.6043" x2="19.9493" y2="13.6043" gradientUnits="userSpaceOnUse">
<stop stop-color="#EF8081"/>
<stop offset="0.619792" stop-color="#F63132"/>
<stop offset="1" stop-color="#9F1689"/>
</linearGradient>
<linearGradient id="paint39_linear_6443_15733" x1="20.4242" y1="13.6043" x2="20.7863" y2="13.6043" gradientUnits="userSpaceOnUse">
<stop stop-color="#EF8081"/>
<stop offset="0.619792" stop-color="#F63132"/>
<stop offset="1" stop-color="#9F1689"/>
</linearGradient>
<linearGradient id="paint40_linear_6443_15733" x1="21.2601" y1="13.6043" x2="21.6222" y2="13.6043" gradientUnits="userSpaceOnUse">
<stop stop-color="#EF8081"/>
<stop offset="0.619792" stop-color="#F63132"/>
<stop offset="1" stop-color="#9F1689"/>
</linearGradient>
<linearGradient id="paint41_linear_6443_15733" x1="10.9725" y1="11.5139" x2="20.1968" y2="11.5139" gradientUnits="userSpaceOnUse">
<stop stop-color="#EF8081"/>
<stop offset="0.619792" stop-color="#F63132"/>
<stop offset="1" stop-color="#9F1689"/>
</linearGradient>
<linearGradient id="paint42_linear_6443_15733" x1="10.0616" y1="10.1963" x2="21.1085" y2="10.1963" gradientUnits="userSpaceOnUse">
<stop stop-color="#EF8081"/>
<stop offset="0.619792" stop-color="#F63132"/>
<stop offset="1" stop-color="#9F1689"/>
</linearGradient>
<linearGradient id="paint43_linear_6443_15733" x1="10.3727" y1="6.82455" x2="20.7985" y2="6.82455" gradientUnits="userSpaceOnUse">
<stop stop-color="#EF8081"/>
<stop offset="0.619792" stop-color="#F63132"/>
<stop offset="1" stop-color="#9F1689"/>
</linearGradient>
<linearGradient id="paint44_linear_6443_15733" x1="14.1694" y1="2.93945" x2="17.0008" y2="2.93945" gradientUnits="userSpaceOnUse">
<stop stop-color="#EF8081"/>
<stop offset="0.619792" stop-color="#F63132"/>
<stop offset="1" stop-color="#9F1689"/>
</linearGradient>
<linearGradient id="paint45_linear_6443_15733" x1="14.5686" y1="1.38895" x2="16.6044" y2="1.38895" gradientUnits="userSpaceOnUse">
<stop stop-color="#EF8081"/>
<stop offset="0.619792" stop-color="#F63132"/>
<stop offset="1" stop-color="#9F1689"/>
</linearGradient>
<linearGradient id="paint46_linear_6443_15733" x1="9.95239" y1="15.6645" x2="21.2186" y2="15.6645" gradientUnits="userSpaceOnUse">
<stop stop-color="#EF8081"/>
<stop offset="0.619792" stop-color="#F63132"/>
<stop offset="1" stop-color="#9F1689"/>
</linearGradient>
<linearGradient id="paint47_linear_6443_15733" x1="22.6044" y1="17.3065" x2="28.2688" y2="17.3065" gradientUnits="userSpaceOnUse">
<stop stop-color="#EF8081"/>
<stop offset="0.619792" stop-color="#F63132"/>
<stop offset="1" stop-color="#9F1689"/>
</linearGradient>
<linearGradient id="paint48_linear_6443_15733" x1="22.363" y1="15.7436" x2="28.5084" y2="15.7436" gradientUnits="userSpaceOnUse">
<stop stop-color="#EF8081"/>
<stop offset="0.619792" stop-color="#F63132"/>
<stop offset="1" stop-color="#9F1689"/>
</linearGradient>
<linearGradient id="paint49_linear_6443_15733" x1="22.8457" y1="13.4733" x2="28.0238" y2="13.4733" gradientUnits="userSpaceOnUse">
<stop stop-color="#EF8081"/>
<stop offset="0.619792" stop-color="#F63132"/>
<stop offset="1" stop-color="#9F1689"/>
</linearGradient>
<linearGradient id="paint50_linear_6443_15733" x1="24.6896" y1="11.4363" x2="26.1819" y2="11.4363" gradientUnits="userSpaceOnUse">
<stop stop-color="#EF8081"/>
<stop offset="0.619792" stop-color="#F63132"/>
<stop offset="1" stop-color="#9F1689"/>
</linearGradient>
<linearGradient id="paint51_linear_6443_15733" x1="25.1018" y1="10.3622" x2="25.7696" y2="10.3622" gradientUnits="userSpaceOnUse">
<stop stop-color="#EF8081"/>
<stop offset="0.619792" stop-color="#F63132"/>
<stop offset="1" stop-color="#9F1689"/>
</linearGradient>
<linearGradient id="paint52_linear_6443_15733" x1="2.9032" y1="17.3065" x2="8.56759" y2="17.3065" gradientUnits="userSpaceOnUse">
<stop stop-color="#EF8081"/>
<stop offset="0.619792" stop-color="#F63132"/>
<stop offset="1" stop-color="#9F1689"/>
</linearGradient>
<linearGradient id="paint53_linear_6443_15733" x1="2.66187" y1="15.7436" x2="8.80724" y2="15.7436" gradientUnits="userSpaceOnUse">
<stop stop-color="#EF8081"/>
<stop offset="0.619792" stop-color="#F63132"/>
<stop offset="1" stop-color="#9F1689"/>
</linearGradient>
<linearGradient id="paint54_linear_6443_15733" x1="3.14453" y1="13.4733" x2="8.32265" y2="13.4733" gradientUnits="userSpaceOnUse">
<stop stop-color="#EF8081"/>
<stop offset="0.619792" stop-color="#F63132"/>
<stop offset="1" stop-color="#9F1689"/>
</linearGradient>
<linearGradient id="paint55_linear_6443_15733" x1="4.9884" y1="11.4363" x2="6.4807" y2="11.4363" gradientUnits="userSpaceOnUse">
<stop stop-color="#EF8081"/>
<stop offset="0.619792" stop-color="#F63132"/>
<stop offset="1" stop-color="#9F1689"/>
</linearGradient>
<linearGradient id="paint56_linear_6443_15733" x1="5.40063" y1="10.3622" x2="6.06926" y2="10.3622" gradientUnits="userSpaceOnUse">
<stop stop-color="#EF8081"/>
<stop offset="0.619792" stop-color="#F63132"/>
<stop offset="1" stop-color="#9F1689"/>
</linearGradient>
<linearGradient id="paint57_linear_6443_15733" x1="6.90002" y1="1.23145" x2="11.3408" y2="1.23145" gradientUnits="userSpaceOnUse">
<stop stop-color="#EF8081"/>
<stop offset="0.619792" stop-color="#F63132"/>
<stop offset="1" stop-color="#9F1689"/>
</linearGradient>
<linearGradient id="paint58_linear_6443_15733" x1="21.5459" y1="4.71562" x2="28.7406" y2="4.71562" gradientUnits="userSpaceOnUse">
<stop stop-color="#EF8081"/>
<stop offset="0.619792" stop-color="#F63132"/>
<stop offset="1" stop-color="#9F1689"/>
</linearGradient>
<linearGradient id="paint59_linear_6443_15733" x1="0.748291" y1="5.63708" x2="1.91464" y2="5.63708" gradientUnits="userSpaceOnUse">
<stop stop-color="#EF8081"/>
<stop offset="0.619792" stop-color="#F63132"/>
<stop offset="1" stop-color="#9F1689"/>
</linearGradient>
<linearGradient id="paint60_linear_6443_15733" x1="4.07117" y1="7.05309" x2="7.9367" y2="7.05309" gradientUnits="userSpaceOnUse">
<stop stop-color="#EF8081"/>
<stop offset="0.619792" stop-color="#F63132"/>
<stop offset="1" stop-color="#9F1689"/>
</linearGradient>
<linearGradient id="paint61_linear_6443_15733" x1="2.44067" y1="5.63708" x2="5.08964" y2="5.63708" gradientUnits="userSpaceOnUse">
<stop stop-color="#EF8081"/>
<stop offset="0.619792" stop-color="#F63132"/>
<stop offset="1" stop-color="#9F1689"/>
</linearGradient>
</defs>
</svg>
