<svg width="120" height="48" viewBox="0 0 120 48" fill="none" xmlns="http://www.w3.org/2000/svg">
<path d="M44.7304 32.2316C44.7304 32.2316 44.2268 32.4058 43.0483 32.4058C38.5964 32.4058 40.0972 27.8954 37.3978 27.8954H36.7733V32.2993H33.3186V19.5039H38.2943C41.8699 19.5039 43.6728 20.6847 43.6728 23.6852C43.6728 25.5919 42.3433 26.5211 41.608 26.9179C42.6656 28.1471 42.585 29.657 44.1563 29.657H44.7404V32.2316H44.7304ZM37.9216 25.408C39.3115 25.408 40.2986 24.8563 40.2986 23.8013C40.2986 22.7366 39.4727 22.1462 38.1432 22.1462H36.7633V25.3983H37.9216V25.408Z" fill="#1B3280"/>
<path d="M55.7998 26.221C56.4444 26.7243 56.9783 27.5083 56.9783 28.6407C56.9783 31.3508 54.9034 32.2993 52.4458 32.2993H46.1406V19.5039H51.7709C54.4904 19.5039 56.0818 20.4718 56.0818 22.9689C56.0818 25.1467 54.6617 25.4757 53.9365 25.4757V25.5241C54.3796 25.5241 55.1451 25.7274 55.7998 26.221ZM50.9451 24.5853C52.0832 24.5853 52.5263 24.1594 52.5263 23.3464C52.5263 22.5624 51.9321 22.1559 50.6933 22.1559H49.6054V24.5853H50.9451ZM51.358 29.657C52.4861 29.657 52.9998 29.2795 52.9998 28.2729C52.9998 27.2663 52.2846 26.8598 51.2875 26.8598H49.6155V29.657H51.358Z" fill="#1B3280"/>
<path d="M58.6096 32.2993V19.5039H62.0845V29.657H67.4328V32.2993H58.6096Z" fill="#1B3280"/>
<path d="M70.7471 32.2993V19.5039H75.6119C78.3415 19.5039 79.9228 20.5105 79.9228 22.8625C79.9228 25.1757 78.5026 25.5629 77.858 25.5629V25.5919C78.7242 25.5919 80.8091 26.2984 80.8091 28.7472C80.8091 31.4089 78.6033 32.2993 76.1457 32.2993H70.7471ZM75.4709 24.895C76.9717 24.895 77.4652 24.1885 77.4652 23.1238C77.4652 22.0301 76.7198 21.3719 75.0781 21.3719H73.1442V24.895H75.4709ZM75.6925 30.441C77.0623 30.441 78.2206 30.0248 78.2206 28.4955C78.2206 27.0727 77.1228 26.5404 75.6825 26.5404H73.1543V30.4507H75.6925V30.441Z" fill="#EC1C24"/>
<path d="M90.0653 29.0085H85.2004L84.022 32.2993H81.5342L86.4393 19.5039H88.8667L93.7617 32.2993H91.2739L90.0653 29.0085ZM85.845 27.2276H89.4509L87.6379 22.3301L85.845 27.2276Z" fill="#EC1C24"/>
<path d="M103.068 32.2993L97.8508 23.6948V32.2993H95.4436V19.5039H97.9516L103.209 28.3794V19.5039H105.576V32.2993H103.068Z" fill="#EC1C24"/>
<path d="M119.446 30.5668C117.733 30.5668 117.693 27.8083 116.263 26.4243C116.132 26.2984 115.477 25.5435 114.379 25.2531L119.466 19.5039H116.404L111.307 25.2047V25.1757V19.5039H108.91V25.95V29.2892V32.309H111.307V29.2892V28.7181L112.798 27.0437H112.939C115.749 27.0437 114.843 32.3961 118.72 32.3961C119.506 32.3961 120 32.28 120 32.28V30.5668H119.446Z" fill="#EC1C24"/>
<path d="M6.65768 8.40276V0.282227H0V19.4947C0 14.7617 2.67918 10.6192 6.65768 8.40276Z" fill="#1B3280"/>
<path d="M14.1512 6.71875V13.1455C17.4347 13.5423 19.9931 16.233 19.9931 19.4948C19.9931 23.0469 17.0117 25.9119 13.3253 25.9119C9.64894 25.9119 6.65751 23.0469 6.65751 19.4948H6.64746V30.5867C8.61153 31.6708 10.8878 32.3096 13.3152 32.3096C20.678 32.3096 26.6406 26.5797 26.6406 19.4948C26.6507 12.6906 21.1211 7.12526 14.1512 6.71875Z" fill="#1B3280"/>
<path d="M6.65768 8.40278C2.67918 10.6096 0 14.7618 0 19.4947V31.3319V33.8968H6.65768V32.2224V30.5866V19.485H6.66776C6.66776 16.2233 9.21603 13.5326 12.4995 13.1357V6.70898C10.3743 6.83481 8.38002 7.4349 6.65768 8.40278Z" fill="#EC1C24"/>
<path d="M61.8434 45.4239C61.8434 45.4239 61.6521 45.4723 61.36 45.4723C60.8362 45.4723 60.5643 45.2013 60.6852 44.7367L60.6953 44.6883C60.5945 44.8335 60.0808 45.4819 59.0132 45.4819C58.0865 45.4819 57.3312 44.7851 57.7441 43.1881C58.1772 41.5136 59.2448 40.8555 60.2722 40.8555C61.1485 40.8555 61.4406 41.3588 61.5312 41.4652L61.6722 40.9135H62.6089L61.7427 44.2431C61.6722 44.5141 61.7226 44.6786 62.0348 44.6786L61.8434 45.4239ZM61.1284 42.5686C61.1586 42.4234 61.0881 41.7266 60.2622 41.7266C59.6377 41.7266 59.0434 42.1911 58.7815 43.1784C58.5197 44.1753 58.9427 44.6108 59.5168 44.6108C60.4333 44.6108 60.8262 43.6817 60.8262 43.7107L61.1284 42.5686Z" fill="#1B3280"/>
<path d="M62.8108 47.7178L64.2713 42.0945C64.3418 41.8331 64.2914 41.6686 63.9792 41.6686L64.1706 40.9233C64.1706 40.9233 64.3518 40.8749 64.654 40.8749C65.1375 40.8749 65.4497 41.1459 65.3389 41.5911L65.3288 41.6492C65.4598 41.475 65.9735 40.8652 67.0008 40.8652C67.9476 40.8652 68.7131 41.5428 68.3001 43.1494C67.8569 44.8336 66.749 45.4917 65.7317 45.4917C64.795 45.4917 64.6037 44.911 64.6037 44.911L63.8684 47.7178H62.8108V47.7178ZM64.8957 43.7495C64.8655 43.9044 64.9159 44.6109 65.7317 44.6109C66.3864 44.6109 66.9807 44.1464 67.2426 43.1591C67.5145 42.1138 67.0411 41.7267 66.4771 41.7267C65.6109 41.7267 65.1878 42.6268 65.1878 42.6268L64.8957 43.7495Z" fill="#1B3280"/>
<path d="M73.7083 45.4239C73.7083 45.4239 73.527 45.4723 73.2248 45.4723C72.6004 45.4723 72.3284 45.1335 72.5198 44.3882L72.963 42.7041C73.114 42.1331 72.9227 41.7362 72.3083 41.7362C71.6032 41.7362 71.1399 42.3847 71.0191 42.859L70.3442 45.4335H69.2866L70.1528 42.0944C70.2233 41.833 70.173 41.6685 69.8607 41.6685L70.0521 40.9232C70.0521 40.9232 70.2334 40.8748 70.5356 40.8748C71.0089 40.8748 71.3111 41.1555 71.2003 41.5911L71.16 41.7266C71.4219 41.2813 71.9557 40.8555 72.8219 40.8555C74.0104 40.8555 74.2824 41.6491 74.0306 42.6364L73.6176 44.2431C73.5471 44.5141 73.5975 44.6786 73.8997 44.6786L73.7083 45.4239Z" fill="#1B3280"/>
<path d="M75.4107 43.1687C75.7833 41.7459 76.8107 40.8555 78.1402 40.8555C79.4798 40.8555 80.0539 41.7459 79.6813 43.1687C79.3086 44.5818 78.2812 45.482 76.9316 45.482C75.6021 45.4916 75.038 44.6012 75.4107 43.1687ZM78.6338 43.1687C78.8755 42.2202 78.6035 41.7266 77.9085 41.7266C77.2236 41.7266 76.6899 42.2202 76.4381 43.1687C76.1863 44.1172 76.4582 44.6109 77.1531 44.6109C77.8683 44.6109 78.392 44.1172 78.6338 43.1687Z" fill="#1B3280"/>
<path d="M87.7087 45.3954C87.7087 45.3954 87.5073 45.4728 87.2555 45.4728C85.654 45.4728 86.7821 43.3531 85.3216 43.3531H84.7676L84.2238 45.4341H83.1763L84.9489 38.6299H85.9965L84.9691 42.5982H85.5734C86.349 42.5982 87.0842 41.9788 87.3562 40.9238H88.3433C88.1318 41.7368 87.608 42.6272 86.6008 42.9273C87.4267 43.3532 86.8224 44.6791 87.7994 44.6791H87.9001L87.7087 45.3954Z" fill="#1B3280"/>
<path d="M93.2786 45.4239C93.2786 45.4239 93.0872 45.4723 92.7951 45.4723C92.2714 45.4723 91.9994 45.2013 92.1203 44.7367L92.1303 44.6883C92.0296 44.8335 91.5159 45.4819 90.4483 45.4819C89.5216 45.4819 88.7662 44.7851 89.1792 43.1881C89.6123 41.5136 90.6799 40.8555 91.7073 40.8555C92.5836 40.8555 92.8757 41.3588 92.9663 41.4652L93.1073 40.9135H94.044L93.1779 44.2431C93.1074 44.5141 93.1577 44.6786 93.4699 44.6786L93.2786 45.4239ZM92.5634 42.5686C92.5936 42.4234 92.5231 41.7266 91.6972 41.7266C91.0727 41.7266 90.4785 42.1911 90.2166 43.1784C89.9548 44.1753 90.3778 44.6108 90.9519 44.6108C91.8685 44.6108 92.2512 43.6817 92.2613 43.7107L92.5634 42.5686Z" fill="#1B3280"/>
<path d="M97.3281 45.4341L99.1008 38.6299H100.158L99.403 41.5335C99.4131 41.5239 99.9167 40.856 100.924 40.856C101.871 40.856 102.636 41.5335 102.223 43.1402C101.78 44.8243 100.692 45.4825 99.6649 45.4825C98.7684 45.4825 98.5166 44.9308 98.426 44.8243L98.2648 45.4244H97.3281V45.4341ZM98.8188 43.7306C98.7785 43.8855 98.8188 44.6211 99.6548 44.6211C100.299 44.6211 100.894 44.1565 101.156 43.1693C101.427 42.1239 100.964 41.7368 100.4 41.7368C99.5339 41.7368 99.1008 42.6369 99.1008 42.6369L98.8188 43.7306Z" fill="#1B3280"/>
<path d="M107.531 45.4239C107.531 45.4239 107.339 45.4723 107.047 45.4723C106.523 45.4723 106.251 45.2013 106.372 44.7367L106.382 44.6883C106.271 44.8335 105.768 45.4819 104.7 45.4819C103.774 45.4819 103.018 44.7851 103.431 43.1881C103.864 41.5136 104.932 40.8555 105.959 40.8555C106.836 40.8555 107.128 41.3588 107.218 41.4652L107.359 40.9135H108.296L107.43 44.2431C107.359 44.5141 107.41 44.6786 107.722 44.6786L107.531 45.4239ZM106.815 42.5686C106.846 42.4234 106.775 41.7266 105.949 41.7266C105.325 41.7266 104.72 42.1911 104.469 43.1784C104.207 44.1753 104.63 44.6108 105.204 44.6108C106.12 44.6108 106.513 43.6817 106.513 43.7107L106.815 42.5686Z" fill="#1B3280"/>
<path d="M113.513 45.4239C113.513 45.4239 113.332 45.4723 113.03 45.4723C112.405 45.4723 112.133 45.1335 112.325 44.3882L112.768 42.7041C112.919 42.1331 112.728 41.7362 112.113 41.7362C111.408 41.7362 110.955 42.3847 110.824 42.859L110.149 45.4335H109.092L109.958 42.0944C110.028 41.833 109.978 41.6685 109.666 41.6685L109.857 40.9232C109.857 40.9232 110.038 40.8748 110.34 40.8748C110.814 40.8748 111.116 41.1555 111.005 41.5911L110.975 41.7266C111.237 41.2813 111.771 40.8555 112.637 40.8555C113.825 40.8555 114.097 41.6491 113.846 42.6364L113.433 44.2431C113.362 44.5141 113.412 44.6786 113.715 44.6786L113.513 45.4239Z" fill="#1B3280"/>
<path d="M119.365 45.3954C119.365 45.3954 119.164 45.4728 118.912 45.4728C117.311 45.4728 118.439 43.3531 116.978 43.3531H116.424L115.88 45.4341H114.833L116.606 38.6299H117.653L116.626 42.5982H117.23C118.006 42.5982 118.731 41.9788 119.013 40.9238H120C119.789 41.7368 119.265 42.6272 118.258 42.9273C119.083 43.3532 118.479 44.6791 119.456 44.6791H119.557L119.365 45.3954Z" fill="#1B3280"/>
</svg>
