<svg width="107" height="21" viewBox="0 0 107 21" fill="none" xmlns="http://www.w3.org/2000/svg">
<g clip-path="url(#clip0_100_391)">
<path d="M47.2648 14.1613C47.2648 14.1613 47.0592 14.2324 46.5779 14.2324C44.7601 14.2324 45.3729 12.3906 44.2707 12.3906H44.0156V14.1889H42.605V8.96411H44.6367C46.0968 8.96411 46.8329 9.44627 46.8329 10.6715C46.8329 11.45 46.2901 11.8295 45.9898 11.9915C46.4217 12.4934 46.3888 13.11 47.0304 13.11H47.2689V14.1613H47.2648ZM44.4845 11.375C45.0521 11.375 45.4551 11.1497 45.4551 10.7189C45.4551 10.2841 45.1179 10.0431 44.575 10.0431H44.0116V11.371H44.4845V11.375Z" fill="#1B3280"/>
<path d="M51.785 11.7069C52.0482 11.9124 52.2662 12.2326 52.2662 12.695C52.2662 13.8016 51.419 14.1889 50.4154 14.1889H47.8408V8.96411H50.1399C51.2503 8.96411 51.9001 9.35934 51.9001 10.379C51.9001 11.2683 51.3203 11.4026 51.0241 11.4026V11.4224C51.2051 11.4224 51.5177 11.5054 51.785 11.7069ZM49.8027 11.039C50.2674 11.039 50.4483 10.8651 50.4483 10.5331C50.4483 10.213 50.2057 10.047 49.6998 10.047H49.2556V11.039H49.8027ZM49.9713 13.11C50.4319 13.11 50.6417 12.9558 50.6417 12.5448C50.6417 12.1338 50.3496 11.9678 49.9425 11.9678H49.2597V13.11H49.9713Z" fill="#1B3280"/>
<path d="M52.9324 14.1889V8.96411H54.3513V13.11H56.5352V14.1889H52.9324Z" fill="#1B3280"/>
<path d="M57.8884 14.1889V8.96411H59.8749C60.9895 8.96411 61.6352 9.37514 61.6352 10.3355C61.6352 11.2801 61.0553 11.4382 60.792 11.4382V11.45C61.1457 11.45 61.9971 11.7385 61.9971 12.7385C61.9971 13.8253 61.0964 14.1889 60.0929 14.1889H57.8884ZM59.8173 11.1655C60.4301 11.1655 60.6317 10.877 60.6317 10.4422C60.6317 9.99564 60.3273 9.72688 59.6569 9.72688H58.8672V11.1655H59.8173ZM59.9078 13.4301C60.4671 13.4301 60.9401 13.2601 60.9401 12.6357C60.9401 12.0547 60.4918 11.8373 59.9037 11.8373H58.8714V13.4341H59.9078V13.4301Z" fill="#EC1C24"/>
<path d="M65.7767 12.8452H63.7902L63.3091 14.1889H62.2932L64.2961 8.96411H65.2873L67.2861 14.1889H66.2703L65.7767 12.8452ZM64.0535 12.118H65.5259L64.7856 10.1181L64.0535 12.118Z" fill="#EC1C24"/>
<path d="M71.086 14.1889L68.9556 10.6754V14.1889H67.9727V8.96411H68.9968L71.1435 12.5883V8.96411H72.11V14.1889H71.086Z" fill="#EC1C24"/>
<path d="M77.7736 13.4815C77.0742 13.4815 77.0578 12.3551 76.4739 11.7899C76.4204 11.7385 76.153 11.4303 75.7046 11.3117L77.7818 8.96411H76.5315L74.4502 11.2919V11.2801V8.96411H73.4714V11.5963V12.9598V14.1929H74.4502V12.9598V12.7266L75.059 12.0429H75.1166C76.264 12.0429 75.8941 14.2284 77.4772 14.2284C77.7981 14.2284 77.9999 14.181 77.9999 14.181V13.4815H77.7736Z" fill="#EC1C24"/>
<path d="M31.7186 4.43112V1.11523H29V8.96033C29 7.02769 30.094 5.33616 31.7186 4.43112Z" fill="#1B3280"/>
<path d="M34.7784 3.74353V6.36779C36.1191 6.52981 37.1638 7.62852 37.1638 8.96042C37.1638 10.4109 35.9464 11.5807 34.4411 11.5807C32.94 11.5807 31.7185 10.4109 31.7185 8.96042H31.7144V13.4896C32.5164 13.9323 33.4458 14.1931 34.437 14.1931C37.4435 14.1931 39.8782 11.8534 39.8782 8.96042C39.8823 6.18204 37.6244 3.90952 34.7784 3.74353Z" fill="#1B3280"/>
<path d="M31.7186 4.43114C30.094 5.33225 29 7.02774 29 8.96034V13.7939V14.8412H31.7186V14.1575V13.4895V8.95638H31.7227C31.7227 7.62452 32.7632 6.52581 34.104 6.36375V3.7395C33.2362 3.79088 32.4218 4.03592 31.7186 4.43114Z" fill="#EC1C24"/>
<path d="M54.2529 19.548C54.2529 19.548 54.1747 19.5678 54.0555 19.5678C53.8416 19.5678 53.7306 19.4572 53.7799 19.2674L53.7841 19.2477C53.7429 19.307 53.5331 19.5717 53.0972 19.5717C52.7188 19.5717 52.4104 19.2872 52.579 18.6351C52.7558 17.9513 53.1918 17.6826 53.6113 17.6826C53.9691 17.6826 54.0884 17.8881 54.1254 17.9316L54.183 17.7063H54.5654L54.2117 19.0659C54.183 19.1765 54.2035 19.2437 54.331 19.2437L54.2529 19.548ZM53.9609 18.3821C53.9732 18.3228 53.9444 18.0383 53.6072 18.0383C53.3522 18.0383 53.1095 18.228 53.0026 18.6311C52.8957 19.0382 53.0684 19.216 53.3028 19.216C53.6771 19.216 53.8375 18.8366 53.8375 18.8485L53.9609 18.3821Z" fill="#1B3280"/>
<path d="M54.6477 20.4848L55.2441 18.1886C55.2729 18.0819 55.2523 18.0147 55.1248 18.0147L55.203 17.7104C55.203 17.7104 55.2769 17.6906 55.4003 17.6906C55.5978 17.6906 55.7253 17.8013 55.68 17.9831L55.6759 18.0068C55.7294 17.9356 55.9391 17.6866 56.3586 17.6866C56.7452 17.6866 57.0578 17.9633 56.8892 18.6194C56.7082 19.3071 56.2558 19.5758 55.8404 19.5758C55.4579 19.5758 55.3798 19.3387 55.3798 19.3387L55.0796 20.4848H54.6477ZM55.499 18.8644C55.4867 18.9277 55.5073 19.2161 55.8404 19.2161C56.1077 19.2161 56.3504 19.0265 56.4574 18.6233C56.5684 18.1965 56.3751 18.0384 56.1448 18.0384C55.7911 18.0384 55.6183 18.406 55.6183 18.406L55.499 18.8644Z" fill="#1B3280"/>
<path d="M59.0975 19.548C59.0975 19.548 59.0235 19.5678 58.9001 19.5678C58.6451 19.5678 58.5341 19.4295 58.6122 19.1251L58.7932 18.4375C58.8548 18.2043 58.7767 18.0422 58.5259 18.0422C58.2379 18.0422 58.0488 18.307 57.9994 18.5007L57.7238 19.552H57.292L57.6457 18.1885C57.6745 18.0818 57.6539 18.0146 57.5264 18.0146L57.6046 17.7103C57.6046 17.7103 57.6786 17.6905 57.802 17.6905C57.9953 17.6905 58.1187 17.8051 58.0734 17.983L58.057 18.0383C58.1639 17.8565 58.3819 17.6826 58.7356 17.6826C59.2209 17.6826 59.3319 18.0067 59.2291 18.4098L59.0605 19.0659C59.0317 19.1765 59.0523 19.2437 59.1757 19.2437L59.0975 19.548Z" fill="#1B3280"/>
<path d="M59.7928 18.6272C59.9449 18.0462 60.3645 17.6826 60.9073 17.6826C61.4544 17.6826 61.6888 18.0462 61.5366 18.6272C61.3844 19.2042 60.9649 19.5718 60.4138 19.5718C59.871 19.5757 59.6406 19.2121 59.7928 18.6272ZM61.1089 18.6272C61.2076 18.2399 61.0965 18.0383 60.8127 18.0383C60.5331 18.0383 60.3151 18.2399 60.2123 18.6272C60.1095 19.0145 60.2205 19.2161 60.5043 19.2161C60.7963 19.2161 61.0102 19.0145 61.1089 18.6272Z" fill="#1B3280"/>
<path d="M64.8144 19.5365C64.8144 19.5365 64.7321 19.5681 64.6293 19.5681C63.9754 19.5681 64.436 18.7026 63.8396 18.7026H63.6134L63.3914 19.5523H62.9636L63.6874 16.7739H64.1152L63.6957 18.3943H63.9424C64.2591 18.3943 64.5593 18.1414 64.6704 17.7106H65.0735C64.9871 18.0426 64.7732 18.4062 64.362 18.5287C64.6992 18.7026 64.4524 19.244 64.8514 19.244H64.8925L64.8144 19.5365Z" fill="#1B3280"/>
<path d="M67.0889 19.548C67.0889 19.548 67.0107 19.5678 66.8914 19.5678C66.6776 19.5678 66.5665 19.4572 66.6159 19.2674L66.62 19.2477C66.5788 19.307 66.3691 19.5717 65.9331 19.5717C65.5547 19.5717 65.2463 19.2872 65.4149 18.6351C65.5918 17.9513 66.0277 17.6826 66.4472 17.6826C66.8051 17.6826 66.9243 17.8881 66.9613 17.9316L67.0189 17.7063H67.4014L67.0477 19.0659C67.0189 19.1765 67.0395 19.2437 67.167 19.2437L67.0889 19.548ZM66.7968 18.3821C66.8091 18.3228 66.7804 18.0383 66.4431 18.0383C66.1881 18.0383 65.9455 18.228 65.8385 18.6311C65.7316 19.0382 65.9044 19.216 66.1388 19.216C66.5131 19.216 66.6693 18.8366 66.6735 18.8485L66.7968 18.3821Z" fill="#1B3280"/>
<path d="M68.7424 19.5523L69.4663 16.7739H69.898L69.5897 17.9596C69.5938 17.9556 69.7994 17.6829 70.2108 17.6829C70.5974 17.6829 70.9098 17.9596 70.7412 18.6156C70.5603 19.3033 70.116 19.5721 69.6966 19.5721C69.3306 19.5721 69.2277 19.3468 69.1907 19.3033L69.1249 19.5483H68.7424V19.5523ZM69.3511 18.8567C69.3347 18.92 69.3511 19.2203 69.6925 19.2203C69.9555 19.2203 70.1985 19.0306 70.3055 18.6275C70.4161 18.2006 70.2271 18.0426 69.9968 18.0426C69.6431 18.0426 69.4663 18.4101 69.4663 18.4101L69.3511 18.8567Z" fill="#1B3280"/>
<path d="M72.9084 19.548C72.9084 19.548 72.83 19.5678 72.7108 19.5678C72.4968 19.5678 72.3857 19.4572 72.4352 19.2674L72.4392 19.2477C72.3939 19.307 72.1885 19.5717 71.7524 19.5717C71.3743 19.5717 71.0656 19.2872 71.2342 18.6351C71.4111 17.9513 71.8472 17.6826 72.2665 17.6826C72.6246 17.6826 72.7439 17.8881 72.7806 17.9316L72.8382 17.7063H73.2208L72.8672 19.0659C72.8382 19.1765 72.859 19.2437 72.9864 19.2437L72.9084 19.548ZM72.616 18.3821C72.6287 18.3228 72.5997 18.0383 72.2624 18.0383C72.0076 18.0383 71.7606 18.228 71.6581 18.6311C71.5511 19.0382 71.7238 19.216 71.9582 19.216C72.3323 19.216 72.4927 18.8366 72.4927 18.8485L72.616 18.3821Z" fill="#1B3280"/>
<path d="M75.3514 19.548C75.3514 19.548 75.2775 19.5678 75.1542 19.5678C74.8989 19.5678 74.7879 19.4295 74.8663 19.1251L75.0472 18.4375C75.1088 18.2043 75.0308 18.0422 74.7797 18.0422C74.4918 18.0422 74.3069 18.307 74.2534 18.5007L73.9778 19.552H73.5461L73.8998 18.1885C73.9283 18.0818 73.9079 18.0146 73.7805 18.0146L73.8585 17.7103C73.8585 17.7103 73.9324 17.6905 74.0557 17.6905C74.2493 17.6905 74.3726 17.8051 74.3273 17.983L74.315 18.0383C74.422 17.8565 74.6401 17.6826 74.9937 17.6826C75.4788 17.6826 75.5898 18.0067 75.4874 18.4098L75.3187 19.0659C75.2897 19.1765 75.3101 19.2437 75.4339 19.2437L75.3514 19.548Z" fill="#1B3280"/>
<path d="M77.7407 19.5365C77.7407 19.5365 77.6586 19.5681 77.5557 19.5681C76.902 19.5681 77.3626 18.7026 76.766 18.7026H76.5398L76.3177 19.5523H75.8901L76.6141 16.7739H77.0416L76.6223 18.3943H76.8689C77.1858 18.3943 77.4818 18.1414 77.597 17.7106H78C77.9138 18.0426 77.6999 18.4062 77.2887 18.5287C77.6256 18.7026 77.3789 19.244 77.7779 19.244H77.8191L77.7407 19.5365Z" fill="#1B3280"/>
</g>
<defs>
<clipPath id="clip0_100_391">
<rect width="49" height="19.6" fill="white" transform="translate(29 1)"/>
</clipPath>
</defs>
</svg>
