<svg width="65" height="24" viewBox="0 0 65 24" fill="none" xmlns="http://www.w3.org/2000/svg">
<g clip-path="url(#clip0_481_397)">
<path d="M59.0959 18.836C59.0604 18.836 59.0263 18.8219 59.0012 18.7968C58.9761 18.7717 58.962 18.7376 58.962 18.7021V1.00688C58.962 0.986993 58.9569 0.967401 58.9473 0.949981C58.9377 0.932561 58.9239 0.917843 58.9071 0.907242C58.8902 0.896641 58.871 0.890488 58.8511 0.889351C58.8313 0.888214 58.8114 0.892171 58.7935 0.900781C58.7935 0.900781 57.5699 1.74766 56.249 2.84814C55.531 3.43674 54.8468 4.06523 54.1995 4.73089C54.1995 4.73089 54.0239 4.89109 54.0239 5.01093V18.4131C54.0239 19.897 54.4036 21.0449 55.1527 21.825C55.9018 22.6051 57.3906 22.9991 59.0022 22.9991H60.9344C60.9557 22.9992 60.9768 22.995 60.9965 22.9869C61.0163 22.9788 61.0341 22.9669 61.0492 22.9519C61.0643 22.9368 61.0764 22.9189 61.0845 22.8992C61.0927 22.8795 61.0967 22.8584 61.0967 22.8371V18.9988C61.0967 18.9557 61.0797 18.9144 61.0492 18.884C61.0188 18.8535 60.9775 18.8365 60.9344 18.8365L59.0959 18.836Z" fill="#EF4349"/>
<path d="M52.8868 5.65886C52.8658 5.63063 52.8386 5.60771 52.8073 5.59177C52.776 5.57583 52.7413 5.56723 52.7062 5.56692C51.1965 5.56014 49.6868 5.55445 48.1771 5.54953C48.1298 5.54918 48.0836 5.56435 48.0459 5.59276C48.0081 5.62118 47.9808 5.66106 47.9681 5.70657C47.3255 7.99659 46.665 10.2884 45.9864 12.5818C45.4882 14.5307 44.9813 16.4805 44.4652 18.4309C43.9742 16.484 43.4744 14.5361 42.9664 12.5876C42.2561 10.2885 41.5397 7.98865 40.8165 5.68744C40.8024 5.6422 40.7741 5.60259 40.736 5.57438C40.6979 5.54616 40.652 5.53076 40.6046 5.5304C39.8582 8.30946 39.0965 11.0894 38.3198 13.8705C39.3055 16.8762 40.278 19.8806 41.2374 22.8834C41.2513 22.9277 41.279 22.9663 41.3165 22.9938C41.3539 23.0212 41.3992 23.0361 41.4457 23.036C43.3444 23.0324 45.2429 23.0278 47.1414 23.0218C47.1882 23.0214 47.2336 23.0064 47.2716 22.9791C47.3096 22.9518 47.3381 22.9133 47.3534 22.869C49.2976 17.186 51.1893 11.5135 52.9233 5.85839C52.9334 5.82461 52.9354 5.78895 52.9291 5.75428C52.9227 5.71961 52.9082 5.68687 52.8868 5.65886Z" fill="#F9D10A"/>
<path d="M40.6031 5.53012H40.2835H40.282C38.8142 5.52757 37.3464 5.52583 35.8784 5.52515H35.8486C35.799 5.5251 35.7508 5.54204 35.7119 5.57286C35.673 5.60367 35.6457 5.64654 35.6344 5.69486C35.0895 7.99285 34.5399 10.2915 33.9857 12.5905C33.6415 14.1216 33.2973 15.6528 32.9528 17.1842C32.5406 15.6511 32.1284 14.1179 31.7166 12.5848C31.056 10.2853 30.4005 7.98632 29.7498 5.68765C29.7368 5.6416 29.709 5.601 29.6708 5.57211C29.6326 5.54322 29.5862 5.52741 29.5384 5.52738C28.0821 5.52857 26.6258 5.53071 25.1695 5.53359C25.1212 5.53379 25.0742 5.54969 25.0356 5.57882C24.997 5.60795 24.9688 5.64867 24.9554 5.69511C24.286 7.99259 23.6227 10.2891 22.965 12.5845C22.5594 14.1139 22.1587 15.6429 21.7631 17.1713C21.4128 15.6461 21.068 14.1213 20.7284 12.597C20.1815 10.303 19.6503 8.01043 19.1351 5.71871C19.1245 5.67066 19.0978 5.62762 19.0594 5.59696C19.0209 5.5663 18.9731 5.54984 18.9239 5.55024C17.3803 5.55516 15.8375 5.56093 14.2959 5.56789C14.2615 5.5681 14.2277 5.57619 14.1968 5.59149C14.1659 5.60679 14.1388 5.62906 14.1178 5.65635C14.0967 5.68324 14.0821 5.7146 14.075 5.74804C14.0679 5.78147 14.0684 5.81603 14.0768 5.84917C15.5409 11.5053 17.1579 17.1765 18.8375 22.8573C18.8512 22.9039 18.8797 22.9449 18.9185 22.9741C18.9573 23.0033 19.0046 23.0192 19.0531 23.0196C20.6925 23.025 22.332 23.0298 23.9719 23.0335C24.0196 23.0336 24.066 23.0181 24.1041 22.9893C24.1421 22.9604 24.1696 22.9199 24.1823 22.874C24.8474 20.4713 25.5265 18.0673 26.2196 15.6622C26.554 14.3931 26.8913 13.1612 27.23 11.8915C27.5727 13.1597 27.9171 14.3906 28.2644 15.6598C28.9599 18.0668 29.6585 20.4743 30.3606 22.8824C30.374 22.9286 30.402 22.9693 30.4404 22.9982C30.4787 23.0271 30.5253 23.043 30.5733 23.0432C32.2454 23.0444 33.9173 23.0444 35.5892 23.0432C35.6376 23.0429 35.6848 23.0266 35.7234 22.9972C35.7619 22.9678 35.7898 22.9266 35.8029 22.8799C36.6383 19.8676 37.4738 16.8557 38.3096 13.8441L38.3185 13.8709C39.0913 11.0898 39.8528 8.30992 40.6031 5.53086V5.53012Z" fill="#EF4349"/>
<path d="M13.8287 17.2755C13.7524 15.5 13.0907 13.5286 8.86947 12.1734C8.64453 12.0991 8.4223 12.0287 8.20602 11.9597C6.70224 11.4816 5.24362 11.0977 5.21105 10.1977C5.18052 9.36771 6.09752 8.89543 7.33235 8.85218C8.39339 8.81299 9.51874 9.19676 10.8551 10.0581C10.9133 10.0956 10.9839 10.1089 11.0519 10.0953C11.1198 10.0818 11.18 10.0425 11.2194 9.98551C11.896 9.02166 12.5786 8.04969 13.2671 7.06956C13.2884 7.04001 13.3035 7.00662 13.3118 6.97116C13.3201 6.9357 13.3215 6.89875 13.3156 6.86282C13.3101 6.82829 13.2975 6.79528 13.2785 6.76592C13.2596 6.73655 13.2345 6.7115 13.2052 6.69236C11.4009 5.45103 9.24734 4.81822 7.05827 4.8859C2.96525 5.01312 0.0555534 7.18738 0.203132 10.5252C0.299822 12.8422 2.20653 14.3819 5.36039 15.4521C5.55911 15.5211 5.75785 15.589 5.95352 15.6556C7.51302 16.1856 8.89871 16.687 8.93382 17.6353C8.96715 18.535 8.20224 19.0821 6.80482 19.1289C6.74783 19.1307 6.69089 19.1319 6.63287 19.1319C5.33392 19.1319 4.00425 18.6533 2.47426 17.6164C2.44503 17.5968 2.41215 17.5831 2.3776 17.5762C2.34306 17.5692 2.30754 17.569 2.27299 17.5759C2.23844 17.5828 2.20559 17.5965 2.17633 17.6162C2.14708 17.6358 2.122 17.6611 2.10253 17.6905C1.42486 18.7018 0.740555 19.7224 0.0498184 20.752C0.00907905 20.8086 -0.007758 20.8789 0.00285521 20.9478C0.0134684 21.0167 0.0508435 21.0786 0.106721 21.1203C2.00266 22.3979 4.23239 23.0897 6.51857 23.1091C6.61246 23.1091 6.70574 23.1072 6.79861 23.1039C11.2557 22.9703 13.9819 20.7782 13.8287 17.2755Z" fill="#EF4349"/>
<path d="M63.9935 20.0745L63.8516 19.7527H63.6638V20.0745H63.508V19.224H63.8665C63.9037 19.2194 63.9414 19.2229 63.9771 19.2342C64.0128 19.2454 64.0456 19.2641 64.0735 19.2891C64.1014 19.3141 64.1238 19.3447 64.1389 19.379C64.1539 19.4133 64.1614 19.4504 64.161 19.4879C64.1631 19.5389 64.1494 19.5894 64.1215 19.6322C64.0935 19.675 64.053 19.7081 64.0054 19.7267L64.161 20.0743L63.9935 20.0745ZM63.8663 19.3596H63.6625V19.6141H63.869C63.9565 19.6141 64.0069 19.5685 64.0069 19.4869C64.0066 19.4691 64.0026 19.4518 63.9952 19.4357C63.9879 19.4195 63.9773 19.4051 63.9642 19.3932C63.951 19.3813 63.9355 19.3721 63.9187 19.3664C63.9019 19.3607 63.8842 19.3585 63.8665 19.3599L63.8663 19.3596Z" fill="#EF4349"/>
<path d="M63.8068 20.5224C63.6341 20.5224 63.4653 20.4713 63.3217 20.3753C63.1782 20.2794 63.0663 20.143 63.0002 19.9835C62.9341 19.824 62.9168 19.6484 62.9505 19.4791C62.9842 19.3097 63.0674 19.1541 63.1895 19.032C63.3117 18.91 63.4672 18.8269 63.6366 18.7933C63.8059 18.7596 63.9815 18.7768 64.141 18.843C64.3005 18.9091 64.4369 19.0209 64.5328 19.1645C64.6287 19.3081 64.6797 19.4771 64.6797 19.6498C64.6794 19.8812 64.5874 20.1029 64.4237 20.2665C64.2601 20.4301 64.0382 20.5222 63.8068 20.5224ZM63.8068 18.9359C63.6659 18.9359 63.5283 18.9777 63.4112 19.0559C63.2941 19.1341 63.2028 19.2454 63.1488 19.3755C63.0948 19.5055 63.0804 19.6488 63.1078 19.7869C63.1351 19.9251 63.2029 20.052 63.3023 20.1517C63.4018 20.2514 63.5288 20.3194 63.6669 20.347C63.805 20.3747 63.9481 20.3607 64.0784 20.307C64.2086 20.2533 64.3199 20.1623 64.3984 20.0454C64.4769 19.9284 64.5189 19.7909 64.5192 19.65C64.519 19.461 64.444 19.2797 64.3104 19.1459C64.1769 19.012 63.9958 18.9364 63.8068 18.9359Z" fill="#EF4349"/>
</g>
<defs>
<clipPath id="clip0_481_397">
<rect width="64.6797" height="22.2216" fill="white" transform="translate(0 0.88916)"/>
</clipPath>
</defs>
</svg>
