<svg width="227" height="218" viewBox="0 0 227 218" fill="none" xmlns="http://www.w3.org/2000/svg">
<g clip-path="url(#clip0_1_6446)">
<rect width="227" height="218" fill="#0F0E0E"/>
<g opacity="0.8">
<g filter="url(#filter0_f_1_6446)">
<circle cx="101.409" cy="101.409" r="51.4091" fill="#F11514" fill-opacity="0.3"/>
</g>
<g filter="url(#filter1_f_1_6446)">
<circle cx="34.7222" cy="172.731" r="35.269" fill="#AF157B"/>
</g>
<g filter="url(#filter2_f_1_6446)">
<circle cx="25" cy="98" r="39" fill="#5454FD"/>
</g>
</g>
<path fill-rule="evenodd" clip-rule="evenodd" d="M179.404 141.255C178.997 141.092 178.444 141 177.869 141C177.294 141 176.743 141.092 176.336 141.256C175.929 141.419 175.699 141.641 175.697 141.872V204.1C175.684 204.219 175.73 204.337 175.834 204.447C175.937 204.558 176.095 204.659 176.298 204.744C176.502 204.83 176.746 204.898 177.016 204.944C177.286 204.991 177.577 205.015 177.871 205.015C178.165 205.015 178.455 204.991 178.726 204.944C178.996 204.898 179.24 204.83 179.443 204.744C179.646 204.659 179.804 204.558 179.908 204.447C180.011 204.337 180.058 204.219 180.045 204.1V141.872C180.043 141.641 179.812 141.419 179.404 141.255ZM137.776 141.255C137.368 141.092 136.816 141 136.24 141C135.953 140.999 135.669 141.021 135.404 141.064C135.138 141.108 134.897 141.172 134.693 141.253C134.489 141.334 134.327 141.43 134.216 141.537C134.106 141.643 134.048 141.757 134.047 141.872V204.101C134.047 204.334 134.277 204.557 134.687 204.722C135.096 204.887 135.652 204.98 136.231 204.98C136.811 204.98 137.366 204.887 137.776 204.722C138.186 204.557 138.416 204.334 138.416 204.101V141.872C138.414 141.641 138.184 141.419 137.776 141.255ZM249.828 156.664C250.113 156.664 250.396 156.687 250.659 156.731C250.923 156.775 251.162 156.839 251.364 156.92C251.566 157.001 251.726 157.098 251.835 157.204C251.944 157.31 252 157.423 252 157.538V188.436C251.975 188.662 251.735 188.874 251.33 189.03C250.925 189.186 250.387 189.273 249.826 189.273C249.265 189.273 248.726 189.186 248.321 189.03C247.916 188.874 247.677 188.662 247.652 188.436V157.536C247.654 157.305 247.884 157.083 248.292 156.92C248.7 156.756 249.252 156.664 249.828 156.664ZM151.717 156.92C151.31 156.756 150.758 156.664 150.182 156.664C149.606 156.664 149.054 156.756 148.646 156.92C148.238 157.083 148.008 157.305 148.005 157.537V188.436C148.03 188.662 148.27 188.875 148.675 189.03C149.08 189.186 149.619 189.273 150.179 189.273C150.74 189.273 151.279 189.186 151.684 189.03C152.089 188.875 152.329 188.662 152.354 188.436V157.538C152.354 157.306 152.125 157.084 151.717 156.92ZM235.505 165.286C236.083 165.286 236.636 165.378 237.044 165.543C237.452 165.707 237.682 165.93 237.682 166.162V179.811C237.682 180.043 237.452 180.266 237.044 180.43C236.636 180.595 236.083 180.687 235.505 180.687C234.928 180.687 234.375 180.595 233.967 180.43C233.559 180.266 233.329 180.043 233.329 179.811V166.162C233.329 165.93 233.559 165.707 233.967 165.543C234.375 165.378 234.928 165.286 235.505 165.286ZM222.347 168.453C221.939 168.289 221.387 168.197 220.81 168.197C220.524 168.197 220.24 168.22 219.976 168.264C219.712 168.308 219.472 168.373 219.27 168.455C219.068 168.536 218.908 168.633 218.8 168.74C218.692 168.847 218.637 168.961 218.638 169.076V176.897C218.663 177.122 218.903 177.335 219.308 177.491C219.713 177.647 220.252 177.734 220.812 177.734C221.373 177.734 221.912 177.647 222.317 177.491C222.722 177.335 222.962 177.122 222.986 176.897V169.071C222.985 168.839 222.755 168.617 222.347 168.453ZM108.74 165.286C109.026 165.286 109.309 165.308 109.573 165.352C109.837 165.396 110.077 165.461 110.28 165.542C110.482 165.623 110.642 165.72 110.751 165.826C110.86 165.933 110.916 166.047 110.916 166.162V179.811C110.929 179.929 110.882 180.047 110.779 180.158C110.675 180.269 110.517 180.37 110.314 180.455C110.111 180.541 109.867 180.609 109.597 180.655C109.326 180.701 109.036 180.725 108.742 180.725C108.448 180.725 108.157 180.701 107.887 180.655C107.617 180.609 107.373 180.541 107.169 180.455C106.966 180.37 106.808 180.269 106.705 180.158C106.601 180.047 106.555 179.929 106.568 179.811V166.162C106.567 166.047 106.623 165.933 106.732 165.827C106.841 165.721 107.001 165.624 107.202 165.543C107.404 165.461 107.644 165.397 107.908 165.353C108.171 165.309 108.454 165.286 108.74 165.286ZM96.7088 168.453C96.3008 168.289 95.7479 168.197 95.1715 168.197C94.8852 168.197 94.6017 168.22 94.3374 168.264C94.0731 168.308 93.8331 168.373 93.6312 168.455C93.4294 168.536 93.2697 168.633 93.1613 168.74C93.0529 168.847 92.9979 168.961 92.9996 169.076V176.897C93.0243 177.122 93.2641 177.335 93.6691 177.491C94.0741 177.647 94.6131 177.734 95.1736 177.734C95.7342 177.734 96.2731 177.647 96.6781 177.491C97.0831 177.335 97.323 177.122 97.3477 176.897V169.071C97.3465 168.839 97.1168 168.617 96.7088 168.453ZM205.177 168.197C205.463 168.197 205.746 168.219 206.01 168.263C206.274 168.307 206.514 168.371 206.716 168.452C206.918 168.534 207.078 168.63 207.188 168.736C207.297 168.842 207.354 168.956 207.354 169.071V176.897C207.329 177.122 207.089 177.335 206.684 177.491C206.279 177.647 205.74 177.734 205.179 177.734C204.619 177.734 204.08 177.647 203.675 177.491C203.27 177.335 203.03 177.122 203.005 176.897V169.076C203.004 168.961 203.059 168.847 203.167 168.74C203.275 168.633 203.435 168.536 203.637 168.455C203.839 168.373 204.079 168.308 204.343 168.264C204.608 168.22 204.891 168.197 205.177 168.197ZM123.087 149.722C122.679 149.558 122.125 149.466 121.548 149.466C120.972 149.466 120.419 149.558 120.012 149.723C119.605 149.887 119.376 150.109 119.376 150.341V195.632C119.363 195.75 119.41 195.868 119.513 195.979C119.617 196.089 119.775 196.19 119.978 196.276C120.181 196.361 120.425 196.429 120.696 196.476C120.966 196.522 121.257 196.546 121.55 196.546C121.844 196.546 122.135 196.522 122.405 196.476C122.676 196.429 122.92 196.361 123.123 196.276C123.326 196.19 123.484 196.089 123.587 195.979C123.691 195.868 123.737 195.75 123.724 195.632V150.341C123.724 150.109 123.495 149.886 123.087 149.722ZM163.554 161.054C163.841 161.053 164.126 161.076 164.393 161.12C164.659 161.164 164.9 161.229 165.104 161.311C165.307 161.393 165.468 161.49 165.576 161.597C165.685 161.704 165.74 161.819 165.738 161.935V184.038C165.751 184.156 165.704 184.274 165.601 184.385C165.498 184.495 165.34 184.596 165.136 184.682C164.933 184.767 164.689 184.835 164.419 184.882C164.149 184.928 163.858 184.952 163.564 184.952C163.27 184.952 162.979 184.928 162.709 184.882C162.439 184.835 162.195 184.767 161.992 184.682C161.789 184.596 161.631 184.495 161.527 184.385C161.424 184.274 161.377 184.156 161.39 184.038V161.935C161.388 161.82 161.443 161.706 161.551 161.599C161.659 161.493 161.818 161.396 162.018 161.314C162.219 161.232 162.458 161.167 162.722 161.123C162.985 161.078 163.268 161.055 163.554 161.054ZM193.195 161.12C192.931 161.076 192.648 161.054 192.363 161.054C192.076 161.054 191.792 161.077 191.528 161.121C191.263 161.166 191.023 161.231 190.821 161.313C190.619 161.394 190.459 161.492 190.351 161.598C190.243 161.705 190.189 161.82 190.191 161.935V184.038C190.178 184.156 190.225 184.274 190.328 184.385C190.431 184.495 190.589 184.596 190.793 184.682C190.996 184.767 191.24 184.835 191.51 184.882C191.78 184.928 192.071 184.952 192.365 184.952C192.659 184.952 192.95 184.928 193.22 184.882C193.49 184.835 193.734 184.767 193.937 184.682C194.14 184.596 194.298 184.495 194.402 184.385C194.505 184.274 194.552 184.156 194.539 184.038V161.928C194.539 161.813 194.483 161.699 194.373 161.593C194.264 161.487 194.103 161.391 193.901 161.31C193.699 161.228 193.459 161.164 193.195 161.12Z" fill="url(#paint0_linear_1_6446)"/>
</g>
<defs>
<filter id="filter0_f_1_6446" x="-50" y="-50" width="302.818" height="302.818" filterUnits="userSpaceOnUse" color-interpolation-filters="sRGB">
<feFlood flood-opacity="0" result="BackgroundImageFix"/>
<feBlend mode="normal" in="SourceGraphic" in2="BackgroundImageFix" result="shape"/>
<feGaussianBlur stdDeviation="50" result="effect1_foregroundBlur_1_6446"/>
</filter>
<filter id="filter1_f_1_6446" x="-100.547" y="37.4619" width="270.538" height="270.538" filterUnits="userSpaceOnUse" color-interpolation-filters="sRGB">
<feFlood flood-opacity="0" result="BackgroundImageFix"/>
<feBlend mode="normal" in="SourceGraphic" in2="BackgroundImageFix" result="shape"/>
<feGaussianBlur stdDeviation="50" result="effect1_foregroundBlur_1_6446"/>
</filter>
<filter id="filter2_f_1_6446" x="-164" y="-91" width="378" height="378" filterUnits="userSpaceOnUse" color-interpolation-filters="sRGB">
<feFlood flood-opacity="0" result="BackgroundImageFix"/>
<feBlend mode="normal" in="SourceGraphic" in2="BackgroundImageFix" result="shape"/>
<feGaussianBlur stdDeviation="75" result="effect1_foregroundBlur_1_6446"/>
</filter>
<linearGradient id="paint0_linear_1_6446" x1="-137.928" y1="173.291" x2="247.944" y2="173.291" gradientUnits="userSpaceOnUse">
<stop offset="0.572917" stop-color="#C838D5" stop-opacity="0"/>
<stop offset="0.744792" stop-color="#33142C" stop-opacity="0.57"/>
<stop offset="1" stop-color="#650E35"/>
</linearGradient>
<clipPath id="clip0_1_6446">
<rect width="227" height="218" fill="white"/>
</clipPath>
</defs>
</svg>
