<svg width="90" height="90" viewBox="0 0 90 90" fill="none" xmlns="http://www.w3.org/2000/svg">
<g clip-path="url(#clip0_86_6420)">
<rect width="90" height="90" rx="45" fill="white"/>
<g opacity="0.3" filter="url(#filter0_f_86_6420)">
<ellipse cx="92.5" cy="37" rx="31.5" ry="32" fill="#FF8989"/>
</g>
<g opacity="0.3" filter="url(#filter1_f_86_6420)">
<circle cx="40" cy="56" r="44" fill="#E53617"/>
</g>
<g opacity="0.3" filter="url(#filter2_f_86_6420)">
<ellipse cx="70.5" cy="80.5" rx="34.5" ry="35.5" fill="#5454FD"/>
</g>
<path d="M16.943 50V39.44H24.591V40.912H18.655V43.952H23.295V45.392H18.655V48.528H24.815V50H16.943ZM28.1229 42L30.3789 45.424L30.6989 45.472L33.9469 50H31.9149L29.5629 46.48L29.1949 46.352L26.0589 42H28.1229ZM33.8989 42L30.7629 46.288L30.4109 46.272L27.8509 50H25.8989L29.3069 45.44L29.6429 45.472L31.9309 42H33.8989ZM35.6718 53.36V42H37.1918L37.3198 44.24L37.0958 43.968C37.2238 43.552 37.4211 43.184 37.6878 42.864C37.9544 42.544 38.2851 42.2933 38.6798 42.112C39.0851 41.9307 39.5278 41.84 40.0078 41.84C40.6584 41.84 41.2504 42.0053 41.7838 42.336C42.3171 42.6667 42.7384 43.1413 43.0478 43.76C43.3571 44.368 43.5118 45.1093 43.5118 45.984C43.5118 46.8587 43.3518 47.6107 43.0318 48.24C42.7224 48.8587 42.2958 49.3333 41.7518 49.664C41.2184 49.9947 40.6211 50.16 39.9598 50.16C39.2771 50.16 38.6958 49.984 38.2158 49.632C37.7358 49.2693 37.3944 48.8107 37.1918 48.256L37.3838 47.984V53.36H35.6718ZM39.5918 48.768C40.2851 48.768 40.8238 48.5227 41.2078 48.032C41.6024 47.5413 41.7998 46.864 41.7998 46C41.7998 45.136 41.6078 44.4587 41.2238 43.968C40.8398 43.4667 40.3064 43.216 39.6238 43.216C39.1758 43.216 38.7811 43.3333 38.4398 43.568C38.1091 43.792 37.8478 44.112 37.6558 44.528C37.4744 44.9333 37.3838 45.424 37.3838 46C37.3838 46.5653 37.4744 47.056 37.6558 47.472C37.8371 47.888 38.0931 48.208 38.4238 48.432C38.7544 48.656 39.1438 48.768 39.5918 48.768ZM47.367 38.4V47.76C47.367 48.1547 47.4363 48.4267 47.575 48.576C47.7137 48.7253 47.943 48.8 48.263 48.8C48.455 48.8 48.615 48.7893 48.743 48.768C48.8817 48.736 49.0523 48.6827 49.255 48.608L49.063 49.888C48.8817 49.9733 48.6737 50.0373 48.439 50.08C48.2043 50.1333 47.9697 50.16 47.735 50.16C47.0203 50.16 46.4923 49.9787 46.151 49.616C45.8203 49.2427 45.655 48.672 45.655 47.904V38.4H47.367ZM54.1594 41.84C54.938 41.84 55.626 42.0053 56.2234 42.336C56.8207 42.6667 57.2847 43.1467 57.6154 43.776C57.9567 44.3947 58.1274 45.136 58.1274 46C58.1274 46.864 57.9567 47.6107 57.6154 48.24C57.2847 48.8587 56.8207 49.3333 56.2234 49.664C55.626 49.9947 54.938 50.16 54.1594 50.16C53.3807 50.16 52.6927 49.9947 52.0954 49.664C51.498 49.3333 51.0287 48.8587 50.6874 48.24C50.346 47.6107 50.1754 46.864 50.1754 46C50.1754 45.136 50.346 44.3947 50.6874 43.776C51.0287 43.1467 51.498 42.6667 52.0954 42.336C52.6927 42.0053 53.3807 41.84 54.1594 41.84ZM54.1594 43.184C53.6794 43.184 53.2687 43.296 52.9274 43.52C52.5967 43.7333 52.3407 44.048 52.1594 44.464C51.978 44.88 51.8874 45.392 51.8874 46C51.8874 46.5973 51.978 47.1093 52.1594 47.536C52.3407 47.952 52.5967 48.272 52.9274 48.496C53.2687 48.7093 53.6794 48.816 54.1594 48.816C54.6394 48.816 55.0447 48.7093 55.3754 48.496C55.706 48.272 55.962 47.952 56.1434 47.536C56.3247 47.1093 56.4154 46.5973 56.4154 46C56.4154 45.392 56.3247 44.88 56.1434 44.464C55.962 44.048 55.706 43.7333 55.3754 43.52C55.0447 43.296 54.6394 43.184 54.1594 43.184ZM60.2811 50V42H61.7371L61.8971 43.44C62.1105 42.9173 62.4251 42.5227 62.8411 42.256C63.2678 41.9787 63.7905 41.84 64.4091 41.84C64.5691 41.84 64.7291 41.856 64.8891 41.888C65.0491 41.9093 65.1825 41.9467 65.2891 42L65.0491 43.504C64.9318 43.4613 64.7985 43.4293 64.6491 43.408C64.5105 43.376 64.3185 43.36 64.0731 43.36C63.7425 43.36 63.4171 43.4507 63.0971 43.632C62.7771 43.8027 62.5105 44.064 62.2971 44.416C62.0945 44.768 61.9931 45.216 61.9931 45.76V50H60.2811ZM70.223 50.16C69.423 50.16 68.719 49.9947 68.111 49.664C67.503 49.3333 67.0283 48.8587 66.687 48.24C66.3563 47.6107 66.191 46.864 66.191 46C66.191 45.136 66.3563 44.3947 66.687 43.776C67.0283 43.1467 67.4977 42.6667 68.095 42.336C68.6923 42.0053 69.3697 41.84 70.127 41.84C70.9057 41.84 71.567 42 72.111 42.32C72.655 42.64 73.071 43.0773 73.359 43.632C73.647 44.1867 73.791 44.816 73.791 45.52C73.791 45.712 73.7857 45.8933 73.775 46.064C73.7643 46.2347 73.7483 46.384 73.727 46.512H67.295V45.2H72.975L72.127 45.456C72.127 44.7307 71.9457 44.176 71.583 43.792C71.2203 43.3973 70.7243 43.2 70.095 43.2C69.6363 43.2 69.2363 43.3067 68.895 43.52C68.5537 43.7333 68.2923 44.0533 68.111 44.48C67.9297 44.896 67.839 45.408 67.839 46.016C67.839 46.6133 67.935 47.12 68.127 47.536C68.319 47.952 68.591 48.2667 68.943 48.48C69.295 48.6933 69.711 48.8 70.191 48.8C70.7243 48.8 71.1563 48.6987 71.487 48.496C71.8177 48.2933 72.079 48.0107 72.271 47.648L73.631 48.288C73.439 48.672 73.1777 49.008 72.847 49.296C72.527 49.5733 72.143 49.7867 71.695 49.936C71.247 50.0853 70.7563 50.16 70.223 50.16Z" fill="#0F0E0E"/>
</g>
<defs>
<filter id="filter0_f_86_6420" x="11" y="-45" width="163" height="164" filterUnits="userSpaceOnUse" color-interpolation-filters="sRGB">
<feFlood flood-opacity="0" result="BackgroundImageFix"/>
<feBlend mode="normal" in="SourceGraphic" in2="BackgroundImageFix" result="shape"/>
<feGaussianBlur stdDeviation="25" result="effect1_foregroundBlur_86_6420"/>
</filter>
<filter id="filter1_f_86_6420" x="-54" y="-38" width="188" height="188" filterUnits="userSpaceOnUse" color-interpolation-filters="sRGB">
<feFlood flood-opacity="0" result="BackgroundImageFix"/>
<feBlend mode="normal" in="SourceGraphic" in2="BackgroundImageFix" result="shape"/>
<feGaussianBlur stdDeviation="25" result="effect1_foregroundBlur_86_6420"/>
</filter>
<filter id="filter2_f_86_6420" x="-14" y="-5" width="169" height="171" filterUnits="userSpaceOnUse" color-interpolation-filters="sRGB">
<feFlood flood-opacity="0" result="BackgroundImageFix"/>
<feBlend mode="normal" in="SourceGraphic" in2="BackgroundImageFix" result="shape"/>
<feGaussianBlur stdDeviation="25" result="effect1_foregroundBlur_86_6420"/>
</filter>
<clipPath id="clip0_86_6420">
<rect width="90" height="90" rx="45" fill="white"/>
</clipPath>
</defs>
</svg>
