<svg width="24" height="24" viewBox="0 0 24 24" fill="none" xmlns="http://www.w3.org/2000/svg">
<g opacity="0.6">
<path d="M6.4999 10C6.2769 10 6.0629 10.034 5.8499 10.065C5.9189 9.83303 5.9899 9.59703 6.1039 9.38503C6.2179 9.07703 6.3959 8.81003 6.5729 8.54103C6.7209 8.25003 6.9819 8.05303 7.1739 7.80403C7.3749 7.56203 7.6489 7.40103 7.8659 7.20003C8.0789 6.99003 8.3579 6.88503 8.5799 6.73703C8.8119 6.60403 9.0139 6.45703 9.2299 6.38703L9.7689 6.16503L10.2429 5.96803L9.7579 4.03003L9.1609 4.17403C8.9699 4.22203 8.7369 4.27803 8.4719 4.34503C8.2009 4.39503 7.9119 4.53203 7.5899 4.65703C7.2719 4.79903 6.9039 4.89503 6.5619 5.12303C6.2179 5.34103 5.8209 5.52303 5.4709 5.81503C5.1319 6.11603 4.7229 6.37703 4.4209 6.76003C4.0909 7.11803 3.7649 7.49403 3.5119 7.92203C3.2189 8.33003 3.0199 8.77803 2.8099 9.22103C2.6199 9.66403 2.4669 10.117 2.3419 10.557C2.1049 11.439 1.9989 12.277 1.9579 12.994C1.9239 13.712 1.9439 14.309 1.9859 14.741C2.0009 14.945 2.0289 15.143 2.0489 15.28L2.0739 15.448L2.0999 15.442C2.27776 16.2729 2.6872 17.0364 3.28086 17.6442C3.87452 18.2521 4.62814 18.6794 5.45454 18.8769C6.28094 19.0743 7.14635 19.0337 7.95066 18.7599C8.75496 18.486 9.46531 17.99 9.99951 17.3293C10.5337 16.6686 10.8699 15.8701 10.9693 15.0263C11.0687 14.1825 10.9271 13.3278 10.561 12.5611C10.1949 11.7943 9.61924 11.1469 8.90055 10.6937C8.18187 10.2405 7.34956 9.99997 6.4999 10ZM17.4999 10C17.2769 10 17.0629 10.034 16.8499 10.065C16.9189 9.83303 16.9899 9.59703 17.1039 9.38503C17.2179 9.07703 17.3959 8.81003 17.5729 8.54103C17.7209 8.25003 17.9819 8.05303 18.1739 7.80403C18.3749 7.56203 18.6489 7.40103 18.8659 7.20003C19.0789 6.99003 19.3579 6.88503 19.5799 6.73703C19.8119 6.60403 20.0139 6.45703 20.2299 6.38703L20.7689 6.16503L21.2429 5.96803L20.7579 4.03003L20.1609 4.17403C19.9699 4.22203 19.7369 4.27803 19.4719 4.34503C19.2009 4.39503 18.9119 4.53203 18.5899 4.65703C18.2729 4.80003 17.9039 4.89503 17.5619 5.12403C17.2179 5.34203 16.8209 5.52403 16.4709 5.81603C16.1319 6.11703 15.7229 6.37803 15.4209 6.76003C15.0909 7.11803 14.7649 7.49403 14.5119 7.92203C14.2189 8.33003 14.0199 8.77803 13.8099 9.22103C13.6199 9.66403 13.4669 10.117 13.3419 10.557C13.1049 11.439 12.9989 12.277 12.9579 12.994C12.9239 13.712 12.9439 14.309 12.9859 14.741C13.0009 14.945 13.0289 15.143 13.0489 15.28L13.0739 15.448L13.0999 15.442C13.2778 16.2729 13.6872 17.0364 14.2809 17.6442C14.8745 18.2521 15.6281 18.6794 16.4545 18.8769C17.2809 19.0743 18.1463 19.0337 18.9507 18.7599C19.755 18.486 20.4653 17.99 20.9995 17.3293C21.5337 16.6686 21.8699 15.8701 21.9693 15.0263C22.0687 14.1825 21.9271 13.3278 21.561 12.5611C21.1949 11.7943 20.6192 11.1469 19.9006 10.6937C19.1819 10.2405 18.3496 9.99997 17.4999 10Z" fill="white"/>
</g>
</svg>
